<svg width="874" height="483" viewBox="0 0 874 483" fill="none" xmlns="http://www.w3.org/2000/svg">
<g clip-path="url(#clip0_49_151)">
<path d="M218.28 122.87C212.54 119.39 217.31 121.37 213.23 120.84C214.62 119.46 215.55 117.77 216.71 117.45C215.76 116.72 214.93 118.19 215.44 115.58C215.95 112.96 214.87 112.86 214.87 112.86L216.9 110.97C215.34 111.37 214.24 107.75 213.73 110.36C214.24 107.75 213.31 109.74 213.82 107.12C214.33 104.5 215.62 109.09 216.14 106.48C216.65 103.86 211.65 100.96 210.64 98.6601C210.4 96.5201 211.01 93.3001 210.02 90.6501C208.28 91.5501 207.97 91.4901 207.99 90.7901L208.4 88.6901C207.63 89.2501 206.55 88.3401 206.68 87.4801C207.79 86.7901 208.56 89.2601 209.07 86.6501C209.15 86.2601 195.06 64.3101 185.95 58.1101C181.6 52.7101 174.86 48.1801 170.05 41.7101C169.43 43.1801 168.76 43.6001 168.76 43.6001L167.45 41.3301C165.75 38.8301 163.72 37.2601 161.3 35.7301C160.76 37.1701 160.1 37.5901 160.1 37.5901C157.21 29.6801 145.58 30.4601 143.32 24.4801C143.49 25.5401 142.17 26.6901 141.4 27.4801C141.09 25.5501 140.37 23.0901 139.08 22.1401C139.49 23.6901 138.37 23.7901 137.59 24.5701C137.28 22.6401 136.75 20.0601 134.11 19.5501C131.47 19.0401 135.28 21.9501 132.64 21.4401C130 20.9301 133.58 19.4501 130.94 18.9401C128.31 18.4301 126.84 20.3301 124.21 19.8101C121.57 19.3001 124.09 17.6201 121.45 17.1101C118.81 16.6001 116.62 19.4401 114.85 19.2601C115.34 17.5701 115.97 17.1501 117.13 16.8301C115.12 15.9001 113.66 17.7901 112.8 17.6701C112.09 16.5701 115.12 15.9101 112.49 15.3901C109.85 14.8801 106.11 16.3601 103.02 16.8401C102.4 15.7801 102.46 15.4801 103.41 14.1901C101.85 14.5901 99.49 16.2001 97.54 16.8701L96.14 14.9601C97.18 14.4601 98.47 14.2001 98.47 14.2001C96.98 13.4901 95.72 14.3401 94.26 14.2101C93.83 15.6001 93.85 16.3001 92.99 17.0601C92.49 16.0401 92.77 15.3901 92.45 14.2401C91.72 15.1901 93.72 16.1201 91.09 15.6001C89.51 15.3001 88.45 14.3201 87.61 13.6501C87.59 13.8401 87.55 14.0701 87.49 14.3701C86.98 16.9901 79.31 17.8401 76.56 20.0701C78.04 20.6901 78.26 22.3701 78.19 23.1501C76.13 23.6401 75.87 22.6101 74.57 21.1201C71.46 25.1801 65.02 23.6101 62.92 23.3501C60.85 29.5401 47.74 30.0601 45.63 29.6501C39.3 28.4301 32.09 10.7601 24.97 9.39007C22.34 8.88007 19.81 10.5701 17.18 10.0601C15.07 9.66007 1.89995 9.83007 0.259953 18.2001C-0.250047 20.8101 6.26995 49.7501 7.05995 65.2401C8.03995 84.7001 7.69995 104.55 7.39995 122.81C7.27995 128.34 10.71 138.01 10.19 140.62C9.67995 143.24 9.94995 153.06 9.42995 155.67C8.91995 158.29 7.11995 156.31 6.60995 158.93C6.08995 161.54 9.74995 176.51 10.93 184.73C11.69 183.25 10.21 182.43 12.85 182.93C15.49 183.44 12.57 190.1 13.06 193.12C8.46995 195.22 0.609953 200.66 0.0999527 203.27C-0.410047 205.88 1.18995 209.03 2.35995 210.75C3.44995 212.18 21.96 225.8 20.39 233.78C18.26 244.64 21.1 259.52 20.96 267.94C21.44 273.22 19.65 279.52 20.3 286.02C20.67 290.44 23.37 296.77 22.86 299.39C22.35 302 20.75 298.98 20.24 301.6C19.73 304.21 20.43 312.25 22.34 316.78C20.55 322.36 23.44 324.33 23.21 325.51C20.64 338.59 24.25 348.1 23.56 351.63C22.41 357.51 19.99 356.77 26.37 365.21C25.34 365.7 24.26 364.8 23.75 367.41C23.24 370.03 29.25 372.81 28.74 375.43C28.27 377.82 28.51 377.31 27.9 377.79C33.41 383.81 30.3 395.12 32.27 403.75C39.23 403.08 35.53 410.45 36.76 412.77C35.72 413.31 33.4 413.95 31.94 415.04C34.39 425.75 32.22 438.8 32.85 450.48C42.25 452.41 46.07 465.77 46 466.16C45.48 468.77 45.61 467.33 44.08 465.89C44.43 468.81 45.08 471.11 46.27 473.8C46.98 472.32 48.01 471.82 48.81 471.04C49.65 473.8 47.74 481.69 53.68 482.84C54.07 482.92 63.87 478.28 68.24 478.05C69.98 479.41 70.5 481.59 71.57 483.02C80.84 481.95 94.27 479.83 100.32 473.4C101.89 471.67 106.31 472.47 107.89 471.43C114.53 466.87 115.09 458.52 116.34 454.51C117.33 454.19 125.39 446.47 125.65 445.16C125.73 444.77 121.21 437.8 122.79 429.44C121.21 427.59 120.89 424.46 120.07 421.9C116.57 421.43 116.61 420.47 115.29 418.88C112.97 415.46 112.73 410.51 113.63 405.93C115.68 395.47 114.83 394.22 115.34 391.6C115.86 388.98 119.43 387.5 119.95 384.89C120.03 384.5 119.3 382.59 120 378.64C116.02 375.5 112.26 372.64 109.66 370.36C110.69 369.91 111.46 372.39 111.97 369.78C113.5 361.94 105.43 366.78 105.32 358.88C106.41 358.23 107.89 357.05 108.07 355.71C105.99 354.02 103.63 350.55 102.97 348.59C104.03 348.01 106.16 349.12 106.67 346.5C107.18 343.88 104.35 340.78 102.73 338.68C103.76 338.18 104.21 339.51 105.81 339.48C104.96 337.63 103.05 336.19 102.28 335.34C103.32 334.83 104.29 336.27 104.8 333.65C105.31 331.04 102.79 332.72 103.31 330.11C103.82 327.5 105.75 328.81 106.26 326.2L108.87 312.86C108.94 312.48 101.16 285.4 99.58 271.28C99.33 271.25 98.97 271.19 98.45 271.09C95.82 270.58 96.36 269.76 95.59 268.91C96.62 268.41 97.91 268.15 97.91 268.15C95.89 267.34 93.38 265.39 92.18 263.71C92.39 262.87 94.5 263.28 95.01 260.66C95.52 258.05 88.9 241.57 89.42 238.96C89.57 238.17 93.87 241.37 98.53 226.47C100 226.89 100.94 224.6 101.96 222.92C103.23 225.18 105.92 227.73 106.93 230.39C106.93 230.39 107.58 229.27 108.52 228.53C110.12 229.87 110.98 232.27 112.25 232.47C114.97 230.7 117.48 229.01 120.23 226.99C119.3 225.34 118.53 224.49 118.58 223.73C121.65 223.44 128.54 223.7 129.06 221.09C129.98 216.38 144.54 215.69 146.51 214.71C150.27 212.99 155.32 209.16 159.32 206.08C157.85 205.46 157.42 204.84 157.52 204.02C160.88 202.7 164.27 201.26 166.3 201.13C168.39 198.22 188.35 186.65 189.74 179.58C189.82 179.19 202.32 166.35 207.33 162.42C206.69 159.81 207.23 156.52 204.74 153.26C206.69 152.95 208.15 155.45 209.65 155.61L210.79 149.79C209.93 148.36 208.87 148.16 208.1 147.31C209.13 146.8 209.37 149.18 209.89 146.57C209.37 149.18 211.55 147.27 213.07 148.78L214.45 141.74C211.11 138.86 212.08 138.17 212.16 137.78C212.67 135.16 213.55 134.74 215.53 134.08L217.61 136.58C217.51 132.67 214.95 129.09 215.47 126.47C215.98 123.86 218.09 124.27 218.26 122.9L218.28 122.87ZM150.76 135.37C142.41 152.49 111.15 170.51 89.66 171.83C86.11 166.94 83.95 152.69 86.05 149.03C85.28 148.06 83.07 148.82 80.95 146.84C80.95 146.84 82.24 146.7 83.27 146.29C73.32 139.63 77.56 130.37 72.09 119.26C72.3 118.05 73.6 117.91 74.67 117.29C74.18 114.24 70.25 111.69 70.77 109.07C71.29 106.46 73.31 107.39 73.52 106.34C73.72 105.3 72.44 103.42 69.97 102.79C70.1 101.34 72.43 100.71 72.95 98.0901C73.47 95.4701 68.67 91.8401 69.19 89.2201C69.71 86.6101 71.52 88.5801 71.73 87.7501C70.1 85.4401 67.44 82.8701 65.35 81.1801C65.53 79.8401 67.19 78.5901 69.27 78.1001C69.56 76.2701 66.86 73.9701 65.05 71.1501C66.64 68.9601 68.12 67.0701 69.83 65.0101C88.19 68.4501 94.25 68.5101 96.9 69.0201C99.56 69.5301 98.38 67.1301 101.04 67.6401C103.3 68.0701 117.66 78.4201 122.98 79.4301C125.63 79.9401 127.11 78.0501 129.77 78.5601C132.43 79.0701 138.13 92.1001 140.79 92.6101C143.44 93.1201 140.14 90.3101 142.8 90.8201C145.45 91.3301 151.45 100.64 155.63 106.73C157.45 109.39 155.78 114.28 156.44 117.94C156.5 118.37 151.31 123.38 157.95 125.49C155.18 129.01 153.56 129.79 150.81 135.37H150.76Z" fill="white"/>
<path d="M424.27 256.049C396.45 206.739 353.33 132.89 307.04 94.0295C303.39 90.9795 296.64 88.6095 292.08 87.5495C291.11 86.7295 290.55 84.1695 287.58 83.7495C281.19 82.8595 277 85.7195 276.39 89.9695C275.97 92.9095 278.7 99.2695 278.29 102.19C278.14 103.22 264.04 125.63 263.44 129.88L260.06 153.63C259.64 156.57 253.11 176.89 252.62 179.81L243.08 246.76L223.51 308.17C227.36 319.8 220.24 331.1 218.59 342.68C215.87 361.74 231.63 366.81 247.8 380.81C267.03 362.32 277.32 372.799 280.56 350.079C280.98 347.149 284.59 330.31 285.01 327.37C285.43 324.44 284.31 306.789 284.68 303.859L290.8 260.92C314.26 252.73 339.31 246.41 359.66 247.96C364.75 261.58 376.75 287.48 376.33 290.41C375.43 296.71 380.55 310.73 393.18 312.49C396.15 312.9 402.59 310.21 405.57 310.62C408.54 311.03 413.98 315.37 416.96 315.78C419.93 316.19 425.97 313.42 430 312.6C431.56 307.89 440.53 299.17 441.18 294.63C442.1 288.17 425.73 258.64 424.28 256.04L424.27 256.049ZM301.88 204.34C302.89 180.69 307.81 159.99 306.01 139.32C315.25 151.85 327.25 172.1 334.39 188.43C323.25 193.15 313.23 200.03 301.88 204.34Z" fill="white"/>
<path d="M586.17 216.71C581.28 212.74 573.18 212.45 567.66 209.74C555.92 203.93 540.9 196.02 533.1 191.38C539.62 180.62 547.53 175.36 548.83 166.27C549.25 163.34 554.52 147.52 554.01 129.8C553.31 104.87 524.32 80.0296 507.15 72.5496L491.77 70.4096C471.43 67.5796 449.68 72.0496 431.31 95.8196C429.99 97.5796 427.82 97.4196 427.4 100.36C425.81 111.5 440.04 132.11 442.84 142.22C445.12 150.62 449.18 159.41 451.38 167.35C462.22 205.05 462.32 244.02 479.24 280.95L476.52 283.01C483.21 296.3 492.42 291.68 499.73 301.13L505.15 301.88C505.56 300.26 504.59 297.31 503.67 296.5C505.83 296.05 507.93 296.4 509.62 296.4C507.31 278.21 507.96 266.14 503.92 248.67C502.83 243.59 493.42 223.79 493.75 221.45C494.17 218.52 500.19 218.75 503.16 219.17C503.9 219.27 541.04 251.95 560.49 254.65C563.46 255.06 574.48 254.2 582.05 255.08C582.62 252.34 581.84 248.91 583.1 246.94C585.15 247.32 587.36 248.82 588.93 248.91C591.05 244.09 594.04 240.17 594.46 237.24C594.84 234.6 590.11 219.98 586.19 216.74L586.17 216.71ZM476.7 157.9C471.15 143.58 459.56 120.99 455.13 107.57C468.37 100.95 468.6 101.89 475.79 102.84C496.3 105.54 500.57 112.39 498.4 126.87C497.35 133.9 501.23 134.02 506.22 141.27C502.15 147.21 486.34 155.04 476.7 157.9Z" fill="white"/>
<path d="M563.51 46.5099C575.96 48.2799 596.34 93.3399 596.86 94.9099C602.61 110.47 609.86 133.12 617.99 148.72C622.23 156.85 622.8 164.95 633.13 176.81C658.44 157.39 673.89 142.84 695.41 145.89C702 146.82 705.32 153.33 712.22 153.41C710.68 155.11 708.18 155.96 707.08 156.51C711.96 160.22 709.97 155.96 714.11 161.79C715.01 160.89 717.52 160.05 719.51 158.99C719.63 160.76 718.23 160.99 717.13 161.52C719.05 162.56 721.56 161.71 723.96 163.93C719.81 163.81 717.49 164.65 714.29 164.83C717.32 165.89 722.08 166.6 724.51 168.67C720.34 170.73 719.2 172.45 719.08 173.34C718.67 176.3 719.18 176.97 720.84 177.58C713.94 183.28 708.66 191.22 700.32 194.25C690.71 197.86 681.36 202.85 673.14 206.06C662.71 210.15 649.18 208.41 637.12 212.04C637.09 212.92 637.91 215.18 638.65 218.27C636.94 218.32 635.35 216.89 632.42 216.47C629.49 216.06 629.18 217.04 627.31 218.15C626.08 215.24 625.63 209.49 622.69 209.07C619.76 208.65 624.12 211.69 621.19 211.27C610.06 209.69 598.11 175.91 596.93 172.58C582.77 132.78 565.2 89.2599 557.31 48.4199C560.14 47.3099 560.58 46.0999 563.51 46.5199V46.5099Z" fill="white"/>
<path d="M737.01 18.5799C740.01 18.9899 754.46 24.5299 763.24 25.8999C763.19 27.4999 764.05 29.8499 764.47 35.0499C762.07 35.8999 724.96 55.5199 724.8 56.6799C724.38 59.5899 729.37 66.4499 731.96 71.3299C745.71 66.1499 746.53 61.4399 756.86 62.8399C759.85 63.2499 772.68 67.3799 780.26 68.5899C780.04 71.3499 782.04 73.6699 783.96 77.9199C771.11 84.9999 764.29 92.7099 747.93 99.1599C752.56 108.83 758.23 120.3 762.58 130.15C765.17 129.33 797.01 121.77 798.36 121.95C805.54 122.93 803.06 131.64 803 132.08C801.44 142.85 787.57 147.65 777.42 153.8C775.99 153.31 775.08 153.19 773.96 153.29C767.46 156.79 768.66 158.56 768.37 160.6C767.95 163.51 766.48 164.76 764.61 167.17C752.74 162 742.62 155.86 733.43 151.3C714.41 133.52 707.84 105.83 701.33 86.5299C696.45 71.7599 691.61 41.4499 692.03 38.5299C692.45 35.6199 694.35 31.9399 697.61 29.0299C707.92 26.0599 734.63 18.2299 737.02 18.5599L737.01 18.5799Z" fill="white"/>
<path d="M847.46 0.0595767C861.8 2.02958 859.63 41.2596 858.97 45.8896C858.55 48.7796 854.19 62.3396 853.78 65.2296C852.99 70.7196 875.02 102.07 872.99 116.24C872.57 119.14 869.88 121.12 869.46 124.01C869.04 126.91 871.33 127.81 870.91 130.71C870.49 133.6 866.45 136.58 865.82 139.32C836.25 127.4 832.46 92.1196 827.77 67.9396C820.61 63.5496 810.82 58.6196 804.01 52.5196C796.24 45.6996 774.74 19.3896 775.62 13.1696C776.04 10.2796 777.3 9.85958 777.71 8.22958L783.89 9.07958C796.02 10.6596 819.79 34.6196 826.59 38.5196C827.92 35.5096 827.59 29.1596 828 26.2696C828.87 20.1896 838.14 -1.25042 847.45 0.0295767L847.46 0.0595767Z" fill="white"/>
</g>
<defs>
<clipPath id="clip0_49_151">
<rect width="874" height="483" fill="white"/>
</clipPath>
</defs>
</svg>
