<svg id="home-svg-logo" style="opacity: 0;" xmlns="http://www.w3.org/2000/svg" viewBox="0 0 874 483" class="loaded">
  <path class="p" d="M218.28,122.87c-5.74-3.48-.97-1.5-5.05-2.03,1.39-1.38,2.32-3.07,3.48-3.39-.95-.73-1.78,.74-1.27-1.87,.51-2.62-.57-2.72-.57-2.72l2.03-1.89c-1.56,.4-2.66-3.22-3.17-.61,.51-2.61-.42-.62,.09-3.24,.51-2.62,1.8,1.97,2.32-.64,.51-2.62-4.49-5.52-5.5-7.82-.24-2.14,.37-5.36-.62-8.01-1.74,.9-2.05,.84-2.03,.14l.41-2.1c-.77,.56-1.85-.35-1.72-1.21,1.11-.69,1.88,1.78,2.39-.83,.08-.39-14.01-22.34-23.12-28.54-4.35-5.4-11.09-9.93-15.9-16.4-.62,1.47-1.29,1.89-1.29,1.89l-1.31-2.27c-1.7-2.5-3.73-4.07-6.15-5.6-.54,1.44-1.2,1.86-1.2,1.86-2.89-7.91-14.52-7.13-16.78-13.11,.17,1.06-1.15,2.21-1.92,3-.31-1.93-1.03-4.39-2.32-5.34,.41,1.55-.71,1.65-1.49,2.43-.31-1.93-.84-4.51-3.48-5.02-2.64-.51,1.17,2.4-1.47,1.89-2.64-.51,.94-1.99-1.7-2.5-2.63-.51-4.1,1.39-6.73,.87-2.64-.51-.12-2.19-2.76-2.7-2.64-.51-4.83,2.33-6.6,2.15,.49-1.69,1.12-2.11,2.28-2.43-2.01-.93-3.47,.96-4.33,.84-.71-1.1,2.32-1.76-.31-2.28-2.64-.51-6.38,.97-9.47,1.45-.62-1.06-.56-1.36,.39-2.65-1.56,.4-3.92,2.01-5.87,2.68l-1.4-1.91c1.04-.5,2.33-.76,2.33-.76-1.49-.71-2.75,.14-4.21,.01-.43,1.39-.41,2.09-1.27,2.85-.5-1.02-.22-1.67-.54-2.82-.73,.95,1.27,1.88-1.36,1.36-1.58-.3-2.64-1.28-3.48-1.95-.02,.19-.06,.42-.12,.72-.51,2.62-8.18,3.47-10.93,5.7,1.48,.62,1.7,2.3,1.63,3.08-2.06,.49-2.32-.54-3.62-2.03-3.11,4.06-9.55,2.49-11.65,2.23-2.07,6.19-15.18,6.71-17.29,6.3-6.33-1.22-13.54-18.89-20.66-20.26-2.63-.51-5.16,1.18-7.79,.67-2.11-.4-15.28-.23-16.92,8.14-.51,2.61,6.01,31.55,6.8,47.04,.98,19.46,.64,39.31,.34,57.57-.12,5.53,3.31,15.2,2.79,17.81-.51,2.62-.24,12.44-.76,15.05-.51,2.62-2.31,.64-2.82,3.26-.52,2.61,3.14,17.58,4.32,25.8,.76-1.48-.72-2.3,1.92-1.8,2.64,.51-.28,7.17,.21,10.19-4.59,2.1-12.45,7.54-12.96,10.15-.51,2.61,1.09,5.76,2.26,7.48,1.09,1.43,19.6,15.05,18.03,23.03-2.13,10.86,.71,25.74,.57,34.16,.48,5.28-1.31,11.58-.66,18.08,.37,4.42,3.07,10.75,2.56,13.37-.51,2.61-2.11-.41-2.62,2.21-.51,2.61,.19,10.65,2.1,15.18-1.79,5.58,1.1,7.55,.87,8.73-2.57,13.08,1.04,22.59,.35,26.12-1.15,5.88-3.57,5.14,2.81,13.58-1.03,.49-2.11-.41-2.62,2.2-.51,2.62,5.5,5.4,4.99,8.02-.47,2.39-.23,1.88-.84,2.36,5.51,6.02,2.4,17.33,4.37,25.96,6.96-.67,3.26,6.7,4.49,9.02-1.04,.54-3.36,1.18-4.82,2.27,2.45,10.71,.28,23.76,.91,35.44,9.4,1.93,13.22,15.29,13.15,15.68-.52,2.61-.39,1.17-1.92-.27,.35,2.92,1,5.22,2.19,7.91,.71-1.48,1.74-1.98,2.54-2.76,.84,2.76-1.07,10.65,4.87,11.8,.39,.08,10.19-4.56,14.56-4.79,1.74,1.36,2.26,3.54,3.33,4.97,9.27-1.07,22.7-3.19,28.75-9.62,1.57-1.73,5.99-.93,7.57-1.97,6.64-4.56,7.2-12.91,8.45-16.92,.99-.32,9.05-8.04,9.31-9.35,.08-.39-4.44-7.36-2.86-15.72-1.58-1.85-1.9-4.98-2.72-7.54-3.5-.47-3.46-1.43-4.78-3.02-2.32-3.42-2.56-8.37-1.66-12.95,2.05-10.46,1.2-11.71,1.71-14.33,.52-2.62,4.09-4.1,4.61-6.71,.08-.39-.65-2.3,.05-6.25-3.98-3.14-7.74-6-10.34-8.28,1.03-.45,1.8,2.03,2.31-.58,1.53-7.84-6.54-3-6.65-10.9,1.09-.65,2.57-1.83,2.75-3.17-2.08-1.69-4.44-5.16-5.1-7.12,1.06-.58,3.19,.53,3.7-2.09,.51-2.62-2.32-5.72-3.94-7.82,1.03-.5,1.48,.83,3.08,.8-.85-1.85-2.76-3.29-3.53-4.14,1.04-.51,2.01,.93,2.52-1.69,.51-2.61-2.01-.93-1.49-3.54,.51-2.61,2.44-1.3,2.95-3.91l2.61-13.34c.07-.38-7.71-27.46-9.29-41.58-.25-.03-.61-.09-1.13-.19-2.63-.51-2.09-1.33-2.86-2.18,1.03-.5,2.32-.76,2.32-.76-2.02-.81-4.53-2.76-5.73-4.44,.21-.84,2.32-.43,2.83-3.05,.51-2.61-6.11-19.09-5.59-21.7,.15-.79,4.45,2.41,9.11-12.49,1.47,.42,2.41-1.87,3.43-3.55,1.27,2.26,3.96,4.81,4.97,7.47,0,0,.65-1.12,1.59-1.86,1.6,1.34,2.46,3.74,3.73,3.94,2.72-1.77,5.23-3.46,7.98-5.48-.93-1.65-1.7-2.5-1.65-3.26,3.07-.29,9.96-.03,10.48-2.64,.92-4.71,15.48-5.4,17.45-6.38,3.76-1.72,8.81-5.55,12.81-8.63-1.47-.62-1.9-1.24-1.8-2.06,3.36-1.32,6.75-2.76,8.78-2.89,2.09-2.91,22.05-14.48,23.44-21.55,.08-.39,12.58-13.23,17.59-17.16-.64-2.61-.1-5.9-2.59-9.16,1.95-.31,3.41,2.19,4.91,2.35l1.14-5.82c-.86-1.43-1.92-1.63-2.69-2.48,1.03-.51,1.27,1.87,1.79-.74-.52,2.61,1.66,.7,3.18,2.21l1.38-7.04c-3.34-2.88-2.37-3.57-2.29-3.96,.51-2.62,1.39-3.04,3.37-3.7l2.08,2.5c-.1-3.91-2.66-7.49-2.14-10.11,.51-2.61,2.62-2.2,2.79-3.57Zm-67.52,12.5c-8.35,17.12-39.61,35.14-61.1,36.46-3.55-4.89-5.71-19.14-3.61-22.8-.77-.97-2.98-.21-5.1-2.19,0,0,1.29-.14,2.32-.55-9.95-6.66-5.71-15.92-11.18-27.03,.21-1.21,1.51-1.35,2.58-1.97-.49-3.05-4.42-5.6-3.9-8.22,.52-2.61,2.54-1.68,2.75-2.73,.2-1.04-1.08-2.92-3.55-3.55,.13-1.45,2.46-2.08,2.98-4.7,.52-2.62-4.28-6.25-3.76-8.87,.52-2.61,2.33-.64,2.54-1.47-1.63-2.31-4.29-4.88-6.38-6.57,.18-1.34,1.84-2.59,3.92-3.08,.29-1.83-2.41-4.13-4.22-6.95,1.59-2.19,3.07-4.08,4.78-6.14,18.36,3.44,24.42,3.5,27.07,4.01,2.66,.51,1.48-1.89,4.14-1.38,2.26,.43,16.62,10.78,21.94,11.79,2.65,.51,4.13-1.38,6.79-.87,2.66,.51,8.36,13.54,11.02,14.05,2.65,.51-.65-2.3,2.01-1.79,2.65,.51,8.65,9.82,12.83,15.91,1.82,2.66,.15,7.55,.81,11.21,.06,.43-5.13,5.44,1.51,7.55-2.77,3.52-4.39,4.3-7.14,9.88Z"></path>
  <path class="a" d="M424.27,256.05c-27.82-49.31-70.94-123.16-117.23-162.02-3.65-3.05-10.4-5.42-14.96-6.48-.97-.82-1.53-3.38-4.5-3.8-6.39-.89-10.58,1.97-11.19,6.22-.42,2.94,2.31,9.3,1.9,12.22-.15,1.03-14.25,23.44-14.85,27.69l-3.38,23.75c-.42,2.94-6.95,23.26-7.44,26.18l-9.54,66.95-19.57,61.41c3.85,11.63-3.27,22.93-4.92,34.51-2.72,19.06,13.04,24.13,29.21,38.13,19.23-18.49,29.52-8.01,32.76-30.73,.42-2.93,4.03-19.77,4.45-22.71,.42-2.93-.7-20.58-.33-23.51l6.12-42.94c23.46-8.19,48.51-14.51,68.86-12.96,5.09,13.62,17.09,39.52,16.67,42.45-.9,6.3,4.22,20.32,16.85,22.08,2.97,.41,9.41-2.28,12.39-1.87,2.97,.41,8.41,4.75,11.39,5.16,2.97,.41,9.01-2.36,13.04-3.18,1.56-4.71,10.53-13.43,11.18-17.97,.92-6.46-15.45-35.99-16.9-38.59Zm-122.39-51.71c1.01-23.65,5.93-44.35,4.13-65.02,9.24,12.53,21.24,32.78,28.38,49.11-11.14,4.72-21.16,11.6-32.51,15.91Z"></path>
  <path class="r" d="M586.17,216.71c-4.89-3.97-12.99-4.26-18.51-6.97-11.74-5.81-26.76-13.72-34.56-18.36,6.52-10.76,14.43-16.02,15.73-25.11,.42-2.93,5.69-18.75,5.18-36.47-.7-24.93-29.69-49.77-46.86-57.25l-15.38-2.14c-20.34-2.83-42.09,1.64-60.46,25.41-1.32,1.76-3.49,1.6-3.91,4.54-1.59,11.14,12.64,31.75,15.44,41.86,2.28,8.4,6.34,17.19,8.54,25.13,10.84,37.7,10.94,76.67,27.86,113.6l-2.72,2.06c6.69,13.29,15.9,8.67,23.21,18.12l5.42,.75c.41-1.62-.56-4.57-1.48-5.38,2.16-.45,4.26-.1,5.95-.1-2.31-18.19-1.66-30.26-5.7-47.73-1.09-5.08-10.5-24.88-10.17-27.22,.42-2.93,6.44-2.7,9.41-2.28,.74,.1,37.88,32.78,57.33,35.48,2.97,.41,13.99-.45,21.56,.43,.57-2.74-.21-6.17,1.05-8.14,2.05,.38,4.26,1.88,5.83,1.97,2.12-4.82,5.11-8.74,5.53-11.67,.38-2.64-4.35-17.26-8.27-20.5Zm-109.47-58.81c-5.55-14.32-17.14-36.91-21.57-50.33,13.24-6.62,13.47-5.68,20.66-4.73,20.51,2.7,24.78,9.55,22.61,24.03-1.05,7.03,2.83,7.15,7.82,14.4-4.07,5.94-19.88,13.77-29.52,16.63Z"></path>
  <path class="l" d="M563.51,46.51c12.45,1.77,32.83,46.83,33.35,48.4,5.75,15.56,13,38.21,21.13,53.81,4.24,8.13,4.81,16.23,15.14,28.09,25.31-19.42,40.76-33.97,62.28-30.92,6.59,.93,9.91,7.44,16.81,7.52-1.54,1.7-4.04,2.55-5.14,3.1,4.88,3.71,2.89-.55,7.03,5.28,.9-.9,3.41-1.74,5.4-2.8,.12,1.77-1.28,2-2.38,2.53,1.92,1.04,4.43,.19,6.83,2.41-4.15-.12-6.47,.72-9.67,.9,3.03,1.06,7.79,1.77,10.22,3.84-4.17,2.06-5.31,3.78-5.43,4.67-.41,2.96,.1,3.63,1.76,4.24-6.9,5.7-12.18,13.64-20.52,16.67-9.61,3.61-18.96,8.6-27.18,11.81-10.43,4.09-23.96,2.35-36.02,5.98-.03,.88,.79,3.14,1.53,6.23-1.71,.05-3.3-1.38-6.23-1.8-2.93-.41-3.24,.57-5.11,1.68-1.23-2.91-1.68-8.66-4.62-9.08-2.93-.42,1.43,2.62-1.5,2.2-11.13-1.58-23.08-35.36-24.26-38.69-14.16-39.8-31.73-83.32-39.62-124.16,2.83-1.11,3.27-2.32,6.2-1.9Z"></path>
  <path class="e" d="M737.01,18.58c3,.41,17.45,5.95,26.23,7.32-.05,1.6,.81,3.95,1.23,9.15-2.4,.85-39.51,20.47-39.67,21.63-.42,2.91,4.57,9.77,7.16,14.65,13.75-5.18,14.57-9.89,24.9-8.49,2.99,.41,15.82,4.54,23.4,5.75-.22,2.76,1.78,5.08,3.7,9.33-12.85,7.08-19.67,14.79-36.03,21.24,4.63,9.67,10.3,21.14,14.65,30.99,2.59-.82,34.43-8.38,35.78-8.2,7.18,.98,4.7,9.69,4.64,10.13-1.56,10.77-15.43,15.57-25.58,21.72-1.43-.49-2.34-.61-3.46-.51-6.5,3.5-5.3,5.27-5.59,7.31-.42,2.91-1.89,4.16-3.76,6.57-11.87-5.17-21.99-11.31-31.18-15.87-19.02-17.78-25.59-45.47-32.1-64.77-4.88-14.77-9.72-45.08-9.3-48,.42-2.91,2.32-6.59,5.58-9.5,10.31-2.97,37.02-10.8,39.41-10.47Z"></path>
  <path class="y" d="M847.46,.06c14.34,1.97,12.17,41.2,11.51,45.83-.42,2.89-4.78,16.45-5.19,19.34-.79,5.49,21.24,36.84,19.21,51.01-.42,2.9-3.11,4.88-3.53,7.77-.42,2.9,1.87,3.8,1.45,6.7-.42,2.89-4.46,5.87-5.09,8.61-29.57-11.92-33.36-47.2-38.05-71.38-7.16-4.39-16.95-9.32-23.76-15.42-7.77-6.82-29.27-33.13-28.39-39.35,.42-2.89,1.68-3.31,2.09-4.94l6.18,.85c12.13,1.58,35.9,25.54,42.7,29.44,1.33-3.01,1-9.36,1.41-12.25,.87-6.08,10.14-27.52,19.45-26.24Z"></path>
</svg>