<svg width="95" height="960" viewBox="0 0 95 960" fill="none" xmlns="http://www.w3.org/2000/svg">
<path d="M31.4766 614.496L31.4766 592.664L37.0469 592.664L37.0469 607.758L44.9531 607.758L44.9531 593.81L50.501 593.81L50.501 607.758L58.4297 607.758L58.4297 592.619L64 592.619L64 614.496L31.4766 614.496ZM64 580.917L64 587.565L39.6074 587.565L39.6074 581.231L43.875 581.231L43.875 580.962C42.4375 580.393 41.3145 579.479 40.5059 578.222C39.6973 576.949 39.293 575.414 39.293 573.617C39.293 571.925 39.6598 570.45 40.3936 569.192C41.1273 567.935 42.1829 566.961 43.5605 566.272C44.9381 565.569 46.5703 565.217 48.457 565.217L64 565.217L64 571.865L49.6025 571.865C48.5993 571.865 47.7458 572.037 47.042 572.382C46.3232 572.711 45.7767 573.205 45.4023 573.864C45.013 574.523 44.8184 575.317 44.8184 576.245C44.8184 577.174 45.0205 577.99 45.4248 578.693C45.8141 579.397 46.3906 579.944 47.1543 580.333C47.903 580.722 48.8089 580.917 49.8721 580.917L64 580.917ZM64 546.911L64 554.391L39.6074 562.926L39.6074 555.873L57.127 550.774L57.127 550.505L39.6074 545.384L39.6074 538.331L64 546.911ZM39.6074 535.052L39.6074 528.403L64 528.403L64 535.052L39.6074 535.052ZM36.3955 531.728C36.3955 532.386 36.2458 532.993 35.9463 533.547C35.6468 534.101 35.235 534.543 34.7109 534.872C34.1868 535.201 33.6253 535.366 33.0264 535.366C32.4124 535.366 31.8509 535.201 31.3418 534.872C30.8177 534.543 30.4059 534.101 30.1064 533.547C29.807 532.993 29.6572 532.386 29.6572 531.728C29.6572 531.069 29.807 530.462 30.1064 529.908C30.4059 529.354 30.8177 528.92 31.3418 528.605C31.8509 528.276 32.4124 528.111 33.0264 528.111C33.6253 528.111 34.1868 528.276 34.7109 528.605C35.235 528.92 35.6468 529.354 35.9463 529.908C36.2458 530.462 36.3955 531.069 36.3955 531.728ZM39.6074 523.237L39.6074 516.813L43.8525 516.813L43.8525 516.544C42.3551 516.11 41.2171 515.368 40.4385 514.32C39.6449 513.272 39.248 512.059 39.248 510.682C39.248 509.963 39.3229 509.252 39.4727 508.548L45.4023 508.548C45.2975 508.832 45.2152 509.259 45.1553 509.828C45.0804 510.397 45.043 510.921 45.043 511.4C45.043 512.389 45.2601 513.272 45.6943 514.051C46.1136 514.829 46.7126 515.451 47.4912 515.915C48.2549 516.364 49.1383 516.589 50.1416 516.589L64 516.589L64 523.237L39.6074 523.237ZM64.4717 495.139C64.4717 497.564 63.9476 499.683 62.8994 501.495C61.8512 503.307 60.3763 504.7 58.4746 505.673C56.5729 506.646 54.3792 507.133 51.8935 507.133C49.3779 507.133 47.1768 506.646 45.29 505.673C43.3883 504.7 41.9134 503.307 40.8652 501.495C39.8171 499.683 39.293 497.564 39.293 495.139C39.293 492.728 39.8171 490.617 40.8652 488.805C41.9134 486.978 43.3883 485.585 45.29 484.627C47.1768 483.669 49.3779 483.189 51.8935 483.189C54.3792 483.189 56.5729 483.669 58.4746 484.627C60.3763 485.585 61.8512 486.978 62.8994 488.805C63.9476 490.617 64.4717 492.728 64.4717 495.139ZM59.3281 495.094C59.3281 493.986 59.0062 493.05 58.3623 492.286C57.7184 491.507 56.835 490.924 55.7119 490.534C54.5739 490.145 53.2861 489.95 51.8486 489.95C50.3962 489.95 49.1084 490.145 47.9853 490.534C46.8623 490.924 45.9788 491.507 45.335 492.286C44.6911 493.05 44.3691 493.986 44.3691 495.094C44.3691 496.232 44.6911 497.198 45.335 497.991C45.9788 498.785 46.8623 499.384 47.9853 499.788C49.0934 500.192 50.3812 500.395 51.8486 500.395C53.3011 500.395 54.5889 500.192 55.7119 499.788C56.835 499.384 57.7184 498.785 58.3623 497.991C59.0062 497.198 59.3281 496.232 59.3281 495.094ZM64 472.341L64 478.989L39.6074 478.989L39.6074 472.655L43.875 472.655L43.875 472.386C42.4375 471.817 41.3144 470.903 40.5059 469.646C39.6973 468.373 39.293 466.838 39.293 465.041C39.293 463.349 39.6598 461.874 40.3935 460.616C41.1273 459.358 42.1829 458.385 43.5605 457.696C44.9381 456.993 46.5703 456.641 48.457 456.641L64 456.641L64 463.289L49.6025 463.289C48.5993 463.289 47.7458 463.461 47.042 463.806C46.3232 464.135 45.7767 464.629 45.4023 465.288C45.013 465.947 44.8184 466.741 44.8184 467.669C44.8184 468.597 45.0205 469.413 45.4248 470.117C45.8141 470.821 46.3906 471.368 47.1543 471.757C47.903 472.146 48.8089 472.341 49.8721 472.341L64 472.341ZM39.6074 451.497L39.6074 445.163L43.875 445.163L43.875 444.894C42.4225 444.354 41.2995 443.493 40.5059 442.311C39.6973 441.128 39.293 439.72 39.293 438.088C39.293 436.995 39.4801 435.999 39.8545 435.101C40.2139 434.187 40.7379 433.424 41.4267 432.81C42.1156 432.196 42.9316 431.746 43.875 431.462L43.875 431.237C42.9466 430.878 42.138 430.346 41.4492 429.643C40.7604 428.939 40.2288 428.093 39.8545 427.104C39.4801 426.116 39.293 425.038 39.293 423.87C39.293 422.343 39.6224 421.003 40.2812 419.85C40.9251 418.682 41.876 417.776 43.1338 417.132C44.3766 416.488 45.874 416.166 47.626 416.166L64 416.166L64 422.837L48.8838 422.837C47.5511 422.837 46.5404 423.189 45.8516 423.893C45.1478 424.596 44.7959 425.517 44.7959 426.655C44.7959 427.479 44.9756 428.19 45.335 428.789C45.6794 429.373 46.1735 429.83 46.8174 430.159C47.4463 430.474 48.195 430.631 49.0635 430.631L64 430.631L64 437.077L48.7041 437.077C47.9254 437.077 47.2366 437.234 46.6377 437.549C46.0387 437.848 45.582 438.283 45.2676 438.852C44.9531 439.421 44.7959 440.079 44.7959 440.828C44.7959 441.577 44.9831 442.258 45.3574 442.872C45.7168 443.471 46.2409 443.95 46.9297 444.31C47.6185 444.669 48.4196 444.849 49.333 444.849L64 444.849L64 451.497L39.6074 451.497ZM64.4717 399.994C64.4717 402.45 63.9626 404.591 62.9443 406.418C61.9261 408.23 60.4736 409.63 58.5869 410.618C56.7002 411.591 54.484 412.078 51.9385 412.078C49.4228 412.078 47.2142 411.591 45.3125 410.618C43.3958 409.63 41.9134 408.245 40.8652 406.463C39.817 404.681 39.293 402.615 39.293 400.264C39.293 398.062 39.7572 396.101 40.6855 394.379C41.5989 392.657 42.984 391.302 44.8408 390.313C46.6976 389.325 48.9661 388.831 51.6465 388.831L53.5107 388.831L53.5107 409.36L49.3555 409.36L49.3555 395.098C48.3672 395.098 47.4912 395.315 46.7275 395.749C45.9489 396.183 45.3424 396.782 44.9082 397.546C44.4739 398.31 44.2568 399.178 44.2568 400.151C44.2568 401.185 44.4964 402.105 44.9756 402.914C45.4398 403.723 46.0836 404.359 46.9072 404.823C47.7308 405.272 48.6292 405.505 49.6025 405.52L53.5107 405.52C54.7236 405.52 55.7868 405.287 56.7002 404.823C57.6136 404.359 58.3099 403.708 58.7891 402.869C59.2682 402.016 59.5078 401.027 59.5078 399.904C59.5078 399.156 59.403 398.474 59.1933 397.86C58.9687 397.246 58.6842 396.73 58.3398 396.311C57.9805 395.876 57.5612 395.547 57.082 395.322L57.082 388.988C58.5644 389.303 59.8672 389.954 60.9902 390.942C62.0983 391.916 62.9593 393.181 63.5732 394.738C64.1722 396.281 64.4717 398.033 64.4717 399.994ZM64 378.005L64 384.653L39.6074 384.653L39.6074 378.319L43.875 378.319L43.875 378.05C42.4375 377.481 41.3144 376.567 40.5058 375.31C39.6973 374.037 39.293 372.502 39.293 370.705C39.293 369.013 39.6598 367.538 40.3935 366.28C41.1273 365.022 42.1829 364.049 43.5605 363.36C44.9381 362.657 46.5703 362.305 48.457 362.305L64 362.305L64 368.953L49.6025 368.953C48.5993 368.953 47.7458 369.125 47.042 369.47C46.3232 369.799 45.7767 370.293 45.4023 370.952C45.013 371.611 44.8183 372.405 44.8183 373.333C44.8183 374.261 45.0205 375.077 45.4248 375.781C45.8141 376.485 46.3906 377.032 47.1543 377.421C47.903 377.81 48.8089 378.005 49.8721 378.005L64 378.005ZM44.5937 344.313L44.5937 358.913L39.6074 358.913L39.6074 344.313L44.5937 344.313ZM33.7676 348.896L56.498 348.896C57.1269 348.896 57.6211 348.806 57.9805 348.626C58.3249 348.431 58.5719 348.169 58.7217 347.84C58.8564 347.495 58.9313 347.076 58.9463 346.582C58.9613 345.953 58.9238 345.085 58.834 343.977L64.0898 343.977C64.2545 344.98 64.3369 346.14 64.3369 347.458C64.3369 349.105 64.0898 350.535 63.5957 351.748C63.0866 352.961 62.3154 353.904 61.2822 354.578C60.249 355.252 58.9613 355.581 57.4189 355.566L33.7676 355.566L33.7676 348.896Z" fill="white"/>
</svg>
