<svg width="65" height="650" viewBox="0 0 65 650" fill="none" xmlns="http://www.w3.org/2000/svg">
<path d="M19.5469 430.258L19.5469 413.172L23.9062 413.172L23.9062 424.984L30.0937 424.984L30.0937 414.068L34.4355 414.068L34.4355 424.984L40.6406 424.984L40.6406 413.137L45 413.137L45 430.258L19.5469 430.258ZM45 403.979L45 409.182L25.9102 409.182L25.9102 404.225L29.25 404.225L29.25 404.014C28.125 403.568 27.2461 402.854 26.6133 401.869C25.9805 400.873 25.6641 399.672 25.6641 398.266C25.6641 396.941 25.9512 395.787 26.5254 394.803C27.0996 393.818 27.9258 393.057 29.0039 392.518C30.082 391.967 31.3594 391.691 32.8359 391.691L45 391.691L45 396.895L33.7324 396.895C32.9473 396.895 32.2793 397.029 31.7285 397.299C31.166 397.557 30.7383 397.943 30.4453 398.459C30.1406 398.975 29.9883 399.596 29.9883 400.322C29.9883 401.049 30.1465 401.687 30.4629 402.238C30.7676 402.789 31.2187 403.217 31.8164 403.521C32.4023 403.826 33.1113 403.979 33.9434 403.979L45 403.979ZM45 377.365L45 383.219L25.9102 389.898L25.9102 384.379L39.6211 380.389L39.6211 380.178L25.9102 376.17L25.9102 370.65L45 377.365ZM25.9102 368.084L25.9102 362.881L45 362.881L45 368.084L25.9102 368.084ZM23.3965 365.482C23.3965 365.998 23.2793 366.473 23.0449 366.906C22.8105 367.34 22.4883 367.686 22.0781 367.943C21.668 368.201 21.2285 368.33 20.7598 368.33C20.2793 368.33 19.8398 368.201 19.4414 367.943C19.0312 367.686 18.709 367.34 18.4746 366.906C18.2402 366.473 18.123 365.998 18.123 365.482C18.123 364.967 18.2402 364.492 18.4746 364.059C18.709 363.625 19.0312 363.285 19.4414 363.039C19.8398 362.781 20.2793 362.652 20.7598 362.652C21.2285 362.652 21.668 362.781 22.0781 363.039C22.4883 363.285 22.8105 363.625 23.0449 364.059C23.2793 364.492 23.3965 364.967 23.3965 365.482ZM25.9102 358.838L25.9102 353.811L29.2324 353.811L29.2324 353.6C28.0605 353.26 27.1699 352.68 26.5605 351.859C25.9394 351.039 25.6289 350.09 25.6289 349.012C25.6289 348.449 25.6875 347.893 25.8047 347.342L30.4453 347.342C30.3633 347.564 30.2988 347.898 30.2519 348.344C30.1934 348.789 30.1641 349.199 30.1641 349.574C30.1641 350.348 30.334 351.039 30.6738 351.648C31.0019 352.258 31.4707 352.744 32.0801 353.107C32.6777 353.459 33.3691 353.635 34.1543 353.635L45 353.635L45 358.838L25.9102 358.838ZM45.3691 336.848C45.3691 338.746 44.959 340.404 44.1387 341.822C43.3184 343.24 42.1641 344.33 40.6758 345.092C39.1875 345.854 37.4707 346.234 35.5254 346.234C33.5566 346.234 31.834 345.854 30.3574 345.092C28.8691 344.33 27.7148 343.24 26.8945 341.822C26.0742 340.404 25.6641 338.746 25.6641 336.848C25.6641 334.961 26.0742 333.309 26.8945 331.891C27.7148 330.461 28.8691 329.371 30.3574 328.621C31.834 327.871 33.5566 327.496 35.5254 327.496C37.4707 327.496 39.1875 327.871 40.6758 328.621C42.1641 329.371 43.3184 330.461 44.1387 331.891C44.959 333.309 45.3691 334.961 45.3691 336.848ZM41.3437 336.812C41.3437 335.945 41.0918 335.213 40.5879 334.615C40.084 334.006 39.3926 333.549 38.5137 333.244C37.623 332.939 36.6152 332.787 35.4902 332.787C34.3535 332.787 33.3457 332.939 32.4668 333.244C31.5879 333.549 30.8965 334.006 30.3926 334.615C29.8887 335.213 29.6367 335.945 29.6367 336.812C29.6367 337.703 29.8887 338.459 30.3926 339.08C30.8965 339.701 31.5879 340.17 32.4668 340.486C33.334 340.803 34.3418 340.961 35.4902 340.961C36.6269 340.961 37.6348 340.803 38.5137 340.486C39.3926 340.17 40.084 339.701 40.5879 339.08C41.0918 338.459 41.3437 337.703 41.3437 336.812ZM45 319.006L45 324.209L25.9102 324.209L25.9102 319.252L29.25 319.252L29.25 319.041C28.125 318.596 27.2461 317.881 26.6133 316.896C25.9805 315.9 25.6641 314.699 25.6641 313.293C25.6641 311.969 25.9512 310.814 26.5254 309.83C27.0996 308.846 27.9258 308.084 29.0039 307.545C30.082 306.994 31.3594 306.719 32.8359 306.719L45 306.719L45 311.922L33.7324 311.922C32.9473 311.922 32.2793 312.057 31.7285 312.326C31.166 312.584 30.7383 312.971 30.4453 313.486C30.1406 314.002 29.9883 314.623 29.9883 315.35C29.9883 316.076 30.1465 316.715 30.4629 317.266C30.7676 317.816 31.2187 318.244 31.8164 318.549C32.4023 318.854 33.1113 319.006 33.9434 319.006L45 319.006ZM25.9102 302.693L25.9102 297.736L29.25 297.736L29.25 297.525C28.1133 297.104 27.2344 296.43 26.6133 295.504C25.9805 294.578 25.6641 293.477 25.6641 292.199C25.6641 291.344 25.8105 290.564 26.1035 289.861C26.3848 289.146 26.7949 288.549 27.334 288.068C27.873 287.588 28.5117 287.236 29.25 287.014L29.25 286.838C28.5234 286.557 27.8906 286.141 27.3516 285.59C26.8125 285.039 26.3965 284.377 26.1035 283.604C25.8105 282.83 25.6641 281.986 25.6641 281.072C25.6641 279.877 25.9219 278.828 26.4375 277.926C26.9414 277.012 27.6855 276.303 28.6699 275.799C29.6426 275.295 30.8144 275.043 32.1855 275.043L45 275.043L45 280.264L33.1699 280.264C32.1269 280.264 31.3359 280.539 30.7969 281.09C30.2461 281.641 29.9707 282.361 29.9707 283.252C29.9707 283.896 30.1113 284.453 30.3926 284.922C30.6621 285.379 31.0488 285.736 31.5527 285.994C32.0449 286.24 32.6309 286.363 33.3105 286.363L45 286.363L45 291.408L33.0293 291.408C32.4199 291.408 31.8809 291.531 31.4121 291.777C30.9434 292.012 30.5859 292.352 30.3398 292.797C30.0937 293.242 29.9707 293.758 29.9707 294.344C29.9707 294.93 30.1172 295.463 30.4102 295.943C30.6914 296.412 31.1016 296.787 31.6406 297.068C32.1797 297.35 32.8066 297.49 33.5215 297.49L45 297.49L45 302.693L25.9102 302.693ZM45.3691 262.387C45.3691 264.309 44.9707 265.984 44.1738 267.414C43.3769 268.832 42.2402 269.928 40.7637 270.701C39.2871 271.463 37.5527 271.844 35.5605 271.844C33.5918 271.844 31.8633 271.463 30.375 270.701C28.875 269.928 27.7148 268.844 26.8945 267.449C26.0742 266.055 25.6641 264.437 25.6641 262.598C25.6641 260.875 26.0273 259.34 26.7539 257.992C27.4687 256.645 28.5527 255.584 30.0059 254.811C31.459 254.037 33.2344 253.65 35.332 253.65L36.791 253.65L36.791 269.717L33.5391 269.717L33.5391 258.555C32.7656 258.555 32.0801 258.725 31.4824 259.064C30.873 259.404 30.3984 259.873 30.0586 260.471C29.7187 261.068 29.5488 261.748 29.5488 262.51C29.5488 263.318 29.7363 264.039 30.1113 264.672C30.4746 265.305 30.9785 265.803 31.623 266.166C32.2676 266.518 32.9707 266.699 33.7324 266.711L36.791 266.711C37.7402 266.711 38.5723 266.529 39.2871 266.166C40.0019 265.803 40.5469 265.293 40.9219 264.637C41.2969 263.969 41.4844 263.195 41.4844 262.316C41.4844 261.73 41.4023 261.197 41.2383 260.717C41.0625 260.236 40.8398 259.832 40.5703 259.504C40.2891 259.164 39.9609 258.906 39.5859 258.73L39.5859 253.773C40.7461 254.02 41.7656 254.529 42.6445 255.303C43.5117 256.064 44.1855 257.055 44.666 258.273C45.1348 259.48 45.3691 260.852 45.3691 262.387ZM45 245.178L45 250.381L25.9101 250.381L25.9101 245.424L29.25 245.424L29.25 245.213C28.125 244.768 27.2461 244.053 26.6133 243.068C25.9805 242.072 25.6641 240.871 25.6641 239.465C25.6641 238.141 25.9512 236.986 26.5254 236.002C27.0996 235.018 27.9258 234.256 29.0039 233.717C30.082 233.166 31.3594 232.891 32.8359 232.891L45 232.891L45 238.094L33.7324 238.094C32.9473 238.094 32.2793 238.229 31.7285 238.498C31.166 238.756 30.7383 239.143 30.4453 239.658C30.1406 240.174 29.9883 240.795 29.9883 241.521C29.9883 242.248 30.1465 242.887 30.4629 243.437C30.7676 243.988 31.2187 244.416 31.8164 244.721C32.4023 245.025 33.1113 245.178 33.9434 245.178L45 245.178ZM29.8125 218.811L29.8125 230.236L25.9101 230.236L25.9101 218.811L29.8125 218.811ZM21.3398 222.396L39.1289 222.396C39.6211 222.396 40.0078 222.326 40.2891 222.186C40.5586 222.033 40.7519 221.828 40.8691 221.57C40.9746 221.301 41.0332 220.973 41.0449 220.586C41.0566 220.094 41.0273 219.414 40.957 218.547L45.0703 218.547C45.1992 219.332 45.2637 220.24 45.2637 221.271C45.2637 222.561 45.0703 223.68 44.6836 224.629C44.2851 225.578 43.6816 226.316 42.873 226.844C42.0644 227.371 41.0566 227.629 39.8496 227.617L21.3398 227.617L21.3398 222.396Z" fill="white"/>
</svg>
