<svg width="65" height="650" viewBox="0 0 65 650" fill="none" xmlns="http://www.w3.org/2000/svg">
<path d="M27.7559 408.619C26.9473 408.842 26.2559 409.205 25.6816 409.709C25.0957 410.213 24.6504 410.828 24.3457 411.555C24.0293 412.27 23.8711 413.096 23.8711 414.033C23.8711 415.346 24.1992 416.5 24.8555 417.496C25.5117 418.48 26.4727 419.254 27.7383 419.816C28.9922 420.367 30.498 420.643 32.2559 420.643C34.0254 420.643 35.543 420.373 36.8086 419.834C38.0625 419.283 39.0234 418.51 39.6914 417.514C40.3477 416.506 40.6758 415.328 40.6758 413.98C40.6758 412.762 40.4531 411.713 40.0078 410.834C39.5625 409.943 38.9355 409.27 38.127 408.812C37.3066 408.344 36.3516 408.109 35.2617 408.109L35.4199 407.02L35.4199 413.629L31.3945 413.629L31.3945 403.012L34.5937 403.012C36.7852 403.012 38.6953 403.48 40.3242 404.418C41.9414 405.355 43.1836 406.656 44.0508 408.32C44.918 409.973 45.3516 411.865 45.3516 413.998C45.3516 416.365 44.8242 418.457 43.7695 420.273C42.7031 422.078 41.1855 423.484 39.2168 424.492C37.248 425.488 34.9395 425.986 32.291 425.986C29.6074 425.986 27.2812 425.471 25.3125 424.439C23.332 423.396 21.8203 421.979 20.7773 420.186C19.7227 418.393 19.1953 416.371 19.1953 414.121C19.1953 412.223 19.5586 410.488 20.2852 408.918C21.0117 407.348 22.0195 406.07 23.3086 405.086C24.5977 404.09 26.0801 403.475 27.7559 403.24L27.7559 408.619ZM45.3691 390.654C45.3691 392.553 44.959 394.211 44.1387 395.629C43.3184 397.047 42.1641 398.137 40.6758 398.898C39.1875 399.66 37.4707 400.041 35.5254 400.041C33.5566 400.041 31.834 399.66 30.3574 398.898C28.8691 398.137 27.7148 397.047 26.8945 395.629C26.0742 394.211 25.6641 392.553 25.6641 390.654C25.6641 388.768 26.0742 387.115 26.8945 385.697C27.7148 384.268 28.8691 383.178 30.3574 382.428C31.834 381.678 33.5566 381.303 35.5254 381.303C37.4707 381.303 39.1875 381.678 40.6758 382.428C42.1641 383.178 43.3184 384.268 44.1387 385.697C44.959 387.115 45.3691 388.768 45.3691 390.654ZM41.3437 390.619C41.3437 389.752 41.0918 389.02 40.5879 388.422C40.084 387.812 39.3926 387.355 38.5137 387.051C37.623 386.746 36.6152 386.594 35.4902 386.594C34.3535 386.594 33.3457 386.746 32.4668 387.051C31.5879 387.355 30.8965 387.812 30.3926 388.422C29.8887 389.02 29.6367 389.752 29.6367 390.619C29.6367 391.51 29.8887 392.266 30.3926 392.887C30.8965 393.508 31.5879 393.977 32.4668 394.293C33.334 394.609 34.3418 394.768 35.4902 394.768C36.627 394.768 37.6348 394.609 38.5137 394.293C39.3926 393.977 40.084 393.508 40.5879 392.887C41.0918 392.266 41.3437 391.51 41.3437 390.619ZM45 367.68L45 373.533L25.9102 380.213L25.9102 374.693L39.6211 370.703L39.6211 370.492L25.9102 366.484L25.9102 360.965L45 367.68ZM45.3691 350.4C45.3691 352.322 44.9707 353.998 44.1738 355.428C43.377 356.846 42.2402 357.941 40.7637 358.715C39.2871 359.477 37.5527 359.857 35.5605 359.857C33.5918 359.857 31.8633 359.477 30.375 358.715C28.875 357.941 27.7148 356.857 26.8945 355.463C26.0742 354.068 25.6641 352.451 25.6641 350.611C25.6641 348.889 26.0273 347.354 26.7539 346.006C27.4687 344.658 28.5527 343.598 30.0059 342.824C31.459 342.051 33.2344 341.664 35.332 341.664L36.791 341.664L36.791 357.73L33.5391 357.73L33.5391 346.568C32.7656 346.568 32.0801 346.738 31.4824 347.078C30.873 347.418 30.3984 347.887 30.0586 348.484C29.7187 349.082 29.5488 349.762 29.5488 350.523C29.5488 351.332 29.7363 352.053 30.1113 352.686C30.4746 353.318 30.9785 353.816 31.623 354.18C32.2676 354.531 32.9707 354.713 33.7324 354.725L36.791 354.725C37.7402 354.725 38.5723 354.543 39.2871 354.18C40.0019 353.816 40.5469 353.307 40.9219 352.65C41.2969 351.982 41.4844 351.209 41.4844 350.33C41.4844 349.744 41.4023 349.211 41.2383 348.73C41.0625 348.25 40.8398 347.846 40.5703 347.518C40.2891 347.178 39.9609 346.92 39.5859 346.744L39.5859 341.787C40.7461 342.033 41.7656 342.543 42.6445 343.316C43.5117 344.078 44.1855 345.068 44.666 346.287C45.1348 347.494 45.3691 348.865 45.3691 350.4ZM25.9102 338.395L25.9102 333.367L29.2324 333.367L29.2324 333.156C28.0605 332.816 27.1699 332.236 26.5605 331.416C25.9394 330.596 25.6289 329.646 25.6289 328.568C25.6289 328.006 25.6875 327.449 25.8047 326.898L30.4453 326.898C30.3633 327.121 30.2988 327.455 30.2519 327.9C30.1934 328.346 30.1641 328.756 30.1641 329.131C30.1641 329.904 30.334 330.596 30.6738 331.205C31.0019 331.814 31.4707 332.301 32.0801 332.664C32.6777 333.016 33.3691 333.191 34.1543 333.191L45 333.191L45 338.395L25.9102 338.395ZM45 319.164L45 324.367L25.9102 324.367L25.9102 319.41L29.25 319.41L29.25 319.199C28.125 318.754 27.2461 318.039 26.6133 317.055C25.9805 316.059 25.6641 314.857 25.6641 313.451C25.6641 312.127 25.9512 310.973 26.5254 309.988C27.0996 309.004 27.9258 308.242 29.0039 307.703C30.082 307.152 31.3594 306.877 32.8359 306.877L45 306.877L45 312.08L33.7324 312.08C32.9473 312.08 32.2793 312.215 31.7285 312.484C31.166 312.742 30.7383 313.129 30.4453 313.645C30.1406 314.16 29.9883 314.781 29.9883 315.508C29.9883 316.234 30.1465 316.873 30.4629 317.424C30.7676 317.975 31.2187 318.402 31.8164 318.707C32.4023 319.012 33.1113 319.164 33.9434 319.164L45 319.164ZM36.7559 291.654C36.7676 292.123 36.8144 292.949 36.8965 294.133L37.0371 295.82C37.1074 296.746 37.3594 297.473 37.793 298C38.2148 298.527 38.7891 298.791 39.5156 298.791C39.9844 298.791 40.3828 298.674 40.7109 298.439C41.0391 298.193 41.291 297.854 41.4668 297.42C41.6426 296.975 41.7305 296.477 41.7305 295.926C41.7305 295.141 41.5781 294.443 41.2734 293.834C40.957 293.225 40.5293 292.75 39.9902 292.41C39.4394 292.07 38.8359 291.9 38.1797 291.9L32.0098 291.936C31.4707 291.936 31.0137 292.053 30.6387 292.287C30.2519 292.51 29.9648 292.855 29.7773 293.324C29.5781 293.781 29.4785 294.326 29.4785 294.959C29.4785 295.838 29.666 296.553 30.041 297.104C30.4043 297.654 30.9199 298 31.5879 298.141L31.5879 303.098C30.4629 302.98 29.4551 302.588 28.5644 301.92C27.6621 301.24 26.9531 300.303 26.4375 299.107C25.9219 297.9 25.6641 296.477 25.6641 294.836C25.6641 293.359 25.8926 292.012 26.3496 290.793C26.8066 289.574 27.5215 288.596 28.4941 287.857C29.4551 287.107 30.668 286.732 32.1328 286.732L45 286.732L45 291.672L42.3633 291.672L42.3633 291.812C42.9609 292.129 43.4824 292.545 43.9277 293.061C44.373 293.576 44.7246 294.197 44.9824 294.924C45.2285 295.639 45.3516 296.471 45.3516 297.42C45.3516 298.65 45.1348 299.74 44.7012 300.689C44.2676 301.639 43.623 302.389 42.7676 302.939C41.9121 303.49 40.8809 303.766 39.6738 303.766C37.6816 303.766 36.2344 303.109 35.332 301.797C34.4297 300.473 33.9141 298.762 33.7852 296.664C33.75 296.312 33.6914 295.229 33.6094 293.412L33.5391 291.689L36.7559 291.654ZM45 277.574L45 282.777L25.9101 282.777L25.9101 277.82L29.25 277.82L29.25 277.609C28.125 277.164 27.2461 276.449 26.6133 275.465C25.9805 274.469 25.6641 273.268 25.6641 271.861C25.6641 270.537 25.9512 269.383 26.5254 268.398C27.0996 267.414 27.9258 266.652 29.0039 266.113C30.082 265.562 31.3594 265.287 32.8359 265.287L45 265.287L45 270.49L33.7324 270.49C32.9473 270.49 32.2793 270.625 31.7285 270.895C31.166 271.152 30.7383 271.539 30.4453 272.055C30.1406 272.57 29.9883 273.191 29.9883 273.918C29.9883 274.645 30.1465 275.283 30.4629 275.834C30.7676 276.385 31.2187 276.812 31.8164 277.117C32.4023 277.422 33.1113 277.574 33.9434 277.574L45 277.574ZM45.3691 252.666C45.3691 254.588 44.9531 256.258 44.1211 257.676C43.2891 259.094 42.1289 260.178 40.6406 260.928C39.1523 261.678 37.4473 262.053 35.5254 262.053C33.5801 262.053 31.8633 261.672 30.375 260.91C28.8867 260.148 27.7324 259.064 26.9121 257.658C26.0801 256.252 25.6641 254.6 25.6641 252.701C25.6641 251.061 25.9629 249.613 26.5605 248.359C27.1465 247.094 27.9902 246.104 29.0918 245.389C30.1934 244.662 31.4648 244.264 32.9062 244.193L32.9062 249.115C32.2734 249.209 31.7168 249.408 31.2363 249.713C30.7441 250.018 30.3691 250.416 30.1113 250.908C29.8418 251.4 29.707 251.969 29.707 252.613C29.707 253.445 29.9355 254.172 30.3926 254.793C30.8379 255.414 31.4883 255.9 32.3437 256.252C33.1992 256.604 34.2305 256.779 35.4375 256.779C36.6562 256.779 37.6992 256.609 38.5664 256.27C39.4219 255.918 40.0781 255.432 40.5351 254.811C40.9922 254.189 41.2207 253.457 41.2207 252.613C41.2207 251.992 41.1035 251.436 40.8691 250.943C40.623 250.451 40.2598 250.047 39.7793 249.73C39.2988 249.414 38.7246 249.209 38.0566 249.115L38.0566 244.193C39.498 244.275 40.7695 244.674 41.8711 245.389C42.9726 246.092 43.834 247.07 44.4551 248.324C45.0644 249.566 45.3691 251.014 45.3691 252.666ZM45.3691 232.311C45.3691 234.232 44.9707 235.908 44.1738 237.338C43.3769 238.756 42.2402 239.852 40.7637 240.625C39.2871 241.387 37.5527 241.768 35.5605 241.768C33.5918 241.768 31.8633 241.387 30.375 240.625C28.875 239.852 27.7148 238.768 26.8945 237.373C26.0742 235.979 25.6641 234.361 25.6641 232.521C25.6641 230.799 26.0273 229.264 26.7539 227.916C27.4687 226.568 28.5527 225.508 30.0059 224.734C31.459 223.961 33.2344 223.574 35.332 223.574L36.791 223.574L36.791 239.641L33.5391 239.641L33.5391 228.479C32.7656 228.479 32.0801 228.648 31.4824 228.988C30.873 229.328 30.3984 229.797 30.0586 230.395C29.7187 230.992 29.5488 231.672 29.5488 232.434C29.5488 233.242 29.7363 233.963 30.1113 234.596C30.4746 235.229 30.9785 235.727 31.623 236.09C32.2676 236.441 32.9707 236.623 33.7324 236.635L36.791 236.635C37.7402 236.635 38.5723 236.453 39.2871 236.09C40.0019 235.727 40.5469 235.217 40.9219 234.561C41.2969 233.893 41.4844 233.119 41.4844 232.24C41.4844 231.654 41.4023 231.121 41.2383 230.641C41.0625 230.16 40.8398 229.756 40.5703 229.428C40.2891 229.088 39.9609 228.83 39.5859 228.654L39.5859 223.697C40.7461 223.943 41.7656 224.453 42.6445 225.227C43.5117 225.988 44.1855 226.979 44.666 228.197C45.1348 229.404 45.3691 230.775 45.3691 232.311Z" fill="white"/>
</svg>
