<svg width="95" height="960" viewBox="0 0 95 960" fill="none" xmlns="http://www.w3.org/2000/svg">
<path d="M41.9658 586.847C40.9326 587.131 40.0492 587.595 39.3154 588.239C38.5667 588.883 37.9977 589.669 37.6084 590.598C37.2041 591.511 37.002 592.567 37.002 593.765C37.002 595.442 37.4212 596.917 38.2598 598.189C39.0983 599.447 40.3262 600.436 41.9434 601.154C43.5456 601.858 45.4697 602.21 47.7158 602.21C49.9769 602.21 51.916 601.866 53.5332 601.177C55.1354 600.473 56.3633 599.485 57.2168 598.212C58.0553 596.924 58.4746 595.419 58.4746 593.697C58.4746 592.14 58.1901 590.8 57.6211 589.677C57.0521 588.539 56.251 587.678 55.2178 587.094C54.1696 586.495 52.9492 586.195 51.5566 586.195L51.7588 584.803L51.7588 593.248L46.6152 593.248L46.6152 579.682L50.7031 579.682C53.5033 579.682 55.944 580.281 58.0254 581.479C60.0918 582.676 61.679 584.339 62.7871 586.465C63.8952 588.576 64.4492 590.994 64.4492 593.72C64.4492 596.744 63.7754 599.417 62.4277 601.738C61.0651 604.044 59.126 605.841 56.6104 607.129C54.0947 608.402 51.1449 609.038 47.7607 609.038C44.3317 609.038 41.3594 608.379 38.8437 607.062C36.3132 605.729 34.3815 603.917 33.0488 601.626C31.7012 599.335 31.0273 596.752 31.0273 593.877C31.0273 591.451 31.4915 589.235 32.4199 587.229C33.3483 585.222 34.6361 583.59 36.2832 582.332C37.9303 581.059 39.8245 580.273 41.9658 579.974L41.9658 586.847ZM64.4717 563.892C64.4717 566.317 63.9476 568.436 62.8994 570.248C61.8512 572.06 60.3763 573.452 58.4746 574.426C56.5729 575.399 54.3792 575.886 51.8936 575.886C49.3779 575.886 47.1768 575.399 45.29 574.426C43.3883 573.452 41.9134 572.06 40.8652 570.248C39.8171 568.436 39.293 566.317 39.293 563.892C39.293 561.481 39.8171 559.369 40.8652 557.558C41.9134 555.731 43.3883 554.338 45.29 553.38C47.1768 552.422 49.3779 551.942 51.8936 551.942C54.3792 551.942 56.5729 552.422 58.4746 553.38C60.3763 554.338 61.8512 555.731 62.8994 557.558C63.9476 559.369 64.4717 561.481 64.4717 563.892ZM59.3281 563.847C59.3281 562.739 59.0062 561.803 58.3623 561.039C57.7184 560.26 56.835 559.676 55.7119 559.287C54.5739 558.898 53.2861 558.703 51.8486 558.703C50.3962 558.703 49.1084 558.898 47.9853 559.287C46.8623 559.676 45.9788 560.26 45.335 561.039C44.6911 561.803 44.3691 562.739 44.3691 563.847C44.3691 564.985 44.6911 565.951 45.335 566.744C45.9788 567.538 46.8623 568.137 47.9853 568.541C49.0934 568.945 50.3812 569.147 51.8486 569.147C53.3011 569.147 54.5889 568.945 55.7119 568.541C56.835 568.137 57.7184 567.538 58.3623 566.744C59.0062 565.951 59.3281 564.985 59.3281 563.847ZM64 534.535L64 542.015L39.6074 550.55L39.6074 543.497L57.1269 538.398L57.1269 538.129L39.6074 533.008L39.6074 525.955L64 534.535ZM64.4717 512.456C64.4717 514.912 63.9626 517.053 62.9443 518.88C61.9261 520.692 60.4736 522.092 58.5869 523.08C56.7002 524.053 54.484 524.54 51.9385 524.54C49.4228 524.54 47.2142 524.053 45.3125 523.08C43.3958 522.092 41.9134 520.707 40.8652 518.925C39.8171 517.143 39.293 515.076 39.293 512.726C39.293 510.524 39.7572 508.563 40.6855 506.841C41.599 505.119 42.984 503.764 44.8408 502.775C46.6976 501.787 48.9661 501.293 51.6465 501.293L53.5107 501.293L53.5107 521.822L49.3555 521.822L49.3555 507.56C48.3672 507.56 47.4912 507.777 46.7275 508.211C45.9489 508.645 45.3424 509.244 44.9082 510.008C44.474 510.771 44.2568 511.64 44.2568 512.613C44.2568 513.646 44.4964 514.567 44.9756 515.376C45.4398 516.185 46.0837 516.821 46.9072 517.285C47.7308 517.734 48.6292 517.966 49.6025 517.981L53.5107 517.981C54.7236 517.981 55.7868 517.749 56.7002 517.285C57.6136 516.821 58.3099 516.17 58.7891 515.331C59.2682 514.478 59.5078 513.489 59.5078 512.366C59.5078 511.618 59.403 510.936 59.1934 510.322C58.9687 509.708 58.6842 509.192 58.3398 508.772C57.9805 508.338 57.5612 508.009 57.082 507.784L57.082 501.45C58.5644 501.765 59.8672 502.416 60.9902 503.404C62.0983 504.378 62.9593 505.643 63.5732 507.2C64.1722 508.743 64.4717 510.494 64.4717 512.456ZM39.6074 497.115L39.6074 490.691L43.8525 490.691L43.8525 490.422C42.3551 489.988 41.2171 489.246 40.4385 488.198C39.6449 487.15 39.248 485.937 39.248 484.56C39.248 483.841 39.3229 483.13 39.4727 482.426L45.4023 482.426C45.2975 482.71 45.2152 483.137 45.1553 483.706C45.0804 484.275 45.043 484.799 45.043 485.278C45.043 486.267 45.2601 487.15 45.6943 487.929C46.1136 488.707 46.7126 489.329 47.4912 489.793C48.2549 490.242 49.1383 490.467 50.1416 490.467L64 490.467L64 497.115L39.6074 497.115ZM64 472.543L64 479.191L39.6074 479.191L39.6074 472.857L43.875 472.857L43.875 472.588C42.4375 472.019 41.3144 471.105 40.5059 469.848C39.6973 468.575 39.293 467.04 39.293 465.243C39.293 463.551 39.6598 462.076 40.3935 460.818C41.1273 459.561 42.1829 458.587 43.5605 457.898C44.9381 457.195 46.5703 456.843 48.457 456.843L64 456.843L64 463.491L49.6025 463.491C48.5993 463.491 47.7458 463.663 47.042 464.008C46.3232 464.337 45.7767 464.831 45.4023 465.49C45.013 466.149 44.8184 466.943 44.8184 467.871C44.8184 468.799 45.0205 469.616 45.4248 470.319C45.8141 471.023 46.3906 471.57 47.1543 471.959C47.903 472.348 48.8089 472.543 49.8721 472.543L64 472.543ZM53.4658 437.392C53.4808 437.991 53.5407 439.046 53.6455 440.559L53.8252 442.715C53.915 443.898 54.237 444.826 54.791 445.5C55.3301 446.174 56.0638 446.511 56.9922 446.511C57.5911 446.511 58.1003 446.361 58.5195 446.062C58.9388 445.747 59.2607 445.313 59.4853 444.759C59.71 444.19 59.8223 443.553 59.8223 442.85C59.8223 441.846 59.6276 440.955 59.2383 440.177C58.834 439.398 58.2874 438.792 57.5986 438.357C56.8948 437.923 56.1237 437.706 55.2851 437.706L47.4014 437.751C46.7126 437.751 46.1286 437.901 45.6494 438.2C45.1553 438.485 44.7884 438.926 44.5488 439.525C44.2943 440.109 44.167 440.806 44.167 441.614C44.167 442.737 44.4066 443.651 44.8857 444.354C45.3499 445.058 46.0088 445.5 46.8623 445.68L46.8623 452.014C45.4248 451.864 44.137 451.362 42.999 450.509C41.846 449.64 40.9401 448.442 40.2812 446.915C39.6224 445.373 39.293 443.553 39.293 441.457C39.293 439.57 39.585 437.848 40.1689 436.291C40.7529 434.734 41.6663 433.483 42.9092 432.54C44.137 431.582 45.6868 431.103 47.5586 431.103L64 431.103L64 437.414L60.6309 437.414L60.6309 437.594C61.3945 437.998 62.0609 438.53 62.6299 439.188C63.1989 439.847 63.6481 440.641 63.9775 441.569C64.292 442.483 64.4492 443.546 64.4492 444.759C64.4492 446.331 64.1722 447.724 63.6182 448.937C63.0641 450.149 62.2406 451.108 61.1475 451.812C60.0544 452.515 58.7366 452.867 57.1943 452.867C54.6488 452.867 52.7995 452.029 51.6465 450.352C50.4935 448.66 49.8346 446.473 49.6699 443.793C49.625 443.344 49.5501 441.959 49.4453 439.638L49.3555 437.437L53.4658 437.392ZM64 419.4L64 426.049L39.6074 426.049L39.6074 419.715L43.875 419.715L43.875 419.445C42.4375 418.876 41.3144 417.963 40.5059 416.705C39.6973 415.432 39.293 413.897 39.293 412.101C39.293 410.409 39.6598 408.934 40.3935 407.676C41.1273 406.418 42.1829 405.445 43.5605 404.756C44.9381 404.052 46.5703 403.7 48.457 403.7L64 403.7L64 410.349L49.6025 410.349C48.5993 410.349 47.7458 410.521 47.042 410.865C46.3232 411.195 45.7767 411.689 45.4023 412.348C45.013 413.007 44.8184 413.8 44.8184 414.729C44.8184 415.657 45.0205 416.473 45.4248 417.177C45.8141 417.881 46.3906 418.427 47.1543 418.816C47.903 419.206 48.8089 419.4 49.8721 419.4L64 419.4ZM64.4717 387.573C64.4717 390.029 63.9401 392.163 62.8769 393.975C61.8138 395.786 60.3314 397.172 58.4297 398.13C56.528 399.088 54.3493 399.567 51.8935 399.567C49.4079 399.567 47.2142 399.081 45.3125 398.107C43.4108 397.134 41.9359 395.749 40.8877 393.952C39.8245 392.155 39.293 390.044 39.293 387.618C39.293 385.522 39.6748 383.673 40.4385 382.07C41.1872 380.453 42.2653 379.188 43.6728 378.274C45.0804 377.346 46.7051 376.837 48.5469 376.747L48.5469 383.036C47.7383 383.156 47.027 383.41 46.4131 383.8C45.7842 384.189 45.305 384.698 44.9756 385.327C44.6312 385.956 44.459 386.682 44.459 387.506C44.459 388.569 44.751 389.497 45.335 390.291C45.904 391.085 46.735 391.706 47.8281 392.155C48.9212 392.604 50.2389 392.829 51.7812 392.829C53.3385 392.829 54.6712 392.612 55.7793 392.178C56.8724 391.729 57.7109 391.107 58.2949 390.313C58.8789 389.52 59.1709 388.584 59.1709 387.506C59.1709 386.712 59.0211 386.001 58.7217 385.372C58.4072 384.743 57.943 384.227 57.3291 383.822C56.7152 383.418 55.9814 383.156 55.1279 383.036L55.1279 376.747C56.9697 376.852 58.5944 377.361 60.0019 378.274C61.4095 379.173 62.5101 380.423 63.3037 382.025C64.0823 383.613 64.4717 385.462 64.4717 387.573ZM64.4717 361.563C64.4717 364.019 63.9626 366.16 62.9443 367.987C61.9261 369.799 60.4736 371.199 58.5869 372.187C56.7002 373.161 54.484 373.647 51.9385 373.647C49.4228 373.647 47.2142 373.161 45.3125 372.187C43.3958 371.199 41.9134 369.814 40.8652 368.032C39.817 366.25 39.293 364.184 39.293 361.833C39.293 359.632 39.7572 357.67 40.6855 355.948C41.5989 354.226 42.984 352.871 44.8408 351.883C46.6976 350.895 48.9661 350.4 51.6465 350.4L53.5107 350.4L53.5107 370.93L49.3555 370.93L49.3555 356.667C48.3672 356.667 47.4912 356.884 46.7275 357.318C45.9489 357.753 45.3424 358.352 44.9082 359.115C44.4739 359.879 44.2568 360.747 44.2568 361.721C44.2568 362.754 44.4964 363.675 44.9756 364.483C45.4398 365.292 46.0836 365.928 46.9072 366.393C47.7308 366.842 48.6292 367.074 49.6025 367.089L53.5107 367.089C54.7236 367.089 55.7868 366.857 56.7002 366.393C57.6136 365.928 58.3099 365.277 58.7891 364.438C59.2682 363.585 59.5078 362.597 59.5078 361.474C59.5078 360.725 59.403 360.044 59.1933 359.43C58.9687 358.816 58.6842 358.299 58.3398 357.88C57.9805 357.446 57.5612 357.116 57.082 356.892L57.082 350.558C58.5644 350.872 59.8672 351.523 60.9902 352.512C62.0983 353.485 62.9593 354.75 63.5732 356.308C64.1722 357.85 64.4717 359.602 64.4717 361.563Z" fill="white"/>
</svg>
