<svg width="65" height="650" viewBox="0 0 65 650" fill="none" xmlns="http://www.w3.org/2000/svg">
<path d="M26.8242 360.437C26.1445 360.508 25.5645 360.725 25.084 361.088C24.6035 361.439 24.2402 361.932 23.9941 362.564C23.748 363.197 23.625 363.953 23.625 364.832C23.625 365.687 23.748 366.432 23.9941 367.064C24.2402 367.686 24.5859 368.16 25.0312 368.488C25.4648 368.816 25.9629 368.98 26.5254 368.98C27.3809 368.992 28.0488 368.641 28.5293 367.926C29.0098 367.199 29.4082 366.197 29.7246 364.92L30.2695 362.635C30.8086 360.221 31.6816 358.352 32.8887 357.027C34.084 355.691 35.7012 355.018 37.7402 355.006C39.2754 355.006 40.6172 355.398 41.7656 356.184C42.9141 356.969 43.7988 358.1 44.4199 359.576C45.041 361.053 45.3516 362.816 45.3516 364.867C45.3516 366.918 45.0352 368.705 44.4023 370.229C43.7695 371.74 42.8379 372.912 41.6074 373.744C40.3652 374.576 38.8477 375.021 37.0547 375.08L37.0547 369.947C37.8867 369.877 38.5898 369.625 39.1641 369.191C39.7383 368.758 40.1719 368.172 40.4648 367.434C40.7578 366.695 40.9043 365.857 40.9043 364.92C40.9043 364.006 40.7695 363.203 40.5 362.512C40.2305 361.82 39.8555 361.287 39.375 360.912C38.8828 360.537 38.3262 360.35 37.7051 360.35C37.1426 360.35 36.668 360.514 36.2812 360.842C35.8828 361.17 35.5488 361.65 35.2793 362.283C34.998 362.904 34.7344 363.707 34.4883 364.691L33.8203 367.486C33.2695 369.713 32.4316 371.424 31.3066 372.619C30.1699 373.803 28.6934 374.395 26.877 374.395C25.3652 374.395 24.0293 373.984 22.8691 373.164C21.709 372.332 20.8066 371.189 20.1621 369.736C19.5176 368.271 19.1953 366.619 19.1953 364.779C19.1953 362.928 19.5176 361.293 20.1621 359.875C20.7949 358.457 21.6914 357.355 22.8516 356.57C24 355.785 25.3242 355.381 26.8242 355.357L26.8242 360.437ZM45.3691 343.07C45.3691 344.969 44.959 346.627 44.1387 348.045C43.3184 349.463 42.1641 350.553 40.6758 351.314C39.1875 352.076 37.4707 352.457 35.5254 352.457C33.5566 352.457 31.834 352.076 30.3574 351.314C28.8691 350.553 27.7148 349.463 26.8945 348.045C26.0742 346.627 25.6641 344.969 25.6641 343.07C25.6641 341.184 26.0742 339.531 26.8945 338.113C27.7148 336.684 28.8691 335.594 30.3574 334.844C31.834 334.094 33.5566 333.719 35.5254 333.719C37.4707 333.719 39.1875 334.094 40.6758 334.844C42.1641 335.594 43.3184 336.684 44.1387 338.113C44.959 339.531 45.3691 341.184 45.3691 343.07ZM41.3437 343.035C41.3437 342.168 41.0918 341.436 40.5879 340.838C40.084 340.229 39.3926 339.771 38.5137 339.467C37.623 339.162 36.6152 339.01 35.4902 339.01C34.3535 339.01 33.3457 339.162 32.4668 339.467C31.5879 339.771 30.8965 340.229 30.3926 340.838C29.8887 341.436 29.6367 342.168 29.6367 343.035C29.6367 343.926 29.8887 344.682 30.3926 345.303C30.8965 345.924 31.5879 346.393 32.4668 346.709C33.334 347.025 34.3418 347.184 35.4902 347.184C36.627 347.184 37.6348 347.025 38.5137 346.709C39.3926 346.393 40.084 345.924 40.5879 345.303C41.0918 344.682 41.3437 343.926 41.3437 343.035ZM45.3691 321.836C45.3691 323.758 44.9531 325.428 44.1211 326.846C43.2891 328.264 42.1289 329.348 40.6406 330.098C39.1523 330.848 37.4473 331.223 35.5254 331.223C33.5801 331.223 31.8633 330.842 30.375 330.08C28.8867 329.318 27.7324 328.234 26.9121 326.828C26.0801 325.422 25.6641 323.77 25.6641 321.871C25.6641 320.23 25.9629 318.783 26.5605 317.529C27.1465 316.264 27.9902 315.273 29.0918 314.559C30.1934 313.832 31.4648 313.434 32.9062 313.363L32.9062 318.285C32.2734 318.379 31.7168 318.578 31.2363 318.883C30.7441 319.187 30.3691 319.586 30.1113 320.078C29.8418 320.57 29.707 321.139 29.707 321.783C29.707 322.615 29.9355 323.342 30.3926 323.963C30.8379 324.584 31.4883 325.07 32.3437 325.422C33.1992 325.773 34.2305 325.949 35.4375 325.949C36.6562 325.949 37.6992 325.779 38.5664 325.439C39.4219 325.088 40.0781 324.602 40.5352 323.98C40.9922 323.359 41.2207 322.627 41.2207 321.783C41.2207 321.162 41.1035 320.605 40.8691 320.113C40.623 319.621 40.2598 319.217 39.7793 318.9C39.2988 318.584 38.7246 318.379 38.0566 318.285L38.0566 313.363C39.498 313.445 40.7695 313.844 41.8711 314.559C42.9727 315.262 43.834 316.24 44.4551 317.494C45.0645 318.736 45.3691 320.184 45.3691 321.836ZM25.9102 310.146L25.9102 304.943L45 304.943L45 310.146L25.9102 310.146ZM23.3965 307.545C23.3965 308.061 23.2793 308.535 23.0449 308.969C22.8105 309.402 22.4883 309.748 22.0781 310.006C21.668 310.264 21.2285 310.393 20.7598 310.393C20.2793 310.393 19.8398 310.264 19.4414 310.006C19.0312 309.748 18.709 309.402 18.4746 308.969C18.2402 308.535 18.123 308.061 18.123 307.545C18.123 307.029 18.2402 306.555 18.4746 306.121C18.709 305.687 19.0312 305.348 19.4414 305.102C19.8398 304.844 20.2793 304.715 20.7598 304.715C21.2285 304.715 21.668 304.844 22.0781 305.102C22.4883 305.348 22.8105 305.687 23.0449 306.121C23.2793 306.555 23.3965 307.029 23.3965 307.545ZM36.7559 289.703C36.7676 290.172 36.8144 290.998 36.8965 292.182L37.0371 293.869C37.1074 294.795 37.3594 295.521 37.793 296.049C38.2148 296.576 38.7891 296.84 39.5156 296.84C39.9844 296.84 40.3828 296.723 40.7109 296.488C41.0391 296.242 41.291 295.902 41.4668 295.469C41.6426 295.023 41.7305 294.525 41.7305 293.975C41.7305 293.189 41.5781 292.492 41.2734 291.883C40.957 291.273 40.5293 290.799 39.9902 290.459C39.4394 290.119 38.8359 289.949 38.1797 289.949L32.0098 289.984C31.4707 289.984 31.0137 290.102 30.6387 290.336C30.2519 290.559 29.9648 290.904 29.7773 291.373C29.5781 291.83 29.4785 292.375 29.4785 293.008C29.4785 293.887 29.666 294.602 30.041 295.152C30.4043 295.703 30.9199 296.049 31.5879 296.189L31.5879 301.146C30.4629 301.029 29.4551 300.637 28.5644 299.969C27.6621 299.289 26.9531 298.352 26.4375 297.156C25.9219 295.949 25.6641 294.525 25.6641 292.885C25.6641 291.408 25.8926 290.061 26.3496 288.842C26.8066 287.623 27.5215 286.645 28.4941 285.906C29.4551 285.156 30.668 284.781 32.1328 284.781L45 284.781L45 289.721L42.3633 289.721L42.3633 289.861C42.9609 290.178 43.4824 290.594 43.9277 291.109C44.373 291.625 44.7246 292.246 44.9824 292.973C45.2285 293.687 45.3516 294.52 45.3516 295.469C45.3516 296.699 45.1348 297.789 44.7012 298.738C44.2676 299.687 43.623 300.437 42.7676 300.988C41.9121 301.539 40.8809 301.814 39.6738 301.814C37.6816 301.814 36.2344 301.158 35.332 299.846C34.4297 298.521 33.9141 296.811 33.7852 294.713C33.75 294.361 33.6914 293.277 33.6094 291.461L33.5391 289.738L36.7559 289.703ZM45 275.623L45 280.826L19.5469 280.826L19.5469 275.623L45 275.623Z" fill="white"/>
</svg>
