<svg width="200" height="32" viewBox="0 0 200 32" fill="none" xmlns="http://www.w3.org/2000/svg">
<path d="M27.0968 29.001H34.7377L48.4984 2.93622H40.8658L36.915 10.7637L32.8715 2.93622H25.0834L33.1784 17.8292L27.0968 29.001ZM153.308 19.5605L159.415 28.548H167.51L159.714 18.062C160.862 17.6733 161.912 17.0393 162.794 16.2035C164.19 14.8319 164.871 13.0539 164.871 10.7722C164.871 7.55905 163.429 5.69213 162.563 4.84546C161.454 3.79559 159.394 2.54254 155.91 2.54254H146.705V28.548H153.308V19.5605ZM153.308 7.90619H154.25C155.561 7.90619 156.578 8.15171 157.192 8.61315C157.524 8.87751 157.789 9.21862 157.963 9.60766C158.137 9.99672 158.216 10.4223 158.192 10.8484C158.206 11.2442 158.141 11.6388 158.001 12.0089C157.861 12.379 157.649 12.7171 157.377 13.0031C156.536 13.8498 155.242 13.9726 154.225 13.9726H153.329L153.308 7.90619ZM16.7111 26.2746C17.4017 25.5652 17.9416 24.7215 18.2978 23.795C18.6541 22.8684 18.8193 21.8786 18.7832 20.8857C18.7832 18.3711 17.8417 16.8936 17.0515 16.0977C16.3045 15.3814 15.4045 14.847 14.4205 14.5356C14.9602 14.1409 15.416 13.6414 15.7612 13.0666C16.3803 12.0342 16.6884 10.843 16.6481 9.63761C16.6481 7.52094 15.9798 5.79374 14.7189 4.5576C12.567 2.53829 9.17513 2.53829 8.06133 2.53829H0V28.548H9.8224C12.878 28.548 15.1308 27.8072 16.7069 26.2746H16.7111ZM6.52724 7.90619H7.01059C8.0109 7.90619 9.04063 7.90619 9.75935 8.46498C10.0232 8.6765 10.2339 8.94776 10.3741 9.25671C10.5143 9.56567 10.5802 9.90357 10.5663 10.243C10.5866 10.6025 10.5208 10.9617 10.3745 11.2902C10.2283 11.6188 10.0057 11.9072 9.72573 12.1311C8.93977 12.7068 7.59061 12.7661 7.04841 12.7661H6.52724V7.90619ZM6.52724 23.1843V17.9096H7.68306C8.78845 17.9096 10.6252 17.9096 11.5288 18.7562C11.7509 18.9803 11.9242 19.2484 12.0378 19.5436C12.1514 19.8387 12.2028 20.1545 12.1887 20.4708C12.2049 20.8031 12.152 21.1352 12.0333 21.4458C11.9146 21.7565 11.7327 22.0385 11.4994 22.2742C10.5285 23.1843 8.71281 23.1843 7.51074 23.1843H6.52724ZM190.043 22.8032H181.686V18.0577H189.631V12.3131H181.686V8.28294H190.043V2.54254H175.088V28.548H190.043V22.8032ZM95.0171 29.183C97.6955 29.183 100.314 28.3831 102.541 26.8842C104.768 25.3855 106.503 23.2553 107.528 20.7628C108.553 18.2706 108.821 15.528 108.299 12.8821C107.776 10.2363 106.487 7.80588 104.593 5.89831C102.699 3.99074 100.286 2.69168 97.6589 2.16538C95.0321 1.63909 92.3092 1.9092 89.8348 2.94156C87.3602 3.97393 85.2452 5.72218 83.7573 7.96524C82.2692 10.2083 81.475 12.8454 81.475 15.5431C81.4784 19.1596 82.9061 22.627 85.445 25.1843C87.984 27.7415 91.4265 29.1796 95.0171 29.183ZM95.0171 8.90524C96.3214 8.90524 97.5966 9.29492 98.6813 10.0249C99.7658 10.755 100.611 11.7926 101.11 13.0065C101.609 14.2205 101.739 15.5562 101.484 16.8447C101.23 18.1334 100.601 19.3168 99.6786 20.2456C98.7559 21.1743 97.5805 21.8065 96.3009 22.0624C95.0214 22.3181 93.6955 22.186 92.4904 21.6826C91.2856 21.1793 90.256 20.3273 89.5319 19.2344C88.8077 18.1415 88.4218 16.857 88.4225 15.5431C88.4247 13.7826 89.1204 12.0949 90.3567 10.8504C91.5931 9.60594 93.2692 8.90637 95.0171 8.90524ZM72.1611 26.2619C72.8519 25.5525 73.3917 24.7088 73.7479 23.7823C74.1041 22.8557 74.2694 21.8659 74.2333 20.873C74.2333 18.3584 73.2876 16.8809 72.4975 16.085C71.7521 15.3685 70.8533 14.834 69.8704 14.5229C70.4103 14.1282 70.8661 13.6287 71.2113 13.0539C71.8303 12.0215 72.1384 10.8303 72.0982 9.62492C72.0982 8.16441 71.7618 6.09854 70.169 4.54489C68.0169 2.50442 64.6294 2.50443 63.5113 2.50443H55.4542V28.548H65.2724C68.3322 28.548 70.585 27.8072 72.1611 26.2746V26.2619ZM61.9814 7.90619H62.4649C63.4609 7.90619 64.495 7.90619 65.2137 8.46498C65.4775 8.6765 65.6881 8.94776 65.8283 9.25671C65.9686 9.56567 66.0344 9.90357 66.0205 10.243C66.0409 10.6025 65.9751 10.9617 65.8288 11.2902C65.6825 11.6188 65.46 11.9072 65.18 12.1311C64.394 12.7068 63.0449 12.7661 62.5027 12.7661H61.9814V7.90619ZM61.9814 23.1843V17.9096H63.1373C64.2386 17.9096 66.0795 17.9096 66.9831 18.7562C67.2045 18.9829 67.3764 19.2535 67.4879 19.5509C67.5993 19.8484 67.6479 20.1659 67.6303 20.4835C67.6468 20.8162 67.5935 21.1489 67.4741 21.4595C67.3546 21.7702 67.1715 22.0521 66.9369 22.2869C65.9701 23.1971 64.1544 23.1971 62.9524 23.1971L61.9814 23.1843ZM123.602 19.5605L129.713 28.548H137.808L129.99 18.062C131.137 17.6742 132.187 17.0402 133.067 16.2035C134.466 14.8319 135.143 13.0539 135.143 10.7722C135.143 7.55905 133.701 5.69213 132.84 4.84546C131.726 3.79559 129.671 2.54254 126.182 2.54254H117.003V28.548H123.602V19.5605ZM123.602 7.90619H124.535C125.85 7.90619 126.863 8.15171 127.477 8.61315C127.809 8.87751 128.074 9.21862 128.248 9.60766C128.422 9.99672 128.501 10.4223 128.477 10.8484C128.491 11.2442 128.426 11.6388 128.286 12.0089C128.146 12.379 127.934 12.7171 127.662 13.0031C126.821 13.8498 125.531 13.9726 124.509 13.9726H123.614L123.602 7.90619Z" fill="white"/>
<path d="M193.244 5.41113C193.242 5.1116 193.304 4.81501 193.426 4.54045C193.543 4.27451 193.709 4.03213 193.914 3.82537C194.12 3.61869 194.361 3.4514 194.626 3.33209C194.907 3.21636 195.206 3.15677 195.511 3.15677C195.814 3.15677 196.114 3.21636 196.396 3.33209C196.664 3.44736 196.909 3.61131 197.116 3.81544C197.325 4.02338 197.493 4.26964 197.606 4.54045C197.727 4.81501 197.788 5.1116 197.787 5.41113C197.79 5.71176 197.727 6.0095 197.606 6.28512C197.491 6.55238 197.325 6.79519 197.116 7.0002C196.909 7.20434 196.664 7.36827 196.396 7.48354C196.114 7.59928 195.814 7.65887 195.511 7.65887C195.206 7.65887 194.907 7.59928 194.626 7.48354C194.361 7.3672 194.12 7.20331 193.914 7.0002C193.709 6.79343 193.543 6.55104 193.426 6.28512C193.304 6.0095 193.242 5.71176 193.244 5.41113ZM193.871 5.41113C193.869 5.63803 193.913 5.86319 193.999 6.07325C194.08 6.27552 194.201 6.46002 194.354 6.61618C194.505 6.76927 194.684 6.89282 194.882 6.98034C195.082 7.0724 195.302 7.11878 195.522 7.11608C195.745 7.11839 195.965 7.07202 196.167 6.98034C196.365 6.89282 196.543 6.76927 196.693 6.61618C196.846 6.45899 196.967 6.27476 197.05 6.07325C197.221 5.64792 197.221 5.17435 197.05 4.74902C196.887 4.3439 196.57 4.018 196.167 3.84192C195.965 3.75176 195.745 3.70546 195.522 3.70619C195.302 3.70511 195.082 3.75142 194.882 3.84192C194.684 3.92943 194.505 4.053 194.354 4.20608C194.201 4.36185 194.08 4.54646 193.999 4.74902C193.913 4.95904 193.869 5.18422 193.871 5.41113ZM194.646 4.20939H195.493C195.559 4.20939 195.646 4.20939 195.765 4.20939C195.88 4.21768 195.994 4.24568 196.1 4.29216C196.214 4.34464 196.311 4.42294 196.388 4.52059C196.478 4.65896 196.516 4.82416 196.496 4.98738C196.498 5.08975 196.482 5.19177 196.448 5.28864C196.419 5.35988 196.376 5.425 196.322 5.48064C196.271 5.53076 196.21 5.57017 196.143 5.59652C196.078 5.62274 196.008 5.63947 195.938 5.64617L196.552 6.58308H195.909L195.361 5.6495H195.257V6.55659H194.633L194.646 4.20939ZM195.268 5.20256H195.52H195.637C195.678 5.19972 195.72 5.18962 195.758 5.17277C195.794 5.15588 195.824 5.12957 195.848 5.09663C195.875 5.05401 195.887 5.00432 195.886 4.95426C195.887 4.90429 195.875 4.85483 195.848 4.81192C195.826 4.77906 195.794 4.75362 195.758 4.73908C195.718 4.72262 195.678 4.71147 195.637 4.70598H195.257L195.268 5.20256Z" fill="white"/>
</svg>
