<svg width="1024" height="1024" viewBox="0 0 1024 1024" fill="none" xmlns="http://www.w3.org/2000/svg">
<path d="M647.879 891.818V541.348C648.669 541.188 649.439 540.918 650.209 540.908C684.859 540.258 719.509 539.208 754.169 539.118C779.809 539.048 805.489 540.488 830.639 545.898C858.059 551.798 881.719 564.138 896.289 589.538C907.289 608.718 909.529 629.648 908.199 651.348C906.809 673.928 896.219 691.458 879.779 706.088C878.049 707.628 876.189 709.018 874.129 710.698C875.639 712.038 876.239 712.848 877.049 713.258C898.369 723.958 909.259 742.578 915.079 764.548C921.709 789.538 918.929 814.048 908.629 837.608C897.739 862.508 877.169 875.918 852.269 884.048C830.639 891.108 808.259 892.498 785.819 892.568C740.659 892.708 695.509 892.298 650.349 892.108C649.699 892.108 649.039 891.958 647.869 891.818H647.879ZM747.899 805.808C762.759 805.808 776.909 806.138 791.029 805.628C795.859 805.448 800.859 803.698 805.349 801.678C815.489 797.118 820.329 786.458 817.889 775.588C815.659 765.678 805.829 757.048 793.789 756.338C779.849 755.518 765.819 755.938 751.839 756.108C750.519 756.128 748.099 758.188 748.079 759.338C747.829 774.628 747.909 789.918 747.909 805.808H747.899ZM748.719 627.298V674.598C757.969 674.598 766.429 674.668 774.889 674.568C778.369 674.528 781.859 674.248 785.319 673.828C797.939 672.298 805.669 666.548 807.779 657.258C810.979 643.158 803.539 631.308 788.339 629.228C775.269 627.438 761.889 627.868 748.719 627.318V627.298Z" fill="white"/>
<path d="M633.639 892.308H525.809C521.809 877.828 517.709 862.968 513.599 848.058H411.939C408.539 860.738 404.869 873.318 401.879 886.058C400.649 891.288 398.709 893.118 393.059 893.058C361.569 892.728 330.079 892.898 298.579 892.898H292.359C292.939 890.238 293.249 888.018 293.919 885.918C324.339 790.908 354.799 695.908 385.239 600.898C391.129 582.508 397.049 564.138 402.759 545.698C403.849 542.178 405.349 540.778 409.299 540.798C445.289 540.978 481.279 540.928 517.269 540.858C520.219 540.858 521.919 541.218 522.999 544.618C559.459 659.258 596.059 773.848 632.639 888.448C632.939 889.378 633.129 890.348 633.629 892.308H633.639ZM463.349 663.268C462.919 663.308 462.499 663.348 462.069 663.388C452.729 697.738 443.389 732.088 433.999 766.618H491.749C482.219 731.918 472.789 697.598 463.349 663.278V663.268Z" fill="white"/>
<path d="M318.06 541.518V638.728H200.5V684.258H315.05V781.788H199.91C199.91 783.948 199.9 785.708 199.91 787.468C200.17 820.788 200.34 854.118 200.78 887.438C200.84 891.868 199.69 893.058 195.24 892.988C164.92 892.538 134.59 892.388 104.27 892.128C102.96 892.118 101.64 891.978 100 891.878V541.508H318.05L318.06 541.518Z" fill="white"/>
<path d="M541.01 320.858C541.03 238.488 595.24 163.998 669.91 140.858C684.2 136.428 699.47 135.008 714.37 132.728C746.77 127.778 778.02 133.758 807.3 146.918C873.7 176.768 914.22 227.598 922.22 300.728C929.35 365.828 898.79 455.198 803.79 492.078C777.36 502.338 749.91 508.218 721.5 507.788C680.97 507.178 645.59 492.208 614.43 466.888C575.01 434.868 551.32 393.618 543.27 343.488C541.85 334.638 541.47 325.618 541.01 320.858ZM869.54 211.028C860.97 216.288 853.29 221.918 844.86 225.968C832.6 231.868 819.75 236.528 807.23 241.908C787.12 250.548 766.54 257.498 744.76 260.538C740.46 261.138 736.48 260.898 734.21 256.918C731.61 252.348 730.79 247.668 733.44 242.298C736.62 235.868 742.01 234.048 748.17 232.738C763.31 229.528 778.44 226.308 793.53 222.888C813.21 218.438 831.13 210.518 845.47 195.788C849.143 192.014 848.96 188.568 844.92 185.448C842.68 183.718 840.48 181.918 838.15 180.308C832.62 176.498 827.01 172.778 821.2 168.858C816.48 177.638 811.31 185.008 803.09 188.918C793.81 193.338 784.3 197.618 774.45 200.408C753.75 206.278 740.69 200.908 728.56 182.998C726.22 179.548 723.95 176.058 721.53 172.678C714.52 162.858 705.26 155.998 693.71 152.588C690.93 151.768 687.38 151.778 684.69 152.768C673.46 156.908 662.45 161.678 651.29 166.018C632.18 173.448 615.37 184.208 602.07 199.978C597.52 205.368 593.39 211.098 588.81 216.998C595.86 219.578 601.35 218.968 607.1 216.988C619.03 212.888 629.86 207.038 640.02 199.558C647.9 193.758 656.04 188.018 664.82 183.848C670.35 181.218 677.57 179.818 683.53 180.848C697.61 183.268 705.28 194.098 710.86 206.238C713.66 212.328 712.5 218.678 709.45 224.558C707.61 228.098 705.47 231.488 703.54 234.978C697.34 246.238 696.08 257.888 700.64 270.098C702.09 273.968 703.59 277.968 704.06 282.028C704.82 288.508 702.62 294.768 694.23 296.098C687.44 297.178 683.11 295.748 680.7 288.958C677.89 281.018 675.79 272.698 674.54 264.378C672.63 251.648 676.46 240.308 685.66 231.138C690.01 226.808 692.23 221.628 693.28 215.768C694.74 207.668 683.3 196.258 675.57 198.948C670.67 200.658 665.46 203.888 662.39 207.958C653.14 220.188 641.47 228.298 626.81 232.218C615.14 235.338 603.36 238.038 591.7 241.168C578.39 244.748 568.14 251.768 564.41 266.068C563.48 269.628 564 271.748 567.57 273.008C579.3 277.158 586.52 286.238 592.47 296.468C597.99 305.958 603.14 315.658 608.39 325.298C611.9 331.738 611.25 336.468 606.44 340.438C601.88 344.208 596.08 344.198 591.16 339.138C586.94 334.788 583.52 329.558 580.32 324.358C576.58 318.278 573.92 311.508 569.94 305.608C567.11 301.408 562.88 298.158 559.28 294.488C558.47 294.848 557.67 295.208 556.86 295.568C557.63 310.608 557.77 325.718 559.33 340.678C561.8 364.528 583.26 381.198 609.99 371.818C625.82 366.268 642.6 366.078 658.99 371.678C668.9 375.068 678.92 378.188 688.96 381.168C712.64 388.188 732.26 382.658 747.09 362.188C750.89 356.938 754.84 351.588 759.66 347.338C765.06 342.568 771.17 338.288 777.62 335.118C783.73 332.118 788.06 334.208 791.7 339.698C794.75 344.288 794.38 347.978 790.02 353.228C772.99 373.758 752.35 389.878 728.89 402.388C719.51 407.388 709.24 409.338 698.89 406.418C691.77 404.408 684.71 401.498 678.27 397.848C662.46 388.878 645.96 385.528 628.3 390.268C610.02 395.178 592.11 394.868 574.39 388.008C573.4 387.628 572.27 387.588 570.29 387.218C572.16 391.488 573.54 395.038 575.22 398.428C583.48 415.058 595.73 428.748 608.18 442.188C620.06 455.018 634.06 465.148 649.9 472.698C668.83 481.718 683 478.638 695.41 461.748C703.61 450.588 713.74 442.078 725.94 435.838C731.72 432.888 737.46 429.848 743.33 427.088C758.69 419.868 772.55 410.758 784.36 398.308C795.93 386.098 809.92 377.028 825.59 370.708C838.05 365.678 850.71 364.408 863.63 368.888C867 370.058 869.99 371.408 870.8 375.618C872.46 384.198 870.47 388.638 861.95 390.448C854.37 392.058 846.47 392.778 838.71 392.858C821.69 393.038 807.88 398.968 798.15 413.318C797.12 414.838 795.9 416.208 794.86 417.718C788.98 426.228 781.55 433.058 772.53 438.078C765.12 442.208 757.54 446.028 750.08 450.078C741.45 454.758 732.63 459.128 724.35 464.358C714.94 470.298 707.63 478.488 702 488.608C718.47 493.438 734.02 493.268 748.63 483.818C755.48 479.388 762.19 474.728 769.11 470.418C778.49 464.568 787.8 463.278 797.36 470.608C803.41 475.258 810.66 475.668 817.17 471.868C824.96 467.308 832.17 461.748 839.94 456.408C834.43 454.558 829.48 453.128 824.72 451.238C820.26 449.468 818.22 446.098 818.4 441.028C818.64 434.438 821.66 430.188 827.46 427.378C835.98 423.238 845.17 423.088 854.24 423.048C868.69 422.978 879.74 417.398 885.22 403.838C889.86 392.348 893.47 380.408 897 368.518C905.29 340.588 908.6 312.198 903.41 283.248C902.41 277.678 900.65 272.248 899.18 266.538C894.39 267.998 890.93 269.158 887.41 270.088C886.05 270.448 884.44 270.678 883.14 270.288C871.62 266.838 867.26 253.788 874.33 244.308C875.82 242.308 877.31 240.288 878.59 238.148C882.06 232.358 882.52 226.628 877.87 221.128C874.89 217.608 871.97 214.028 869.5 211.058L869.54 211.028ZM730.68 146.518C730.26 147.098 729.84 147.688 729.42 148.268C734.42 155.248 738.94 162.638 744.54 169.098C750.94 176.478 759.68 179.548 769.37 177.658C781.25 175.328 790.03 167.638 799.77 158.808C776.42 151.278 754.12 145.708 730.67 146.518H730.68Z" fill="white"/>
<path d="M518.081 498.288H405.301V139.528H518.081V498.288ZM420.711 220.998C426.651 221.668 431.931 222.268 437.221 222.858C443.881 223.598 448.141 228.868 447.501 235.578C446.821 242.738 441.911 247.108 433.851 248.048C430.741 248.408 427.691 249.298 424.601 249.878C420.671 250.618 418.841 253.178 419.011 256.928C419.251 262.058 419.611 267.228 420.441 272.288C421.611 279.438 423.431 280.478 430.531 279.718C441.401 278.558 451.131 274.568 459.931 268.208C469.471 261.318 479.901 257.048 491.851 256.808C494.461 256.758 497.061 255.818 499.641 255.188C502.771 254.418 503.841 252.288 503.511 249.178C502.941 243.718 502.231 238.248 502.051 232.768C501.941 229.498 500.351 228.448 497.571 228.088C493.621 227.578 489.641 227.188 485.741 226.428C479.511 225.218 476.901 221.658 476.851 214.838C476.821 211.008 480.481 206.918 485.191 205.628C488.701 204.668 492.351 204.088 495.761 202.838C503.141 200.128 503.781 198.828 502.931 191.138C502.511 187.328 502.791 183.308 501.591 179.778C500.711 177.178 498.251 173.848 495.931 173.308C492.461 172.508 488.291 173.278 484.791 174.468C479.631 176.238 474.791 178.958 469.821 181.288C456.511 187.548 443.071 193.288 427.921 193.018C426.461 192.988 424.791 193.248 423.581 193.988C422.381 194.718 420.891 196.188 420.851 197.378C420.611 205.008 420.721 212.648 420.721 220.988L420.711 220.998ZM421.951 349.718C421.581 352.968 421.341 355.108 421.101 357.258C421.051 357.758 421.021 358.258 420.981 358.748C419.511 376.968 424.791 391.458 442.531 399.818C448.181 402.478 453.241 406.528 458.241 410.368C463.821 414.648 464.061 417.598 461.421 423.888C458.881 429.918 452.641 433.178 447.011 432.278C439.271 431.038 433.901 426.148 428.721 420.868C426.051 418.148 423.291 415.518 419.711 411.998C419.711 432.768 419.631 451.918 419.761 471.078C419.791 475.918 421.121 480.458 425.411 484.128C428.031 481.768 430.481 479.788 432.671 477.548C440.251 469.818 448.991 463.748 459.151 460.118C475.171 454.388 488.751 445.268 500.141 432.668C503.811 428.608 505.681 424.158 504.081 419.018C502.821 414.958 501.301 410.478 498.511 407.478C490.851 399.238 483.091 390.838 474.191 384.058C461.641 374.498 448.041 366.288 434.841 357.588C430.851 354.958 426.671 352.598 421.941 349.718H421.951ZM502.791 364.838C502.791 357.228 503.091 349.938 502.681 342.688C502.441 338.358 499.821 335.498 495.091 334.838C492.661 334.498 490.251 333.588 488.001 332.548C482.991 330.248 480.291 326.198 480.421 320.658C480.551 315.068 484.631 312.678 489.161 310.948C492.571 309.648 496.161 308.798 499.511 307.358C500.811 306.798 502.441 305.288 502.591 304.048C503.251 298.598 503.591 293.098 503.721 287.618C503.821 283.418 501.451 280.788 497.421 279.728C492.091 278.318 486.921 278.328 482.031 281.408C473.871 286.558 465.711 291.728 457.421 296.688C450.051 301.098 442.131 302.938 433.481 301.268C429.471 300.498 425.331 300.388 420.921 299.948C420.521 307.128 420.341 313.768 419.721 320.358C419.351 324.328 421.191 326.728 424.291 328.428C426.171 329.458 428.241 330.208 430.311 330.788C441.151 333.798 450.421 339.178 458.241 347.428C462.901 352.348 468.121 356.948 473.751 360.698C482.461 366.508 492.261 367.298 502.801 364.838H502.791ZM473.761 155.188C473.661 154.758 473.571 154.338 473.471 153.908C457.891 153.908 442.301 153.888 426.721 153.918C421.541 153.918 419.591 156.088 419.931 161.308C420.051 163.138 420.511 164.958 420.431 166.768C420.221 171.268 422.291 172.388 426.301 171.148C440.251 166.838 454.231 162.608 468.151 158.208C470.141 157.578 471.891 156.208 473.761 155.178V155.188ZM466.451 481.768L466.591 482.778C472.151 483.138 477.721 483.798 483.281 483.778C488.391 483.758 493.531 483.198 498.601 482.448C500.071 482.228 502.401 480.628 502.501 479.498C503.021 473.438 502.911 467.338 499.671 461.218C488.381 468.198 477.421 474.978 466.451 481.758V481.768Z" fill="white"/>
<path d="M100.51 137.798C122.99 137.358 145.63 136.388 168.26 136.608C196.06 136.878 223.9 137.368 251.63 139.198C272.66 140.588 293.42 144.308 313.26 152.448C363.45 173.058 385.79 228.708 362.84 277.828C358.42 287.288 352.68 296.158 347.29 305.148C343.28 311.838 343.84 313.748 349.04 319.718C356.54 328.328 364.1 337.068 370.28 346.628C383.87 367.648 383.55 390.638 377.95 414.098C371.96 439.178 360.84 460.938 338.87 475.858C324.3 485.748 307.95 491.018 290.8 494.038C238.72 503.218 186.22 500.448 133.78 499.458C122.97 499.258 112.16 499.428 100.5 499.428V137.798H100.51ZM292.2 160.128C290.96 159.728 289.74 159.118 288.45 158.958C274.26 157.228 260.1 154.528 245.87 154.098C213.75 153.138 181.6 153.248 149.45 153.068C143.47 153.038 137.28 154.648 134.33 159.978C131.28 165.508 127.6 169.338 121.65 171.018C116.31 172.528 114.21 176.128 114.51 181.448C114.62 183.438 114.49 185.468 114.79 187.428C116.18 196.498 119.35 199.078 128.35 200.018C131.26 200.318 135.28 201.568 136.55 203.718C140.08 209.648 139.75 216.348 137.83 223.038C136.28 228.438 132.31 229.878 127.5 230.928C120.91 232.368 116.38 235.948 116.24 243.478C115.87 263.948 115.31 284.418 115.05 304.888C114.98 310.598 118.22 314.748 122.58 318.338C133.3 327.168 133.49 334.088 123.99 344.208C121.17 347.218 118.58 350.548 116.43 354.068C113.23 359.318 113.03 365.098 114.84 370.938C116.21 375.358 119.19 377.978 123.4 380.018C133.72 385.018 138.65 395.458 125.86 404.858C124.79 405.648 123.76 406.568 122.57 407.108C114.71 410.658 112.27 416.798 113.81 424.938C113.9 425.428 113.87 425.938 113.92 426.428C114.54 433.121 118.153 437.341 124.76 439.088C125.56 439.298 126.35 439.588 127.14 439.848C134.26 442.228 137.41 445.968 137.56 452.198C137.72 458.918 134.16 464.368 127.91 466.948C124.84 468.218 121.79 469.578 118.66 470.678C114.01 472.308 115.09 476.408 115.25 479.518C115.41 482.668 118.04 483.978 121.41 483.868C134.06 483.458 146.73 483.318 159.37 482.788C160.84 482.728 163 481.168 163.53 479.788C164.95 476.098 165.43 472.068 166.7 468.308C169.19 460.938 176.28 456.808 184.02 457.908C192.29 459.088 197.16 464.148 198.07 472.148C198.37 474.748 199.39 477.268 200.02 479.828C200.84 483.168 202.99 484.058 206.28 484.008C216.77 483.838 227.27 483.718 237.76 484.008C253.85 484.438 269.58 482.288 285.36 479.308C294.78 477.528 299.69 473.778 300.93 463.518C302.58 449.918 315.6 444.858 327.23 452.138C329.35 453.458 331.49 454.748 333.63 456.028C336.73 457.888 339.26 457.638 341.92 454.778C350.68 445.368 357.43 434.868 361.02 422.428C366.08 404.878 366.3 386.888 365.42 368.908C364.92 358.658 361.86 356.168 351.29 354.188C339.21 351.928 336.84 350.228 335.24 338.108C334.04 329.058 331.43 321.958 322.52 317.898C318.78 316.188 318.86 312.618 321.9 309.788C324.45 307.398 326.96 304.868 329.88 302.988C337.17 298.298 338.75 292.588 335.41 284.448C332.28 276.828 334.26 273.258 341.62 269.648C358.72 261.248 355.42 265.848 355.91 245.788C355.92 245.288 355.84 244.788 355.85 244.288C355.96 240.338 354.65 238.758 350.17 239.258C346.38 239.678 342.19 239.048 338.55 237.818C332.02 235.608 328.37 229.018 329.46 222.938C330.81 215.378 335.42 211.318 343.03 210.768C345.25 210.608 347.43 210.018 349.79 209.608C347.49 193.718 337.26 184.168 326.56 175.168C322.39 179.508 318.93 184.108 314.51 187.438C309.7 191.048 303.85 191.008 298.4 188.108C289.84 183.548 288.2 176.048 292.22 160.128H292.2Z" fill="white"/>
<path d="M698.43 352.168C679.08 351.118 661.93 344.288 646.61 332.458C639.7 327.118 636.95 319.428 634.59 311.648C632.13 303.548 628.2 296.488 623.16 289.708C620.12 285.618 617.79 280.458 616.88 275.458C615.72 269.078 620.49 263.858 627.86 261.298C633 259.518 639.3 261.208 642.07 266.678C645.32 273.118 647.34 280.208 649.55 287.128C651.27 292.498 652.081 298.188 653.981 303.478C661.031 323.048 684.38 335.178 704.3 329.068C709.57 327.448 714.18 323.258 718.66 319.708C721.05 317.808 722.95 314.948 724.31 312.158C731.55 297.238 744.59 291.348 759.79 287.688C778.52 283.178 797.12 278.018 814.51 269.278C819.04 266.998 824.21 265.978 829.13 264.488C834.07 262.988 838.11 264.868 840.85 268.798C843.99 273.298 843.37 279.098 839.88 283.188C835.18 288.688 829.14 292.308 822.21 293.868C807.65 297.148 793.06 300.508 778.32 302.808C766.29 304.688 755.99 309.168 747.75 318.068C741.19 325.158 735.07 332.658 728.43 339.658C720.36 348.178 710.3 352.408 698.42 352.178L698.43 352.168Z" fill="white"/>
<path d="M841.369 340.068C838.509 339.768 835.879 339.388 833.239 339.258C829.049 339.048 826.589 337.048 825.489 332.938C824.369 328.738 825.339 325.198 828.809 322.848C833.999 319.328 839.259 315.808 844.879 313.068C852.019 309.588 859.539 306.898 866.889 303.848C871.719 301.848 878.289 303.358 881.329 307.178C885.339 312.208 885.759 318.398 882.199 323.208C874.959 332.988 864.189 336.338 853.039 338.748C849.169 339.588 845.139 339.658 841.369 340.068Z" fill="white"/>
<path d="M639.571 417.548C650.151 418.888 659.731 420.788 668.491 426.328C673.441 429.458 673.371 433.798 672.401 438.478C671.451 443.068 668.481 445.378 663.701 445.908C653.821 446.998 644.171 446.458 634.711 443.168C629.471 441.348 625.361 438.288 622.591 433.428C620.131 429.128 620.581 425.388 625.101 423.008C629.621 420.618 634.721 419.328 639.571 417.548Z" fill="white"/>
<path d="M318.67 402.578C318.63 392.538 326.67 383.968 336.19 383.888C346.9 383.798 355.76 392.568 355.65 403.148C355.55 411.878 345.9 421.138 336.51 420.738C328.15 420.388 318.7 413.108 318.67 402.578Z" fill="white"/>
<path d="M268.62 359.268C268.69 349.558 276.95 340.868 286.04 340.938C297.16 341.028 305.31 349.298 305.09 360.288C304.9 370.038 297.07 377.378 286.81 377.428C276.14 377.478 268.54 369.898 268.62 359.268Z" fill="white"/>
<path d="M180.869 219.898C191.769 220.018 199.579 227.708 199.609 238.358C199.639 247.388 190.359 256.988 181.739 256.828C171.059 256.638 163.309 248.668 163.409 237.968C163.489 228.588 171.989 219.788 180.869 219.888V219.898Z" fill="white"/>
<path d="M220.83 337.438C221.92 345.368 213.36 355.108 202.34 354.988C192.61 354.878 184.56 346.578 184.58 336.458C184.59 326.638 192.79 318.418 202.78 318.828C214.59 319.308 220.61 325.468 220.83 337.438Z" fill="white"/>
</svg>
