<svg width="42" height="210" viewBox="0 0 42 210" fill="none" xmlns="http://www.w3.org/2000/svg">
<circle cx="20.625" cy="20.625" r="19.875" stroke="white" stroke-width="1.5"/>
<circle cx="20.625" cy="76.875" r="19.875" stroke="white" stroke-width="1.5"/>
<circle cx="20.625" cy="133.125" r="19.875" stroke="white" stroke-width="1.5"/>
<circle cx="20.625" cy="189.375" r="19.875" stroke="white" stroke-width="1.5"/>
<path d="M25.1165 15.7727C25.0014 14.8011 24.5348 14.0469 23.7166 13.5099C22.8984 12.973 21.8949 12.7045 20.706 12.7045C19.8366 12.7045 19.076 12.8452 18.424 13.1264C17.7784 13.4077 17.2734 13.7944 16.9091 14.2866C16.5511 14.7788 16.3722 15.3381 16.3722 15.9645C16.3722 16.4886 16.4968 16.9393 16.7461 17.3164C17.0018 17.6871 17.3278 17.9972 17.7241 18.2464C18.1204 18.4893 18.5359 18.6907 18.9705 18.8505C19.4052 19.0039 19.8047 19.1286 20.169 19.2244L22.1634 19.7614C22.6747 19.8956 23.2436 20.081 23.87 20.3175C24.5028 20.554 25.1069 20.8768 25.6822 21.2859C26.2638 21.6886 26.7433 22.2063 27.1204 22.8391C27.4975 23.4719 27.6861 24.2486 27.6861 25.169C27.6861 26.2301 27.408 27.1889 26.8519 28.0455C26.3022 28.902 25.4968 29.5827 24.4357 30.0877C23.381 30.5927 22.0994 30.8452 20.5909 30.8452C19.1847 30.8452 17.967 30.6183 16.9379 30.1644C15.9151 29.7106 15.1097 29.0778 14.5217 28.266C13.94 27.4542 13.6108 26.5114 13.5341 25.4375H15.9886C16.0526 26.179 16.3018 26.7926 16.7365 27.2784C17.1776 27.7578 17.7337 28.1158 18.4048 28.3523C19.0824 28.5824 19.8111 28.6974 20.5909 28.6974C21.4986 28.6974 22.3136 28.5504 23.0359 28.2564C23.7582 27.956 24.3303 27.5405 24.7521 27.0099C25.174 26.473 25.3849 25.8466 25.3849 25.1307C25.3849 24.4787 25.2028 23.9482 24.8384 23.5391C24.4741 23.13 23.9947 22.7976 23.4002 22.5419C22.8058 22.2862 22.1634 22.0625 21.473 21.8707L19.0568 21.1804C17.5227 20.7393 16.3082 20.1097 15.4134 19.2915C14.5185 18.4734 14.071 17.4027 14.071 16.0795C14.071 14.9801 14.3683 14.0213 14.9627 13.2031C15.5636 12.3786 16.369 11.7393 17.3789 11.2855C18.3952 10.8253 19.5298 10.5952 20.7827 10.5952C22.0483 10.5952 23.1733 10.8221 24.1577 11.2759C25.142 11.7234 25.9219 12.337 26.4972 13.1168C27.0788 13.8967 27.3857 14.782 27.4176 15.7727H25.1165Z" fill="white"/>
<path d="M29.446 76.9318C29.446 79.0028 29.0721 80.7926 28.3242 82.3011C27.5764 83.8097 26.5504 84.973 25.2464 85.7912C23.9425 86.6094 22.4531 87.0185 20.7784 87.0185C19.1037 87.0185 17.6143 86.6094 16.3104 85.7912C15.0064 84.973 13.9805 83.8097 13.2326 82.3011C12.4847 80.7926 12.1108 79.0028 12.1108 76.9318C12.1108 74.8608 12.4847 73.071 13.2326 71.5625C13.9805 70.054 15.0064 68.8906 16.3104 68.0724C17.6143 67.2543 19.1037 66.8452 20.7784 66.8452C22.4531 66.8452 23.9425 67.2543 25.2464 68.0724C26.5504 68.8906 27.5764 70.054 28.3242 71.5625C29.0721 73.071 29.446 74.8608 29.446 76.9318ZM27.1449 76.9318C27.1449 75.2315 26.8604 73.7965 26.2915 72.6268C25.729 71.457 24.9652 70.5717 24 69.9709C23.0412 69.37 21.9673 69.0696 20.7784 69.0696C19.5895 69.0696 18.5124 69.37 17.5472 69.9709C16.5884 70.5717 15.8246 71.457 15.2557 72.6268C14.6932 73.7965 14.4119 75.2315 14.4119 76.9318C14.4119 78.6321 14.6932 80.0671 15.2557 81.2369C15.8246 82.4066 16.5884 83.2919 17.5472 83.8928C18.5124 84.4936 19.5895 84.794 20.7784 84.794C21.9673 84.794 23.0412 84.4936 24 83.8928C24.9652 83.2919 25.729 82.4066 26.2915 81.2369C26.8604 80.0671 27.1449 78.6321 27.1449 76.9318Z" fill="white"/>
<path d="M10.6278 123.364H13.4659L20.1392 139.663H20.3693L27.0426 123.364H29.8807V143H27.6562V128.081H27.4645L21.3281 143H19.1804L13.044 128.081H12.8523V143H10.6278V123.364Z" fill="white"/>
<path d="M14.4332 199.25H11.9403L19.1506 179.614H21.6051L28.8153 199.25H26.3224L20.4545 182.72H20.3011L14.4332 199.25ZM15.3537 191.58H25.402V193.689H15.3537V191.58Z" fill="white"/>
</svg>
