<svg width="614" height="144" viewBox="0 0 614 144" fill="none" xmlns="http://www.w3.org/2000/svg">
<g clip-path="url(#clip0_420_4380)">
<path d="M547.5 42.7L530.4 89.6H565.1L547.5 42.7ZM496.5 140.2C508.6 133.7 512.1 122.9 517.2 109.5L552.3 16.1H561.9L597.7 110.9C603 125 607.7 133.6 613.6 140.2H571.5C575.7 133.9 577 122.6 572.1 109L566.3 93.4H529L525.6 102.4C518.3 121.9 523.1 134.1 529.2 140.2H496.5Z" fill="white"/>
<path d="M193.598 106.4C193.598 89.8 186.298 77.4 168.198 77.4H151.798V135.2C156.098 136.2 160.498 136.7 164.898 136.7C184.398 136.7 193.598 124.2 193.598 106.3V106.4ZM167.098 73.6C184.098 73.4 189.698 59 189.698 45.7C189.698 29.8 181.698 18.9 164.298 18.9C160.098 18.8 155.898 19.3 151.798 20.2V73.5L167.098 73.6ZM120.398 140.1C126.498 132.9 127.398 122.1 127.398 107.1V49.1C127.098 31.3 126.198 23.5 120.398 16.1H169.898C204.798 16 212.998 30.2 212.998 44.5C212.998 57.4 206.498 69.4 188.598 74.9C210.798 78.6 219.098 91.7 219.098 106.4C219.098 125.9 205.198 140.3 170.798 140.3L120.398 140.1Z" fill="white"/>
<path d="M275.999 77.6H264.599V20.3C268.099 19.6 271.699 19.2 275.299 19.1C295.199 19.1 301.499 30.9 301.499 46.2C301.499 62.3 296.399 77.7 276.099 77.7L275.999 77.6ZM387.099 49.1C387.099 34 388.099 23.2 394.099 16.1H355.499C361.599 23.3 362.499 34.1 362.499 49.1V107.1C362.499 128.3 358.499 133.7 354.099 135.4C346.499 138.3 336.299 135.8 329.599 127.8C322.199 119 302.699 77.6 302.699 77.6C319.299 71.7 326.499 59.8 326.499 46.1C326.499 28.1 315.799 16 280.999 16.1H233.199C239.099 23.6 239.999 31.3 240.299 49.1V107.1C240.299 122.2 239.299 133 233.199 140.1H271.699C265.599 132.9 264.599 122.1 264.599 107.1V81.3H277.299L306.699 140.2H393.999C388.099 132.7 387.199 125 386.999 107.2L387.099 49.1Z" fill="white"/>
<path d="M513.597 16.1H409.697L403.297 50.5H403.997L404.897 48.4C411.897 32.9 428.197 23.3 449.397 20.7V107C449.397 122.1 448.497 132.9 442.397 140H480.897C474.797 132.8 473.797 122 473.797 107V20.7C494.997 23.2 511.297 32.9 518.297 48.4C518.597 49.1 518.897 49.7 519.197 50.5H519.897L513.597 16.1Z" fill="white"/>
<path d="M584.397 117.5C584.397 117.6 584.297 117.8 584.197 117.9C584.097 118 583.897 118.1 583.797 118.1C583.697 118.1 583.697 118.1 583.597 118.1C583.497 118.1 583.497 118 583.397 118C583.397 117.9 583.297 117.9 583.297 117.8C583.297 117.7 583.297 117.7 583.297 117.6C583.297 117.5 583.297 117.5 583.297 117.4C583.297 117.3 583.397 117.3 583.397 117.2C583.497 117.1 583.497 117.1 583.597 117.1C583.697 117.1 583.697 117.1 583.797 117.1C583.997 117.1 584.097 117.2 584.197 117.3C584.297 117.2 584.397 117.4 584.397 117.5Z" fill="white"/>
<path d="M54.0983 133.5C31.8983 133.5 6.89826 113.5 8.29826 83.5C8.29826 81.4 8.59826 78.4 8.89826 76.4C8.89826 105.3 32.7983 123.8 54.1983 123.8C75.5983 123.8 99.3983 105.4 99.4983 76.4C99.7983 78.4 99.9983 81.5 100.098 83.5C101.198 113.5 76.2983 133.5 54.0983 133.5ZM14.6983 71.3C14.7983 69.2 14.9983 67.1 15.3983 65C16.0983 89.3 35.9983 105.4 53.9983 105.4C71.8983 105.4 91.8983 89.3 92.5983 65C92.8983 67.1 93.0983 69.2 93.1983 71.3C93.4983 76.7 92.5983 82 90.7983 87.1C88.9983 92.2 86.1983 96.8 82.4983 100.8C78.8983 104.8 74.4983 108 69.5983 110.3C64.6983 112.6 59.3983 113.9 54.0983 114.1C35.0983 114.1 13.6983 96.8 14.8983 71.4H14.6983V71.3ZM21.3983 61.3C21.9983 48.6 27.2983 39.6 34.8983 29.8C40.5983 22.5 46.9983 15.8 53.9983 9.8C61.0983 15.8 67.4983 22.5 73.1983 29.8C80.6983 39.5 86.0983 48.6 86.5983 61.2C86.9983 65.7 86.3983 70.2 84.8983 74.5C83.3983 78.8 81.0983 82.7 77.9983 86C74.8983 89.3 71.1983 92 67.0983 93.8C62.9983 95.6 58.4983 96.6 53.8983 96.6C49.3983 96.6 44.8983 95.7 40.6983 93.8C36.5983 92 32.7983 89.3 29.7983 86C26.6983 82.7 24.3983 78.7 22.8983 74.5C21.5983 70.4 21.0983 65.8 21.3983 61.3ZM107.998 85.2C107.098 64.3 98.1983 49.2 85.7983 33.2C76.3983 21.1 65.6983 10 54.0983 0C42.2983 9.8 31.6983 20.9 22.3983 33C9.79826 49.2 0.998257 64.2 0.0982573 85.1C-1.40174 120.3 27.8983 144 54.0983 144C80.2983 144 109.598 120.3 107.998 85.2Z" fill="white"/>
<path d="M581.698 17.2V26.9H580.298V17.2H576.598V16H585.498V17.2H581.698Z" fill="white"/>
<path d="M596.797 26.9V21.3C596.797 19.9 596.797 18.5 596.797 17.1C596.297 18.5 595.797 19.9 595.297 21.3L593.297 26.9H591.697L589.697 21.3C589.197 19.9 588.697 18.5 588.197 17.1C588.197 18.5 588.197 19.9 588.197 21.3V26.9H586.797V16H589.097L591.097 21.4C591.597 22.8 592.097 24.2 592.497 25.6C592.997 24.2 593.397 22.8 593.897 21.4L595.897 16H598.197V26.9H596.797Z" fill="white"/>
</g>
<defs>
<clipPath id="clip0_420_4380">
<rect width="613.7" height="144" fill="white"/>
</clipPath>
</defs>
</svg>
