<svg width="250" height="169" viewBox="0 0 250 169" fill="none" xmlns="http://www.w3.org/2000/svg">
<g clip-path="url(#clip0_420_4443)">
<path d="M230.884 168.507C219.231 168.507 212.321 162.544 211.792 153.956H222.933C222.933 156.819 224.519 160.63 231.413 160.866C236.19 160.866 238.834 158.004 238.834 155.852C238.305 152.515 234.056 152.278 229.826 151.549C225.048 150.856 221.346 149.889 218.684 148.704C214.983 146.79 212.849 142.723 212.849 138.438C212.849 130.797 219.231 124.834 230.355 124.834C240.968 124.834 247.86 130.324 248.37 138.675H237.777C237.777 136.541 237.247 132.949 230.883 132.949C226.635 132.949 223.991 133.66 223.462 136.76C223.462 141.064 232.47 140.826 239.363 142.486C245.727 144.164 249.975 148.212 249.975 153.956C249.975 164.459 241.496 168.507 230.884 168.507ZM27.8555 98.0381L64.4352 76.7939L84.0556 110.457H34.7483" fill="white"/>
<path fill-rule="evenodd" clip-rule="evenodd" d="M104.777 167.241V124.753Z" fill="white"/>
<path d="M104.777 167.241V124.753" stroke="white" stroke-width="10.704"/>
<path d="M10.8789 146.625C10.8789 153.299 16.7137 158.788 23.0592 158.788C29.9703 158.788 35.2585 153.299 35.2585 146.625C35.2585 140.188 29.9703 134.463 23.0592 134.463C16.7137 134.463 10.8789 140.188 10.8789 146.625ZM22.5309 168.581C10.8781 168.581 0.8125 158.788 0.8125 146.625C0.8125 134.463 10.8789 124.908 22.5309 124.908C27.3083 124.908 31.5567 126.111 35.2585 128.718V125.381H45.8715V167.614H35.2593V164.988C32.0866 167.377 27.3083 168.581 22.5309 168.581ZM164.113 110.447L113.219 21.6785L149.798 0.197632L213.42 110.447M59.6572 146.625C59.6572 153.299 64.9645 158.788 71.8565 158.788C78.202 158.788 84.0559 153.299 84.0559 146.625C84.0559 140.188 78.202 134.463 71.8565 134.463C64.9637 134.463 59.6572 140.188 59.6572 146.625ZM71.3275 168.581C59.1281 168.581 49.5916 158.788 49.5916 146.625C49.5916 134.463 59.1281 124.908 71.3275 124.908C76.0866 124.908 80.3358 126.111 84.0559 128.718V110.83H94.6505V167.614H84.055V164.988C80.3349 167.377 76.0874 168.581 71.3275 168.581ZM70.805 60.0971L107.913 39.1088L148.742 110.444H110.029V120.948H99.4338V110.444M243.102 121.278C240.44 121.278 237.796 118.889 237.796 116.027C237.796 113.164 240.44 110.775 243.102 110.775C246.274 110.775 248.409 113.164 248.409 116.027C248.409 118.889 246.274 121.278 243.102 121.278ZM243.102 111.505C240.44 111.505 238.853 113.638 238.853 116.027C238.853 118.415 240.44 120.567 243.102 120.567C245.746 120.567 247.332 118.416 247.332 116.027C247.332 113.637 245.746 111.505 243.102 111.505Z" fill="white"/>
<path d="M244.195 118.908L243.137 116.519H242.079V118.908H241.277V113.182H243.666C244.195 113.182 245.252 113.912 245.252 114.86C245.252 115.807 244.723 116.282 244.195 116.519L245.252 118.908H244.195ZM243.137 113.912H242.079V115.808H243.137C244.195 115.808 244.195 115.571 244.195 114.86C244.195 114.368 244.195 113.912 243.137 113.912ZM173.078 146.625C173.078 153.299 178.385 158.788 185.277 158.788C191.641 158.788 197.458 153.299 197.458 146.625C197.458 140.189 191.641 134.463 185.277 134.463C178.384 134.463 173.078 140.189 173.078 146.625ZM184.73 168.581C172.549 168.581 163.012 158.788 163.012 146.625C163.012 134.463 172.549 124.908 184.73 124.908C189.508 124.908 193.756 126.111 197.458 128.718V125.381H207.542V167.614H197.459V164.988C193.756 167.377 189.509 168.581 184.73 168.581ZM124.336 146.625C124.336 153.299 130.171 158.788 136.534 158.788C143.428 158.788 148.734 153.299 148.734 146.625C148.734 140.189 143.427 134.463 136.534 134.463C130.171 134.463 124.336 140.189 124.336 146.625ZM148.734 110.83H159.328V167.614H148.734V164.988C145.543 167.377 141.294 168.581 136.534 168.581C124.336 168.581 114.27 158.788 114.27 146.625C114.27 134.463 124.336 124.908 136.534 124.908C141.294 124.908 145.543 126.111 148.734 128.718V110.83Z" fill="white"/>
</g>
<defs>
<clipPath id="clip0_420_4443">
<rect width="250" height="169" fill="white"/>
</clipPath>
</defs>
</svg>
