<svg width="103" height="67" viewBox="0 0 103 67" fill="none" xmlns="http://www.w3.org/2000/svg">
<g clip-path="url(#clip0_420_4406)">
<path d="M26.7004 51.1C26.5004 50.9 26.3004 50.8 26.1004 50.6C26.2004 50.5 26.3004 50.5 26.4004 50.4C29.2004 48.2 30.3004 45.3 29.6004 41.8C28.7004 37.3 24.3004 34.4 19.8004 35.3C15.0004 36.2 12.1004 40.6 13.0004 45.3C13.7004 49 17.1004 52 21.0004 52.1C21.9004 52.1 22.8004 52.3 23.6004 52.7C26.0004 53.9 27.3004 56.2 26.8004 58.7C26.3004 61.1 24.3004 62.9 21.8004 63.1C19.5004 63.3 17.4004 62 16.4004 59.8C16.0004 59 15.9004 58.1 15.9004 57.1C14.9004 57.1 14.0004 57.1 13.1004 57C12.8004 57 12.8004 57.1 12.8004 57.3C12.8004 57.9 12.8004 58.4 12.9004 58.9C13.7004 63.7 18.4004 67 23.1004 65.9C26.5004 65.1 28.8004 63 29.6004 59.6C30.4004 56.3 29.3004 53.4 26.7004 51.1ZM21.3004 49.1C18.3004 49.1 15.9004 46.6 15.9004 43.6C15.9004 40.6 18.4004 38.2 21.4004 38.2C24.4004 38.2 26.8004 40.6 26.8004 43.6C26.8004 46.7 24.3004 49.1 21.3004 49.1ZM86.4004 31.3C86.0004 30.7 85.5004 30.2 85.1004 29.6C83.1004 27 81.1004 24.4 79.1004 21.7C78.9004 21.5 78.8004 21.4 78.5004 21.6C77.3004 22.2 76.1004 22.8 74.9004 23.4C74.6004 23.5 74.6004 23.7 74.6004 24C74.6004 26.2 74.6004 28.3 74.6004 30.5C74.6004 31.1 74.6004 31.1 74.0004 31.1C73.3004 31.1 72.5004 31.1 71.8004 31.1C71.5004 31.1 71.4004 31 71.4004 30.7C71.4004 30.4 71.4004 30.2 71.4004 29.9V0.7C71.4004 0.6 71.4004 0.4 71.4004 0.3C71.4004 0.2 71.6004 0 71.7004 0C72.6004 0 73.4004 0 74.3004 0C74.4004 0 74.5004 0.1 74.6004 0.2C74.6004 0.3 74.6004 0.5 74.6004 0.6C74.6004 6.9 74.6004 13.2 74.6004 19.4V20.1C79.0004 18 83.3004 15.9 87.6004 13.8C88.1004 14.7 88.5004 15.6 89.0004 16.6C86.6004 17.8 84.2004 18.9 81.8004 20.1C84.2004 23.2 86.5004 26.3 88.9004 29.4C88.1004 30 87.3004 30.6 86.4004 31.3ZM38.5004 30.8C41.1004 31.3 43.5004 30.7 45.7004 29C45.7004 29.6 45.7004 30.1 45.7004 30.6C45.6004 30.9 45.7004 31 46.0004 31C46.8004 31 47.6004 31 48.4004 31C48.6004 31 48.7004 31 48.7004 30.7C48.7004 25.2 48.7004 19.8 48.7004 14.3C48.7004 14 48.6004 13.9 48.3004 13.9C47.5004 13.9 46.7004 13.9 45.9004 13.9C45.6004 13.9 45.5004 14 45.5004 14.3C45.5004 14.9 45.5004 15.4 45.5004 16C43.6004 14.6 41.6004 13.9 39.5004 14.1C37.2004 14.3 35.3004 15.3 33.8004 17.1C31.2004 20.1 31.2004 24.6 33.6004 27.7C34.9004 29.3 36.5004 30.4 38.5004 30.8ZM40.0004 17.1C43.3004 17.1 45.5004 19.7 45.5004 22.6C45.5004 25.6 43.1004 28 40.1004 28C37.0004 28 34.6004 25.6 34.5004 22.6C34.5004 19.9 36.6004 17.1 40.0004 17.1ZM54.0004 35.2C49.4004 36 46.3004 40.5 47.2004 45.1C48.4004 51.5 55.9004 54.2 60.9004 50.1C61.2004 49.9 61.5004 49.5 61.8004 49.3C61.1004 48.5 60.4004 47.8 59.7004 47.1C57.9004 49 55.8004 49.6 53.3004 48.7C51.8004 48 50.8004 46.9 50.2004 45.2H50.7004C53.1004 45.2 55.5004 45.2 57.9004 45.2C59.7004 45.2 61.5004 45.2 63.3004 45.2C63.6004 45.2 63.8004 45.1 63.8004 44.8C64.0004 43.8 64.0004 42.9 63.8004 42C63.0004 37.4 58.6004 34.4 54.0004 35.2ZM50.4004 42C50.5004 40.3 52.9004 38.3 55.0004 38.2C57.7004 38 60.2004 39.7 60.7004 42H50.4004ZM73.0004 35.2C68.4004 36.1 65.5004 40.6 66.4004 45.2C67.3004 49.3 71.0004 52.1 74.9004 52C77.3004 52 79.2004 51.1 80.9004 49.4C81.1004 49.2 81.1004 49.1 80.9004 48.9C80.3004 48.4 79.7004 47.8 79.1004 47.2L79.0004 47.1C77.0004 49.3 74.5004 49.3 72.9004 48.7C71.3004 48.1 70.2004 47 69.6004 45.2V45H70.1004C74.3004 45 78.4004 45 82.6004 45C82.9004 45 83.1004 44.9 83.1004 44.6C83.2004 43.6 83.2004 42.7 83.0004 41.7C82.0004 37.1 77.7004 34.3 73.0004 35.2ZM69.7004 42C69.7004 40.5 72.3004 38.3 74.4004 38.2C77.0004 38 79.8004 39.9 80.0004 42H69.7004ZM12.8004 19.3C12.5004 19 12.2004 18.6 11.9004 18.4C10.3004 17.1 8.40039 16.8 6.50039 17.5C4.60039 18.3 3.30039 19.8 3.20039 21.8C3.00039 23.8 3.10039 25.8 3.10039 27.8V27.9C3.20039 27.9 3.40039 27.9 3.50039 27.9C5.20039 27.9 7.00039 27.9 8.70039 27.9C9.00039 27.9 9.10039 28 9.10039 28.3C9.10039 29 9.10039 29.8 9.10039 30.5C9.10039 30.9 9.00039 31 8.60039 31C6.90039 31 5.20039 31 3.50039 31C3.10039 31 3.00039 31.1 3.00039 31.5C3.00039 35.9 3.00039 40.3 3.00039 44.7C3.00039 45.1 2.90039 45.2 2.50039 45.2C1.80039 45.2 1.10039 45.2 0.400391 45.2C0.000390619 45.2 -0.0996094 45.1 -0.0996094 44.7C0.000390626 39 0.000390626 33.2 0.000390626 27.4C0.000390626 25.7 0.000390626 24.1 0.000390626 22.4C0.000390626 18.4 3.00039 14.8 7.00039 14.1C10.0004 13.6 12.5004 14.4 14.7004 16.5C14.9004 16.7 14.9004 16.9 14.7004 17.1C14.1004 17.8 13.5004 18.5 12.8004 19.3ZM102.4 43.6C102.4 46.3 102.4 49.1 102.4 51.8C102.4 52.2 102.3 52.3 101.9 52.3C101.2 52.3 100.4 52.3 99.7004 52.3C99.3004 52.3 99.2004 52.2 99.2004 51.8C99.2004 49.2 99.2004 46.5 99.2004 43.9C99.3004 41.3 97.5004 38.7 94.4004 38.3C90.8004 37.8 88.3004 40.7 88.3004 43.5C88.3004 46.2 88.3004 49 88.3004 51.7C88.3004 52.2 88.3004 52.2 87.8004 52.2C87.1004 52.2 86.3004 52.2 85.6004 52.2C85.3004 52.2 85.2004 52.1 85.2004 51.8C85.2004 51.7 85.2004 51.6 85.2004 51.6C85.2004 46.3 85.2004 41.1 85.2004 35.8C85.2004 35.4 85.4004 35.2 85.8004 35.2C86.5004 35.2 87.2004 35.2 87.9004 35.2C88.2004 35.2 88.3004 35.3 88.3004 35.6C88.5004 36 88.5004 36.5 88.5004 37.1C89.4004 36.4 90.3004 35.9 91.3004 35.6C96.3004 34 101.4 37.2 102.3 42.3C102.4 42.7 102.4 43.2 102.4 43.6ZM68.7004 31.1C67.7004 31.1 66.8004 31.1 65.9004 31.1C65.8004 31.1 65.7004 31 65.7004 30.9C65.7004 30.8 65.7004 30.6 65.7004 30.5C65.7004 27.9 65.7004 25.3 65.7004 22.7C65.7004 20 63.9004 17.8 61.3004 17.3C58.1004 16.6 54.9004 19.2 54.9004 22.5C54.9004 25.2 54.9004 28 54.9004 30.7C54.9004 31.1 54.8004 31.2 54.4004 31.2C53.4004 31.1 52.6004 31.1 51.7004 31.1V14.1C51.8004 14.1 52.0004 14 52.1004 14C52.9004 14 53.6004 14 54.4004 14C54.7004 14 54.9004 14.1 54.8004 14.5C54.8004 15 54.8004 15.5 54.8004 16C55.0004 15.9 55.1004 15.8 55.1004 15.8C60.1004 12 67.5004 14.9 68.6004 21.1C68.7004 21.6 68.7004 22.2 68.7004 22.8C68.7004 25.4 68.7004 28 68.7004 30.6C68.7004 30.8 68.7004 30.9 68.7004 31.1ZM31.6004 17C30.9004 17.7 30.3004 18.5 29.5004 19.3C29.3004 19 29.1004 18.8 28.8004 18.6C27.2004 17.2 25.4004 16.8 23.5004 17.5C21.5004 18.2 20.3004 19.6 19.8004 21.7C19.7004 22 19.7004 22.2 19.7004 22.5C19.7004 25.2 19.7004 27.9 19.7004 30.6C19.7004 30.8 19.7004 31 19.7004 31.2C18.7004 31.2 17.8004 31.2 16.9004 31.2C16.8004 31.2 16.7004 31 16.7004 30.9C16.7004 30.8 16.7004 30.7 16.7004 30.6C16.7004 25.3 16.7004 20 16.7004 14.7C16.7004 14.1 16.7004 14.1 17.3004 14.1C18.0004 14.1 18.7004 14.1 19.4004 14.1C19.7004 14.1 19.8004 14.2 19.8004 14.5C19.8004 14.9 19.8004 15.4 19.8004 16C24.5004 12.4 29.7004 14.6 31.6004 17ZM46.9004 38C46.2004 38.7 45.6004 39.5 44.8004 40.4C44.7004 40.2 44.7004 40.1 44.6004 40C43.0004 38.3 41.1004 37.8 38.9004 38.4C36.7004 39.1 35.5004 40.7 35.1004 42.9C35.1004 43 35.1004 43.2 35.1004 43.3C35.1004 46.1 35.1004 48.9 35.1004 51.7C35.1004 52.1 35.0004 52.2 34.6004 52.2C33.9004 52.2 33.2004 52.2 32.5004 52.2C32.1004 52.2 32.0004 52.1 32.0004 51.7C32.0004 47.3 32.0004 43 32.0004 38.6C32.0004 37.6 32.0004 36.5 32.0004 35.5C32.0004 35.2 32.1004 35.1 32.4004 35.1C33.2004 35.1 34.0004 35.1 34.7004 35.1C35.0004 35.1 35.1004 35.2 35.1004 35.5C35.1004 36 35.1004 36.5 35.1004 37.1C39.2004 33.9 44.3004 35 46.9004 38ZM92.2004 31.3C93.6004 31.3 94.7004 30.3 94.6004 29C94.6004 27.6 93.6004 26.5 92.2004 26.5C90.9004 26.5 89.8004 27.6 89.8004 28.8C89.8004 30.3 90.8004 31.3 92.2004 31.3ZM92.3004 27.2C93.2004 27.2 94.0004 28 94.1004 29C94.1004 30 93.4004 30.8 92.4004 30.8C91.4004 30.8 90.6004 30 90.6004 29C90.6004 28 91.3004 27.2 92.3004 27.2ZM91.6004 30.4C91.9004 30.4 91.9004 30.3 91.9004 30.1C91.9004 29.9 91.9004 29.7 91.9004 29.5C92.4004 29.4 92.5004 29.5 92.6004 29.9C92.7004 30.4 92.8004 30.5 93.4004 30.3C93.3004 29.8 93.2004 29.4 93.0004 29C93.2004 28.8 93.4004 28.6 93.2004 28.2C93.0004 27.8 92.7004 27.8 92.4004 27.8C92.2004 27.8 91.9004 27.8 91.7004 27.8C91.5004 27.8 91.3004 27.9 91.3004 28.2C91.3004 28.8 91.3004 29.4 91.3004 30C91.3004 30.2 91.3004 30.4 91.6004 30.4ZM92.1004 28.3C92.3004 28.3 92.5004 28.3 92.5004 28.4C92.7004 28.5 92.7004 28.7 92.6004 28.8C92.5004 28.9 92.3004 28.9 92.1004 28.9C92.1004 28.7 92.1004 28.6 92.1004 28.3Z" fill="white"/>
</g>
<defs>
<clipPath id="clip0_420_4406">
<rect width="102.4" height="66.2" fill="white"/>
</clipPath>
</defs>
</svg>
