<svg width="150" height="171" viewBox="0 0 150 171" fill="none" xmlns="http://www.w3.org/2000/svg">
<g clip-path="url(#clip0_424_4060)">
<mask id="mask0_424_4060" style="mask-type:luminance" maskUnits="userSpaceOnUse" x="0" y="0" width="150" height="171">
<path d="M150 0H0V171H150V0Z" fill="white"/>
</mask>
<g mask="url(#mask0_424_4060)">
<path d="M65.256 19.4142C65.241 17.4739 65.7951 15.5726 66.8486 13.9507C67.9024 12.3288 69.408 11.0591 71.1754 10.3023C72.9429 9.54545 74.8924 9.33542 76.7781 9.69875C78.6634 10.0621 80.4 10.9824 81.768 12.3435C83.1364 13.7045 84.0746 15.4451 84.4637 17.3451C84.8533 19.245 84.6767 21.2191 83.9567 23.0177C83.2363 24.8163 82.0046 26.3585 80.4171 27.4494C78.8297 28.5403 76.9581 29.1309 75.039 29.1465C73.7696 29.1517 72.5113 28.9041 71.3366 28.4177C70.1623 27.9315 69.0934 27.216 68.1926 26.3123C67.2913 25.4085 66.5751 24.3342 66.0844 23.1506C65.5941 21.9671 65.3391 20.6974 65.334 19.4142M118.362 137.929L120.691 143.187C108.477 147.312 95.8903 150.204 83.1133 151.821L79.2313 55.7925L111.336 51.3187L78.882 46.6492L78.4937 36.6027C82.7353 35.7275 86.5046 33.2913 89.07 29.7665C91.6359 26.2416 92.8157 21.8792 92.3803 17.5252C91.9453 13.171 89.9263 9.1353 86.715 6.20043C83.5041 3.26558 79.329 1.64062 75 1.64062C70.671 1.64062 66.4959 3.26558 63.285 6.20043C60.0737 9.1353 58.0547 13.171 57.6197 17.5252C57.1843 21.8792 58.3641 26.2416 60.93 29.7665C63.4954 33.2913 67.2647 35.7275 71.5063 36.6027L71.118 46.6492L38.8199 51.3187L70.9239 55.7925L67.0419 151.821C54.2649 150.204 41.6777 147.312 29.4643 143.187L31.7935 137.929L0 135.103L24.3401 154.725L26.7469 149.27L75 169.363L123.253 149.231L125.621 154.725L150 135.103L118.362 137.929Z" fill="white"/>
<path d="M53.8044 81.9282C53.7243 79.9967 54.3928 78.1097 55.6678 76.6695H40.9164C41.6113 77.4971 42.1288 78.4616 42.4362 79.5017C42.7436 80.5422 42.8341 81.6353 42.7021 82.7126V101.667C42.7232 102.539 42.569 103.406 42.2486 104.215C41.9283 105.025 41.4487 105.76 40.8387 106.376C37.9149 108.446 34.4317 109.557 30.862 109.557C27.2924 109.557 23.8092 108.446 20.8853 106.376C20.2702 105.739 19.7882 104.984 19.4681 104.155C19.1479 103.325 18.9962 102.439 19.022 101.55V81.9282C18.9314 79.9642 19.6155 78.0447 20.9241 76.5908H6.28906C6.95043 77.3398 7.45615 78.2157 7.77625 79.1665C8.09635 80.1168 8.22428 81.1227 8.15241 82.1244V101.471C8.09879 103.81 8.51493 106.136 9.37568 108.308C10.2364 110.48 11.5238 112.453 13.1602 114.107C18.1655 118.314 24.4694 120.617 30.9785 120.617C37.4876 120.617 43.7913 118.314 48.797 114.107C50.4148 112.457 51.6885 110.495 52.5418 108.338C53.3955 106.181 53.8117 103.873 53.7658 101.55L53.8044 81.9282Z" fill="white"/>
<path d="M142.235 114.658V82.086C142.184 81.101 142.326 80.1156 142.653 79.1862C142.979 78.2573 143.484 77.4023 144.137 76.6704H129.386C130.207 77.7439 130.797 78.9793 131.118 80.2973C131.439 81.6153 131.484 82.9863 131.249 84.3227V102.728L108.695 76.6704H95.457C96.2786 77.7439 96.8683 78.9793 97.1893 80.2973C97.5103 81.6153 97.5549 82.9863 97.3205 84.3227V114.305C97.4096 115.349 97.2905 116.402 96.9703 117.399C96.6506 118.397 96.1359 119.32 95.457 120.113H110.209C109.381 119.042 108.784 117.808 108.456 116.49C108.129 115.172 108.078 113.799 108.306 112.46V93.1916L131.598 120.113H144.021C143.369 119.373 142.869 118.51 142.549 117.574C142.229 116.637 142.096 115.646 142.158 114.658" fill="white"/>
</g>
</g>
<defs>
<clipPath id="clip0_424_4060">
<rect width="150" height="171" fill="white"/>
</clipPath>
</defs>
</svg>
