<svg width="250" height="56" viewBox="0 0 250 56" fill="none" xmlns="http://www.w3.org/2000/svg">
<g clip-path="url(#clip0_425_4068)">
<path d="M14.0951 1.8436C14.0951 1.72164 14.2779 1.59684 14.5225 1.59684H19.2164C26.959 1.59684 31.591 5.4684 31.591 18.2573C31.591 29.4437 27.0799 33.5648 18.9127 33.5648C17.4981 33.5648 15.2903 33.3351 14.0979 32.9295V1.8436H14.0951ZM18.9099 33.9335C29.9429 33.9335 39.2689 27.6029 39.2689 17.0887C39.2689 7.31483 30.2467 1.23096 19.6411 1.23096H0.137105C-0.0457015 1.23096 -0.0457015 1.59968 0.137105 1.59968H6.23158C6.47345 1.59968 6.65906 1.72164 6.65906 1.84644V54.1592C6.65906 54.406 6.47626 54.4656 6.23158 54.4656H0.137105C-0.0457015 54.4656 -0.0457015 54.7719 0.137105 54.7719H20.617C20.7998 54.7719 20.7998 54.4656 20.617 54.4656H14.5225C14.2779 54.4656 14.0951 54.4032 14.0951 54.1592V33.4003C15.4928 33.6698 17.6162 33.9335 18.9099 33.9335Z" fill="white"/>
<path d="M63.345 0C50.1801 0 40.7305 13.0328 40.7305 28.0312C40.7305 43.0296 50.8495 56 63.345 56C75.8405 56 85.9595 43.5203 85.9595 28.0312C85.9595 12.5421 75.8405 0 63.345 0ZM72.2434 52.8659C69.867 55.0782 65.8424 55.6937 63.345 55.6937C60.8476 55.6937 56.8849 55.0782 54.5056 52.8659C50.6667 49.1787 48.653 43.3387 48.653 28.0312C48.653 14.6921 50.6639 6.94611 54.5056 3.19652C56.8821 0.984198 60.1726 0.306321 63.345 0.306321C66.5174 0.306321 69.867 0.981362 72.2434 3.19652C76.0233 6.94611 78.096 14.6921 78.096 28.0312C78.096 43.3387 76.0233 49.1787 72.2434 52.8659Z" fill="white"/>
<path d="M165.899 17.2135C165.899 17.3355 166.144 17.3355 166.144 17.2135V1.53728C166.144 1.47488 166.144 1.23096 166.023 1.23096H125.091C124.97 1.23096 124.908 1.47772 124.908 1.53728V17.2135C124.908 17.3355 125.153 17.3355 125.153 17.2135C125.153 8.42383 128.75 1.59968 138.807 1.59968H141.229C141.532 1.59968 141.656 1.72164 141.656 1.84644V54.1592C141.656 54.406 141.535 54.4656 141.229 54.4656H135.134C135.013 54.4656 135.013 54.7719 135.134 54.7719H155.676C155.797 54.7719 155.797 54.4656 155.676 54.4656H149.52C149.275 54.4656 149.154 54.4032 149.154 54.1592V1.8436C149.154 1.72164 149.275 1.59684 149.52 1.59684H151.944C162.001 1.59684 165.902 8.42099 165.902 17.2107" fill="white"/>
<path d="M132.162 53.1723C131.186 54.3408 129.603 55.3222 127.775 55.3222C124.971 55.3222 123.57 52.7411 123.57 48.9915V42.1674C123.57 32.3935 118.39 26.8599 106.746 26.8599C115.341 26.8599 121.984 20.8299 121.984 14.1192C121.984 5.17915 111.789 1.22534 104.927 1.22534H84.2528C84.1319 1.22534 84.1319 1.59406 84.2528 1.59406H90.4092C90.7129 1.59406 90.8957 1.71602 90.8957 1.84082V54.1536C90.8957 54.3975 90.7129 54.4599 90.4092 54.4599H84.2528C84.1319 54.4599 84.1319 54.7663 84.2528 54.7663H106.744C106.865 54.7663 106.865 54.4599 106.744 54.4599H98.7592C98.3936 54.4599 98.2726 54.3975 98.2726 54.1536V27.1066H105.281C111.62 27.1066 115.642 28.8907 115.642 37.8023V42.7205C115.642 51.8193 120.091 55.9972 125.82 55.9972C128.807 55.9972 130.88 55.013 132.28 53.4162C132.401 53.2942 132.218 53.1099 132.159 53.1694M98.2726 26.7407V1.84366C98.2726 1.7217 98.3936 1.5969 98.7592 1.5969H103.636C109.55 1.5969 114.545 4.05881 114.545 14.0766C114.545 24.0945 112.107 26.7407 105.281 26.7407H98.2726Z" fill="white"/>
<path d="M192.05 0C181.079 0 166.572 13.4611 163.096 31.5964C160.72 45.0575 165.352 56 175.105 56C182.541 56 188.338 50.1033 191.729 45.2873C191.805 45.1767 191.71 45.0831 191.614 45.0831C191.465 45.0831 191.392 45.171 191.305 45.2873C187.899 49.9246 182.246 55.5093 175.347 55.5093C169.739 55.0782 169.008 49.363 169.374 43.092C169.739 35.8395 172.299 28.0936 172.299 28.0936C185.953 27.6625 204.126 20.7164 204.675 10.0207C204.981 4.24028 199.669 0 192.05 0ZM198.212 8.60535C197.602 20.9007 186.259 27.3533 172.363 27.8468C176.447 15.9202 182.921 0.799838 191.502 0.306321C196.868 0 198.454 3.38088 198.212 8.60535Z" fill="white"/>
<path d="M222.954 26.6669H215.943V1.82657C215.943 1.70461 216.064 1.58265 216.429 1.58265H221.306C227.221 1.58265 232.215 4.03889 232.215 14.034C232.215 24.0292 229.777 26.6669 222.951 26.6669M249.835 53.0389C248.859 54.2046 247.276 55.186 245.445 55.186C242.641 55.186 241.24 52.6106 241.24 48.8695V42.0624C241.24 32.3112 236.06 26.7917 224.417 26.7917C233.011 26.7917 239.654 20.7788 239.654 14.0822C239.654 5.16207 229.459 1.2196 222.597 1.2196H202.73C202.609 1.2196 202.609 1.58832 202.73 1.58832H208.079C208.383 1.58832 208.566 1.71029 208.566 1.83508V54.0259C208.566 54.2698 208.383 54.3322 208.082 54.3322H202.727C202.606 54.3322 202.606 54.6386 202.727 54.6386H221.497C221.618 54.6386 221.618 54.3322 221.497 54.3322H216.427C216.061 54.3322 215.94 54.2698 215.94 54.0259V27.0413H222.951C229.291 27.0413 233.312 28.8197 233.312 37.7115V42.6183C233.312 51.6945 237.761 55.8667 243.493 55.8667C246.48 55.8667 248.553 54.8853 249.953 53.2913C250.074 53.1694 249.891 52.985 249.832 53.0446" fill="white"/>
<path d="M56.4532 26.3804C56.5938 26.2216 56.6951 26.0571 56.7541 25.8898C56.816 25.7224 56.8441 25.5778 56.8441 25.453C56.8441 25.3735 56.8329 25.2913 56.8132 25.2119C56.8019 25.1665 56.7795 25.1296 56.7457 25.0956C56.6979 25.0445 56.6529 25.0105 56.6079 24.9906C56.5348 24.9566 56.442 24.9396 56.3267 24.9396C56.2929 24.9396 56.2507 24.9396 56.2029 24.9481C56.1017 25.2714 56.0201 25.521 55.9526 25.6997L55.7614 26.2613C55.7473 26.3067 55.7361 26.3521 55.7304 26.3918C55.7248 26.4145 55.7248 26.4372 55.7248 26.4627C55.7248 26.5166 55.7389 26.5535 55.767 26.5761C55.812 26.613 55.8767 26.63 55.9582 26.63C56.0314 26.63 56.1017 26.6159 56.1692 26.5847C56.2198 26.562 56.3154 26.4939 56.4532 26.3804ZM54.5492 27.8411C54.6055 27.827 54.6786 27.8156 54.7714 27.8043C54.8192 27.7986 54.853 27.7958 54.8726 27.7929C54.898 27.7872 54.9205 27.7816 54.9401 27.7787C54.9626 27.7702 54.9767 27.7589 54.9851 27.7475C55.002 27.7277 55.0217 27.6851 55.047 27.6227L55.2748 27.0101C55.3058 26.9307 55.3367 26.8428 55.3676 26.7435C55.3873 26.6839 55.407 26.6244 55.4267 26.5648C55.4492 26.5081 55.4604 26.4684 55.4632 26.4513C55.4717 26.4145 55.4801 26.3889 55.4857 26.3748L55.6995 25.765C55.7079 25.7423 55.7642 25.5693 55.871 25.2488C55.902 25.1523 55.9329 25.0559 55.9582 24.9566C55.8485 24.9765 55.7557 24.9963 55.6742 25.0218C55.6573 25.0275 55.6348 25.0332 55.6039 25.0445C55.5476 25.0672 55.5111 25.0786 55.497 25.0786C55.4857 25.0786 55.4661 25.0729 55.4407 25.0616L55.4351 25.036C55.4351 25.0133 55.4464 24.9963 55.4717 24.9793C55.5476 24.9311 55.7248 24.8772 56.0032 24.8148C56.0764 24.6191 56.1214 24.4858 56.1354 24.4149C56.1579 24.3213 56.1832 24.256 56.2142 24.2192C56.2338 24.2163 56.2507 24.2135 56.2732 24.2135C56.2957 24.2135 56.3267 24.2135 56.3688 24.2192C56.3942 24.2475 56.4082 24.2702 56.4082 24.2872L56.3998 24.3213C56.3998 24.3213 56.3857 24.3638 56.3688 24.4291C56.3604 24.4659 56.3463 24.5113 56.3238 24.5624C56.2845 24.6673 56.2592 24.7382 56.2479 24.7751C56.3154 24.7694 56.3604 24.7694 56.3829 24.7694C56.4082 24.7694 56.4448 24.7694 56.4926 24.7723H56.5038C56.5854 24.7723 56.6698 24.7949 56.757 24.8375C56.8807 24.8999 56.9707 24.985 57.0269 25.0899C57.0832 25.1949 57.1113 25.3197 57.1113 25.4586C57.1113 25.5636 57.0916 25.6742 57.0523 25.7962C57.0129 25.9153 56.951 26.0372 56.8723 26.1592C56.7907 26.284 56.7007 26.3861 56.5966 26.4712C56.4926 26.5535 56.3998 26.6102 56.321 26.6385C56.141 26.7038 56.0201 26.7378 55.961 26.7378C55.9189 26.7378 55.871 26.7321 55.8176 26.718C55.7642 26.7066 55.7051 26.6868 55.6432 26.6612C55.5814 26.7889 55.4801 27.0583 55.3395 27.4781C55.3114 27.5603 55.2889 27.6227 55.272 27.6624C55.2551 27.7022 55.2467 27.7334 55.2467 27.756V27.7759L55.2748 27.7958C55.317 27.8071 55.3648 27.8156 55.4239 27.8184C55.4801 27.8213 55.5307 27.827 55.5729 27.8355C55.5814 27.8411 55.5898 27.8468 55.6039 27.8525L55.6151 27.8894C55.6151 27.8894 55.6123 27.9064 55.6039 27.9149C55.5448 27.9149 55.497 27.912 55.4661 27.912C55.4464 27.912 55.4267 27.912 55.4126 27.912H55.3564L54.9345 27.8979C54.8586 27.8979 54.7995 27.9035 54.7573 27.912C54.7039 27.912 54.6589 27.9064 54.6195 27.9064H54.5352V27.8894C54.5352 27.8752 54.5352 27.8553 54.5464 27.8326" fill="white"/>
<path d="M57.579 26.44C57.579 26.5109 57.5958 26.5648 57.6268 26.5988C57.6605 26.6329 57.714 26.6499 57.7871 26.6499C57.8602 26.6499 57.9305 26.613 58.0037 26.5421C58.1358 26.4088 58.2652 26.1847 58.3974 25.8642C58.5296 25.5437 58.5943 25.2885 58.5943 25.1041C58.5943 25.0389 58.5774 24.985 58.5464 24.9481C58.5155 24.9112 58.4789 24.8914 58.4368 24.8914C58.3468 24.8914 58.254 24.9453 58.1555 25.053C57.9896 25.2346 57.8462 25.487 57.7252 25.8047C57.6268 26.0656 57.579 26.2755 57.579 26.44ZM58.7686 25.3707C58.7686 25.7338 58.6618 26.0571 58.448 26.3379C58.2343 26.6215 58.0121 26.7605 57.7815 26.7605C57.6577 26.7605 57.5593 26.7123 57.4805 26.6187C57.4046 26.5223 57.3652 26.3748 57.3652 26.1734C57.3652 26.0372 57.3962 25.8812 57.4552 25.7026C57.5143 25.5239 57.593 25.3764 57.6858 25.2601C57.7083 25.2346 57.7308 25.2005 57.759 25.1637C57.8405 25.0559 57.9361 24.9651 58.0486 24.8914C58.1611 24.8176 58.2736 24.7808 58.3889 24.7808C58.4958 24.7808 58.5858 24.8261 58.6589 24.9197C58.7321 25.0105 58.7686 25.1637 58.7686 25.3735" fill="white"/>
<path d="M59.1666 25.3311L59.1075 25.3055C59.1469 25.1637 59.2087 25.0389 59.2875 24.934C59.369 24.829 59.4478 24.7751 59.5294 24.7751C59.5884 24.7751 59.639 24.8035 59.6784 24.8546C59.7178 24.9085 59.7403 25.0049 59.7403 25.1439C59.7403 25.2942 59.7065 25.47 59.639 25.6799C59.5715 25.887 59.4478 26.1734 59.2706 26.5337C59.355 26.5025 59.4534 26.4457 59.5687 26.3606C59.7318 26.2387 59.8697 26.111 59.985 25.9721C60.0412 25.9068 60.1031 25.8076 60.179 25.6771C60.2521 25.5466 60.3 25.4559 60.3168 25.4076C60.345 25.314 60.359 25.2261 60.359 25.141C60.359 25.1013 60.3506 25.0673 60.3337 25.0446C60.3225 25.0276 60.3084 25.0219 60.2915 25.0219C60.269 25.0219 60.2493 25.0276 60.2296 25.0418C60.2015 25.0616 60.1734 25.09 60.1425 25.1325L60.0243 25.3311L59.9568 25.297C60.0131 25.1694 60.0665 25.0701 60.1171 24.9992C60.1875 24.8999 60.2437 24.8375 60.2831 24.812C60.3253 24.7893 60.359 24.7751 60.3871 24.7751C60.449 24.7751 60.4968 24.795 60.5306 24.8347C60.584 24.8971 60.6121 25.0049 60.6121 25.1524C60.6121 25.2999 60.5699 25.5012 60.4884 25.7679C60.404 26.0345 60.2943 26.2897 60.1593 26.5337C60.4462 26.406 60.7106 26.199 60.9468 25.9125C61.1268 25.6941 61.2168 25.4502 61.2168 25.1751C61.2168 25.1637 61.2168 25.107 61.2112 25.0049C61.2112 24.951 61.2224 24.8999 61.2449 24.8517C61.2674 24.8035 61.2984 24.778 61.3321 24.778C61.3715 24.778 61.4052 24.7893 61.4277 24.8149C61.453 24.8404 61.4643 24.8744 61.4643 24.9226C61.4643 25.073 61.4277 25.2375 61.3518 25.419C61.2787 25.6005 61.1521 25.7991 60.9749 26.0174C60.8512 26.1706 60.6937 26.3096 60.5053 26.4344C60.39 26.511 60.1959 26.6159 59.9203 26.7464C59.8331 26.7776 59.7853 26.7918 59.7797 26.7918C59.7684 26.7918 59.7487 26.7861 59.7234 26.7719C59.7234 26.7492 59.7234 26.7322 59.729 26.7237C59.7318 26.7152 59.7459 26.6982 59.7712 26.667C59.909 26.4571 60.0187 26.267 60.0975 26.0997C60.1762 25.9324 60.2268 25.8047 60.2493 25.7111C60.1228 25.921 60.0075 26.077 59.9062 26.1763C59.7572 26.3209 59.5406 26.4826 59.2537 26.6613C59.1244 26.7407 59.0287 26.7804 58.9697 26.7804C58.9556 26.7804 58.9444 26.7776 58.9359 26.7662C58.9275 26.7577 58.9219 26.7464 58.9219 26.7322C58.9219 26.7095 58.9219 26.6897 58.9303 26.6726C58.9303 26.667 58.9641 26.6102 59.0203 26.5025C59.1216 26.3068 59.1975 26.1536 59.2453 26.0345C59.3325 25.8189 59.3972 25.626 59.4422 25.453C59.4731 25.3282 59.4872 25.229 59.4872 25.1495C59.4872 25.1013 59.4787 25.0673 59.459 25.0418C59.4478 25.0247 59.4281 25.0191 59.4056 25.0191C59.3803 25.0191 59.3522 25.0361 59.3184 25.0701C59.2847 25.1042 59.2312 25.1864 59.1609 25.3197" fill="white"/>
<path d="M61.9041 25.7395C61.9519 25.7395 62.0306 25.7225 62.1347 25.6799C62.1909 25.6572 62.2668 25.6147 62.3597 25.5494C62.3962 25.5239 62.4384 25.4814 62.4862 25.4218C62.534 25.3622 62.5706 25.2998 62.5931 25.2346C62.6184 25.1694 62.6297 25.1013 62.6297 25.0332C62.6297 24.9879 62.6156 24.951 62.5903 24.9198C62.565 24.8914 62.534 24.8744 62.5031 24.8744C62.4609 24.8744 62.4131 24.8999 62.3568 24.9481C62.2612 25.0332 62.1628 25.1751 62.0587 25.3736C61.98 25.5268 61.9294 25.6459 61.9041 25.7395ZM61.8675 25.8586C61.8169 26.0004 61.7916 26.1451 61.7916 26.2897C61.7916 26.3975 61.8169 26.4826 61.8647 26.545C61.8956 26.5904 61.9406 26.6102 61.994 26.6102C62.0278 26.6102 62.0587 26.6017 62.084 26.5904C62.1403 26.5592 62.1881 26.5251 62.2303 26.4854C62.2697 26.4457 62.3118 26.3918 62.3568 26.3266C62.4018 26.2614 62.4384 26.1876 62.4637 26.1054H62.4947C62.5143 26.1054 62.534 26.1054 62.5565 26.111C62.5115 26.2869 62.3962 26.4571 62.2162 26.6272C62.1037 26.7322 61.9856 26.7832 61.8647 26.7832C61.7831 26.7832 61.7156 26.7464 61.6594 26.6698C61.5863 26.5705 61.5469 26.4344 61.5469 26.2614C61.5469 26.1848 61.5581 26.0968 61.5806 25.9919C61.6031 25.887 61.6284 25.799 61.6566 25.7281C61.7016 25.6175 61.7522 25.5154 61.8084 25.4161L61.9856 25.1524C62.1009 25.0276 62.1628 24.9595 62.1769 24.9453C62.2303 24.8999 62.2837 24.8631 62.3372 24.8375C62.3906 24.812 62.4468 24.8007 62.5059 24.8007C62.579 24.8007 62.6465 24.8319 62.7028 24.8971C62.759 24.9595 62.7871 25.0417 62.7871 25.1382C62.7871 25.2233 62.7646 25.3084 62.7225 25.3934C62.6803 25.4785 62.6325 25.5381 62.5818 25.5778L62.3906 25.7054C62.3681 25.7168 62.3118 25.7366 62.219 25.765C62.1262 25.7934 62.0053 25.8246 61.8591 25.8529" fill="white"/>
<path d="M63.4305 24.9793C63.3799 25.0161 63.3321 25.0615 63.2871 25.1126C63.2758 25.1268 63.2055 25.2204 63.079 25.3934L62.9862 25.399C63.0255 25.314 63.0959 25.2119 63.1999 25.0871C63.304 24.9623 63.394 24.8772 63.4699 24.8346C63.5177 24.8034 63.574 24.7864 63.633 24.7836C63.6724 24.7949 63.6977 24.8091 63.7118 24.829C63.7258 24.8488 63.7343 24.8687 63.7343 24.897C63.7343 24.9254 63.7315 24.9481 63.7258 24.9764C63.709 25.0615 63.6752 25.1835 63.6246 25.3452C63.574 25.504 63.529 25.6316 63.4896 25.7252L63.3715 26.0145L63.363 26.0571C63.3855 26.0202 63.4277 25.9351 63.4924 25.8046C63.7399 25.3196 63.9199 25.0218 64.0296 24.9084C64.1111 24.8261 64.2039 24.7864 64.3136 24.7864C64.3755 24.7864 64.4317 24.8119 64.4852 24.8602C64.5246 24.8999 64.5442 24.9509 64.5442 25.0161C64.5442 25.0871 64.5217 25.1495 64.4767 25.2033C64.4458 25.2402 64.4036 25.2572 64.3446 25.2572C64.2967 25.2572 64.263 25.2459 64.2461 25.2232C64.2264 25.2005 64.2152 25.1438 64.2096 25.053C64.1899 25.0133 64.1674 24.9906 64.1421 24.9906C64.1168 24.9906 64.0914 25.0048 64.0633 25.0303C63.9902 25.0984 63.8524 25.314 63.6471 25.677C63.4446 26.0401 63.3152 26.2925 63.2646 26.4343C63.214 26.5761 63.1718 26.6725 63.1409 26.7264C63.124 26.7548 63.093 26.7661 63.048 26.7661C63.0059 26.7661 62.9777 26.7576 62.9609 26.7435C62.944 26.7293 62.9355 26.7094 62.9355 26.6867C62.9355 26.6555 62.944 26.6187 62.958 26.579C63.0255 26.4144 63.1296 26.111 63.273 25.6685L63.4333 25.1665C63.4446 25.1211 63.4502 25.0927 63.4558 25.0814L63.4699 25.0473C63.4699 25.0332 63.453 25.0133 63.4249 24.9878" fill="white"/>
<path d="M64.8064 25.7395C64.8542 25.7395 64.933 25.7225 65.0342 25.6799C65.0904 25.6572 65.1664 25.6147 65.2592 25.5494C65.2957 25.5239 65.3379 25.4814 65.3857 25.4218C65.4336 25.3622 65.4701 25.2998 65.4926 25.2346C65.5179 25.1694 65.5292 25.1013 65.5292 25.0332C65.5292 24.9879 65.5151 24.951 65.4898 24.9198C65.4645 24.8914 65.4364 24.8744 65.4026 24.8744C65.3604 24.8744 65.3126 24.8999 65.2564 24.9481C65.1608 25.0332 65.0623 25.1751 64.9583 25.3736C64.8795 25.5268 64.8289 25.6459 64.8036 25.7395M64.767 25.8586C64.7164 26.0004 64.6911 26.1451 64.6911 26.2897C64.6911 26.3975 64.7164 26.4826 64.7642 26.545C64.7951 26.5904 64.8401 26.6102 64.8936 26.6102C64.9273 26.6102 64.9554 26.6017 64.9836 26.5904C65.0398 26.5592 65.0876 26.5251 65.1298 26.4854C65.1692 26.4457 65.2114 26.3918 65.2564 26.3266C65.3014 26.2614 65.3379 26.1876 65.3632 26.1054H65.3942C65.4111 26.1054 65.4336 26.1054 65.4561 26.111C65.4111 26.2869 65.2958 26.4571 65.1158 26.6272C65.0033 26.7322 64.8851 26.7832 64.767 26.7832C64.6855 26.7832 64.618 26.7464 64.5617 26.6698C64.4886 26.5705 64.4492 26.4344 64.4492 26.2614C64.4492 26.1848 64.4605 26.0968 64.483 25.9919C64.5055 25.887 64.5308 25.799 64.5589 25.7281C64.6039 25.6175 64.6573 25.5154 64.7136 25.4161L64.8908 25.1524C65.0061 25.0276 65.0708 24.9595 65.082 24.9453C65.1354 24.8999 65.1889 24.8631 65.2423 24.8375C65.2957 24.812 65.352 24.8007 65.4111 24.8007C65.487 24.8007 65.5517 24.8319 65.6079 24.8971C65.6642 24.9595 65.6923 25.0417 65.6923 25.1382C65.6923 25.2233 65.6698 25.3084 65.6276 25.3934C65.5854 25.4785 65.5376 25.5381 65.487 25.5778L65.2958 25.7054C65.2733 25.7168 65.217 25.7366 65.1242 25.765C65.0314 25.7934 64.9105 25.8246 64.7642 25.8529" fill="white"/>
<path d="M66.2317 26.5592C66.2908 26.5592 66.3583 26.5308 66.437 26.4713C66.5804 26.3635 66.7154 26.2217 66.842 26.0458C66.9686 25.87 67.0557 25.6941 67.1064 25.5183C67.157 25.3424 67.1823 25.2403 67.1823 25.2063C67.1823 25.1552 67.1626 25.1098 67.126 25.0644C67.0895 25.0191 67.0557 24.9964 67.0248 24.9964C66.9714 24.9964 66.9039 25.0162 66.8279 25.0588C66.7492 25.0985 66.6676 25.1694 66.5833 25.2687C66.5354 25.3226 66.4595 25.4388 66.3611 25.6119C66.2598 25.7849 66.1867 25.9352 66.1389 26.06C66.0911 26.1848 66.0658 26.2812 66.0658 26.3493C66.0658 26.4174 66.0826 26.4656 66.1136 26.5053C66.1445 26.5422 66.1867 26.562 66.2345 26.562M67.2442 25.0361L67.4917 24.2249C67.5029 24.1909 67.517 24.1341 67.5367 24.0547C67.5395 24.0377 67.5423 24.0264 67.5451 24.0179C67.576 23.9157 67.5929 23.8505 67.5929 23.8221C67.5929 23.8023 67.5817 23.7824 67.5648 23.7654C67.5226 23.7342 67.4551 23.7059 67.3567 23.6803L67.3089 23.6662L67.3257 23.5981C67.5845 23.5981 67.7588 23.5811 67.8432 23.5442H67.8713C67.8882 23.5442 67.9107 23.5442 67.9304 23.5527C67.9191 23.6009 67.9107 23.6321 67.9079 23.6491V23.6633L67.7167 24.2476L67.4888 24.9992C67.4467 25.1268 67.4213 25.2233 67.4073 25.2828C67.3876 25.3736 67.3651 25.4587 67.3398 25.5381L67.0164 26.5365L67.022 26.5507C67.0782 26.5422 67.2189 26.4089 67.4438 26.1536C67.4692 26.1649 67.486 26.1791 67.5001 26.1961C67.3735 26.3918 67.2301 26.5507 67.0726 26.6698C66.9601 26.7549 66.8757 26.8003 66.8195 26.8003C66.8082 26.8003 66.7914 26.7974 66.7689 26.7918C66.7604 26.7776 66.7548 26.7662 66.7548 26.7549C66.7548 26.7067 66.7801 26.5989 66.8336 26.4287C66.8842 26.2585 66.9207 26.1337 66.9404 26.0572C66.9011 26.0969 66.842 26.1621 66.7661 26.2529C66.6198 26.4259 66.4651 26.5705 66.302 26.684C66.1867 26.7662 66.0798 26.8059 65.9842 26.8059C65.9336 26.8059 65.8914 26.7832 65.8633 26.7407C65.8155 26.6726 65.793 26.579 65.793 26.4571C65.793 26.3039 65.8267 26.1479 65.8914 25.9862C65.9308 25.887 65.9955 25.7593 66.0855 25.6062C66.1755 25.4502 66.2767 25.3169 66.3864 25.2006C66.4961 25.0843 66.6029 25.002 66.7014 24.951C66.8026 24.8999 66.8926 24.8744 66.9742 24.8744C67.0389 24.8744 67.0951 24.8886 67.1429 24.9226C67.1767 24.9425 67.2104 24.9822 67.247 25.0418" fill="white"/>
<path d="M69.3426 26.6783C69.3904 26.6783 69.441 26.6613 69.4944 26.6272C69.5985 26.5677 69.7166 26.457 69.846 26.301C69.9754 26.1422 70.0654 26.0259 70.1132 25.9437C70.2116 25.7735 70.2932 25.6033 70.3578 25.4331C70.4057 25.3083 70.431 25.1977 70.431 25.1041C70.431 25.0616 70.4169 25.0247 70.3888 24.9963C70.3607 24.968 70.3241 24.9538 70.2819 24.9538C70.2397 24.9538 70.1947 24.968 70.1441 24.9992C70.0485 25.0587 69.9332 25.1694 69.8038 25.3339C69.5957 25.5891 69.4635 25.7707 69.4016 25.8756C69.3398 25.9805 69.2891 26.0997 69.2526 26.2358C69.2132 26.372 69.1935 26.4627 69.1935 26.5081C69.1935 26.5535 69.2076 26.596 69.2357 26.6272C69.2638 26.6613 69.3004 26.6754 69.3454 26.6754M69.7138 23.7427C69.6716 23.7143 69.6126 23.7002 69.531 23.7002H69.4944L69.5001 23.6321C69.5422 23.6207 69.6266 23.6151 69.7532 23.6122C69.7785 23.6122 69.8769 23.6066 70.0457 23.5952C70.04 23.6179 69.995 23.7682 69.905 24.049L69.7335 24.6021C69.7194 24.6617 69.68 24.7865 69.6182 24.9765L69.3651 25.8132L69.6913 25.3651C69.8825 25.1325 69.9922 25.002 70.026 24.9708C70.1075 24.8942 70.1778 24.8432 70.2425 24.8177C70.3044 24.7893 70.3607 24.778 70.4085 24.778C70.4647 24.778 70.5153 24.8063 70.5603 24.8602C70.6166 24.9311 70.6447 25.0162 70.6447 25.1126C70.6447 25.3169 70.5941 25.5296 70.4928 25.748C70.3916 25.9664 70.251 26.1677 70.071 26.3521C69.9529 26.4684 69.7841 26.5818 69.5591 26.6896C69.4297 26.7492 69.3285 26.7804 69.2498 26.7804C69.1598 26.7804 69.0894 26.7577 69.0388 26.7066C68.9882 26.6584 68.9629 26.5989 68.9629 26.5336C68.9629 26.4485 68.9798 26.3464 69.0107 26.233L69.1316 25.7962L69.5788 24.4092C69.6322 24.2334 69.68 24.0831 69.7279 23.9583C69.7475 23.9072 69.756 23.8647 69.756 23.8306C69.756 23.8079 69.7419 23.7796 69.7166 23.7484" fill="white"/>
<path d="M69.9158 27.6823C69.9467 27.7192 69.9748 27.7419 70.0001 27.7532C70.0226 27.7646 70.0648 27.7702 70.1211 27.7702C70.2026 27.7702 70.2954 27.7475 70.4051 27.6993C70.5148 27.6539 70.5964 27.6057 70.647 27.5547C70.7454 27.4866 70.8579 27.3788 70.9873 27.2285C71.0548 27.1462 71.1167 27.0441 71.1645 26.9165C71.2151 26.7889 71.2517 26.6272 71.2742 26.4343C71.2967 26.2415 71.3107 26.0741 71.3107 25.9351C71.3107 25.8529 71.3079 25.7026 71.2995 25.4842C71.291 25.3338 71.2798 25.2317 71.2629 25.1778C71.246 25.124 71.2263 25.0842 71.201 25.0587C71.187 25.0474 71.1701 25.0389 71.1476 25.0389C71.1138 25.0389 71.0829 25.0559 71.0548 25.0871C71.0014 25.1552 70.9479 25.2828 70.8973 25.47L70.8804 25.4757C70.8664 25.4757 70.8467 25.4671 70.8242 25.4501C70.8776 25.2459 70.917 25.1183 70.9395 25.0672C70.9873 24.968 71.0295 24.897 71.0632 24.8573C71.0857 24.8347 71.1195 24.8091 71.1701 24.7864C71.1954 24.7864 71.2123 24.7808 71.2263 24.7808C71.3163 24.7808 71.3867 24.8403 71.4401 24.9566C71.5132 25.1211 71.5498 25.3423 71.5498 25.6231C71.5498 25.7508 71.5413 25.9096 71.5245 26.0968C71.5076 26.2868 71.4879 26.423 71.4682 26.5137C71.4429 26.6414 71.426 26.718 71.4232 26.7492C71.4317 26.7406 71.4401 26.7293 71.4485 26.7123C71.547 26.562 71.6313 26.4173 71.7016 26.2783C71.7579 26.1762 71.8057 26.0514 71.8507 25.9068C71.8957 25.7621 71.9323 25.6146 71.9576 25.4615C71.9716 25.3707 71.9801 25.2714 71.9801 25.1637C71.9801 25.124 71.9801 25.0899 71.9801 25.0616C71.9773 25.0247 71.9744 25.002 71.9744 24.9935C71.9744 24.9169 71.9885 24.8573 72.0166 24.8205C72.0307 24.7978 72.056 24.7864 72.0982 24.7864C72.1404 24.7864 72.1657 24.7978 72.1854 24.8205C72.2051 24.8432 72.2135 24.88 72.2135 24.9282C72.2135 25.002 72.1713 25.192 72.0841 25.4898C71.966 25.9039 71.8423 26.2244 71.7157 26.4485C71.5245 26.7917 71.3023 27.0952 71.0492 27.359C70.8776 27.5376 70.7004 27.6681 70.5176 27.7504C70.3348 27.8326 70.1745 27.8752 70.0367 27.8752C69.8539 27.8752 69.7273 27.8525 69.6598 27.8043C69.5923 27.756 69.5586 27.7078 69.5586 27.6596C69.5586 27.6284 69.5698 27.6 69.5923 27.5774C69.6148 27.5547 69.643 27.5433 69.6739 27.5433C69.7161 27.5433 69.7611 27.5547 69.8089 27.5774C69.8314 27.5887 69.868 27.6227 69.9214 27.6766" fill="white"/>
<path d="M66.3955 31.1228C67.0001 31.1228 67.4726 30.7144 67.4726 30.0904C67.4726 29.4664 67.0001 29.058 66.3955 29.058C65.7908 29.058 65.3183 29.4664 65.3183 30.0904C65.3183 30.7144 65.7908 31.1228 66.3955 31.1228ZM50.8457 31.0746H51.1269V29.5855L52.2772 31.0746H52.5585V29.1204H52.2772V30.6094L51.1269 29.1204H50.8457V31.0746ZM53.2953 31.0746H54.6931V30.791H53.5765V30.2407H54.5159V29.9571H53.5765V29.4068H54.6931V29.1232H53.2953V31.0774V31.0746ZM55.8771 31.0746H56.1583V29.404H56.8699V29.1204H55.1656V29.404H55.8771V31.0746ZM58.8132 31.0746H59.1226L59.3757 30.5244H60.3572L60.6104 31.0746H60.9197L60.0198 29.1204H59.7188L58.8189 31.0746H58.8132ZM63.2371 31.0746H63.5184V30.2407H64.3452C64.694 30.2407 64.9274 30.0252 64.9274 29.682C64.9274 29.3388 64.694 29.1232 64.3452 29.1232H63.2343V31.0774L63.2371 31.0746ZM68.0154 31.0746H68.2967V30.2407H68.6848C68.966 30.2407 69.0476 30.3088 69.2529 30.6151L69.4329 30.8846C69.4807 30.9555 69.5341 31.0292 69.5763 31.0746H69.9588C69.8632 30.9895 69.8097 30.9271 69.6747 30.7257L69.5988 30.6151C69.371 30.2861 69.3541 30.2464 69.2247 30.1641C69.4751 30.0989 69.6157 29.9174 69.6157 29.665C69.6157 29.3189 69.3822 29.1204 69.0307 29.1204H68.0154V31.0746ZM70.7941 31.0746H71.0753V29.404H71.7868V29.1204H70.0825V29.404H70.7941V31.0746ZM72.3128 31.0746H73.7105V30.791H72.594V30.2407H73.5333V29.9571H72.594V29.4068H73.7105V29.1232H72.3128V31.0774V31.0746ZM74.4164 31.0746H74.6977V30.2407H75.0858C75.367 30.2407 75.4486 30.3088 75.6567 30.6151L75.8367 30.8846C75.8845 30.9555 75.938 31.0292 75.9801 31.0746H76.3626C76.267 30.9895 76.2136 30.9271 76.0786 30.7257L76.0026 30.6151C75.7748 30.2861 75.758 30.2464 75.6286 30.1641C75.8789 30.0989 76.0167 29.9174 76.0167 29.665C76.0167 29.3189 75.7833 29.1204 75.4317 29.1204H74.4136V31.0746H74.4164ZM66.3955 30.8505C65.9455 30.8505 65.6136 30.5442 65.6136 30.0904C65.6136 29.6366 65.9455 29.3303 66.3955 29.3303C66.8455 29.3303 67.1773 29.6338 67.1773 30.0904C67.1773 30.547 66.8483 30.8505 66.3955 30.8505ZM63.5184 29.9571V29.4012H64.3284C64.5112 29.4012 64.6293 29.4919 64.6293 29.6791C64.6293 29.8663 64.5112 29.9571 64.3284 29.9571H63.5184ZM68.2995 29.9571V29.4012H69.0223C69.2051 29.4012 69.3204 29.4919 69.3204 29.6791C69.3204 29.8663 69.2051 29.9571 69.0223 29.9571H68.2995ZM74.6977 29.9571V29.4012H75.4205C75.6033 29.4012 75.7186 29.4919 75.7186 29.6791C75.7186 29.8663 75.6033 29.9571 75.4205 29.9571H74.6977ZM59.5051 30.2379L59.8651 29.4551L60.2251 30.2379H59.5051ZM57.2242 30.2379H58.4083V29.9543H57.2242V30.2379ZM61.3191 30.2379H62.5031V29.9543H61.3191V30.2379Z" fill="white"/>
</g>
<defs>
<clipPath id="clip0_425_4068">
<rect width="250" height="56" fill="white"/>
</clipPath>
</defs>
</svg>
