<svg width="150" height="150" viewBox="0 0 150 150" fill="none" xmlns="http://www.w3.org/2000/svg">
<g clip-path="url(#clip0_427_4140)">
<path d="M149.667 149.667H0V0H149.667V149.667Z" fill="white"/>
<path d="M149.667 81V0H0V149.667H149.667V106C149.333 106 149.667 81 149.667 81Z" fill="#006FCF"/>
<path d="M131.626 70.642H142.984V44.25H130.624V47.9248L128.285 44.25H117.595V48.9271L115.59 44.25H95.8797C95.2116 44.25 94.5434 44.5841 93.8753 44.5841C93.2071 44.5841 92.873 44.9182 92.2049 45.2522C91.5367 45.5863 91.2027 45.5863 90.5345 45.9204V44.25H34.0757L32.4053 48.593L30.735 44.25H17.3719V48.9271L15.3675 44.25H4.67706L0 55.6086V70.642H7.68374L9.02004 66.9671H11.6926L13.029 70.642H71.8263V67.3012L74.1648 70.642H90.5345V68.6375C90.8686 68.9716 91.5367 68.9716 91.8708 69.3057C92.2049 69.6398 92.873 69.6398 93.2071 69.9738C93.8753 70.3079 94.5434 70.3079 95.2116 70.3079H107.238L108.575 66.6331H111.247L112.584 70.3079H128.953V66.9671L131.626 70.642ZM150 104.05V79.3279H58.1292L55.7906 82.6687L53.4521 79.3279H26.7261V105.72H53.4521L55.7906 102.379L58.1292 105.72H74.833V100.041H74.1648C76.5033 100.041 78.5078 99.7066 80.1782 99.0384V106.054H92.2049V102.713L94.5434 106.054H144.321C146.325 105.386 148.33 105.052 150 104.05Z" fill="white"/>
<path d="M144.321 97.8691H135.301V101.544H143.987C147.661 101.544 150 99.2054 150 95.8647C150 92.5239 147.996 90.8536 144.655 90.8536H140.646C139.644 90.8536 138.975 90.1854 138.975 89.1832C138.975 88.1809 139.644 87.5128 140.646 87.5128H148.33L150 83.838H140.98C137.305 83.838 134.967 86.1765 134.967 89.1832C134.967 92.5239 136.971 94.1943 140.312 94.1943H144.321C145.323 94.1943 145.991 94.8625 145.991 95.8647C146.325 97.201 145.657 97.8691 144.321 97.8691ZM127.951 97.8691H118.931V101.544H127.617C131.292 101.544 133.63 99.2054 133.63 95.8647C133.63 92.5239 131.626 90.8536 128.285 90.8536H124.276C123.274 90.8536 122.606 90.1854 122.606 89.1832C122.606 88.1809 123.274 87.5128 124.276 87.5128H131.96L133.63 83.838H124.61C120.935 83.838 118.597 86.1765 118.597 89.1832C118.597 92.5239 120.601 94.1943 123.942 94.1943H127.951C128.953 94.1943 129.621 94.8625 129.621 95.8647C129.955 97.201 128.953 97.8691 127.951 97.8691ZM116.258 87.1787V83.5039H102.227V101.21H116.258V97.5351H106.236V93.8602H115.924V90.1854H106.236V86.8446H116.258V87.1787ZM93.5412 87.1787C95.2116 87.1787 95.8797 88.1809 95.8797 89.1832C95.8797 90.1854 95.2116 91.1876 93.5412 91.1876H88.5301V86.8446L93.5412 87.1787ZM88.5301 94.8625H90.5345L95.8797 101.21H100.891L94.8775 94.5284C97.8842 93.8602 99.5546 91.8558 99.5546 89.1832C99.5546 85.8424 97.216 83.5039 93.5412 83.5039H84.1871V101.21H88.196L88.5301 94.8625ZM77.8396 89.5172C77.8396 90.8535 77.1715 91.8558 75.5011 91.8558H70.1559V87.1787H75.167C76.8374 87.1787 77.8396 88.1809 77.8396 89.5172ZM66.147 83.5039V101.21H70.1559V95.1965H75.5011C79.1759 95.1965 81.8485 92.858 81.8485 89.1832C81.8485 85.8424 79.51 83.1698 75.8352 83.1698L66.147 83.5039ZM60.1336 101.21H65.1448L58.1292 92.1899L65.1448 83.5039H60.1336L55.7906 89.1832L51.4477 83.5039H46.4365L53.4521 92.1899L46.4365 100.876H51.4477L55.7906 95.1965L60.1336 101.21ZM45.1002 87.1787V83.5039H31.069V101.21H45.1002V97.5351H35.0779V93.8602H44.7661V90.1854H35.0779V86.8446H45.1002V87.1787ZM126.281 55.7756L133.296 66.466H138.307V48.76H134.298V60.4527L133.296 58.7823L126.949 48.76H121.604V66.466H125.612V54.4393L126.281 55.7756ZM108.909 55.4415L110.245 51.7667L111.581 55.4415L113.252 59.4504H107.238L108.909 55.4415ZM115.924 66.466H120.267L112.584 48.76H107.238L99.5546 66.466H103.898L105.568 62.7912H114.254L115.924 66.466ZM97.216 66.466L98.8864 62.7912H97.8842C94.8775 62.7912 93.2071 60.7867 93.2071 57.7801V57.446C93.2071 54.4393 94.8775 52.4348 97.8842 52.4348H102.227V48.76H97.5501C92.2049 48.76 89.1982 52.4348 89.1982 57.446V57.7801C89.1982 63.1253 92.2049 66.466 97.216 66.466ZM82.1826 66.466H86.1915V49.0941H82.1826V66.466ZM73.4967 52.4348C75.167 52.4348 75.8352 53.4371 75.8352 54.4393C75.8352 55.4415 75.167 56.4437 73.4967 56.4437H68.4855V52.1008L73.4967 52.4348ZM68.4855 60.1186H70.49L75.8352 66.466H80.8463L74.833 59.7845C77.8396 59.1164 79.51 57.1119 79.51 54.4393C79.51 51.0985 77.1715 48.76 73.4967 48.76H64.1425V66.466H68.1514L68.4855 60.1186ZM61.1359 52.4348V48.76H47.1047V66.466H61.1359V62.7912H51.1136V59.1164H60.8018V55.4415H51.1136V52.1008H61.1359V52.4348ZM30.735 66.466H34.4098L39.4209 52.1008V66.466H43.4298V48.76H36.7483L32.7394 60.7867L28.7305 48.76H22.049V66.466H26.0579V52.1008L30.735 66.466ZM9.02004 55.4415L10.3563 51.7667L11.6926 55.4415L13.363 59.4504H7.34967L9.02004 55.4415ZM16.0356 66.466H20.3786L12.6949 48.76H7.68374L0 66.466H4.34298L6.01336 62.7912H14.6993L16.0356 66.466Z" fill="#006FCF"/>
</g>
<defs>
<clipPath id="clip0_427_4140">
<rect width="150" height="150" fill="white"/>
</clipPath>
</defs>
</svg>
