<svg width="200" height="43" viewBox="0 0 200 43" fill="none" xmlns="http://www.w3.org/2000/svg">
<g clip-path="url(#clip0_429_4147)">
<path fill-rule="evenodd" clip-rule="evenodd" d="M73.043 43.6336C73.043 38.4077 73.1198 33.2294 73.1198 27.9087C73.1198 20.5924 73.043 13.3239 73.043 6.00757V0.924263C73.043 0.306713 73.1198 0.0217285 74.424 0.0217285H76.6492C77.9536 0.0217285 78.1838 0.116723 78.1838 0.496703C78.1838 6.48272 78.2604 12.5161 78.2604 18.5022C78.2604 25.3431 78.1838 32.0892 78.1838 38.9304V43.0634C78.1838 43.8711 78.107 44.1087 77.263 44.1087H74.731C73.1964 44.1087 73.043 44.0135 73.043 43.6336Z" fill="#6F2CC7"/>
<path fill-rule="evenodd" clip-rule="evenodd" d="M189.551 36.0224C189.534 36.3112 189.522 36.5164 189.522 36.625C189.522 37.9986 190.301 38.3648 191.645 38.3648C191.988 38.3648 192.52 38.3384 193.118 38.3088C193.882 38.2708 194.753 38.2276 195.47 38.2276C196.054 38.2276 196.563 38.2398 197.057 38.2515C197.518 38.2626 197.963 38.2733 198.442 38.2733C199.221 38.2733 199.433 38.1817 199.717 37.9986C199.929 37.7237 199.929 37.266 199.929 36.6709V33.0996C199.929 32.4924 199.911 31.5281 199.892 30.5829V30.5806C199.875 29.6734 199.859 28.7842 199.859 28.2462L199.788 22.0194C199.788 20.188 199.823 18.3908 199.859 16.5938C199.894 14.7967 199.929 12.9996 199.929 11.1682C199.929 10.3304 199.95 9.57228 199.969 8.87228C199.984 8.27193 200 7.71328 200 7.18494C200 6.17755 199.221 5.81135 198.089 5.76549C195.61 5.62824 192.708 5.7198 191.292 5.81135C189.946 5.90289 189.522 5.94875 189.522 7.04754C189.522 7.29214 189.53 7.6936 189.543 8.21054V8.21207V8.21389C189.563 9.148 189.593 10.4581 189.593 11.9008L189.663 16.6167C189.663 17.0053 189.649 17.6494 189.633 18.3615V18.3653C189.614 19.247 189.593 20.2325 189.593 20.9663C189.593 21.6265 189.623 22.4353 189.656 23.3005C189.694 24.2954 189.734 25.3649 189.734 26.369C189.734 27.445 189.717 28.4982 189.699 29.5512C189.682 30.6043 189.663 31.6573 189.663 32.7332C189.663 34.1815 189.593 35.3358 189.551 36.021V36.0224ZM176.424 22.8435C176.424 23.5761 176.424 24.3545 176.143 24.5377C175.929 24.675 175.363 24.7207 173.948 24.7207C173.381 24.7207 173.027 24.675 172.743 24.5835C172.248 24.4002 172.106 24.0797 172.106 22.7063C172.106 21.3327 172.177 20.0965 172.46 19.1807C172.673 18.5398 173.239 18.1734 174.23 18.1734C175.08 18.1734 175.647 18.4939 175.929 18.9519C176.212 19.4555 176.283 20.0965 176.355 20.7832C176.424 21.3327 176.424 21.9737 176.424 22.8435ZM163.894 33.3742C164.814 35.0225 165.947 36.0299 168.071 37.0371C170.195 38.0443 172.743 38.4564 176.283 38.4564C178.55 38.4564 180.249 38.3648 182.301 37.9987C184.071 37.6781 184.85 37.266 185.063 36.1671C185.151 35.765 185.184 35.1828 185.214 34.6578C185.231 34.3459 185.249 34.0539 185.275 33.8321C185.346 33.3742 185.346 32.779 185.346 32.2296C185.346 31.5885 184.85 31.314 183.93 31.314C183.435 31.314 182.725 31.497 182.231 31.6344C181.736 31.7718 181.026 31.9549 180.318 32.0921C179.186 32.3212 178.337 32.367 177.132 32.367C175.504 32.367 174.372 32.0921 173.381 31.5885C172.743 31.2681 172.319 30.9018 172.319 30.3066C172.319 30.0318 172.46 29.7572 172.814 29.6198C173.168 29.4825 173.805 29.3909 175.433 29.3909H178.266C178.868 29.3909 179.47 29.4023 180.071 29.4138C180.673 29.4252 181.275 29.4366 181.877 29.4366C184.071 29.4366 185.134 28.8415 185.487 27.6053C185.558 27.3764 185.63 27.1474 185.699 26.5064C185.842 25.4533 185.911 23.7135 185.911 22.2942C185.911 21.0122 185.63 19.5011 185.275 18.4939L185.219 18.3345C184.875 17.3447 184.423 16.049 183.08 14.8769C180.957 12.9997 177.983 12.3587 174.584 12.3587C171.115 12.3587 168.991 12.9081 167.363 13.8239C165.451 14.9227 164.389 16.0672 163.681 17.8529C163.044 19.4096 162.832 21.0579 162.69 22.6146C162.549 24.1714 162.549 25.4533 162.619 26.9643C162.761 29.6657 163.044 31.8176 163.894 33.3742ZM142.938 37.4034C143.221 37.6324 143.646 37.8154 144.354 37.9986C145.557 38.319 147.186 38.4565 149.168 38.4565C153.204 38.4565 155.965 37.3576 157.877 35.7552C159.363 34.4731 160.354 32.779 160.354 30.3982C160.354 28.5668 159.717 26.8268 158.655 25.6822C157.664 24.5835 156.319 23.4845 155.328 22.7519C154.664 22.2695 154.171 21.9439 153.762 21.6743C153.473 21.4834 153.226 21.3204 152.991 21.1495C152.496 20.7832 152.283 20.3253 152.283 19.7759C152.283 18.906 153.062 18.4481 154.195 18.4481C154.903 18.4481 155.54 18.5397 156.106 18.6772C156.743 18.8144 157.31 18.906 157.877 18.906C158.797 18.906 159.08 18.7228 159.08 17.9903V15.8841C159.08 15.2432 159.08 14.648 159.009 13.8697C158.938 13.1828 158.159 12.9081 156.814 12.6792C155.682 12.4961 154.124 12.3586 152.779 12.3586C148.177 12.3586 145.982 13.4576 144.354 15.1516C142.796 16.7541 142.513 18.2192 142.513 19.7759C142.513 21.47 143.221 23.3929 144.495 24.5376C145.416 25.3617 146.336 26.0943 147.327 26.7354C147.58 26.8988 147.827 27.0502 148.063 27.1953C148.622 27.5381 149.124 27.8467 149.522 28.2004C150.089 28.6583 150.584 29.2994 150.584 30.3523C150.584 31.7718 149.593 32.4585 147.894 32.4585C147.054 32.4585 146.391 32.3152 145.59 32.1421C145.378 32.0963 145.157 32.0485 144.92 32.0007C144.425 31.909 143.929 31.8175 143.504 31.8175C143.221 31.8175 142.938 31.8633 142.725 32.0465C142.513 32.2754 142.442 32.5501 142.442 33.5574V35.8924C142.442 36.8998 142.655 37.1745 142.938 37.4034ZM129.487 31.3138C129.558 30.2151 129.558 28.3835 129.558 27.8341C129.558 27.1933 129.558 26.7354 129.345 26.2774C129.133 25.7738 128.637 25.4075 127.575 25.4075C126.796 25.4075 125.947 25.6822 125.664 26.2774C125.38 26.8269 125.309 27.3763 125.309 28.2921C125.309 29.4825 125.309 30.3982 125.38 31.3597C125.451 32.3211 126.088 33.2369 127.434 33.2369C128.849 33.2369 129.416 32.5501 129.487 31.3138ZM117.805 36.7165C116.743 35.8924 116.035 34.5189 115.822 33.0996C115.61 31.726 115.469 30.5813 115.469 29.3909C115.469 28.6585 115.469 27.6969 115.822 25.9112C116.106 24.3546 117.238 22.8435 119.009 21.7904C120.354 21.0122 122.053 20.6916 123.964 20.6916C125.309 20.6916 126.584 20.8291 127.292 20.9663C127.433 20.9892 127.575 21.015 127.717 21.0408C128.142 21.118 128.566 21.1952 128.991 21.1952C129.699 21.1952 129.982 20.8291 129.982 20.2796C129.982 19.8216 129.77 19.3639 129.345 19.0891C128.495 18.5398 127.221 18.3565 125.734 18.3565C124.531 18.3565 123.327 18.4939 122.549 18.6313C122.114 18.7079 121.723 18.7989 121.339 18.8882C121.036 18.9589 120.737 19.0285 120.425 19.0891L120.212 19.1306C119.588 19.2529 119.022 19.3639 118.513 19.3639C118.088 19.3639 117.734 19.318 117.451 19.1349C117.168 18.9519 117.097 18.5855 117.026 18.1734C116.955 17.7156 116.955 17.4408 116.955 16.5711V14.648C116.955 14.0069 117.168 13.6407 117.946 13.4117C118.725 13.1828 120.495 12.9081 122.619 12.7249C124.106 12.5876 125.451 12.4961 127.504 12.4961C130.69 12.4961 133.027 12.9081 135.15 13.6864C137.628 14.6023 138.761 16.5252 139.044 18.0819C139.214 19.0681 139.203 20.171 139.192 21.3208C139.189 21.6121 139.186 21.9065 139.186 22.2027L139.257 27.5594C139.257 29.0495 139.278 30.2051 139.298 31.2416C139.313 32.0843 139.327 32.8483 139.327 33.649C139.327 34.1296 139.292 34.5875 139.257 35.0453C139.221 35.5032 139.186 35.9612 139.186 36.4419V37.4035C139.115 37.8612 138.266 37.9986 137.133 37.9986H131.044C130.619 37.9986 130.478 37.8612 130.478 37.5865V36.8081C130.478 36.5335 130.336 36.3961 129.982 36.3961C129.758 36.3961 129.478 36.5973 129.159 36.8263C128.973 36.9596 128.775 37.1022 128.566 37.2201C127.504 37.9528 125.876 38.3192 123.61 38.3192C121.203 38.3192 119.221 37.8155 117.805 36.7165ZM97.345 14.7853C97.345 15.3865 97.3221 16.0323 97.3023 16.5867C97.2873 17.0034 97.2743 17.3686 97.2743 17.6241C97.2743 18.4481 97.8405 18.6772 98.9026 18.6772C99.6106 18.6772 100.248 18.5856 100.814 18.265C101.522 17.853 102.159 17.0745 102.159 14.7394C102.159 12.0381 101.098 11.443 98.8318 11.443C97.6991 11.443 97.2743 11.6261 97.2743 11.9925C97.2743 12.4392 97.2929 12.9586 97.3111 13.4636C97.3283 13.9414 97.345 14.4068 97.345 14.7853ZM102.584 27.5137C102.584 26.7811 102.443 25.6822 102.018 24.858C101.593 24.034 100.814 23.5303 99.3275 23.5303C97.5576 23.5303 97.2743 23.9424 97.2743 24.4003C97.2743 25.0052 97.2529 25.6378 97.2336 26.2067C97.2179 26.671 97.2037 27.0929 97.2037 27.4222C97.2037 27.7617 97.1993 28.1179 97.195 28.4785C97.1816 29.5769 97.1677 30.7156 97.2743 31.5428C97.345 32.1838 97.6991 32.5043 98.5487 32.5043C100.673 32.5043 101.451 31.8175 102.018 30.6728C102.443 29.7571 102.584 28.4294 102.584 27.5137ZM112.921 28.0632C112.921 31.1766 111.859 33.649 109.806 35.3887C107.398 37.4491 104.779 38.2733 98.053 38.2733H90.9734C88.0706 38.2733 87.2918 37.907 87.2209 36.4877C87.1501 35.2514 87.1501 33.7863 87.1501 32.6874C87.1501 32.0412 87.1814 30.7057 87.2146 29.2915C87.252 27.7 87.2918 26.0082 87.2918 25.0871V11.2598C87.2918 10.3886 87.273 9.6143 87.2548 8.86212C87.2377 8.15172 87.2209 7.46086 87.2209 6.72698C87.2209 6.17767 87.2209 5.90285 88.7077 5.81129C90.336 5.71974 92.6723 5.67389 95.7875 5.67389H97.1327C104.85 5.67389 107.257 6.54387 109.239 7.96332C111.151 9.33676 112.142 11.5803 112.142 14.0069C112.142 16.6166 111.222 18.9976 108.743 20.3711C111.505 21.5157 112.921 24.0799 112.921 28.0632ZM52.1063 36.5792C50.9736 35.572 50.4073 34.061 50.4073 32.2296C50.4073 31.5874 50.4238 30.8594 50.4409 30.1079C50.4591 29.3061 50.4779 28.4766 50.4779 27.6968C50.4779 27.1371 50.4623 26.5876 50.4457 26.0053C50.4271 25.3492 50.4073 24.6513 50.4073 23.8508C50.4073 23.1746 50.4318 22.2747 50.452 21.5382C50.4661 21.028 50.4779 20.596 50.4779 20.3712C50.4779 20.1422 50.3363 20.0964 49.4866 20.0964H49.2037C48.7078 20.0964 48.5664 19.8217 48.5664 19.3638L48.6372 16.7083C48.6372 16.2897 48.6141 15.7964 48.5943 15.3735C48.5793 15.0563 48.5664 14.7787 48.5664 14.6022C48.5664 14.2817 48.5664 14.0986 49.1327 14.0986H50.1948C50.6196 14.0986 50.6903 13.9611 50.6903 13.6406L50.6197 11.2141L50.5487 9.19948C50.5487 8.00898 50.9736 7.73433 52.3896 7.73433C53.0668 7.73433 53.6438 7.74728 54.1849 7.75942C54.6619 7.77012 55.111 7.78019 55.5755 7.78019C56.2722 7.78019 56.8976 7.76482 57.4245 7.75189C57.8078 7.74247 58.1391 7.73433 58.4075 7.73433C58.903 7.73433 59.3986 7.78019 59.7527 7.96329C60.1066 8.1464 60.3896 8.46691 60.3896 8.87897C60.3896 9.61278 60.373 10.3466 60.3558 11.1015C60.3377 11.9008 60.319 12.7236 60.319 13.595C60.319 13.9611 60.3896 14.1442 60.7438 14.1442L62.9384 14.0986C63.788 14.0986 63.859 14.2817 64.0005 14.8311C64.0713 15.1517 64.1421 15.7926 64.1421 16.2962C64.1421 17.3035 64.1421 18.265 64.0005 19.2722C63.9296 19.7302 63.859 19.9133 63.2217 19.9133C61.1684 19.9133 60.6729 19.9592 60.4605 20.188C60.3388 20.3061 60.3217 20.5259 60.2743 21.1386C60.2666 21.2383 60.2581 21.3483 60.2482 21.47C60.1774 22.523 60.1774 25.316 60.1774 26.0485C60.1774 26.3422 60.1734 26.6669 60.1692 27.0078C60.1558 28.1021 60.1402 29.3642 60.2482 30.3066C60.319 30.9476 60.6021 31.5428 60.9562 31.7717C61.3809 32.0466 62.089 32.1838 63.0802 32.1838C63.7172 32.1838 64.0005 32.2754 64.0005 32.6874V34.7479C64.0005 34.9948 64.0148 35.3249 64.0306 35.6884C64.0499 36.1337 64.0713 36.6292 64.0713 37.0829C64.0713 37.6323 63.7172 37.8154 62.7259 37.9986C61.3809 38.2275 60.2482 38.319 58.4075 38.319C55.6463 38.319 53.3099 37.678 52.1063 36.5792ZM46.16 15.3805L46.231 13.2286C46.231 12.6791 46.0894 12.4961 45.3106 12.4961C44.107 12.4961 43.1868 12.8165 42.337 13.4117C41.4167 14.0527 40.3546 15.5178 39.8591 17.2577L39.6468 14.1442C39.5758 13.0912 39.4343 12.7706 38.3016 12.7706C37.681 12.7706 37.0228 12.7829 36.385 12.7947C35.7861 12.8058 35.2052 12.8165 34.6908 12.8165H33.7704C32.0005 12.8165 31.7174 13.2286 31.7174 14.0069C31.7174 14.9684 31.735 15.827 31.7527 16.6855C31.7704 17.5439 31.788 18.4024 31.788 19.3638V24.1713C31.788 25.3363 31.769 26.5876 31.7506 27.7908C31.7337 28.9048 31.7174 29.9773 31.7174 30.9018L31.788 34.8851C31.788 35.8924 31.788 36.9454 31.859 37.1745C32.0713 37.8612 32.6377 37.9986 33.6995 37.9986H37.8767C40.213 37.9986 40.921 37.9529 41.5583 37.6781C41.9831 37.495 42.1247 36.9913 42.1247 36.5793C42.1247 36.3224 42.1049 35.9309 42.08 35.4407C42.0386 34.6208 41.9831 33.5247 41.9831 32.3212L41.9122 28.292C41.9122 27.2568 41.8544 26.3715 41.791 25.3987C41.7842 25.296 41.7774 25.1921 41.7706 25.0871C41.6998 23.8967 41.7706 22.6147 42.1247 21.6531C42.4786 20.7832 43.6113 20.2338 45.2398 20.188C45.8061 20.1423 46.0186 20.0505 46.0894 19.4554C46.16 18.8602 46.16 17.7156 46.16 17.0745V15.3805ZM16.0005 26.5064C16.7084 26.5064 16.8502 26.5064 16.8502 26.0485C16.8502 25.4533 16.5669 23.4387 16.2129 21.7447C16.0714 21.1038 15.859 20.0965 15.7881 19.5011C15.6466 18.5855 15.2926 16.9372 15.1508 16.2503C14.9384 15.2431 14.8678 14.9227 14.5138 14.9227C14.1596 14.9227 14.089 15.2431 13.8766 16.2962L13.2393 19.5011C13.0269 20.6917 12.8145 22.0194 12.673 22.8435C12.4605 23.8966 12.1775 25.4992 12.1775 26.1859C12.1775 26.4605 12.319 26.5064 12.9563 26.5064H16.0005ZM18.1953 37.1287L17.912 34.9309C17.7704 33.9237 17.6997 33.2827 17.4871 32.6417C17.2748 32.0921 16.9208 31.9549 14.4429 31.9549C12.0357 31.9549 11.6818 32.0465 11.4693 32.5043C11.1863 33.0537 11.0445 33.7405 10.8323 34.5189C10.6906 34.9768 10.549 35.6179 10.3366 36.7166C10.1951 37.5866 9.77024 37.9987 8.35419 37.9987C8.07115 37.9987 7.07993 38.0443 5.38083 38.0443C3.82327 38.0443 2.61965 38.0443 1.6991 37.9987C0.637254 37.9528 0 37.8154 0 37.3118C0 37.0828 0.141529 36.4876 0.212417 36.1671L0.920313 33.4657C1.91151 29.6657 2.83207 25.8654 3.82327 22.0653C4.53117 19.3181 5.16842 16.3878 5.87631 13.6407C6.51357 11.1682 7.07993 9.01634 7.78783 6.6355C8.00024 6.17759 8.28357 6.04017 8.92056 5.94863C9.55783 5.85708 10.6199 5.85708 12.1775 5.85708C13.2393 5.85708 14.9384 5.90293 16.2129 5.90293C17.2041 5.90293 18.5492 5.85708 19.1866 5.85708C20.3193 5.85708 21.0271 6.04017 21.2397 6.6812L21.8769 8.74167C23.7883 14.8311 24.992 21.0122 26.6911 27.1931C27.4699 30.0318 28.0362 32.9163 28.7443 35.7551C28.8859 36.2587 28.9565 36.6707 28.9565 37.0371C28.9565 37.5866 28.815 37.9987 27.8946 37.9987H24.4256C23.3635 37.9987 21.9475 38.0902 20.5317 38.0902C18.8323 38.0902 18.3369 37.9528 18.1953 37.1287Z" fill="white"/>
</g>
<defs>
<clipPath id="clip0_429_4147">
<rect width="200" height="43" fill="white"/>
</clipPath>
</defs>
</svg>
