<svg width="299" height="92" viewBox="0 0 299 92" fill="none" xmlns="http://www.w3.org/2000/svg">
<g clip-path="url(#clip0_420_4450)">
<path d="M146.2 5.59998H153.9V30C153.9 34.3 152.6 37.6 149.9 39.8C143.8 44.3 135.6 44.3 129.5 39.8C126.8 37.6 125.5 34.3 125.5 30V5.59998H133.2V30C133.2 32.5 133.8 34.2 135 35.3C137.8 37.5 141.8 37.5 144.6 35.3C145.8 34.2 146.3 32.4 146.3 30L146.2 5.59998ZM170.8 20.5C168.9 20.4 167 21.4 166.1 23.1V42.6H158.7V15.1H165.6L165.8 18.2C167.7 15.8 170.7 14.4 173.7 14.5C176 14.4 178.3 15.2 180 16.8C181.6 18.4 182.4 21.1 182.4 25V42.5H175V25.1C175 23.3 174.6 22.1 173.9 21.5C173.1 20.8 172 20.4 170.8 20.5ZM187.4 7.99998C187.4 6.99998 187.8 5.99998 188.5 5.29998C190.2 3.89998 192.8 3.89998 194.5 5.29998C195.2 5.99998 195.7 6.99998 195.6 7.99998C195.6 8.99998 195.2 9.99998 194.5 10.7C192.8 12.1 190.2 12.1 188.5 10.7C187.8 9.99998 187.4 8.99998 187.4 7.99998ZM195.3 15.1V42.6H187.9V15.1H195.3ZM214.4 42.5C213 43 211.5 43.2 210 43.2C207.9 43.3 205.9 42.6 204.2 41.3C202.8 40.1 202.1 38 202.1 35V20.5H198V15.1H202.1V8.29998H209.5V15.1H214.2V20.5H209.5V34.3C209.4 35.1 209.6 36 210.2 36.6C210.8 37 211.6 37.2 212.3 37.2C212.7 37.2 213.1 37.2 213.5 37.1C213.9 37.1 214.2 37 214.4 37V42.5ZM241 38.2C239.9 39.6 238.6 40.8 237 41.6C234.9 42.7 232.6 43.2 230.3 43.2C226 43.2 222.6 41.9 220.2 39.3C217.8 36.7 216.5 33.4 216.6 29.9V28.9C216.4 25.2 217.7 21.5 220.1 18.7C222.5 16 225.9 14.5 229.5 14.7C233.5 14.7 236.5 15.9 238.5 18.4C240.5 20.9 241.6 24.2 241.6 28.2V31.3H224.1C224.3 32.9 225 34.5 226.2 35.6C227.4 36.7 229.1 37.3 230.8 37.2C233.4 37.3 235.9 36.2 237.4 34.1L241 38.2ZM229.4 20.5C228 20.4 226.7 21 225.8 22.1C224.9 23.3 224.3 24.7 224.1 26.2H234.3V25.6C234.3 24.3 233.9 23 233.1 21.9C232.2 20.9 230.8 20.4 229.4 20.5ZM262.1 42.7L261.7 39.8C260.9 40.8 259.9 41.7 258.7 42.3C257.5 42.9 256.1 43.2 254.7 43.2C251.5 43.3 248.5 41.8 246.8 39.2C244.8 36.2 243.8 32.7 244 29.2V28.7C244 24.5 244.9 21.1 246.8 18.5C248.6 15.9 251.6 14.5 254.8 14.6C257.4 14.5 259.8 15.6 261.4 17.6V3.59998H268.8V42.7H262.1ZM251.3 29.2C251.2 31.1 251.6 33.1 252.5 34.8C253.3 36.3 254.9 37.3 256.6 37.1C258.6 37.2 260.5 36.1 261.4 34.3V23.4C260.6 21.6 258.7 20.4 256.6 20.5C254.9 20.4 253.3 21.3 252.5 22.9C251.6 24.7 251.2 26.7 251.3 28.7V29.2ZM155.9 49.9V87H148.3L133.4 62.5V87H125.7V49.9H133.4L148.3 74.4V49.9H155.9ZM177.4 87C177 86.2 176.8 85.4 176.7 84.5C175.9 85.4 175 86.1 173.9 86.6C172.6 87.2 171.2 87.5 169.7 87.5C167.3 87.6 164.9 86.7 163.1 85.2C161.3 83.7 160.4 81.6 160.4 79.3C160.3 76.7 161.5 74.1 163.6 72.6C165.7 71 168.9 70.2 173.1 70.2H176.4V68.6C176.5 67.5 176.1 66.4 175.4 65.5C174.6 64.7 173.5 64.3 172.3 64.4C169.7 64.4 168.4 65.5 168.4 67.7H161C161 65.3 162.2 63 164.2 61.5C166.7 59.7 169.7 58.8 172.7 58.9C175.5 58.8 178.3 59.6 180.6 61.3C182.7 62.9 183.7 65.3 183.7 68.6V80.2C183.7 81.5 183.8 82.7 184 84C184.2 84.9 184.4 85.7 184.8 86.5V87H177.4ZM171.3 81.9C172.4 81.9 173.5 81.6 174.5 81.1C175.3 80.7 175.9 80 176.4 79.3V74.5H173.4C171.9 74.4 170.3 74.8 169.1 75.7C168.2 76.5 167.7 77.6 167.7 78.7C167.7 79.6 168 80.4 168.6 81C169.4 81.6 170.4 81.9 171.3 81.9ZM202.6 86.8C201.9 87 201.3 87.2 200.6 87.3C199.8 87.4 199 87.5 198.2 87.5C196.1 87.6 194.1 86.9 192.4 85.6C191 84.4 190.3 82.3 190.3 79.3V64.8H186.2V59.4H190.3V52.6H197.7V59.4H202.4V64.8H197.7V78.6C197.6 79.4 197.8 80.3 198.4 80.9C199 81.3 199.8 81.5 200.5 81.5C200.9 81.5 201.3 81.5 201.7 81.4C202.1 81.4 202.4 81.3 202.6 81.3V86.8ZM205.7 52.3C205.7 51.3 206.1 50.3 206.8 49.6C208.5 48.2 211.1 48.2 212.8 49.6C214.3 51.1 214.3 53.5 212.8 55.1C211.1 56.5 208.5 56.5 206.8 55.1C206 54.3 205.6 53.3 205.7 52.3ZM213.5 59.4V87H206.1V59.4H213.5ZM217.7 73.5V73C217.6 69.4 218.8 65.8 221.1 63C223.4 60.3 226.6 59 230.7 59C234.9 59 238.1 60.3 240.4 63C242.7 65.8 243.9 69.4 243.8 73V73.5C243.9 77.1 242.7 80.7 240.4 83.5C238.1 86.2 234.9 87.5 230.8 87.5C226.6 87.5 223.4 86.2 221.1 83.5C218.8 80.7 217.6 77.1 217.7 73.5ZM225.1 72.9V73.4C225 75.4 225.5 77.4 226.4 79.1C228 81.5 231.3 82.2 233.7 80.6C234.3 80.2 234.8 79.7 235.2 79.1C236.1 77.3 236.5 75.4 236.5 73.4V72.9C236.6 70.9 236.1 69 235.2 67.2C234.3 65.6 232.6 64.6 230.8 64.8C229 64.7 227.3 65.6 226.4 67.2C225.5 69 225 71 225.1 72.9ZM259.6 64.9C257.7 64.8 255.8 65.8 254.9 67.6V87H247.5V59.4H254.4L254.7 62.6C256.6 60.2 259.5 58.8 262.6 58.9C265 58.8 267.3 59.6 269 61.2C270.6 62.8 271.4 65.5 271.4 69.4V87H264V69.4C264 67.6 263.6 66.4 262.9 65.8C261.9 65.1 260.7 64.8 259.6 64.9ZM291.2 79.3C291.2 78.5 290.8 77.7 290.1 77.3C288.7 76.5 287.1 76 285.6 75.8C283.1 75.3 280.7 74.4 278.6 73C276.8 71.8 275.7 69.7 275.8 67.5C275.8 65.2 276.9 63 278.7 61.5C280.7 59.8 283.3 58.9 286.8 58.9C290.3 58.9 293.2 59.7 295.3 61.4C297.3 62.9 298.4 65.3 298.4 67.8H291C291 66.8 290.7 65.9 290 65.2C289.1 64.5 288 64.1 286.8 64.2C285.8 64.1 284.8 64.4 283.9 65C283.3 65.5 282.9 66.3 282.9 67.1C282.9 67.9 283.3 68.7 284 69.1C285.2 69.8 286.6 70.2 288 70.4C290.6 70.9 293.1 71.8 295.4 73.1C297.4 74.3 298.4 76.3 298.4 79C298.4 81.4 297.2 83.6 295.3 85C293.2 86.6 290.4 87.4 286.8 87.4C283 87.4 280 86.4 278 84.4C276.1 82.8 275 80.5 274.9 78.1H281.9C281.9 79.3 282.5 80.5 283.5 81.2C284.5 81.8 285.7 82.2 287 82.1C289.7 82.3 291.2 81.3 291.2 79.3Z" fill="white"/>
<path d="M86.4016 83.1001C83.5016 84.5001 80.3016 84.9001 77.1016 84.2001C74.9016 83.7001 72.9016 83.0001 70.9016 82.1001L66.5016 80.3001C62.7016 79.1001 58.6016 79.0001 54.7016 80.0001H54.3016C50.4016 78.9001 46.3016 79.0001 42.5016 80.3001C41.0016 80.8001 39.6016 81.5001 38.1016 82.1001C36.1016 83.0001 34.0016 83.8001 31.9016 84.3001C28.8016 85.0001 25.5016 84.6001 22.6016 83.2001L22.2016 83.0001C22.1016 83.0001 22.1016 83.0001 22.1016 83.1001C24.0016 85.1001 26.5016 86.5001 29.1016 87.2001C30.9016 87.7001 32.8016 87.8001 34.6016 87.6001C37.4016 87.2001 40.1016 86.2001 42.4016 84.6001L46.6016 81.8001C48.2016 80.8001 50.1016 80.4001 51.9016 80.8001C52.9016 80.9001 52.1016 81.4001 52.0016 81.5001C49.5016 82.7001 47.1016 84.2001 44.9016 85.9001C43.4016 87.0001 40.7016 89.6001 40.7016 89.6001L42.7016 91.3001L44.9016 88.9001C47.6016 86.1001 50.7016 83.7001 54.1016 81.8001C54.4016 81.6001 54.7016 81.6001 55.0016 81.8001C58.4016 83.7001 61.5016 86.1001 64.2016 88.9001L66.4016 91.3001L68.4016 89.6001L64.2016 85.9001C62.0016 84.2001 59.6016 82.7001 57.1016 81.5001C56.9016 81.4001 56.2016 80.9001 57.2016 80.8001C59.0016 80.4001 60.9016 80.8001 62.5016 81.8001L66.7016 84.6001C69.0016 86.2001 71.7016 87.2001 74.5016 87.6001C76.3016 87.8001 78.2016 87.7001 80.0016 87.2001C82.6016 86.4001 85.1016 85.0001 87.0016 83.1001C87.0016 83.1001 86.9016 83.0001 86.8016 83.0001L86.4016 83.1001ZM96.2016 74.4001C94.9016 75.4001 93.5016 76.1001 92.0016 76.6001C89.9016 77.2001 87.6016 77.6001 85.4016 77.6001C82.5016 77.7001 79.7016 77.9001 76.8016 78.3001C76.6016 78.3001 76.5016 78.3001 76.6016 78.2001C79.1016 77.2001 81.1016 75.2001 82.2016 72.8001L85.0016 67.1001C85.0016 67.0001 85.0016 67.0001 85.0016 66.9001C84.8016 67.0001 82.0016 69.4001 80.7016 70.6001L76.0016 75.2001C73.9016 77.0001 71.4016 78.3001 68.7016 79.0001H68.6016L68.5016 79.1001L73.9016 80.4001C76.2016 81.1001 78.6016 81.5001 81.0016 81.7001C87.1016 82.3001 93.0016 79.5001 96.4016 74.5001C96.4016 74.4001 96.3016 74.4001 96.2016 74.4001ZM105.002 61.0001C103.602 62.7001 101.902 64.2001 100.002 65.4001C98.4016 66.5001 96.7016 67.4001 94.9016 68.2001C92.6016 69.1001 90.5016 70.4001 88.6016 71.9001L88.2016 72.2001C88.1016 72.2001 88.1016 72.2001 88.1016 72.1001C88.1016 72.0001 91.1016 69.0001 92.0016 62.7001C92.1016 60.4001 92.5016 58.2001 93.0016 56.0001C93.0016 55.9001 93.0016 55.9001 93.0016 55.8001C90.9016 58.4001 89.3016 61.3001 88.2016 64.4001L86.4016 69.5001C85.7016 71.8001 84.4016 73.9001 82.7016 75.6001L82.5016 75.8001V75.9001C82.7016 75.9001 82.9016 75.8001 83.1016 75.8001L88.9016 74.6001C92.1016 74.1001 95.1016 72.8001 97.7016 70.9001C100.402 69.0001 102.502 66.4001 104.002 63.5001C104.402 62.7001 104.702 61.9001 105.002 61.1001C105.202 60.9001 105.102 60.9001 105.002 61.0001ZM108.802 46.0001C107.902 48.7001 106.302 51.2001 104.202 53.2001C101.802 55.5001 99.6016 58.1001 97.6016 60.7001C97.6016 60.8001 97.4016 60.7001 97.5016 60.6001C98.3016 57.9001 98.5016 55.0001 98.1016 52.1001C97.7016 49.7001 96.7016 47.1001 96.4016 44.2001L96.3016 44.1001C96.3016 44.2001 96.2016 44.3001 96.2016 44.4001C95.6016 46.3001 95.2016 48.2001 95.0016 50.2001C94.9016 52.6001 95.3016 55.7001 95.1016 58.1001C94.9016 60.9001 94.7016 63.8001 93.4016 66.3001C93.4016 66.4001 93.4016 66.4001 93.4016 66.5001L99.4016 62.8001C101.902 61.2001 104.002 59.2001 105.702 56.8001C107.902 53.7001 109.002 50.1001 109.002 46.3001C109.002 46.2001 109.002 46.0001 109.002 45.9001C108.902 45.9001 108.802 46.0001 108.802 46.0001Z" fill="#009EDB"/>
<path d="M102.401 47.6001C102.501 47.6001 102.501 47.6001 102.401 47.6001C102.401 46.8001 102.401 46.0001 102.301 45.2001C102.101 42.4001 100.401 40.1001 98.9006 37.7001C97.9006 36.2001 97.0006 34.6001 96.2006 32.9001C96.2006 32.9001 96.1006 32.8001 96.0006 32.8001C96.0006 33.0001 96.0006 33.9001 96.1006 34.4001C96.6006 38.4001 97.6006 42.4001 99.1006 46.2001C100.001 48.6001 100.301 51.1001 100.101 53.6001C100.101 53.8001 100.101 53.8001 100.201 53.9001C101.101 52.6001 102.901 50.8001 104.001 49.4001C105.101 48.0001 111.101 41.2001 108.201 31.8001C108.101 31.4001 107.901 31.0001 107.701 30.6001L107.601 30.7001C107.601 37.5001 104.301 40.4001 103.001 45.0001C102.701 46.1001 102.501 46.9001 102.401 47.6001ZM102.501 33.6001L101.901 32.0001L101.501 31.1001C100.501 29.3001 99.1006 27.7001 97.4006 26.5001C96.0006 25.3001 94.8006 24.0001 93.8006 22.5001C93.8006 22.5001 93.7006 22.5001 93.6006 22.5001H93.5006C93.6006 22.8001 94.5006 25.8001 95.1006 27.2001C96.1006 29.1001 97.3006 31.0001 98.7006 32.6001L99.0006 33.0001C100.701 35.3001 102.001 37.8001 102.901 40.5001C102.901 40.6001 103.001 40.6001 103.001 40.6001L104.701 35.4001C105.301 33.6001 105.801 31.7001 106.201 29.8001C106.801 25.3001 105.401 19.6001 102.801 16.4001C102.801 16.4001 102.701 16.5001 102.701 16.6001L102.801 17.0001L103.001 17.6001C103.501 20.0001 103.601 22.6001 103.101 25.0001C102.701 26.9001 102.601 28.9001 102.601 30.9001C102.601 31.2001 102.801 33.7001 102.801 33.8001C102.801 33.9001 102.701 33.8001 102.601 33.8001M94.5006 8.50007C95.3006 9.30007 96.0006 10.2001 96.4006 11.3001C97.1006 13.0001 97.3006 15.5001 97.8006 17.4001L98.7006 20.7001C98.7006 20.8001 98.6006 20.9001 98.5006 20.8001C97.0006 19.0001 95.2006 17.5001 93.1006 16.3001C91.7006 15.5001 90.6006 14.4001 89.6006 13.2001L89.1006 12.5001C89.1006 12.5001 89.0006 12.4001 88.9006 12.5001C88.9006 12.6001 88.9006 12.7001 88.9006 12.8001C89.4006 15.0001 90.4006 17.1001 92.0006 18.8001C93.3006 20.0001 94.7006 21.1001 96.0006 22.2001C97.7006 23.6001 99.3006 25.3001 100.801 27.0001C100.801 27.0001 100.901 27.1001 100.901 27.0001V25.4001L101.001 20.6001V19.0001C101.001 17.4001 100.701 15.7001 100.101 14.2001C99.1006 11.7001 97.2006 9.70007 94.9006 8.50007C94.8006 8.40007 94.6006 8.40007 94.4006 8.30007C94.4006 8.30007 94.4006 8.40007 94.5006 8.50007ZM84.2006 3.80007C85.6006 5.10007 86.8006 6.60007 87.9006 8.20007C88.9006 9.80007 90.0006 11.2001 91.4006 12.5001C92.3006 13.4001 95.0006 15.5001 95.7006 16.1001C95.6006 15.3001 94.3006 9.60007 90.8006 6.80007C88.8006 5.20007 86.4006 4.00007 83.9006 3.40007C83.9006 3.50007 83.9006 3.50007 83.9006 3.60007L84.2006 3.80007ZM28.2006 81.7001C30.5006 81.5001 32.9006 81.1001 35.1006 80.4001L40.5006 79.1001H40.6006C40.6006 79.1001 40.6006 79.0001 40.5006 79.0001H40.4006C37.7006 78.3001 35.2006 77.0001 33.0006 75.2001L28.3006 70.7001L24.0006 67.0001V67.2001C24.4006 67.8001 25.9006 71.1001 26.8006 72.9001C27.9006 75.4001 29.9006 77.3001 32.4006 78.3001C32.5006 78.4001 32.4006 78.4001 32.2006 78.4001C29.4006 78.0001 26.5006 77.8001 23.6006 77.7001C21.4006 77.7001 19.1006 77.3001 17.0006 76.7001C15.5006 76.2001 14.1006 75.5001 12.8006 74.5001C12.7006 74.5001 12.7006 74.5001 12.6006 74.5001C14.6006 77.3001 17.4006 79.5001 20.6006 80.7001C23.1006 81.5001 25.6006 81.8001 28.2006 81.7001ZM25.9006 75.8001C26.1006 75.8001 26.2006 75.9001 26.5006 75.9001V75.8001L26.3006 75.6001C24.6006 73.9001 23.4006 71.8001 22.6006 69.5001L20.8006 64.4001C19.7006 61.3001 18.1006 58.4001 16.0006 55.8001C16.0006 55.9001 16.0006 55.9001 16.0006 56.0001C16.6006 58.2001 16.9006 60.4001 17.1006 62.7001C18.0006 68.9001 21.0006 71.9001 21.0006 72.0001C21.0006 72.1001 21.0006 72.2001 20.9006 72.1001L20.5006 71.8001C18.6006 70.3001 16.5006 69.0001 14.2006 68.1001C12.4006 67.3001 10.7006 66.4001 9.1006 65.3001C7.2006 64.1001 5.5006 62.6001 4.1006 60.9001H4.0006C4.3006 61.7001 4.6006 62.5001 5.0006 63.3001C6.5006 66.2001 8.7006 68.8001 11.4006 70.7001C14.0006 72.7001 17.0006 74.0001 20.2006 74.4001C22.1006 74.9001 24.0006 75.4001 25.9006 75.8001ZM9.8006 62.8001L15.8006 66.5001C15.8006 66.5001 15.9006 66.4001 15.9006 66.3001C14.6006 63.7001 14.4006 60.9001 14.2006 58.1001C14.0006 55.6001 14.4006 52.6001 14.3006 50.2001C14.1006 48.2001 13.7006 46.2001 13.1006 44.3001C13.1006 44.2001 13.0006 44.1001 13.0006 44.0001L12.9006 44.1001C12.7006 47.0001 11.6006 49.6001 11.2006 52.0001C10.8006 54.8001 11.0006 57.7001 11.8006 60.5001C11.9006 60.6001 11.7006 60.7001 11.7006 60.6001C9.7006 57.9001 7.5006 55.4001 5.1006 53.1001C3.0006 51.1001 1.4006 48.7001 0.500596 46.0001C0.500596 46.0001 0.400596 45.9001 0.300596 45.9001C0.200596 45.9001 0.300596 46.1001 0.300596 46.3001C0.300596 50.0001 1.4006 53.7001 3.6006 56.8001C5.2006 59.1001 7.3006 61.2001 9.8006 62.8001ZM8.7006 54.0001C8.8006 53.9001 8.8006 53.9001 8.8006 53.7001C8.6006 51.2001 8.9006 48.6001 9.9006 46.3001C11.3006 42.5001 12.3006 38.6001 12.9006 34.5001C12.9006 34.0001 13.0006 33.1001 13.0006 32.9001C12.9006 32.9001 12.9006 32.9001 12.9006 33.0001C12.1006 34.7001 11.2006 36.3001 10.2006 37.8001C8.6006 40.0001 7.0006 42.4001 6.8006 45.2001C6.7006 46.0001 6.7006 46.8001 6.8006 47.6001C6.8006 47.6001 6.8006 47.7001 6.7006 47.7001C6.7006 47.7001 6.7006 47.7001 6.7006 47.6001L6.0006 45.2001C4.6006 40.6001 1.4006 37.7001 1.4006 30.9001L1.3006 30.8001C1.1006 31.2001 1.0006 31.6001 0.800596 32.0001C-2.0994 41.4001 3.8006 48.2001 5.0006 49.6001C6.2006 51.0001 7.8006 52.7001 8.7006 54.0001ZM4.5006 35.3001L6.2006 40.5001C6.2006 40.5001 6.3006 40.5001 6.3006 40.4001C7.2006 37.7001 8.6006 35.2001 10.2006 32.9001L10.5006 32.5001C11.9006 30.8001 13.1006 29.0001 14.1006 27.1001C14.7006 25.7001 15.6006 22.7001 15.7006 22.4001H15.6006C15.5006 22.4001 15.5006 22.4001 15.4006 22.4001C14.4006 23.9001 13.2006 25.2001 11.8006 26.4001C10.1006 27.6001 8.6006 29.2001 7.6006 31.1001C7.5006 31.4001 7.3006 31.7001 7.2006 32.0001L6.6006 33.7001C6.6006 33.7001 6.5006 33.9001 6.5006 33.7001C6.5006 33.5001 6.7006 31.2001 6.7006 30.8001C6.7006 28.8001 6.5006 26.8001 6.1006 24.9001C5.6006 22.4001 5.7006 19.9001 6.2006 17.5001C6.2006 17.3001 6.3006 17.1001 6.4006 16.9001C6.4006 16.8001 6.5006 16.6001 6.5006 16.5001C6.5006 16.4001 6.5006 16.4001 6.4006 16.3001C3.8006 19.5001 2.3006 25.3001 2.9006 29.7001C3.4006 31.6001 3.9006 33.5001 4.5006 35.3001ZM8.1006 20.7001L8.2006 25.5001V27.0001H8.3006C9.7006 25.2001 11.3006 23.6001 13.0006 22.1001L17.0006 18.7001C18.6006 17.0001 19.6006 14.9001 20.1006 12.7001C20.1006 12.6001 20.1006 12.5001 20.1006 12.4001H20.0006L19.5006 13.1001C18.6006 14.3001 17.4006 15.4001 16.1006 16.2001C13.7006 17.7001 12.1006 18.8001 10.7006 20.7001C10.6006 20.8001 10.5006 20.8001 10.6006 20.6001L11.5006 17.3001C12.0006 15.4001 12.2006 12.9001 12.9006 11.2001C13.3006 10.2001 14.0006 9.20007 14.8006 8.40007C14.8006 8.30007 14.8006 8.30007 14.8006 8.20007C14.6006 8.20007 14.5006 8.30007 14.3006 8.40007C11.8006 9.70007 10.0006 11.8001 9.0006 14.2001C8.4006 15.7001 8.0006 17.3001 8.1006 19.0001V20.7001ZM13.4006 16.0001L17.8006 12.4001C19.1006 11.1001 20.3006 9.70007 21.3006 8.10007C22.3006 6.50007 23.6006 5.00007 25.0006 3.70007L25.3006 3.40007C25.3006 3.30007 25.3006 3.30007 25.3006 3.20007C22.8006 3.80007 20.4006 4.90007 18.4006 6.60007C14.7006 9.50007 13.5006 15.2001 13.4006 16.0001ZM53.6006 47.0001C53.9006 46.6001 53.2006 46.3001 53.0006 47.0001C52.8006 47.7001 53.3006 47.5001 53.6006 47.0001ZM61.2006 29.4001C60.9006 29.3001 59.8006 30.6001 60.0006 30.8001C60.5006 30.5001 60.9006 30.0001 61.2006 29.4001ZM61.4006 29.2001C61.6006 29.3001 62.3006 28.9001 62.2006 28.8001C62.1006 28.7001 61.2006 28.3001 61.2006 28.5001C61.2006 28.9001 61.3006 29.1001 61.4006 29.2001ZM74.9006 41.6001C75.3006 41.5001 75.2006 40.9001 74.9006 40.9001C74.6006 40.9001 74.2006 41.4001 74.3006 41.4001C74.4006 41.4001 74.7006 41.7001 74.9006 41.6001ZM70.0006 28.3001C69.7006 28.3001 69.6006 28.6001 69.9006 28.8001C70.2006 28.9001 70.4006 28.8001 70.6006 28.7001C70.8006 28.6001 71.0006 28.4001 71.0006 28.1001C71.0006 27.8001 70.6006 27.4001 70.8006 27.2001C71.0006 27.0001 71.3006 27.3001 71.5006 27.2001C71.7006 27.1001 71.8006 26.9001 71.8006 26.7001C71.8006 26.5001 71.7006 25.9001 71.3006 25.9001C70.9006 25.9001 70.5006 26.7001 70.5006 26.7001C70.4006 26.9001 70.4006 27.2001 70.5006 27.4001C70.6006 27.8001 70.5006 28.3001 70.0006 28.3001Z" fill="#009EDB"/>
<path d="M76.6025 28.4C76.6025 28.6 77.1025 29.9 77.2025 30.2C77.3025 30.5 77.4025 31.6 77.6025 31.5C77.8025 31.4 77.8025 30.8 77.7025 30.5C77.6025 29.8 77.4025 29 77.2025 28.4C77.1025 28 76.4025 26.5 76.2025 26.6C76.0025 26.7 76.5025 27.6 76.6025 28C76.7025 28.4 76.5025 28.2 76.6025 28.4ZM73.1025 11.4C73.4025 11.5 73.4025 10.9 72.9025 10.5C72.4025 10.1 71.6025 10.3 71.8025 10.5C72.2025 10.8 72.6025 11.2 73.1025 11.4ZM58.1025 7.09999C57.4025 6.69999 58.0025 6.09999 57.5025 5.69999C56.9025 5.49999 56.3025 5.59999 55.9025 5.99999C55.4025 6.59999 56.5025 6.39999 56.8025 6.59999C57.1025 6.79999 58.1025 7.49999 58.2025 7.39999C58.3025 7.29999 58.2025 7.09999 58.1025 7.09999ZM62.1025 5.09999C61.2025 4.69999 57.9025 4.69999 58.0025 5.59999C58.1025 6.49999 59.9025 5.59999 60.4025 5.59999C60.9025 5.59999 62.9025 5.49999 62.1025 5.09999ZM53.0025 43.7C52.8025 43.6 52.5025 43.8 52.4025 43.6C52.3025 43.4 52.1025 43.5 52.1025 43.6C52.1025 43.7 52.0025 43.9 52.2025 44.1C52.4025 44.3 52.8025 44.3 53.0025 44.1C53.1025 44 53.1025 43.8 53.0025 43.7ZM51.1025 37C51.4025 37 51.4025 36.8 51.5025 36.8C51.6025 36.8 51.5025 37 51.8025 37C52.1025 37 52.4025 36.3 51.5025 36.3C50.8025 36.3 50.9025 37 51.1025 37ZM52.3025 37.8C51.8025 37.7 51.9025 38 51.5025 38C50.9025 38.1 51.4025 37.6 51.2025 37.4C51.1025 37.3 50.8025 37.8 50.7025 38.1C50.7025 38.3 50.7025 38.7 50.9025 38.8L52.8025 39C53.2025 39 52.8025 37.9 52.3025 37.8ZM46.1025 44.3C46.3025 44.3 46.4025 43.7 46.3025 43.4C46.2025 43.1 45.6025 43.3 45.6025 43.5C45.6025 43.7 46.0025 44.3 46.1025 44.3ZM38.1025 44.3C38.1025 44.1 38.1025 43.3 37.9025 43.1C37.7025 42.9 37.7025 43.2 37.6025 43.2C37.5025 43.2 37.5025 42.8 37.4025 42.8C37.3025 42.8 37.4025 43.4 37.6025 43.8C37.8025 44.2 38.1025 44.8 38.1025 44.3ZM37.9025 42.5C38.1025 41.9 38.2025 41.3 38.2025 40.7C38.2025 40.2 37.9025 39.8 37.8025 39.8C37.7025 39.8 37.8025 40.1 37.9025 40.6C37.9025 41.1 37.7025 41.6 37.6025 42.1C37.6025 42.2 37.8025 42.7 37.9025 42.5Z" fill="#009EDB"/>
<path d="M27.7023 64.9C42.6023 79.8 66.6023 79.8 81.5023 64.9C96.4023 50 96.4023 26 81.5023 11.1C66.6023 -3.79995 42.6023 -3.79995 27.7023 11.1C12.8023 26 12.8023 50.1 27.7023 64.9ZM18.2023 38.8H24.0023C24.1023 41.8 24.6023 44.7 25.5023 47.5C25.2023 47.4 24.9023 47.3 24.6023 47.1C24.2023 46.9 23.9023 47.2001 23.8023 47.2001C23.4023 47.2001 22.9023 46.9001 22.9023 47.2001C22.9023 47.5001 23.3023 47.3 23.3023 47.5C23.3023 47.7 22.3023 47.7 22.2023 47.3C22.1023 46.9 21.9023 46.5 21.8023 47C21.7023 47.5 21.3023 47.4 21.1023 47.5C21.0023 47.6 20.9023 47.8 20.9023 48C20.9023 48.2 20.4023 48.1001 20.4023 48.4001C20.4023 48.7001 20.7023 48.8 20.8023 49.1C20.9023 49.4 21.2023 49.6001 21.0023 49.7001C20.8023 49.8001 20.9023 49.6001 20.7023 49.7001C20.5023 49.8001 21.6023 52.8001 21.8023 52.7001C22.0023 52.6001 21.5023 51.7 21.5023 51.3C21.5023 50.9 21.6023 50.8 21.9023 50.6C22.2023 50.4 23.0023 51.8 23.3023 51.6C23.6023 51.4 23.2023 51.2 23.5023 51.1C23.8023 51 24.7023 52.4 25.0023 52C25.2023 51.7 25.4023 52.2 25.4023 52.3C25.7023 52.8 26.2023 52.8001 26.5023 53.4001C26.8023 54.0001 27.5023 55.1 28.0023 55.1C28.5023 55.1 28.2023 54.6 28.4023 54.6C28.6023 54.6 28.8023 55.3001 29.1023 55.7001C29.3023 56.0001 29.6023 56.2 30.0023 56.3C30.7023 57.2 31.5023 58.1 32.3023 59L28.2023 63.1C21.9023 56.7 18.3023 48 18.2023 38.8ZM51.3023 30.5L50.9023 30.7C50.3023 31 49.8023 31.3 49.4023 31.7L45.3023 27.6C47.7023 25.5 50.7023 24.2 53.8023 24.1V29.9C53.1023 30 52.4023 30.1 51.7023 30.4C51.9023 30 52.3023 29.6 52.3023 29.6C52.3023 29.6 51.6023 30 51.3023 30.5ZM48.2023 40C48.2023 40.1 48.2023 40.2001 48.2023 40.2001C48.2023 40.0001 48.1023 39.9001 48.0023 39.7001C47.9023 39.6001 47.8023 39.5 47.7023 39.5C47.6023 39.5 47.5023 39.5 47.4023 39.5H47.2023L47.0023 39.6H45.6023C45.4023 39.6 45.3023 39.6 45.3023 39.5C45.2023 39.1 45.8023 39.4001 46.2023 38.2001C46.3023 38.1001 46.3023 37.9 46.4023 37.8L46.5023 37.6L46.6023 37.5L46.7023 37.4001C46.9023 37.2001 47.1023 37.2001 47.3023 37.2001H47.5023L47.7023 37.4001L48.0023 38C48.1023 38.1 48.2023 38.1001 48.2023 38.2001C48.4023 38.3001 48.5023 38.4 48.6023 38.5L48.7023 38.6V38.7001C48.8023 38.8001 48.8023 38.8 48.9023 38.8H49.0023C49.1023 38.8 49.1023 38.8 49.2023 38.8H49.3023C49.5023 38.7 49.5023 38.8 49.6023 38.8V38.9001C49.6023 39.0001 49.6023 39 49.5023 39.1C49.5023 39.2 49.4023 39.2 49.4023 39.3C49.3023 39.4 49.2023 39.5 49.1023 39.5C48.9023 39.5 48.7023 39.4001 48.6023 39.4001C48.5023 39.4001 48.4023 39.4 48.4023 39.5V40M37.4023 49.6C37.1023 49.1 37.0023 48.4 37.0023 47.8C37.0023 47.2 36.8023 46.6 36.5023 46.1C36.4023 45.7 36.3023 45.3001 36.3023 44.9001C36.3023 44.2001 35.7023 44.4001 35.7023 44.2001C35.7023 44.0001 36.2023 44.2 36.2023 44C36.2023 43.8 35.6023 43 35.1023 42.8C34.6023 42.6 34.8023 42.3 34.8023 42C34.8023 41.7 34.8023 41.4001 34.6023 41.2001C34.5023 40.8001 34.6023 40.1 35.1023 40.1C35.3023 40.1 35.6023 40.3 35.9023 40.1C36.2023 39.9 36.0023 39.3 36.0023 38.8H38.8023C38.8023 39.2 38.9023 39.7 38.9023 40.1C38.7023 40.2 38.6023 40.4 38.7023 40.5C38.8023 40.6 38.9023 40.7 39.0023 40.6C39.5023 43.5 40.8023 46.2001 42.8023 48.4001L38.7023 52.5C38.4023 52.2 38.1023 51.8001 37.8023 51.4001C37.8023 51.3001 37.8023 51.2 37.8023 51.1C37.8023 50.4 37.3023 50.0001 37.1023 49.4001M33.5023 42.6C33.2023 41.4 33.1023 40.1 33.0023 38.8H35.4023C35.2023 39.1 34.7023 39.4001 34.6023 39.7001C34.5023 40.0001 33.9023 41.0001 34.3023 41.4001C35.2023 42.4001 34.1023 42.8 33.5023 42.6ZM34.0023 57.4001L33.5023 57.9001C33.3023 57.7001 33.0023 57.4001 32.8023 57.2001C33.2023 57.0001 33.6023 57.1001 34.0023 57.4001ZM40.2023 31.7C40.1023 31.7 40.1023 31.8 40.0023 31.8C39.7023 32.1 38.9023 32 39.0023 32.3C39.1023 32.6 41.2023 31.6 41.2023 31.8C41.2023 32 40.3023 32.3 39.7023 32.6C39.1023 32.9 38.9023 33.4001 37.9023 33.4001C37.4023 33.4001 37.2023 33.8 37.0023 34.1C36.7023 34.5 36.5023 34.9 36.3023 35.3C36.3023 35.9 36.2023 36.5 35.9023 37.1H33.0023C33.2023 32 35.2023 27.1 38.7023 23.3L42.8023 27.4C41.8023 28.8 40.9023 30.2 40.2023 31.7ZM44.0023 28.7L47.6023 32.3C47.5023 32.3 47.4023 32.3 47.2023 32.3C46.8023 32.3 46.8023 32 46.5023 32C45.9023 32.1 45.8023 32.3001 45.7023 32.2001C45.3023 31.8001 44.8023 31.5 44.2023 31.2C43.5023 31 42.8023 31 42.2023 31.3C42.1023 31.3 42.1023 31.4 42.0023 31.4C42.7023 30.5 43.4023 29.6 44.0023 28.7ZM39.0023 36C39.0023 36.4 38.9023 36.8001 38.9023 37.2001H36.8023C36.7023 36.9001 36.8023 36.6 37.0023 36.3C37.2023 35.9 37.7023 35.7 38.2023 35.8C38.4023 35.8 38.7023 35.9 39.0023 36ZM40.8023 40.7001L41.0023 41C41.2023 41.2 41.4023 41.4 41.6023 41.3C41.8023 41.2 42.3023 41.3 42.4023 41.3C42.7023 41.4 42.9023 41.6 43.1023 41.8C43.3023 42.1 43.7023 41.9 44.0023 42.1C44.3023 42.3 44.6023 42.5001 44.2023 42.7001C43.8023 42.9001 44.6023 43.3 44.7023 43.3C44.8023 43.3 44.9023 43.1 44.9023 42.8C44.9023 42.7 45.1023 42.3001 45.4023 42.4001C45.7023 42.5001 46.6023 43.6001 46.9023 43.2001C47.2023 42.8001 47.0023 42.3 47.1023 42.1C47.1023 42 47.2023 41.9001 47.3023 41.9001C47.6023 42.4001 47.8023 42.8001 48.2023 43.2001L44.1023 47.3C42.4023 45.5 41.2023 43.2001 40.8023 40.7001ZM44.0023 26.4L40.0023 22.3C43.8023 18.8 48.7023 16.8 53.8023 16.6V22.4C50.2023 22.5 46.8023 23.9 44.0023 26.4ZM38.8023 21.1L34.7023 17C39.9023 12.1 46.7023 9.30005 53.8023 9.10005V14.9C48.2023 15.1 42.8023 17.3 38.8023 21.1ZM37.6023 22.2C33.8023 26.3 31.6023 31.6001 31.4023 37.2001H25.6023C25.8023 30.1001 28.6023 23.3 33.5023 18.1L37.6023 22.2ZM31.4023 38.8C31.4023 39.9 31.5023 40.9 31.7023 42C31.6023 42 31.6023 41.7 31.3023 41.8C31.0023 41.9 29.9023 43.8 29.4023 44.6C29.0023 45.3 29.6023 46.8 29.0023 47.3C28.4023 47.5 27.8023 47.6 27.2023 47.6H27.1023C26.1023 44.8 25.6023 41.9 25.5023 39L31.4023 38.8ZM53.7023 74.4C44.6023 74.2 35.9023 70.6 29.4023 64.3L33.5023 60.2001C39.0023 65.4001 46.2023 68.4 53.7023 68.6V74.4ZM53.7023 67C46.6023 66.8 39.8023 64 34.6023 59.1L35.3023 58.4001C35.4023 58.5001 35.6023 58.6001 35.8023 58.7001C36.2023 58.9001 36.7023 59.0001 37.2023 58.9001C37.6023 58.8001 38.4023 58.1 38.9023 58.1C39.4023 58.1 40.2023 58.3 40.7023 58C41.2023 57.7 40.4023 56.7001 40.1023 56.2001C40.0023 56.1001 40.0023 56.0001 39.9023 55.9001C43.8023 59.2001 48.8023 61.1001 53.9023 61.2001L53.7023 67ZM53.7023 59.5C48.6023 59.3 43.7023 57.3 39.9023 53.8L44.0023 49.7001C45.9023 51.4001 48.2023 52.7 50.8023 53.3C49.9023 53.7 49.5023 54.3 49.6023 54.8C49.7023 55.3 49.0023 55.6001 49.0023 56.2001C49.0023 56.8001 49.8023 57.2 49.9023 57.8C50.0023 58.1 50.7023 58.6 51.3023 59C52.1023 59.2 52.9023 59.3001 53.6023 59.2001L53.7023 59.5ZM53.5023 51.5C53.2023 51.3 53.0023 51.7001 52.6023 51.9001C49.8023 51.5001 47.3023 50.3 45.2023 48.5L49.3023 44.4001C50.6023 45.4001 52.1023 46.1001 53.7023 46.2001C53.7023 46.4001 53.9023 46.6 53.9023 47C53.9023 47.4 53.6023 47.6 53.7023 47.8C53.8023 48 54.7023 47.8 54.8023 47.5C54.9023 47.2 54.5023 47.0001 54.4023 46.7001C54.3023 46.5001 54.3023 46.4001 54.2023 46.2001H54.5023C54.8023 46.2001 55.1023 46.2 55.4023 46.1C55.5023 46.1 55.6023 46.0001 55.6023 45.9001C55.6023 45.8001 55.7023 45.7 55.7023 45.6C55.7023 45.5 55.8023 45.5001 55.8023 45.4001L55.9023 45.5C56.0023 45.7 56.2023 46.3001 56.4023 46.2001C56.6023 46.1001 56.7023 45.2 56.6023 45C56.4023 44.7 56.4023 44.4 56.6023 44.1C56.6023 44 56.7023 43.4 56.9023 43.5C57.1023 43.6 56.9023 44.1 56.9023 44.3C56.9023 44.6 57.1023 45 57.4023 44.8C57.6023 44.7 57.8023 44.4 58.0023 44.5C58.2023 44.6 57.5023 44.8 57.4023 45C57.3023 45.2 57.7023 45.3001 57.6023 45.4001C57.5023 45.5001 57.4023 45.4 57.3023 45.5C57.2023 45.6 57.5023 46.2 57.3023 46.3C57.1023 46.4 56.4023 46.6001 56.2023 46.7001C56.0023 46.8001 55.8023 46.6 55.9023 46.5C56.0023 46.4 55.9023 46 55.7023 46C55.5023 46 55.5023 46.1 55.5023 46.3C55.5023 46.5 55.7023 46.8001 55.7023 46.9001C55.7023 47.0001 55.4023 47.1001 55.2023 47.2001C55.0023 47.5001 54.7023 47.8 54.4023 48C54.1023 48.2 53.5023 48.2001 53.5023 48.4001C53.5023 48.6001 53.8023 48.6001 53.9023 48.7001C54.1023 49.0001 54.2023 49.4 53.8023 49.6C53.4023 49.8 52.9023 49.3001 52.7023 49.4001C52.5023 49.5001 52.4023 50 52.3023 50.6C52.2023 51.2 53.4023 51.4 54.0023 51.1C54.4023 50.9 54.3023 50.3 54.7023 50.1C55.1023 49.9 55.0023 49.5 55.4023 49.6C55.8023 49.7 55.7023 49.3 56.1023 49.3C56.5023 49.3 56.5023 49.6001 57.0023 49.7001C57.8023 49.9001 57.8023 50.5001 57.9023 50.2001C58.0023 49.9001 58.1023 49.7 57.5023 49.5C56.9023 49.3 56.6023 48.6 57.1023 48.8C57.7023 49.1 58.2023 49.1001 58.3023 49.4001C58.4023 49.7001 59.0023 49.6001 59.1023 49.9001C59.2023 50.4001 59.6023 49.9 59.3023 49.6C59.0023 49.3 59.1023 49.2 59.3023 49C59.5023 48.8 59.6023 49.1001 59.9023 48.7001C60.2023 48.3001 59.8023 48.4001 59.7023 48.2001C59.6023 48.0001 59.7023 46.9 60.1023 47.1C60.5023 47.3 60.9023 47.0001 60.7023 46.9001C60.5023 46.8001 60.8023 46.2001 60.9023 46.2001C61.0023 46.2001 60.9023 46.6001 61.0023 46.7001C61.1023 46.8001 62.1023 46.4001 62.2023 46.9001C62.3023 47.4001 61.5023 47.7001 61.3023 47.7001C60.9023 47.7001 60.6023 48.1 60.3023 48.5C60.0023 48.9 59.7023 49.0001 59.9023 49.4001C60.1023 49.8001 60.5023 49.7 60.9023 49.5C61.3023 49.3 61.6023 49.0001 61.8023 48.9001C62.2023 48.7001 62.5023 49.9 62.3023 50.1C62.1023 50.3 61.7023 50.4 61.5023 50.6C60.9023 50.9 60.3023 51.2001 59.6023 51.2001C59.2023 51.3001 59.2023 51.4 59.1023 51.8C59.0023 52.2 57.2023 51.9001 56.8023 51.9001C56.4023 51.9001 57.1023 51 56.5023 51.1C55.9023 51.2 55.3023 51.3001 54.7023 51.4001C54.6023 51.4001 54.0023 51.9 53.5023 51.5ZM58.8023 60.8C59.3023 61 59.8023 61.4 60.1023 61.8C60.4023 62.3 60.5023 62.5 60.3023 63C59.8023 63.9 60.0023 64.5 61.0023 64.8C61.6023 65 61.8023 65.6 62.2023 66C60.0023 66.6 57.7023 66.9 55.4023 67V61.2001C56.5023 61.1001 57.7023 61 58.8023 60.8ZM55.4023 59.6V58.9001C56.7023 58.7001 56.4023 59.5001 57.3023 59.2001C57.6023 59.1001 57.9023 59.2001 58.1023 59.4001C57.2023 59.4001 56.3023 59.5 55.4023 59.6ZM55.4023 74.5V68.6C58.4023 68.5 61.4023 68 64.3023 67C64.4023 67.1 64.5023 67.1 64.6023 67.1C65.0023 67.1 65.4023 66.9 65.7023 66.7C66.7023 66.3 67.6023 65.8 68.4023 65.2C71.0023 63.9 73.5023 62.1 75.6023 60.1L79.7023 64.2C73.2023 70.6 64.5023 74.2 55.4023 74.5ZM71.6023 22.2L73.0023 20.8C73.4023 21.2 73.8023 21.5 74.4023 21.6C74.9023 21.7 75.1023 21.9 75.2023 22.4C75.3023 22.9 75.8023 23.1 76.3023 23.2C76.8023 23.3 77.1023 23.9 77.5023 23.9C77.9023 23.9 79.2023 25.7 79.7023 26.3C80.0023 26.6 80.4023 27.1 80.7023 26.7C81.0023 26.3 81.0023 26.4 81.2023 26.3C82.7023 29.7 83.6023 33.5001 83.7023 37.2001H77.9023C77.9023 35.9001 77.7023 34.6 77.4023 33.3C77.6023 32.9 77.7023 32.5 77.7023 32C77.7023 31.6 77.3023 31.4 77.0023 31.7C76.8023 30.9 76.5023 30.2 76.2023 29.5C76.1023 29.1 76.0023 28.6 75.9023 28.2C75.9023 28.1 75.7023 28 75.5023 27.8C75.3023 27.4 75.2023 27.1 75.0023 26.8C75.3023 26.6 75.4023 26.1 75.0023 26.2C74.4023 26.3 74.8023 25.9 74.6023 25.7C74.4023 25.5 74.4023 25.7 74.3023 25.8C73.5023 24.6 72.7023 23.5 71.7023 22.4C71.7023 22.4 71.7023 22.4 71.7023 22.3C71.5023 22.3 71.5023 22.2 71.6023 22.2ZM75.1023 56.1C74.9023 55.7 74.8023 55.2 74.6023 54.8C74.5023 54.4 73.7023 54.4 73.7023 54.6C73.7023 55 73.7023 55.4 73.6023 55.8V55.9001L71.5023 53.8C75.3023 49.7 77.5023 44.4 77.7023 38.8H83.5023C83.3023 45.9 80.5023 52.7 75.6023 57.8L75.3023 57.5C75.4023 57.1 75.3023 56.6 75.1023 56.1ZM70.3023 60.1C70.6023 59.6 71.2023 58.7001 71.5023 58.2001C71.8023 57.7001 70.7023 57 70.1023 56.8C69.5023 56.6 69.5023 56.3 69.5023 55.8C69.8023 55.6 70.1023 55.3 70.4023 55L74.5023 59.1C73.1023 60.4 71.7023 61.5 70.1023 62.5C70.0023 62.3 70.7023 61.6 70.9023 61.3C71.1023 61 70.1023 60.6 70.3023 60.1ZM72.8023 36.2001C72.3023 35.5001 73.0023 35.4 73.7023 35.1C74.1023 34.9 74.6023 35.2 74.6023 35C74.6023 34.8 74.8023 34.4 75.0023 34.3C75.2023 34.2 75.5023 34 75.6023 33.8C75.6023 34 75.7023 34.2001 75.7023 34.4001C75.5023 34.8001 75.4023 35.1 75.4023 35.5C75.4023 35.8 75.4023 36.2 75.7023 35.5C75.7023 35.4 75.8023 35.4 75.8023 35.3C76.0023 36 76.0023 36.6001 76.0023 37.2001H71.7023C71.7023 37.2001 71.7023 37.2 71.7023 37.1C72.0023 36.6 73.1023 36.7001 72.8023 36.2001ZM73.6023 28C73.6023 28 73.6023 28.1 73.5023 28.1C73.4023 28.2 72.9023 27.4 72.9023 28C72.9023 28.6 73.1023 28.8 73.5023 28.9C73.9023 29 73.7023 29.2 74.0023 29.3C74.1023 29.3 74.3023 29.4 74.4023 29.5C74.9023 30.6 75.2023 31.7001 75.5023 32.9001C75.3023 33.0001 75.2023 33.1001 75.1023 33.2001C74.9023 33.4001 75.0023 33.8 74.8023 34.1C74.5023 34.6 74.4023 34.9001 73.6023 34.7001C73.1023 34.5001 73.5023 33.9001 73.6023 33.4001C73.7023 32.9001 73.9023 33.0001 73.9023 32.7001C73.9023 32.4001 72.9023 31.3 72.4023 31.7C71.9023 32.1 72.0023 32.5001 71.6023 32.9001C71.4023 33.1001 71.2023 33.1001 70.9023 32.9001C70.6023 32.7001 70.5023 32.5 70.6023 32.3C70.7023 32.1 69.9023 31.2 69.6023 30.8C69.2023 30.3 68.6023 30 68.0023 30C67.5023 29.1 66.8023 28.2 66.1023 27.4L70.2023 23.3C71.6023 24.8 72.7023 26.3 73.6023 28ZM66.7023 30.8L66.5023 31.1C66.4023 31.3 65.9023 30.9 65.8023 31C65.7023 31.1 66.5023 32.1 65.7023 31.8C64.9023 31.5 65.4023 31.5 65.4023 31.2C65.4023 30.9 64.7023 30.7 65.1023 30.5C65.5023 30.3 65.1023 30 65.5023 29.9C65.9023 29.8 65.8023 29.4 65.3023 29.3C64.8023 29.2 64.9023 30.4 64.6023 30.2C64.3023 30.1 64.0023 30.1 63.7023 30.1L65.1023 28.7C65.3023 28.8 65.4023 28.8 65.6023 28.8C65.8023 29.6 66.3023 30.2 66.7023 30.8ZM65.1023 51.1C65.7023 51.2 66.4023 51.3 67.0023 51.5C67.4023 51.7 67.7023 52.1 68.0023 51.6C68.6023 50.7 69.0023 49.7 69.2023 48.6C69.4023 47.1 69.1023 46.6 68.9023 46.6C68.7023 46.6 68.3023 47 67.9023 47C67.7023 47 67.7023 47.4001 67.7023 47.7001C67.7023 48.0001 67.3023 48.3 67.2023 48.1C67.1023 47.9 66.9023 48.0001 67.0023 48.2001C67.1023 48.4001 66.2023 48.3 65.8023 48.1C65.2023 47.8 66.5023 47.8 67.1023 47.3C67.6023 46.9 68.1023 46.4001 68.6023 45.9001C68.9023 45.4001 68.9023 44.8001 69.4023 44.4001C69.9023 44.0001 70.7023 44.1 70.8023 43.5C70.9023 42.9 71.0023 43 71.3023 43.1C71.6023 43.2 74.4023 43 74.4023 42.1C74.4023 41.7 73.8023 41.2 73.2023 41.1C72.8023 41.1 72.7023 40.3001 72.5023 39.9001C72.3023 39.5001 72.1023 39.1001 71.8023 38.7001H76.0023C75.8023 43.8001 73.8023 48.7 70.3023 52.5L70.2023 52.4001V52C70.3023 51.2 69.7023 49.9 69.5023 50.1C69.3023 50.3 69.5023 50.3001 68.9023 51.2001C68.7023 51.5001 68.4023 52 68.0023 52C67.6023 52 67.6023 51.8001 67.0023 51.9001C66.5023 52.0001 65.9023 52.0001 65.4023 51.9001C64.5023 51.6001 63.6023 51.2 62.7023 50.6C62.8023 50.5 63.1023 50.7001 63.1023 50.4001C63.1023 50.1001 64.7023 51 65.1023 51.1ZM80.8023 63.2001L76.7023 59.1C81.9023 53.6 84.9023 46.4001 85.1023 38.9001H91.0023C90.8023 48.0001 87.2023 56.6001 80.8023 63.2001ZM91.0023 37.2001H85.1023C85.0023 32.9001 84.0023 28.7 82.1023 24.8L82.2023 24.7C82.6023 24.3 80.3023 21.3 79.9023 21C79.5023 20.7 79.1023 20.2 78.6023 19.7C77.8023 18.9 77.0023 18 76.4023 17.1L80.7023 12.8C87.2023 19.4 90.8023 28.1 91.0023 37.2001ZM55.4023 1.60005C64.5023 1.80005 73.2023 5.40005 79.8023 11.7L75.8023 15.7C75.6023 15.6 75.4023 15.5 75.5023 15.3C75.7023 15 75.2023 15 75.1023 14.2C74.9023 13.4 74.3023 12.7 73.6023 12.3C73.1023 12 72.8023 11.6 72.3023 11.4C71.8023 11.2 70.8023 10.6 70.3023 10.8C70.0023 10.9 69.6023 11 69.3023 11C65.0023 8.70005 60.3023 7.50005 55.5023 7.40005L55.4023 1.60005ZM55.4023 9.10005C59.7023 9.20005 63.8023 10.3 67.7023 12.2C67.8023 12.8 68.1023 13.5 68.5023 14C68.7023 14.5 69.0023 14.9 69.3023 15.4C69.6023 15.7 69.4023 16.3 69.5023 16.8C69.5023 17 69.7023 17.2 69.8023 17.4C69.8023 17.7 69.8023 17.9 69.8023 18.2C69.8023 18.3 70.2023 18.3 70.5023 18.1C70.8023 17.9 71.0023 17.5 71.4023 17.6C71.8023 17.7 72.3023 18.5 72.6023 19L70.7023 20.9C70.5023 20.5 70.3023 20 70.4023 20C70.5023 20 70.7023 20.1 70.8023 20.1C71.2023 20.1 70.5023 19.8 70.5023 19.7C70.2023 19.4 70.2023 19 69.8023 18.7C69.4023 18.4 68.8023 18.6 68.6023 18.2C68.2023 17.5 67.7023 16.9 67.0023 16.4C66.9023 16.4 67.8023 17.5 67.5023 17.7C67.2023 17.9 66.1023 17 66.0023 17.2C65.9023 17.4 67.2023 17.9 67.6023 18.3C67.8023 18.5 68.2023 19.1 68.6023 19.6C64.8023 16.7 60.2023 15.1 55.4023 14.9V9.10005ZM55.4023 16.5C60.5023 16.7 65.4023 18.7 69.2023 22.2L65.1023 26.3C62.4023 23.9 59.0023 22.5 55.4023 22.3V16.5ZM55.4023 24C58.6023 24.2 61.6023 25.4 63.9023 27.5L63.7023 27.7L63.5023 27.6C63.0023 27.4 62.0023 28.4 62.2023 28.5C62.4023 28.6 62.8023 28.1 63.0023 28.2H63.1023L61.4023 30C60.9023 30.2 60.4023 30.6 60.4023 30.9C60.4023 30.9 60.4023 30.9 60.4023 31L59.8023 31.6L59.5023 31.3C59.0023 30.9 58.5023 30.6 57.9023 30.4C58.2023 30.2 58.3023 29.9 58.4023 29.5C58.4023 28.9 58.2023 29.1 57.9023 29.4C57.6023 29.7 57.3023 29.8 57.1023 30.1C56.6023 29.9 56.0023 29.8 55.5023 29.8V24H55.4023ZM54.7023 31.4C54.8023 31.6 54.7023 31.8 54.6023 31.9C54.4023 32.1 53.8023 31.4 53.7023 32C53.5023 32.6 54.1023 32.3001 54.1023 32.4001C54.4023 32.8001 54.8023 33 55.3023 33.1C55.7023 33.1 56.3023 33.1 56.3023 33.5C56.3023 33.7 56.8023 33.7001 56.9023 33.9001C56.9023 34.2001 57.2023 34.7 57.4023 34.6C57.6023 34.5 57.9023 34.7001 58.0023 34.9001C58.1023 35.1001 58.0023 35.2001 57.9023 35.4001C57.6023 35.7001 58.2023 35.6001 58.3023 36.2001C58.4023 36.8001 57.8023 36.4 57.7023 36.8C57.5023 37.1 57.3023 37.3 57.1023 37.6C57.0023 37.7 57.2023 37.9 57.3023 37.8C57.4023 37.7 57.6023 37.4001 57.9023 37.4001C58.2023 37.4001 58.5023 38.5 58.8023 38.6C59.1023 38.7 59.0023 39.1001 59.1023 39.2001C59.2023 39.3001 58.6023 39.2001 58.7023 39.4001C58.8023 39.6001 59.4023 39.7 59.4023 40C59.3023 40.3 59.1023 40.6 58.7023 40.6C58.4023 40.6 57.9023 39.9 57.9023 40.1C57.9023 40.3 58.1023 40.9001 58.4023 40.9001C58.7023 40.9001 59.4023 40.6 59.1023 41C58.8023 41.4 58.9023 42 58.7023 42C58.5023 42 58.4023 42 58.6023 42.3C58.7023 42.6 58.6023 42.9001 58.4023 43.2001C58.2023 43.4001 57.7023 43.2 57.7023 43.1C57.7023 43 58.3023 43.0001 58.3023 42.7001C58.3023 42.4001 58.0023 42.3 57.4023 42.5C57.1023 42.6 57.0023 42.4001 56.8023 42.4001C56.6023 42.4001 56.0023 43.1001 56.0023 43.2001C56.0023 43.3001 56.0023 43.5001 56.0023 43.7001C56.0023 44.1001 55.9023 44.4001 55.7023 44.7001C55.3023 44.8001 55.0023 44.8 54.6023 44.8C53.0023 44.8 51.4023 44.1 50.2023 43.1C50.4023 43 50.7023 42.9001 51.0023 42.9001C51.3023 43.0001 51.4023 42.8001 51.6023 42.7001C51.8023 42.6001 52.3023 42.9001 52.6023 42.7001C52.9023 42.5001 53.6023 41.2001 53.5023 40.9001C53.4023 40.6001 54.2023 40.1 54.1023 40C54.0023 39.9 53.9023 40.1 53.9023 40C53.9023 39.9 54.1023 39.9 53.9023 39.5C53.7023 39.1 53.4023 39.3 53.2023 39.3C52.9023 39.1 52.4023 39 52.3023 39.1C52.2023 39.2 51.9023 38.9 51.8023 39C51.7023 39 51.5023 39.1 51.5023 39.3C51.4023 39.5 51.6023 39.7001 51.6023 39.9001C51.5023 40.3001 50.9023 40.6001 50.9023 40.9001C50.9023 41.2001 50.6023 41 50.5023 41.1C50.4023 41.2 50.5023 41.4001 50.3023 41.4001C50.1023 41.4001 49.8023 41.9 49.6023 42.3C49.3023 41.9 49.0023 41.4 48.7023 41C48.9023 40.9 49.1023 40.8001 49.2023 40.9001C49.5023 41.1001 50.7023 39.0001 50.5023 38.4001C50.3023 37.8001 50.0023 38.2 49.7023 38.3C49.4023 38.4 49.4023 38.1 49.5023 38C49.6023 37.9 50.9023 37.9 50.2023 37.5C49.9023 37.3 49.1023 37.3 49.2023 37C49.3023 36.7 49.7023 37 49.8023 37C50.3023 37.2 50.6023 36.2001 50.9023 36.2001C51.4023 36.2001 51.2023 35.2 50.7023 35.5C50.2023 35.8 50.0023 35.7 49.8023 36C49.6023 36.3 49.1023 36.7 49.1023 36.3C49.1023 36.1 50.2023 35.5001 50.4023 35.2001C50.6023 35.0001 50.8023 34.7001 50.9023 34.4001C51.0023 34.1001 52.4023 33.9001 52.7023 33.7001C52.9023 33.5001 53.1023 33.2001 53.1023 32.9001C53.1023 32.6001 52.7023 32.7 52.6023 32.5C52.5023 32.3 53.1023 32.5001 53.1023 32.2001C53.1023 31.9001 52.6023 32.2 52.4023 32C52.4023 31.9 52.4023 31.9 52.5023 31.8C53.4023 31.5 54.0023 31.4 54.7023 31.4H54.9023ZM53.8023 1.60005V7.40005C46.3023 7.60005 39.1023 10.6 33.6023 15.8L29.5023 11.7C36.0023 5.40005 44.7023 1.80005 53.8023 1.60005ZM28.2023 12.9L32.3023 17C27.1023 22.5 24.1023 29.7001 23.9023 37.2001H18.1023C18.4023 28.1 22.0023 19.4 28.2023 12.9Z" fill="#009EDB"/>
</g>
<defs>
<clipPath id="clip0_420_4450">
<rect width="298.3" height="91.1" fill="white"/>
</clipPath>
</defs>
</svg>
