<svg width="300" height="35" viewBox="0 0 300 35" fill="none" xmlns="http://www.w3.org/2000/svg">
<path d="M291.965 23.912C296.688 22.1465 300.05 17.567 299.999 12.2232C299.933 5.42671 294.293 0 287.497 0H260.597C260.037 0 259.582 0.454903 259.582 1.01465V33.4836C259.582 34.0433 260.037 34.4982 260.597 34.4982H266.346C266.906 34.4982 267.361 34.0433 267.361 33.4836V24.6899H282.821L289.831 33.9605C290.086 34.2987 290.485 34.4982 290.909 34.4982H298.612C299.17 34.4982 299.488 33.859 299.152 33.4143L291.965 23.912ZM267.361 7.77902H287.654C290.172 7.77902 292.22 9.82693 292.22 12.345C292.22 14.863 290.172 16.9109 287.654 16.9109H267.361V7.77902Z" fill="white"/>
<path d="M100.959 13.3596H78.6365C78.0768 13.3596 77.6219 13.8145 77.6219 14.3743V20.124C77.6219 20.6837 78.0768 21.1386 78.6365 21.1386H94.1945V23.9289C94.1945 25.4695 92.9448 26.7192 91.4042 26.7192H71.1957C68.5813 26.7192 66.4607 24.5986 66.4607 21.9842V12.5141C66.4607 9.89964 68.5813 7.77902 71.1957 7.77902H99.4369C99.9967 7.77902 100.452 7.32411 100.452 6.76436V1.01465C100.452 0.454903 99.9967 0 99.4369 0H71.1957C64.2842 0 58.6816 5.60258 58.6816 12.5141V21.9842C58.6816 28.8957 64.2842 34.4982 71.1957 34.4982H91.4042C97.2419 34.4982 101.974 29.7666 101.974 23.9289V14.3743C101.974 13.8145 101.519 13.3596 100.959 13.3596Z" fill="white"/>
<path d="M240.642 0H224.239C217.327 0 211.725 5.60258 211.725 12.5141V33.4836C211.725 34.0433 212.18 34.4982 212.739 34.4982H218.489C219.049 34.4982 219.504 34.0433 219.504 33.4836V24.6899H245.377V33.4836C245.377 34.0433 245.832 34.4982 246.392 34.4982H252.142C252.701 34.4982 253.156 34.0433 253.156 33.4836V12.5141C253.156 5.60258 247.554 0 240.642 0ZM219.504 16.9109V12.5141C219.504 9.89964 221.624 7.77902 224.239 7.77902H240.642C243.257 7.77902 245.377 9.89964 245.377 12.5141V16.9109H219.504Z" fill="white"/>
<path d="M156.341 13.3596H136.845C135.323 13.3596 134.08 12.1336 134.054 10.6167C134.027 9.05579 135.356 7.77902 136.917 7.77902H162.345C162.904 7.77902 163.359 7.32411 163.359 6.76436V1.01465C163.359 0.454903 162.904 0 162.345 0H136.506C130.623 0 125.849 4.83144 125.939 10.7334C126.027 16.5321 130.867 21.1386 136.667 21.1386H156.172C157.694 21.1386 158.937 22.3647 158.962 23.8816C158.988 25.4425 157.659 26.7192 156.099 26.7192H128.523C127.963 26.7192 127.508 27.1741 127.508 27.7339V33.4836C127.508 34.0433 127.963 34.4982 128.523 34.4982H156.181C161.981 34.4982 166.821 29.8917 166.909 24.093C167 18.1911 162.224 13.3596 156.341 13.3596Z" fill="white"/>
<path d="M206.82 0H170.292C169.732 0 169.277 0.454903 169.277 1.01465V6.76436C169.277 7.32411 169.732 7.77902 170.292 7.77902H184.666V33.4836C184.666 34.0433 185.121 34.4982 185.681 34.4982H191.431C191.99 34.4982 192.445 34.0433 192.445 33.4836V7.77902H206.82C207.379 7.77902 207.834 7.32411 207.834 6.76436V1.01465C207.834 0.454903 207.379 0 206.82 0Z" fill="white"/>
<path d="M110.091 21.1384H118.715C119.275 21.1384 119.73 20.6835 119.73 20.1237V14.374C119.73 13.8143 119.275 13.3594 118.715 13.3594H110.091C109.531 13.3594 109.076 13.8143 109.076 14.374V20.1237C109.076 20.6835 109.531 21.1384 110.091 21.1384Z" fill="white"/>
<path d="M38.4134 0H17.1555C11.1884 0 5.84282 3.10236 2.73494 7.81795C2.48631 8.19023 2.73494 8.68661 3.10788 8.68661H41.2727C41.5213 8.68661 41.7699 8.43842 41.7699 8.06614V3.35055C41.7699 1.48913 40.2781 0 38.4134 0ZM38.4134 15.3877H15.4151C13.6747 15.3877 12.0586 17.0009 12.0586 18.8623V22.0888C12.0586 22.337 11.9343 22.4611 11.81 22.4611H9.57228L9.19933 22.2129C7.83186 17.3732 5.7185 13.5263 1.49178 11.5408C1.24315 11.4167 0.870207 11.6649 0.745892 11.9131C0.248631 13.5263 0 15.3877 0 17.2491C0 26.8044 7.70755 34.4982 17.1555 34.4982H38.4134C40.2781 34.4982 41.7699 33.0091 41.7699 31.1477V18.8623C41.7699 17.0009 40.2781 15.3877 38.4134 15.3877Z" fill="white"/>
</svg>
