<svg width="224" height="20" viewBox="0 0 224 20" fill="none" xmlns="http://www.w3.org/2000/svg">
<path d="M0.000374995 18.8999V15.4709H8.77538C9.47738 15.4709 10.2244 15.4079 11.0164 15.2819C11.8264 15.1379 12.5824 14.8679 13.2844 14.4719C14.0044 14.0759 14.5894 13.4909 15.0394 12.7169C15.4894 11.9429 15.7144 10.9169 15.7144 9.6389C15.7144 8.3429 15.4894 7.3079 15.0394 6.5339C14.5894 5.7599 14.0044 5.1839 13.2844 4.8059C12.5824 4.4099 11.8264 4.1489 11.0164 4.0229C10.2244 3.8789 9.47738 3.8069 8.77538 3.8069H0.000374995V0.377901H9.26138C10.5574 0.377901 11.8534 0.548901 13.1494 0.890901C14.4454 1.2329 15.6244 1.7729 16.6864 2.5109C17.7664 3.2489 18.6304 4.2029 19.2784 5.3729C19.9444 6.5429 20.2774 7.9649 20.2774 9.6389C20.2774 11.2949 19.9444 12.7169 19.2784 13.9049C18.6304 15.0749 17.7664 16.0289 16.6864 16.7669C15.6244 17.5049 14.4454 18.0449 13.1494 18.3869C11.8534 18.7289 10.5574 18.8999 9.26138 18.8999H0.000374995ZM3.02438 16.9019V2.3489H7.39838V16.9019H3.02438ZM32.3793 19.2509C30.9213 19.2509 29.5713 19.0079 28.3293 18.5219C27.1053 18.0179 26.0343 17.3249 25.1163 16.4429C24.2163 15.5609 23.5143 14.5439 23.0103 13.3919C22.5063 12.2219 22.2543 10.9709 22.2543 9.6389C22.2543 8.3069 22.5063 7.0559 23.0103 5.8859C23.5143 4.7159 24.2163 3.6899 25.1163 2.8079C26.0343 1.9259 27.1053 1.2419 28.3293 0.755901C29.5713 0.251901 30.9213 -9.89437e-05 32.3793 -9.89437e-05C33.8373 -9.89437e-05 35.1783 0.251901 36.4023 0.755901C37.6263 1.2419 38.6883 1.9259 39.5883 2.8079C40.4883 3.6899 41.1903 4.7159 41.6943 5.8859C42.1983 7.0559 42.4503 8.3069 42.4503 9.6389C42.4503 10.9709 42.1983 12.2219 41.6943 13.3919C41.1903 14.5439 40.4883 15.5609 39.5883 16.4429C38.6883 17.3249 37.6263 18.0179 36.4023 18.5219C35.1783 19.0079 33.8373 19.2509 32.3793 19.2509ZM32.3793 15.7139C33.2433 15.7139 34.0173 15.5519 34.7013 15.2279C35.3853 14.9039 35.9613 14.4629 36.4293 13.9049C36.8973 13.3289 37.2573 12.6809 37.5093 11.9609C37.7613 11.2229 37.8873 10.4489 37.8873 9.6389C37.8873 8.8109 37.7613 8.0279 37.5093 7.2899C37.2573 6.5519 36.8973 5.9039 36.4293 5.3459C35.9613 4.7879 35.3853 4.3469 34.7013 4.0229C34.0173 3.6989 33.2433 3.5369 32.3793 3.5369C31.4973 3.5369 30.7053 3.6989 30.0033 4.0229C29.3193 4.3469 28.7343 4.7969 28.2483 5.3729C27.7803 5.9489 27.4203 6.6059 27.1683 7.3439C26.9343 8.0639 26.8173 8.8289 26.8173 9.6389C26.8173 10.4669 26.9343 11.2499 27.1683 11.9879C27.4203 12.7259 27.7803 13.3739 28.2483 13.9319C28.7343 14.4899 29.3193 14.9309 30.0033 15.2549C30.7053 15.5609 31.4973 15.7139 32.3793 15.7139ZM55.1299 19.2779C53.8339 19.2779 52.6549 19.0889 51.5929 18.7109C50.5309 18.3329 49.6039 17.8019 48.8119 17.1179C48.0379 16.4339 47.4349 15.6239 47.0029 14.6879C46.5889 13.7519 46.3819 12.7169 46.3819 11.5829V2.2139H50.7559V11.3129C50.7559 12.1949 50.9449 12.9689 51.3229 13.6349C51.7009 14.3009 52.2229 14.8229 52.8889 15.2009C53.5549 15.5609 54.3019 15.7409 55.1299 15.7409C55.9759 15.7409 56.7229 15.5519 57.3709 15.1739C58.0369 14.7959 58.5589 14.2739 58.9369 13.6079C59.3329 12.9239 59.5309 12.1409 59.5309 11.2589V2.2139H63.9049V11.5829C63.9049 12.7169 63.6799 13.7519 63.2299 14.6879C62.7979 15.6239 62.1769 16.4339 61.3669 17.1179C60.5749 17.8019 59.6479 18.3329 58.5859 18.7109C57.5239 19.0889 56.3719 19.2779 55.1299 19.2779ZM43.3579 3.8069V0.377901H53.4019V3.8069H43.3579ZM56.8309 3.8069V0.377901H66.9019V3.8069H56.8309ZM78.2124 19.2779C76.5744 19.2779 75.1074 19.0349 73.8114 18.5489C72.5334 18.0449 71.4444 17.3609 70.5444 16.4969C69.6444 15.6149 68.9604 14.5889 68.4924 13.4189C68.0244 12.2489 67.7904 10.9889 67.7904 9.6389C67.7904 8.2889 68.0244 7.0379 68.4924 5.8859C68.9784 4.7159 69.6354 3.6899 70.4634 2.8079C71.3094 1.9259 72.2904 1.2419 73.4064 0.755901C74.5224 0.251901 75.7284 -9.89437e-05 77.0244 -9.89437e-05C78.2484 -9.89437e-05 79.3554 0.188901 80.3454 0.566902C81.3534 0.926901 82.2354 1.4399 82.9914 2.1059C83.7654 2.7539 84.3954 3.5189 84.8814 4.4009L82.9644 3.7799V0.377901H86.7984V6.5339L83.9364 6.7229C83.6124 6.2009 83.1714 5.6879 82.6134 5.1839C82.0734 4.6799 81.4254 4.2659 80.6694 3.9419C79.9314 3.5999 79.0944 3.4289 78.1584 3.4289C77.3484 3.4289 76.5924 3.5639 75.8904 3.8339C75.1884 4.1039 74.5674 4.5089 74.0274 5.0489C73.5054 5.5709 73.0914 6.2189 72.7854 6.9929C72.4974 7.7489 72.3534 8.6309 72.3534 9.6389C72.3534 10.5389 72.4884 11.3669 72.7584 12.1229C73.0464 12.8609 73.4514 13.4999 73.9734 14.0399C74.4954 14.5799 75.1164 15.0029 75.8364 15.3089C76.5564 15.5969 77.3484 15.7409 78.2124 15.7409C78.9504 15.7409 79.5984 15.6869 80.1564 15.5789C80.7144 15.4709 81.2094 15.3269 81.6414 15.1469C82.0914 14.9489 82.5054 14.7329 82.8834 14.4989V12.0689H77.9424V8.8559H86.7984V16.3889C86.1864 16.9289 85.4394 17.4239 84.5574 17.8739C83.6934 18.3059 82.7214 18.6479 81.6414 18.8999C80.5614 19.1519 79.4184 19.2779 78.2124 19.2779ZM98.3067 18.4139L105.219 2.1059H111.213L118.152 18.4139H113.535L107.379 2.0249H108.648L102.519 18.4139H98.3067ZM97.3617 18.8999V15.4709H106.623V18.8999H97.3617ZM103.437 12.7709L104.085 9.7469H112.131L112.725 12.7709H103.437ZM109.701 18.8999V15.4709H119.151V18.8999H109.701ZM102.6 3.7799V0.377901H113.805V3.7799H102.6ZM123.417 16.8749V2.3489H127.791V16.8749H123.417ZM120.393 18.8999V15.4709H130.842V18.8999H120.393ZM120.393 3.8069V0.377901H130.842V3.8069H120.393ZM132.438 7.5059V0.377901H152.337V7.5059H148.53V3.8069H136.245V7.5059H132.438ZM137.244 18.8999V15.4709H147.531V18.8999H137.244ZM140.214 16.7129V2.2679H144.588V16.7129H140.214ZM158.792 15.7409V11.8799L169.646 3.1589H174.479L158.792 15.7409ZM153.932 18.8999V15.4709H164.084V18.8999H153.932ZM156.956 17.0099V2.3489H161.33V17.0099H156.956ZM153.932 3.8069V0.377901H164.084V3.8069H153.932ZM166.811 18.8999V15.4709H176.18V18.8999H166.811ZM169.646 16.3349L163.031 9.0719L166.406 7.0199L175.181 16.3349H169.646ZM166.676 3.8069V0.377901H175.991V3.8069H166.676ZM177.267 18.8999V15.4709H192.576V12.0149H196.383V18.8999H177.267ZM180.264 17.0099V2.5649H184.557V17.0099H180.264ZM181.83 11.1779V8.0999H189.174V11.1779H181.83ZM187.392 13.3109V5.9669H190.605V13.3109H187.392ZM192.576 7.2629V3.8069H177.267V0.377901H196.383V7.2629H192.576ZM217.865 19.0619L200.882 0.377901H206.174L216.218 11.7449V0.836902H220.214V19.0619H217.865ZM199.046 18.8999V15.4709H209.198V18.8999H199.046ZM202.07 18.4949V0.377901H206.174V18.4949H202.07ZM199.046 3.8069V0.377901H206.174L206.093 3.8069H199.046ZM213.194 3.8069V0.377901H223.076V3.8069H213.194Z" fill="white"/>
</svg>
