<svg xmlns="http://www.w3.org/2000/svg" width="127.23" height="60" viewBox="0 0 127.23 60"><path d="M35.68 54.08h2.58a1.814 1.814 0 11.37 3.61 2.29 2.29 0 01-.37 0h-1.45v2.19h-1.13zm2.58 2.6a.79.79 0 00.86-.71v-.1a.78.78 0 00-.78-.78h-1.53v1.58zM44.26 54.08H47a1.69 1.69 0 011.87 1.49 1.09 1.09 0 010 .18 1.58 1.58 0 01-1.17 1.58l1.58 2.55H48l-1.53-2.47h-1.08v2.47h-1.13zM47 56.4c.47 0 .78-.26.78-.65s-.32-.65-.78-.65h-1.61v1.3zM52.46 57a3 3 0 113 3 2.85 2.85 0 01-3-2.67 1.93 1.93 0 010-.34m4.9 0a1.89 1.89 0 10-1.88 2 1.84 1.84 0 001.89-1.78 1.62 1.62 0 000-.22M61.93 58.16H63a1.05 1.05 0 001.06.82c.59 0 1-.53 1-1.32v-3.58h1.13v3.58A2.11 2.11 0 0164.31 60h-.24a2.07 2.07 0 01-2.14-1.83M70.36 54.08h3.93v1h-2.8v1.3H74v1h-2.51v1.45h2.8v1h-3.93zM77.78 57a2.93 2.93 0 015.78-.76h-1.12A1.8 1.8 0 0080.79 55a2 2 0 000 4 1.77 1.77 0 001.7-1.38h1.09a2.92 2.92 0 01-5.8-.62M88.75 55.1h-1.67v-1h4.47v1h-1.67v4.78h-1.13zM41.92 22.27a12.48 12.48 0 01-6.66-1.71h-.06v-.06c-.77-1.92-.91-4.09-.32-5a.87.87 0 01.74-.42c.42 0 .62.16.77.65a6.78 6.78 0 006.55 4.93H43c2.44 0 3.79-1.21 3.79-3.32 0-2.66-2.35-3.42-5.07-4.31l-.51-.16c-3.15-1.06-6.76-2.8-6.76-6.85 0-3.6 3.15-6 7.84-6a12.38 12.38 0 016.32 1.62h.06v.07c.77 1.92.92 4.1.33 5a.81.81 0 01-.71.41c-.46 0-.65-.15-.8-.64-1-3-3.36-4.87-6.1-4.87A3.13 3.13 0 0038 4.32a3.33 3.33 0 000 .55c0 2.37 1.76 3.42 4.8 4.44l.43.14c3.1 1 7.35 2.46 7.35 6.74 0 4.48-4.43 6.08-8.58 6.08M51.6 21.94v-1.18h.16c1.37-.23 1.93-.51 1.93-1.6V3.35c0-1.09-.56-1.37-1.93-1.6h-.16V.54h15.82a.63.63 0 01.7.52V1.27a25.17 25.17 0 00.66 3.65l.06.25h-1.1l-.05-.12a4 4 0 00-4.09-2.89h-4.12c-1.42 0-1.9.33-1.9 1.32v5.44c0 1 .5 1.36 1.9 1.36h3c2 0 2.44-.65 2.71-2.2v-.17h.91v6.35h-.9v-.16c-.24-1.35-.56-2.24-2.71-2.24h-3c-1.4 0-1.9.36-1.9 1.36V19c0 .91.36 1.32 2.5 1.32h4.09c2.44 0 3.09-.77 3.59-1.6l.87-1.34h1.15l-.15.29a9.87 9.87 0 00-1 3.65.71.71 0 01-.74.65H51.6zM84.29 21.94v-1.18h.17c.89-.15 1.39-.36 1.55-.66s0-.78-.25-1.43l-.84-2a1.73 1.73 0 00-1.78-1h-6.28A1.74 1.74 0 0075 16.86l-.69 1.63a1.47 1.47 0 00-.07 1.34c.26.46 1 .76 2.11.92h.17v1.18h-7.13v-1.16h.16a3.56 3.56 0 003-2.53l6.32-14.8a6.5 6.5 0 00.69-2.69V.56L82 .33l7.46 17c1 2.4 1.39 3.11 3 3.37h.17v1.18zm-7.93-8.36l-.07.16a.35.35 0 000 .25.42.42 0 00.35.11h6.56a.42.42 0 00.35-.13.43.43 0 000-.35l-3.43-8.06a1.46 1.46 0 00-.17-.3s-.06.12-.14.32l-3.45 8-.16-.07zM84.7 46.59l-13.13-16.8v14c0 1.08.49 1.36 1.87 1.6h.17v1.17h-6V45.4h.16c1.36-.24 1.93-.51 1.93-1.6V28c0-1.09-.57-1.37-1.93-1.6h-.16v-1.21h5L84.52 40.4V28c0-1.09-.56-1.36-1.9-1.6h-.16v-1.21h6v1.18h-.16c-1.39.23-2 .5-2 1.59v18.62zM109.05 46.59v-1.18h.17c1.36-.24 1.93-.51 1.93-1.6V28c0-1.09-.57-1.37-1.93-1.6h-.17v-1.21h15.82a.62.62 0 01.7.52.15.15 0 010 .07v.14a26.57 26.57 0 00.65 3.65l.07.25h-1.1v-.13a4 4 0 00-4.11-2.88h-4.13c-1.41 0-1.89.33-1.89 1.32v5.45c0 1 .49 1.35 1.89 1.35h3c2 0 2.44-.64 2.71-2.19v-.17h.91v6.35h-.9v-.16c-.24-1.35-.56-2.24-2.71-2.24h-3c-1.4 0-1.89.35-1.89 1.36v5.78c0 .91.36 1.32 2.5 1.32h4.09c2.44 0 3.09-.76 3.58-1.59l.88-1.35h1.14l-.15.3a9.85 9.85 0 00-1 3.65.71.71 0 01-.74.65zM11.25 46.92C5.8 46.92 0 43.06 0 35.91c0-7.31 6-11.26 11.66-11.26h.13a12.42 12.42 0 016.33 1.62h.05v.06c.77 1.93.91 4.11.33 5a.86.86 0 01-.72.4c-.45 0-.65-.15-.8-.64a6.92 6.92 0 00-4-4.48l-.3-.12a5.23 5.23 0 00-2-.35c-4.07 0-6.7 3.15-6.7 8C4 40 7.92 44.3 13.29 44.3a7.34 7.34 0 005.83-2.78l.13-.14.82.66-.08.15a10 10 0 01-8.73 4.73" fill="#fff"></path><path d="M99 46.92a11.21 11.21 0 01-9.49-5.05 8.84 8.84 0 01-.53-.95l-.08-.15c-.13-.28-.25-.57-.36-.88l-.09-.24c-.09-.28-.17-.57-.24-.86v-.12l-.06-.21Q88 38 88 37.56v-.35c0-.44-.07-.87-.07-1.31s0-.76.06-1.2v-.16a10.66 10.66 0 01.16-1.07v-.2q.12-.52.27-1v-.12c.14-.41.26-.72.38-1v-.07a9.47 9.47 0 01.44-.85l.09-.17c.16-.26.32-.51.5-.75l.16-.22c.17-.22.35-.43.54-.64a2.39 2.39 0 01.22-.23 7.23 7.23 0 01.56-.55l.27-.23.46-.37a12.29 12.29 0 017.41-2.42h.13a12.42 12.42 0 016.42 1.63v.07c.77 1.92.91 4.1.33 5a.83.83 0 01-.72.41c-.45 0-.65-.15-.8-.64a6.93 6.93 0 00-4-4.48l-.31-.12a5.23 5.23 0 00-2-.35 6.23 6.23 0 00-5.9 3.88 9.25 9.25 0 00-.32.88l-.22.05h.19a7.35 7.35 0 00-.2.84v.17q-.07.42-.12.87v1.25a12.37 12.37 0 00.21 2.27v.08c.91 5 4.69 8.56 9.19 8.56 1.69 0 2.44-.55 2.44-1.8v-4c0-1.26-.22-1.52-2.76-1.73h-.18v-1h8.58v1h-.17c-1.78.23-2 .39-2 1.73v7.47l-.32-.25a2.78 2.78 0 00-1.77-.61 9 9 0 00-2.11.38 15.1 15.1 0 01-4 .61M41.11 43.78v-4a24.41 24.41 0 00-3.85-1.07v5c0 1.09-.58 1.36-2 1.6h-.17v1.18h8.08v-1.08H43c-1.36-.24-1.93-.51-1.93-1.6M27.08 43.78v-4.1a20.14 20.14 0 00-3.88 2.23v1.87c0 1.09-.57 1.36-1.93 1.6h-.17v1.18h8.07V45.4h-.16c-1.36-.24-1.93-.51-1.93-1.6" fill="#fff"></path><path d="M63.76 36.28v-2.89l-.33.26a21.23 21.23 0 01-2.5 1.71L56.38 25l-2.38.21v.18a6.42 6.42 0 01-.69 2.69l-4.13 9.6A26.82 26.82 0 0144 36.45c-.55-.19-1.17-.45-1.59-.61s-.77-.27-1.29-.43V28c0-1.09.56-1.36 1.93-1.6h.16v-1.21h-8.08v1.18h.16c1.39.24 2 .51 2 1.59v6.52a23.13 23.13 0 00-3.89-.33 17.83 17.83 0 00-2.64.17 19 19 0 00-3.65.88V28c0-1.09.56-1.36 1.93-1.6h.16v-1.21h-8.1v1.18h.17c1.36.23 1.93.5 1.93 1.59v9c-.59.35-1.12.69-1.58 1l-.09.06V41l.33-.27A19.61 19.61 0 0131 36.62a17.92 17.92 0 012.31-.15 25.46 25.46 0 018.2 1.5c.42.15 1 .4 1.51.58A27.29 27.29 0 0052 40.17a19.7 19.7 0 0011.73-3.83zm-9.48 1.45a17.92 17.92 0 01-2.31.15h-1l3.27-7.61c.08-.2.13-.28.14-.32a1.22 1.22 0 01.17.29L57.44 37a16.56 16.56 0 01-3.16.77M48.59 44.46a1.48 1.48 0 01.08-1.34l.52-1.22c-.61-.07-1.19-.16-1.76-.25l-.52 1.2a3.56 3.56 0 01-3 2.53h-.16v1.18h7.09V45.4h-.17c-1.16-.15-1.85-.45-2.12-.92M66.87 45.38c-1.64-.26-2-1-3-3.37l-1.22-2.79a25.28 25.28 0 01-3.52 1.59l1.07 2.48c.27.65.41 1.12.24 1.42s-.66.51-1.55.66h-.16v1.18H67V45.4z" fill="#fff"></path></svg>