<svg width="174" height="58" viewBox="0 0 174 58" fill="none" xmlns="http://www.w3.org/2000/svg">
<g clip-path="url(#clip0_420_4460)">
<path d="M69.7201 23.3201C69.0301 23.0501 68.3601 22.7101 67.6501 22.5301C66.1701 22.1501 64.6801 21.8201 63.1801 21.5301C61.8401 21.2701 61.4301 20.4301 62.3101 19.3901C63.0301 18.5301 63.8901 17.7801 64.7601 17.0601C65.8401 16.1701 66.9901 15.3801 68.1101 14.5401C68.3001 14.4001 68.4501 14.2001 68.6201 14.0301C68.6001 13.9901 68.5701 13.9601 68.5501 13.9201C68.3101 14.0201 68.0701 14.1001 67.8401 14.2101C65.4001 15.3601 63.0601 16.6901 60.8101 18.1901C60.5801 18.3501 60.3401 18.5101 60.0801 18.6101C59.1701 18.9801 58.2901 18.5201 58.2901 17.5401C58.2901 16.4001 58.3601 15.2301 58.6401 14.1401C59.0801 12.4101 59.7301 10.7301 60.2801 9.02005C60.3601 8.78005 60.3701 8.53005 60.4101 8.28005C60.3501 8.25005 60.2901 8.21005 60.2301 8.18005C60.0501 8.36005 59.8101 8.52005 59.7001 8.74005C58.9101 10.2901 58.1401 11.8601 57.3701 13.4201C57.1801 13.8101 57.0301 14.2201 56.8201 14.5901C56.4801 15.1901 56.0601 15.2401 55.5901 14.7301C55.3701 14.4901 55.1801 14.2001 55.0001 13.9301C53.9901 12.4101 52.9801 10.8801 51.9701 9.35005C51.8601 9.19005 51.7201 9.05005 51.6001 8.91005C51.5501 8.92005 51.5001 8.94005 51.4501 8.95005C51.4701 9.20005 51.4501 9.46005 51.5201 9.68005C52.0101 11.1601 52.5401 12.6301 53.0101 14.1201C53.2201 14.8001 53.3901 15.5001 53.4601 16.2001C53.5401 17.0601 53.1801 17.4401 52.3401 17.6201C51.3201 17.8401 50.3101 17.7001 49.3201 17.4601C48.6101 17.2901 47.9201 17.0501 47.2201 16.8501C47.0201 16.7901 46.8101 16.7501 46.6101 16.7001C46.5701 16.7401 46.5401 16.7801 46.5001 16.8301C46.6401 17.0001 46.7501 17.2101 46.9201 17.3501C48.4201 18.6001 50.1701 19.4101 51.9301 20.2101C52.4801 20.4601 53.0401 20.6601 53.5701 20.9301C53.8601 21.0801 54.0801 21.3501 54.3401 21.5701C54.1101 21.8001 53.9201 22.0701 53.6501 22.2401C51.8901 23.3801 50.0801 24.4301 48.3701 25.6501C45.9601 27.3601 43.7501 29.3101 41.9601 31.6901C41.6901 32.0501 41.4801 32.4501 41.1901 32.8001C41.0101 33.0201 40.7401 33.1601 40.5201 33.3401L40.3301 33.2001C40.3901 32.9401 40.4101 32.6701 40.5201 32.4301C41.4501 30.4301 42.7801 28.7101 44.2701 27.1101C46.0801 25.1701 48.0701 23.4301 50.3301 22.0101C50.5801 21.8601 50.7501 21.5801 50.9501 21.3501C50.7101 21.1601 50.5001 20.9101 50.2301 20.7901C48.6701 20.0901 47.0601 19.4901 45.5401 18.7001C44.3901 18.1001 43.3601 17.2501 42.2701 16.5101C42.2001 16.4601 42.1501 16.4001 42.0901 16.3401C41.7401 16.0001 41.3601 15.6201 41.5501 15.1001C41.7501 14.5501 42.3101 14.5601 42.7801 14.5401C44.2301 14.4701 45.6101 14.8601 47.0101 15.1701C48.0201 15.3901 49.0301 15.6001 50.0401 15.7801C50.7901 15.9201 51.1101 15.5901 50.9001 14.8601C50.6801 14.1001 50.3901 13.3501 50.0901 12.6101C49.0701 10.0601 48.0401 7.52005 47.5101 4.81005C47.2801 3.65005 47.0401 2.49005 47.2401 1.30005C47.4101 0.310054 47.9601 0.0700545 48.7201 0.730055C49.3601 1.28005 49.9701 1.90005 50.4501 2.58005C51.9401 4.70005 53.3701 6.87005 54.8201 9.02005C55.1301 9.47005 55.4101 9.95005 55.7501 10.3801C56.1701 10.9101 56.4601 10.8801 56.7301 10.2601C57.2001 9.20005 57.5901 8.10005 58.0501 7.03005C58.3701 6.29005 58.7201 5.55005 59.1201 4.84005C59.4001 4.35005 59.6401 4.37005 59.9701 4.84005C60.2701 5.26005 60.5001 5.29005 60.8101 4.87005C61.3101 4.21005 61.7701 3.51005 62.2401 2.83005C62.7001 2.18005 63.1301 1.50005 63.6401 0.890055C63.9101 0.570055 64.2901 0.310055 64.6601 0.120055C65.1401 -0.129945 65.4601 0.0800545 65.4201 0.620055C65.3901 1.01005 65.3101 1.41005 65.1701 1.78005C64.1901 4.43005 63.1601 7.06005 62.1901 9.72005C61.7701 10.8701 61.4501 12.0601 61.0901 13.2401C61.0501 13.3801 60.9801 13.5301 60.9901 13.6801C61.0101 14.0601 60.9501 14.5601 61.1601 14.7801C61.3201 14.9601 61.8801 14.8801 62.2101 14.7701C64.6201 13.9001 67.0001 12.9701 69.4101 12.1001C70.0301 11.8701 70.6901 11.7201 71.3401 11.6201C71.6101 11.5801 72.0401 11.6801 72.1701 11.8701C72.3001 12.0601 72.2501 12.5001 72.1101 12.7401C71.8501 13.2001 71.5501 13.6701 71.1501 14.0001C69.4301 15.4701 67.6701 16.8901 65.9201 18.3301C65.3601 18.7901 64.7901 19.2601 64.0901 19.8301C64.5001 19.9201 64.7701 20.0101 65.0501 20.0401C67.1301 20.2501 69.2301 20.3801 71.3001 20.6601C73.0501 20.9001 74.7601 21.3501 76.3301 22.1901C76.8201 22.4501 77.2801 22.8201 77.6501 23.2301C78.2201 23.8701 78.1401 24.5801 77.3901 25.0001C76.6401 25.4101 75.8201 25.7201 74.9901 25.9301C72.9701 26.4301 70.9001 26.3601 68.8301 26.2801C68.1501 26.2501 67.4701 26.2201 66.7801 26.2101C66.2201 26.2101 66.0101 26.4501 66.2101 27.0001C66.4601 27.7201 66.7901 28.4101 67.0901 29.1101C67.7701 30.6601 68.4701 32.2101 69.1201 33.7701C69.3301 34.2701 69.4501 34.8201 69.5001 35.3501C69.5501 35.8801 69.1701 36.1601 68.7001 35.9201C68.0901 35.6101 67.4801 35.2301 66.9901 34.7601C64.7601 32.6201 62.9201 30.1401 61.1401 27.6301C60.7401 27.0701 60.3701 26.5101 59.9601 25.9601C59.8501 25.8101 59.6301 25.6001 59.5201 25.6301C59.3601 25.6801 59.1701 25.9001 59.1301 26.0801C58.9001 27.2901 58.6601 28.5001 58.5301 29.7101C58.3501 31.3101 58.2801 32.9301 58.1101 34.5301C58.0801 34.8101 57.8001 35.2901 57.6601 35.2801C57.2201 35.2601 57.2301 34.7901 57.2301 34.4601C57.2301 31.3401 57.3801 28.2401 58.2201 25.2101C58.3201 24.8501 58.4801 24.4901 58.6801 24.1701C59.0001 23.6601 59.4701 23.6201 59.8901 24.0601C60.2401 24.4301 60.5601 24.8501 60.8501 25.2701C61.8401 26.6701 62.8001 28.0901 63.8001 29.4801C64.0801 29.8701 64.4501 30.1801 64.8001 30.5201C64.8801 30.6001 65.0301 30.6101 65.3001 30.7001C65.1601 30.2901 65.1001 30.0101 64.9801 29.7601C64.3801 28.5001 63.7601 27.2501 63.1501 25.9901C63.0501 25.7801 62.9801 25.5601 62.9101 25.3401C62.5101 24.1601 62.8901 23.5101 64.1301 23.4401C65.1201 23.3801 66.1201 23.4601 67.1201 23.4701C67.9601 23.4701 68.8001 23.4701 69.6401 23.4701C69.6601 23.4201 69.6801 23.3801 69.7001 23.3301L69.7201 23.3201Z" fill="white"/>
<path d="M50.6191 40.29C51.9091 39.89 53.0891 39.5 54.2791 39.15C56.3991 38.53 58.5591 38.13 60.7591 38.13C61.5891 38.13 62.4691 38.23 63.2491 38.51C64.5991 38.99 65.1491 40.24 64.6491 41.59C64.3491 42.41 63.8491 43.15 63.4391 43.92C63.3291 44.12 63.2191 44.31 63.0191 44.65C63.4391 44.6 63.6991 44.58 63.9591 44.52C65.9291 44.13 67.8891 43.63 69.8791 43.36C73.3891 42.87 76.4591 43.87 78.9791 46.42C79.1791 46.63 79.3491 46.89 79.4691 47.16C79.5291 47.3 79.4591 47.5 79.4491 47.67C79.2791 47.65 79.1091 47.65 78.9391 47.61C78.8691 47.59 78.7991 47.52 78.7391 47.47C75.5591 44.87 71.9991 44.36 68.1291 45.57C66.4291 46.1 64.7591 46.7 63.0591 47.22C62.3491 47.44 61.6091 47.64 60.8691 47.67C58.9891 47.76 58.0791 46.27 58.9991 44.64C59.4791 43.79 60.1191 43.03 60.6791 42.23C60.8891 41.93 61.1091 41.63 61.2791 41.31C61.5791 40.73 61.3991 40.28 60.7591 40.22C59.9591 40.15 59.1291 40.16 58.3291 40.26C55.2691 40.64 52.4691 41.84 49.7091 43.13C48.8191 43.54 47.9391 43.99 47.0391 44.36C46.6391 44.53 46.1791 44.62 45.7391 44.62C45.0491 44.62 44.7391 44.2 44.8991 43.53C45.0191 43.05 45.2191 42.59 45.4191 42.13C45.7191 41.43 46.0891 40.75 46.3691 40.04C46.4691 39.77 46.3991 39.44 46.4091 39.13C46.1391 39.18 45.8491 39.18 45.5991 39.28C44.1291 39.84 42.9091 40.79 41.6691 41.72C40.2291 42.8 38.7791 43.85 37.2991 44.86C36.6191 45.32 35.8391 45.56 34.9791 45.3C33.9391 44.98 33.3691 44.37 33.4091 43.27C33.4391 42.42 33.6591 41.57 33.8191 40.72C33.9091 40.23 34.0791 39.76 34.1691 39.27C34.2991 38.55 33.9791 38.22 33.3191 38.5C32.5791 38.81 31.8491 39.21 31.2291 39.72C29.9191 40.8 28.7291 42.02 27.4091 43.08C26.7391 43.62 25.9491 44.1 25.1391 44.37C23.7491 44.84 22.9491 44.03 23.2891 42.6C23.4291 42.03 23.7291 41.5 23.9291 40.93C23.9891 40.76 23.9891 40.5 23.8891 40.37C23.2091 39.4 22.1991 39.06 21.0791 39C19.4491 38.91 17.9191 39.36 16.4191 39.96C13.1491 41.26 10.2391 43.16 7.5691 45.4C5.3391 47.27 3.2491 49.3 1.0991 51.26C0.919099 51.43 0.729099 51.6 0.519099 51.73C0.429099 51.79 0.219099 51.8 0.149099 51.73C0.0590994 51.65 -0.0109006 51.45 0.0290994 51.34C0.139099 51.03 0.279099 50.72 0.469099 50.45C2.3591 47.7 4.6591 45.32 7.1791 43.16C10.5291 40.28 14.1791 37.86 18.3591 36.33C20.0891 35.7 21.8591 35.26 23.6991 35.18C26.1991 35.06 27.3391 35.82 28.1991 38.12C28.9991 37.59 29.7791 37.03 30.5991 36.52C31.9491 35.68 33.3391 34.93 34.9191 34.64C35.5491 34.53 36.2191 34.51 36.8491 34.59C38.1091 34.75 38.9191 35.68 38.9091 36.95C38.9091 37.59 38.7291 38.23 38.6191 38.86C38.5691 39.15 38.4791 39.43 38.4091 39.71C38.4491 39.74 38.4791 39.77 38.5191 39.8C38.7291 39.69 38.9391 39.59 39.1391 39.47C41.5391 37.95 44.0491 36.65 46.8491 36.04C47.6191 35.87 48.4391 35.8 49.2191 35.86C50.3391 35.95 50.9491 36.66 50.9691 37.79C50.9791 38.41 50.8491 39.04 50.7691 39.66C50.7491 39.84 50.6991 40.01 50.6491 40.26L50.6191 40.29Z" fill="white"/>
<path d="M102.19 20.59C102 20.95 101.83 21.19 101.73 21.46C101.05 23.3 100.38 25.14 99.7098 26.98C99.5698 27.37 99.4298 27.77 99.2198 28.12C98.5998 29.17 97.1498 29.13 96.5698 28.05C95.5198 26.11 94.8298 24.03 94.3298 21.88C94.1598 21.14 94.0098 20.39 93.7198 19.61C93.5898 19.93 93.4398 20.24 93.3398 20.57C92.8598 22.18 92.4398 23.81 91.8998 25.39C91.1898 27.47 90.4398 29.53 89.1998 31.37C88.8898 31.83 88.4998 32.27 88.0698 32.62C87.8398 32.81 87.3598 32.95 87.1398 32.84C86.9198 32.73 86.7698 32.26 86.7798 31.95C86.7898 31.51 86.9298 31.07 87.0798 30.65C88.5598 26.67 89.9198 22.66 90.5898 18.45C90.6998 17.73 90.8598 17.01 91.0398 16.3C91.1298 15.92 91.2698 15.53 91.4498 15.18C92.0998 13.86 93.4398 13.71 94.3798 14.84C94.9998 15.59 95.2998 16.49 95.5298 17.41C95.9698 19.18 96.3798 20.97 96.8498 22.73C96.9998 23.31 97.3098 23.84 97.5498 24.4C97.6098 24.4 97.6698 24.39 97.7398 24.38C97.8798 24.16 98.0498 23.96 98.1398 23.72C98.9398 21.75 99.7198 19.77 100.53 17.81C100.78 17.2 101.08 16.59 101.47 16.06C102.26 14.99 103.26 15.11 103.91 16.26C104.89 18.03 105.37 19.96 105.84 21.9C106.63 25.15 107.43 28.39 108.24 31.63C108.39 32.24 108.6 32.84 108.75 33.45C108.82 33.76 108.84 34.17 108.47 34.25C108.2 34.31 107.8 34.19 107.58 34C106.71 33.24 106.32 32.19 105.95 31.13C104.81 27.83 103.68 24.53 102.54 21.24C102.47 21.04 102.36 20.87 102.2 20.56L102.19 20.59Z" fill="white"/>
<path d="M26.6093 10.66C26.8393 10.53 27.0393 10.44 27.2193 10.33C31.6393 7.67998 36.4193 6.34998 41.5893 6.62998C43.0793 6.70998 44.5693 6.89998 46.0293 7.21998C46.6793 7.35998 47.4593 7.60998 47.6193 8.56998C47.7293 9.24998 48.0593 9.88998 48.2993 10.54L48.2893 10.56C47.1493 10.27 46.0193 9.93998 44.8693 9.70998C40.0893 8.77998 35.4593 9.28998 31.0393 11.35C24.5793 14.38 20.4293 19.4 18.5493 26.25C17.7593 29.13 17.5593 32.08 18.0293 35.06C18.0493 35.19 17.9293 35.44 17.8093 35.49C17.0193 35.84 16.2193 36.16 15.3193 36.53C15.2393 35.77 15.1493 35.04 15.0993 34.31C14.7093 29.33 15.8893 24.67 17.9993 20.22C19.6793 16.68 21.7593 13.37 24.2693 10.35C24.5193 10.04 24.7893 9.73998 25.0693 9.45998C25.4593 9.06998 25.7193 9.09998 26.0493 9.54998C26.1693 9.70998 26.2593 9.88998 26.3493 10.07C26.4393 10.25 26.5093 10.43 26.6193 10.68L26.6093 10.66Z" fill="white"/>
<path d="M46.0395 13.68C46.7795 13.95 47.5195 14.23 48.2595 14.51C48.2595 14.54 48.2395 14.56 48.2295 14.59C47.1095 14.35 45.9895 14.04 44.8595 13.89C43.9495 13.77 42.9895 13.7 42.0895 13.84C40.6495 14.06 40.2295 15.31 41.1095 16.48C41.3195 16.77 41.5995 17.01 41.8995 17.33C37.0295 17.01 32.9095 18.52 29.6695 22.1C26.4395 25.67 25.3795 29.9201 26.1295 34.5201C24.8395 34.4801 23.5595 34.4301 22.1895 34.3801C22.1495 33.8701 22.0695 33.24 22.0495 32.62C21.8895 26.64 23.9995 21.59 28.3995 17.54C30.3895 15.71 32.8095 14.59 35.3295 13.69C38.0995 12.7 40.9495 12.07 43.9095 12.05C44.1795 12.05 44.4395 12.07 44.7095 12.1C45.8695 12.25 46.0895 12.5 46.0295 13.69L46.0395 13.68Z" fill="white"/>
<path d="M57.8202 46.82C58.1502 47.65 58.7802 48.18 59.7102 48.53C52.9902 55.68 44.8802 58.68 35.2902 56.7C26.3302 54.85 20.3002 49.3 16.7402 40.83C17.6202 40.56 18.4102 40.33 19.1602 40.1C22.5502 47.93 28.2402 52.95 36.6502 54.39C45.0302 55.83 52.0702 53.03 57.8302 46.82H57.8202Z" fill="white"/>
<path d="M56.0903 41.54C49.6203 51.99 35.0503 53.13 27.0703 44.45C28.0203 43.63 28.9803 42.8 29.9103 41.99C30.7803 42.67 31.6703 43.36 32.5603 44.05C32.6303 44.11 32.6903 44.21 32.7103 44.3C33.0403 45.64 34.9703 46.56 36.5303 46.11C36.8003 46.03 37.1203 46.02 37.3903 46.08C40.0103 46.61 42.5803 46.48 45.1203 45.63C45.3803 45.54 45.6703 45.55 45.9403 45.48C46.4803 45.34 47.0503 45.24 47.5603 45.01C50.1203 43.87 52.6203 42.57 55.3203 41.75C55.5403 41.68 55.7603 41.63 56.0803 41.54H56.0903Z" fill="white"/>
<path d="M136.62 28.11C136.9 28 137.11 27.86 137.33 27.86C137.59 27.86 137.93 27.88 138.09 28.04C138.21 28.17 138.19 28.55 138.09 28.76C137.91 29.17 137.62 29.52 137.41 29.92C137.32 30.1 137.26 30.34 137.3 30.53C137.42 31.1 137.61 31.65 137.73 32.22C137.81 32.57 137.76 32.93 137.38 33.12C136.99 33.31 136.68 33.12 136.46 32.84C136.08 32.38 135.76 31.88 135.37 31.35C135 31.51 134.59 31.68 134.18 31.85C132.85 32.41 131.48 32.73 130.05 32.36C127.66 31.73 125.61 29.16 126.78 26.13C127.75 23.61 129.62 22.24 132.2 21.72C132.52 21.66 132.85 21.63 133.21 21.58C133.1 20.17 132.96 18.77 132.88 17.36C132.82 16.25 132.83 15.14 132.82 14.03C132.82 13.91 132.83 13.8 132.86 13.68C132.96 13.29 133.04 12.88 133.54 12.81C134 12.74 134.61 13.03 134.79 13.46C134.93 13.81 135.02 14.19 135.09 14.56C135.31 15.68 135.57 16.8 135.7 17.94C135.87 19.47 135.9 21.02 136.03 22.56C136.17 24.25 136.35 25.94 136.52 27.62C136.54 27.78 136.59 27.94 136.63 28.13L136.62 28.11ZM133.4 23.51C131.62 23.38 129.54 24.9 129.14 26.65C128.72 28.49 130.21 30.33 132.05 30.12C132.84 30.03 133.6 29.68 134.36 29.4C134.48 29.36 134.61 29.06 134.58 28.91C134.21 27.12 133.81 25.34 133.4 23.51Z" fill="white"/>
<path d="M120.08 28.12C120.64 28.3 120.81 28.49 120.56 29.13C120.27 29.87 120.6 30.4 120.9 30.98C121.04 31.24 121.21 31.5 121.31 31.77C121.5 32.32 121.2 32.71 120.67 32.5C120.02 32.25 119.4 31.87 118.83 31.46C118.56 31.26 118.39 31.17 118.06 31.32C116.29 32.1 114.46 32.5 112.52 32.21C110 31.84 108.34 29.18 109.15 26.78C110.05 24.12 113.17 21.68 116 21.52C116.8 21.47 117.63 21.53 118.41 21.7C119.47 21.93 120.05 22.73 120.09 23.8C120.14 25.06 120.08 26.32 120.07 27.59C120.07 27.77 120.07 27.95 120.07 28.13L120.08 28.12ZM117.49 29.3C117.4 27.79 117.3 26.4 117.24 25.01C117.2 23.99 116.98 23.73 115.94 23.79C114.12 23.9 112.84 24.91 111.93 26.4C111.04 27.86 111.93 29.68 113.65 29.88C114.99 30.04 116.33 29.81 117.48 29.29L117.49 29.3Z" fill="white"/>
<path d="M156.45 28.21C156.86 29.37 157.72 29.89 158.85 29.99C160.27 30.11 161.7 30.18 163.12 30.3C163.34 30.32 163.66 30.45 163.72 30.61C163.78 30.78 163.62 31.06 163.5 31.26C163.43 31.38 163.28 31.46 163.15 31.53C159.94 33.23 155.73 32.47 154.39 28.74C154.37 28.7 154.34 28.66 154.31 28.62C154.04 28.65 153.78 28.72 153.52 28.71C153.14 28.7 152.99 28.43 153.18 28.09C153.32 27.85 153.47 27.56 153.69 27.43C154.1 27.18 154.13 26.83 154.17 26.42C154.22 25.81 154.27 25.19 154.41 24.59C155.01 21.93 156.68 20.26 159.28 19.5C159.88 19.32 160.47 19.39 161.02 19.68C162.39 20.39 163.21 21.5 163.39 23.03C163.49 23.93 163.05 24.68 162.51 25.35C161.68 26.38 160.56 27 159.32 27.4C158.39 27.7 157.44 27.94 156.45 28.21ZM156.18 26.53C157.63 26.22 158.94 25.76 160.12 24.99C160.82 24.53 161.13 23.86 161.01 23.02C160.91 22.28 160.33 21.92 159.63 22.18C159.03 22.41 158.42 22.66 157.88 23.01C156.63 23.82 156.3 25.09 156.17 26.53H156.18Z" fill="white"/>
<path d="M169.851 32.54C167.161 32.32 165.601 31.03 164.771 28.73C164.701 28.55 164.641 28.33 164.681 28.15C164.731 27.86 164.801 27.44 164.991 27.34C165.251 27.21 165.701 27.24 165.951 27.39C166.321 27.61 166.611 27.99 166.901 28.33C167.851 29.45 169.081 29.99 170.521 29.99C171.271 29.99 171.591 29.58 171.581 28.83C171.561 27.44 170.611 26.74 169.511 26.22C168.611 25.8 167.751 25.34 167.091 24.59C165.531 22.8 165.951 20.43 168.021 19.27C169.401 18.5 170.771 18.31 172.141 19.29C172.781 19.74 173.201 20.36 173.411 21.09C173.481 21.32 173.311 21.63 173.251 21.9C173.001 21.84 172.711 21.85 172.501 21.71C172.121 21.47 171.801 21.15 171.451 20.87C170.521 20.13 168.591 20.8 168.321 21.96C168.201 22.45 168.361 22.92 168.741 23.22C169.261 23.62 169.821 23.99 170.411 24.29C171.351 24.77 172.281 25.25 172.951 26.1C174.341 27.85 174.021 30.56 172.301 31.86C171.571 32.41 170.741 32.57 169.851 32.55V32.54Z" fill="white"/>
<path d="M148.349 28.9101C148.669 28.2201 149.039 27.5601 149.289 26.8501C150.219 24.2401 151.099 21.6101 152.019 18.9901C152.099 18.7601 152.219 18.5001 152.399 18.3601C152.579 18.2101 152.889 18.0901 153.089 18.1501C153.239 18.1901 153.399 18.5401 153.379 18.7401C153.329 19.3501 153.229 19.9601 153.109 20.5601C152.659 22.7701 152.219 24.9901 151.709 27.1901C151.529 27.9501 151.179 28.6901 150.849 29.4001C150.519 30.1001 150.079 30.7601 149.729 31.4501C149.149 32.6101 148.039 32.9001 147.089 32.0101C146.529 31.4801 146.029 30.7901 145.739 30.0801C145.219 28.8101 144.809 27.4801 144.469 26.1501C144.039 24.5001 143.719 22.8201 143.369 21.1401C143.309 20.8601 143.329 20.5401 143.379 20.2501C143.449 19.8601 143.769 19.7201 144.079 19.9601C144.309 20.1401 144.529 20.4101 144.629 20.6901C145.269 22.3701 145.819 24.0801 146.499 25.7301C146.949 26.8201 147.569 27.8501 148.109 28.9001C148.189 28.9001 148.269 28.9001 148.349 28.9001V28.9101Z" fill="white"/>
<path d="M58.4591 35.89C58.3091 36.41 58.1991 36.86 58.0591 37.29C58.0191 37.4 57.8691 37.52 57.7491 37.55C56.3391 37.86 54.9291 38.14 53.4791 38.44C55.8091 33.43 55.5491 28.54 52.6191 23.74C52.9891 23.53 53.3591 23.33 53.7191 23.1C54.0591 22.89 54.4191 22.7 54.7091 22.43C55.3291 21.86 55.2891 21.1 54.6291 20.58C54.3191 20.34 53.9391 20.18 53.5791 20.01C52.7191 19.62 51.8491 19.24 50.9791 18.86C50.7891 18.78 50.6091 18.67 50.3691 18.54C51.0791 18.49 51.7191 18.46 52.3591 18.41C52.5391 18.4 52.7491 18.37 52.8891 18.27C53.3791 17.92 53.6691 18.17 53.9991 18.53C55.4891 20.17 56.6791 22 57.4891 24.07C57.5591 24.24 57.5891 24.46 57.5391 24.63C56.7491 27.3 56.5291 30.05 56.4491 32.81C56.4291 33.38 56.3791 33.95 56.4491 34.5C56.5091 34.94 56.6691 35.42 56.9291 35.77C57.2991 36.27 57.8491 36.19 58.4391 35.87L58.4591 35.89Z" fill="white"/>
<path d="M121.76 23.71C122.05 20.97 122.32 18.23 122.63 15.49C122.69 14.97 122.89 14.46 123.06 13.96C123.13 13.75 123.25 13.5 123.42 13.37C123.62 13.22 123.93 13.09 124.16 13.14C124.31 13.17 124.5 13.51 124.5 13.71C124.53 14.77 124.55 15.84 124.5 16.9C124.35 19.94 124.31 22.98 124.68 26.01C124.81 27.08 125.11 28.12 125.25 29.19C125.35 29.97 125.37 30.77 125.31 31.56C125.28 32.02 125.03 32.46 124.44 32.5C123.84 32.54 123.19 32.1 122.97 31.61C121.8 29.09 121.9 26.4 121.91 23.72C121.86 23.72 121.81 23.72 121.77 23.71H121.76Z" fill="white"/>
<path d="M141.659 22.09C141.579 24.05 141.939 25.96 142.249 27.88C142.479 29.3 142.429 30.69 141.689 31.98C141.309 32.64 140.729 32.69 140.429 31.99C140.089 31.19 139.839 30.33 139.739 29.47C139.349 26.17 139.379 22.87 139.999 19.59C140.119 18.94 140.369 18.62 140.759 18.63C141.179 18.63 141.439 19 141.489 19.66C141.549 20.47 141.599 21.28 141.659 22.09Z" fill="white"/>
<path d="M94.2804 27.8C94.1004 28.75 93.9904 29.73 93.7204 30.66C93.4404 31.63 92.6404 32.15 91.7204 32.45C91.1304 32.65 90.7904 32.38 90.8904 31.75C90.9904 31.13 91.1504 30.51 91.3904 29.93C91.9804 28.47 92.6304 27.03 93.2604 25.59C93.2804 25.54 93.3004 25.49 93.3304 25.46C93.4704 25.33 93.6104 25.21 93.7604 25.09C93.8504 25.25 94.0004 25.41 94.0104 25.58C94.0804 26.31 94.1204 27.04 94.1604 27.77C94.2004 27.77 94.2304 27.79 94.2704 27.8H94.2804Z" fill="white"/>
<path d="M96.6194 17.11C96.6794 16.2 96.9894 15.73 97.8394 15.44C98.2294 15.31 98.6394 15.23 99.0494 15.17C99.5594 15.1 99.7994 15.31 99.8194 15.83C99.8294 16.16 99.7994 16.5 99.7294 16.82C99.4494 18.06 98.9494 19.22 98.1894 20.24C98.0594 20.41 97.7894 20.65 97.6594 20.61C97.4694 20.55 97.2794 20.29 97.2294 20.08C96.9994 19.1 96.8094 18.1101 96.6094 17.1201L96.6194 17.11Z" fill="white"/>
<path d="M63.3502 32.0601C64.0402 32.8501 64.7702 33.6601 65.4902 34.4901C65.5602 34.5701 65.6302 34.7001 65.6202 34.7901C65.4302 36.0001 65.2202 37.2101 65.0202 38.3801C64.2102 37.9601 63.4702 37.5701 62.7402 37.1901C62.9402 35.5301 63.1402 33.7901 63.3402 32.0601H63.3502Z" fill="white"/>
<path d="M140.189 46.91C139.859 46.93 139.499 47.07 139.539 46.45C138.919 46.98 138.269 47.18 137.519 47.03C136.949 46.92 136.509 46.62 136.159 46.17C135.459 45.25 135.539 43.84 136.329 43C137.149 42.12 138.329 42.06 139.539 42.89V40.72H140.179V46.9L140.189 46.91ZM139.619 44.67C139.619 43.68 138.889 42.92 137.949 42.94C137.029 42.96 136.389 43.69 136.389 44.71C136.389 45.72 137.069 46.44 137.989 46.43C138.939 46.42 139.629 45.68 139.619 44.67Z" fill="white"/>
<path d="M149.379 22.1299C149.189 22.6699 148.909 23.5999 148.519 24.4899C148.279 25.0299 147.899 25.0099 147.619 24.4899C147.029 23.3699 146.759 22.1599 146.619 20.9199C146.559 20.4199 146.849 20.1499 147.309 20.0299C148.629 19.6999 149.389 20.3199 149.379 22.1299Z" fill="white"/>
<path d="M99.2705 44.84H95.7005C95.7005 45.47 95.9005 45.95 96.4105 46.22C97.2905 46.69 98.1105 46.44 98.8705 45.89C98.9805 46.62 98.9505 46.67 98.2905 46.92C97.2905 47.29 96.1405 47.1 95.5605 46.41C94.8405 45.56 94.8105 44.58 95.2005 43.6C95.6005 42.59 96.7105 42.11 97.8105 42.39C98.7705 42.64 99.3905 43.63 99.2705 44.84ZM98.5105 44.21C98.5105 43.49 97.9705 42.98 97.2305 42.98C96.4205 42.98 95.7905 43.51 95.7905 44.21H98.5105Z" fill="white"/>
<path d="M145.649 44.84H142.109C142.069 45.45 142.289 45.89 142.749 46.19C143.389 46.62 144.139 46.54 145.269 45.93C145.439 46.44 145.239 46.72 144.749 46.9C143.759 47.27 142.579 47.09 141.959 46.42C141.329 45.74 141.179 44.41 141.619 43.51C142.089 42.55 143.229 42.08 144.289 42.4C145.229 42.69 145.799 43.69 145.649 44.83V44.84ZM144.969 44.21C144.809 43.35 144.279 42.93 143.489 42.98C142.779 43.02 142.229 43.53 142.169 44.21H144.969Z" fill="white"/>
<path d="M173.091 45.91C173.281 46.5 173.021 46.75 172.541 46.92C171.501 47.28 170.381 47.11 169.771 46.39C169.051 45.54 169.031 44.56 169.431 43.58C169.821 42.6 170.981 42.1 172.051 42.39C173.021 42.65 173.611 43.64 173.461 44.82H169.921C169.901 45.43 170.101 45.9 170.561 46.17C171.441 46.7 172.271 46.44 173.081 45.9L173.091 45.91ZM172.751 44.21C172.721 43.42 172.131 42.93 171.301 42.98C170.571 43.02 169.991 43.57 170.031 44.21H172.751Z" fill="white"/>
<path d="M90.8497 46.91H90.1797V40.74H90.8397V42.82C91.3597 42.67 91.8397 42.43 92.3297 42.4C93.1297 42.35 93.7697 42.91 93.8097 43.71C93.8697 44.77 93.8197 45.83 93.8197 46.91H93.1497C93.1497 46.04 93.1497 45.2 93.1497 44.36C93.1497 43.47 92.7597 43 92.0497 43.01C91.3197 43.01 90.8597 43.55 90.8597 44.38C90.8597 45.21 90.8597 46.04 90.8597 46.92L90.8497 46.91Z" fill="white"/>
<path d="M150.58 44.71C150.58 43.34 151.6 42.3 152.97 42.3C154.31 42.3 155.39 43.37 155.38 44.71C155.38 46.04 154.34 47.08 153 47.09C151.63 47.11 150.59 46.08 150.58 44.71ZM154.68 44.68C154.68 43.68 153.94 42.93 152.95 42.94C152 42.94 151.26 43.7 151.26 44.67C151.26 45.67 151.98 46.43 152.97 46.43C153.95 46.43 154.68 45.68 154.68 44.68Z" fill="white"/>
<path d="M112.461 46.9V42.47H113.091C113.111 42.62 113.141 42.77 113.171 42.98C113.631 42.52 114.151 42.31 114.771 42.37C115.561 42.44 116.171 42.97 116.201 43.77C116.241 44.8 116.211 45.83 116.211 46.9H115.531C115.531 46.02 115.531 45.16 115.531 44.3C115.531 43.46 115.101 42.99 114.371 43C113.631 43.01 113.141 43.53 113.141 44.33C113.141 45.18 113.141 46.02 113.141 46.9H112.461Z" fill="white"/>
<path d="M121.3 46.91H120.63C120.63 45.98 120.65 45.07 120.63 44.17C120.6 43.2 119.7 42.7 118.85 43.16C118.41 43.4 118.22 43.78 118.22 44.27C118.22 45.13 118.22 46 118.22 46.9H117.52V42.48H118.19C118.21 42.63 118.23 42.78 118.25 43C118.68 42.54 119.18 42.33 119.78 42.37C120.61 42.42 121.24 42.92 121.29 43.75C121.35 44.79 121.3 45.84 121.3 46.91Z" fill="white"/>
<path d="M139.99 15.62C140.03 15.28 140.04 14.92 140.12 14.59C140.32 13.83 140.99 13.45 141.68 13.74C141.89 13.83 142.12 14.07 142.17 14.29C142.44 15.4 142.18 16.43 141.56 17.37C141.11 18.06 140.6 18.02 140.31 17.27C140.11 16.76 140.04 16.19 139.91 15.65C139.93 15.65 139.95 15.63 139.98 15.62H139.99Z" fill="white"/>
<path d="M110.5 42.47H111.12C111.12 43.54 111.19 44.59 111.1 45.62C111.03 46.53 110.18 47.1 109.18 47.05C108.16 47.01 107.48 46.45 107.42 45.5C107.36 44.51 107.41 43.51 107.41 42.47H108.08C108.08 43.37 108.07 44.26 108.08 45.16C108.09 46 108.55 46.43 109.37 46.39C109.97 46.36 110.38 46.03 110.45 45.42C110.52 44.79 110.5 44.16 110.51 43.53C110.51 43.18 110.51 42.84 110.51 42.46L110.5 42.47Z" fill="white"/>
<path d="M123.06 48.61C123.22 48.21 123.36 47.81 123.56 47.43C123.72 47.11 123.72 46.82 123.58 46.49C123.1 45.33 122.64 44.15 122.18 42.97C122.12 42.82 122.07 42.67 122.01 42.5C122.45 42.35 122.7 42.44 122.86 42.9C123.17 43.79 123.55 44.66 123.9 45.54C123.96 45.69 124.03 45.83 124.14 46.08C124.6 44.96 125.03 43.95 125.45 42.93C125.603 42.5633 125.9 42.4233 126.34 42.51C125.94 43.45 125.55 44.37 125.15 45.3C124.74 46.26 124.31 47.22 123.94 48.19C123.78 48.62 123.55 48.77 123.07 48.61H123.06Z" fill="white"/>
<path d="M105.91 43.14C105.51 43.08 105.14 42.96 104.77 42.98C104.58 42.98 104.28 43.2 104.24 43.37C104.2 43.54 104.37 43.84 104.54 43.96C104.97 44.27 105.47 44.47 105.9 44.78C106.61 45.29 106.58 46.26 105.87 46.77C105.29 47.19 103.91 47.13 103.43 46.61C103.27 46.44 103.28 46.12 103.24 45.93C103.83 46.09 104.36 46.28 104.91 46.37C105.24 46.43 105.59 46.3 105.7 45.91C105.8 45.52 105.56 45.28 105.26 45.1C104.91 44.9 104.55 44.73 104.21 44.53C103.6 44.17 103.38 43.7 103.54 43.12C103.66 42.65 104.15 42.32 104.78 42.29C104.96 42.29 105.15 42.29 105.33 42.33C105.94 42.45 105.98 42.52 105.92 43.13L105.91 43.14Z" fill="white"/>
<path d="M132.331 43.15C131.931 43.08 131.561 42.97 131.201 42.98C131.001 42.98 130.701 43.19 130.661 43.36C130.621 43.53 130.791 43.83 130.961 43.96C131.291 44.21 131.681 44.36 132.041 44.58C132.681 44.97 132.941 45.48 132.821 46.05C132.691 46.62 132.231 47 131.491 47.04C131.121 47.06 130.721 47.01 130.371 46.9C129.701 46.69 129.661 46.58 129.741 45.96C130.271 46.11 130.801 46.3 131.351 46.39C131.681 46.45 132.021 46.32 132.141 45.93C132.251 45.54 132.011 45.3 131.711 45.12C131.341 44.9 130.941 44.72 130.581 44.49C130.041 44.16 129.841 43.71 129.971 43.2C130.091 42.71 130.501 42.37 131.111 42.31C131.321 42.29 131.541 42.3 131.751 42.33C132.361 42.44 132.411 42.52 132.361 43.14L132.331 43.15Z" fill="white"/>
<path d="M157.61 42.41C157.84 42.43 158.09 42.45 158.36 42.47V43.05C158.11 43.06 157.86 43.08 157.56 43.1V46.9H156.89V43.12C156.63 43.09 156.42 43.07 156.18 43.05V42.49C156.39 42.47 156.6 42.44 156.81 42.42C156.77 42.4 156.73 42.37 156.69 42.35C156.91 41.84 157.03 41.25 157.37 40.85C157.58 40.6 158.11 40.63 158.56 40.53V41.24C157.62 41.24 157.43 41.47 157.61 42.43V42.41Z" fill="white"/>
<path d="M166.33 42.47C166.53 42.45 166.73 42.44 166.96 42.42C167.05 41.85 166.92 41.16 167.52 40.82C167.84 40.64 168.26 40.62 168.7 40.52V41.2C167.74 41.26 167.59 41.46 167.74 42.42C167.98 42.44 168.22 42.45 168.5 42.47V43.05C168.25 43.07 168.01 43.08 167.72 43.1V46.9H167.01V43.1C166.76 43.09 166.57 43.07 166.33 43.06V42.47Z" fill="white"/>
<path d="M87.4391 43.11C87.2091 43.09 87.0591 43.07 86.8691 43.05V42.48C87.0391 42.45 87.1991 42.43 87.4091 42.4V40.74H88.0591V42.41C88.4091 42.43 88.6991 42.45 89.0391 42.47V43.06C88.7391 43.08 88.4491 43.09 88.0891 43.11V46.92H87.4391V43.12V43.11Z" fill="white"/>
<path d="M169.531 29.1C168.681 29.07 167.401 28.03 167.181 27.18C167.081 26.8 167.211 26.58 167.611 26.52C168.561 26.38 169.891 27.16 170.231 28.06C170.451 28.63 170.121 29.12 169.521 29.1H169.531Z" fill="white"/>
<path d="M163.11 46.91H162.5V40.74H163.11V46.91Z" fill="white"/>
<path d="M165.149 46.91H164.529V42.46H165.149V46.91Z" fill="white"/>
<path d="M133.9 42.47H134.5V46.9H133.9V42.47Z" fill="white"/>
<path d="M164.919 40.72C165.039 40.9 165.259 41.08 165.259 41.25C165.259 41.4 165.009 41.66 164.859 41.66C164.709 41.66 164.439 41.43 164.419 41.29C164.399 41.11 164.599 40.92 164.709 40.73C164.779 40.73 164.849 40.73 164.929 40.73L164.919 40.72Z" fill="white"/>
<path d="M134.179 40.6C134.399 40.9 134.639 41.08 134.619 41.23C134.589 41.41 134.369 41.64 134.199 41.68C134.079 41.7 133.789 41.44 133.779 41.29C133.779 41.11 133.979 40.92 134.189 40.6H134.179Z" fill="white"/>
<path d="M132.16 28.9299C131.74 28.8499 131.3 28.8099 130.89 28.6799C130.35 28.5199 130.15 28.1499 130.26 27.6099C130.47 26.6399 130.88 25.7799 131.72 25.1999C132.29 24.7999 132.57 24.8699 132.82 25.4999C133.07 26.1399 133.33 26.8099 133.43 27.4799C133.57 28.4199 133.06 28.9299 132.15 28.9299H132.16Z" fill="white"/>
<path d="M115.22 28.9C115.02 28.9 114.82 28.92 114.62 28.9C113.49 28.77 112.82 27.92 112.94 26.8C113 26.22 114.17 25.05 114.76 25.05C114.97 25.05 115.24 25.2001 115.38 25.3701C115.55 25.5801 115.62 25.87 115.71 26.14C115.92 26.73 116.09 27.33 116.32 27.92C116.6 28.62 116.46 28.88 115.71 28.92C115.54 28.92 115.38 28.92 115.21 28.92C115.21 28.92 115.21 28.92 115.21 28.91L115.22 28.9Z" fill="white"/>
<path d="M157.541 25.61C157.431 25.34 157.301 25.17 157.331 25.08C157.661 24.28 158.111 23.53 158.891 23.09C159.091 22.98 159.431 22.96 159.651 23.05C159.921 23.15 160.231 23.37 160.321 23.62C160.381 23.78 160.151 24.17 159.951 24.3C159.211 24.75 158.431 25.13 157.531 25.61H157.541Z" fill="white"/>
</g>
<defs>
<clipPath id="clip0_420_4460">
<rect width="173.81" height="57.3" fill="white"/>
</clipPath>
</defs>
</svg>
