<svg width="1000" height="506" viewBox="0 0 1000 506" fill="none" xmlns="http://www.w3.org/2000/svg">
<g clip-path="url(#clip0_431_4185)">
<path d="M347.653 318.623H336.147V326.161H348.825L348.248 329.804H331.639V304.881H348.139V308.542H336.147V314.962H347.653V318.623ZM365.65 322.554C366.065 325.151 367.868 326.648 370.772 326.648C373.801 326.648 375.19 325.313 375.19 323.203C375.19 320.769 373.783 319.759 369.726 318.623C363.865 317.036 361.791 315.07 361.791 311.482C361.791 307.081 365.416 304.539 370.357 304.539C376.398 304.539 378.977 307.676 379.265 311.518H374.721C374.378 309.444 373.224 307.965 370.285 307.965C367.688 307.965 366.426 309.137 366.426 311.067C366.426 313.087 367.742 313.754 371.619 314.836C378.22 316.693 379.897 319.182 379.897 322.698C379.897 326.792 377.011 330.11 370.555 330.11C364.947 330.11 361.412 327.351 361.07 322.554H365.65ZM398.327 308.542H391.059V304.863H410.283V308.542H402.998V329.786H398.345V308.542H398.327ZM423.249 304.881H432.14C439.624 304.881 444.223 309.317 444.223 316.783C444.223 324.899 439.696 329.804 431.851 329.804H423.231V304.881H423.249ZM427.884 326.287H431.761C436.847 326.287 439.444 322.789 439.444 316.856C439.444 311.734 436.793 308.416 431.797 308.416H427.884V326.287ZM577.491 329.804V310.021C576.643 310.273 574.497 310.58 573.686 310.616V307.37C575.652 307.117 577.689 306.144 578.916 304.917H582.072V329.786H577.491V329.804ZM596.661 322.626C596.661 319.146 599.023 317.342 600.772 316.603C598.843 315.665 597.598 313.754 597.598 311.337C597.598 307.352 600.538 304.611 605.804 304.611C610.547 304.611 613.757 307.171 613.757 311.193C613.757 313.934 612.278 315.611 610.474 316.405C612.44 317.09 614.604 319.146 614.604 322.5C614.604 327.315 611.268 330.182 605.407 330.182C599.69 330.164 596.661 326.792 596.661 322.626ZM609.988 322.482C609.988 319.759 608.328 318.244 605.605 318.244C602.486 318.244 601.259 320.156 601.259 322.482C601.259 324.899 602.774 326.792 605.714 326.792C608.527 326.81 609.988 325.043 609.988 322.482ZM601.981 311.391C601.981 313.465 603.189 314.926 605.696 314.926C608.058 314.926 609.374 313.682 609.374 311.518C609.374 309.317 608.076 307.929 605.677 307.929C603.207 307.929 601.981 309.335 601.981 311.391ZM628.093 311.572C628.49 308.127 630.708 304.611 636.497 304.611C642.25 304.611 644.612 307.712 644.612 311.121C644.612 313.988 642.7 315.557 641.168 316.152V316.224C643.35 316.928 645.676 318.659 645.676 322.41C645.676 326.143 643.169 330.146 636.425 330.146C630.438 330.146 627.859 326.792 627.57 323.095H632.061C632.475 325.079 633.684 326.702 636.623 326.702C639.743 326.702 640.951 324.862 640.951 322.482C640.951 319.47 639.094 318.298 635.992 318.298H634.08V314.818H635.703C638.571 314.818 639.977 313.934 639.977 311.409C639.977 309.227 638.679 308.001 636.317 308.001C633.9 308.001 632.674 309.281 632.313 311.59H628.093V311.572ZM676.676 316.783C676.676 323.726 674.854 330.182 667.713 330.182C660.446 330.182 658.696 323.744 658.696 316.982C658.696 310.309 661.275 304.629 667.785 304.629C674.404 304.611 676.676 309.877 676.676 316.783ZM663.403 316.855C663.403 322.807 664.359 326.756 667.731 326.756C671.284 326.756 672.005 322.698 672.005 316.855C672.005 311.481 670.995 308.001 667.803 308.001C664.539 308.001 663.403 311.283 663.403 316.855Z" fill="white"/>
<path d="M232.218 482.62L197.774 387.475H154.078V390.956C154.078 390.956 154.547 390.811 155.323 390.811C156.423 390.811 158.136 391.1 160.084 392.47C164.069 395.284 165.53 400.549 164.015 405.202L142.248 471.728C135.63 491.439 130.184 499.428 120.662 500.221V502.962H164.141V500.257C158.551 500.257 144.539 490.393 149.786 472.486C150.255 470.899 151.121 468.085 152.203 464.551H189.478L197.431 486.173C198.315 488.517 199 490.699 199 492.286C199 497.065 195.249 500.275 189.659 500.275V502.98H250.721V500.203C242.335 499.644 238.386 495.677 232.218 482.62ZM141.202 488.085C141.509 487.472 141.798 486.84 142.086 486.191C142.483 487.886 143.042 489.545 143.763 491.132C143.781 491.186 143.817 491.241 143.853 491.295H139.525C140.102 490.267 140.661 489.203 141.202 488.085ZM149.083 498.616H134.259C134.638 498.238 134.999 497.841 135.359 497.426C136.081 496.578 136.784 495.659 137.451 494.685H145.819C146.035 495.01 146.234 495.334 146.468 495.659C147.262 496.705 148.145 497.697 149.083 498.616ZM222.336 491.295H204.05C204.013 490.862 203.959 490.411 203.869 489.924C203.815 489.636 203.743 489.347 203.671 489.04C203.527 488.427 203.328 487.76 203.094 487.039C202.986 486.714 202.877 486.389 202.751 486.029H219.594C220.424 487.742 221.236 489.329 222.047 490.79C222.227 491.132 222.426 491.457 222.336 491.295ZM202.553 439.484H185.637L183.708 434.236H200.641L202.553 439.484ZM199.415 430.846H182.463L180.534 425.598H197.521L199.415 430.846ZM196.295 422.208H179.289L177.36 416.96H194.402L196.295 422.208ZM193.175 413.57H176.115L174.979 410.468L174.186 408.322H191.282L193.175 413.57ZM190.055 404.95H172.942L171.896 402.118C171.589 401.307 171.282 400.495 170.94 399.702H188.162L190.055 404.95ZM185.313 391.839L186.936 396.312H169.281C168.956 395.716 168.632 395.139 168.289 394.58C167.946 394.003 167.586 393.444 167.189 392.903C166.936 392.543 166.666 392.182 166.413 391.857H185.313V391.839ZM154.998 455.606C159.903 439.899 169.371 409.837 169.371 409.837L186.196 455.606H154.998ZM188.811 448.122L186.882 442.874H203.761L205.655 448.122H188.811ZM190.055 451.494H206.899L208.792 456.742H191.985L190.055 451.494ZM193.229 460.133H210.019L211.912 465.38H195.159L193.229 460.133ZM198.351 474.018L196.421 468.771H213.157L215.05 474.018H198.351ZM199.595 477.409H216.276L218.17 482.657H201.525L199.595 477.409ZM227.547 498.616H202.336C202.895 497.715 203.346 496.723 203.635 495.659C203.725 495.352 203.779 495.01 203.833 494.685H224.409C224.301 494.505 226.321 497.336 227.547 498.616Z" fill="white"/>
<path d="M122.07 370.127H0V416.004H3.20998C5.95109 398.656 21.6764 374.906 43.2627 374.617V477.463C43.2627 488.842 42.3429 493.062 39.1329 496.326C36.7345 498.598 34.0294 499.554 28.4751 499.824V502.962H92.7108V499.824C87.1565 499.536 84.4334 498.58 82.0349 496.308C78.861 493.062 77.9233 488.842 77.9233 477.463V374.599H78.4282C100.213 374.599 116.1 398.548 118.86 416.004H122.033V370.127H122.07ZM6.58229 387.673H5.21171V382.426H10.8382C9.34143 383.976 7.89874 385.708 6.58229 387.673ZM14.3007 379.035H5.21171V374.599H19.2238C17.6369 376.078 15.9598 377.52 14.3007 379.035ZM49.0695 374.978H64.0734V379.035H49.0695V374.978ZM49.0695 382.426H64.0734V387.673H49.0695V382.426ZM49.0695 391.064H64.0734V396.311H49.0695V391.064ZM49.0695 399.684H64.0734V404.932H49.0695V399.684ZM49.0695 408.322H64.0734V413.57H49.0695V408.322ZM49.0695 416.96H64.0734V422.208H49.0695V416.96ZM49.0695 425.598H64.0734V430.846H49.0695V425.598ZM49.0695 434.236H64.0734V439.484H49.0695V434.236ZM49.0695 442.874H64.0734V448.122H49.0695V442.874ZM49.0695 451.494H64.0734V456.742H49.0695V451.494ZM49.0695 460.132H64.0734V465.38H49.0695V460.132ZM49.0695 468.771H64.0734V474.018H49.0695V468.771ZM49.0695 480.15V477.391H64.0734V482.638H49.0334C49.0514 481.863 49.0695 481.033 49.0695 480.15ZM48.8531 486.047H64.0915C64.1095 488.211 64.1636 489.906 64.3079 491.295H48.0235C48.4203 489.762 48.6908 488.049 48.8531 486.047ZM43.6594 498.923C44.9578 497.588 45.9677 496.236 46.7431 494.685H64.9571C65.426 496.091 66.1112 497.336 67.1572 498.923H43.6594ZM95.1454 374.599H111.267V379.035H101.98C99.6357 377.214 97.2733 375.735 95.1454 374.599ZM105.857 382.426H111.267V387.673H110.258C108.923 385.744 107.444 383.976 105.857 382.426Z" fill="white"/>
<path d="M380.834 390.162C393.331 390.36 395.604 393.498 395.604 408.845V481.574C395.604 496.921 393.331 500.059 380.834 500.257V502.944H442.004V500.257C429.507 500.059 427.234 496.921 427.234 481.574V408.845C427.234 393.498 429.507 390.36 442.004 390.162V387.475H380.834V390.162ZM400.96 468.771H414.431V474.018H400.96V468.771ZM400.96 465.38V460.133H414.431V465.38H400.96ZM400.96 456.76V451.512H414.431V456.76H400.96ZM400.96 448.122V442.874H414.431V448.122H400.96ZM400.96 439.484V434.236H414.431V439.484H400.96ZM400.96 430.846V425.598H414.431V430.846H400.96ZM400.96 422.208V416.96H414.431V422.208H400.96ZM400.96 413.57V408.322H414.431V413.57H400.96ZM400.96 477.409H414.431V482.657H400.96V477.409ZM414.431 404.95H400.942C400.887 402.966 400.779 401.217 400.563 399.702H414.503C414.485 400.261 414.467 400.856 414.467 401.505C414.467 402.209 414.449 402.984 414.449 403.832V404.95H414.431ZM400.905 486.047H414.431C414.431 488.247 414.449 489.924 414.539 491.295H400.382C400.653 489.78 400.833 488.067 400.905 486.047ZM399.805 396.312C399.318 394.761 398.669 393.48 397.84 392.344H416.108C415.837 392.849 415.603 393.336 415.404 393.823C415.278 394.148 415.17 394.49 415.062 394.833C414.863 395.536 414.719 396.294 414.629 397.213C414.665 396.889 414.701 396.6 414.755 396.312H399.805ZM397.75 497.606C398.435 496.723 398.976 495.749 399.427 494.685H415.008C415.008 494.703 415.008 494.721 415.026 494.721C415.134 495.136 415.26 495.532 415.404 495.929C415.711 496.705 416.09 497.444 416.595 498.274C416.721 498.49 416.847 498.706 416.991 498.923H396.631C397.028 498.49 397.407 498.057 397.75 497.606Z" fill="white"/>
<path d="M932.59 500.293H932.428C918.686 500.293 916.27 497.498 916.27 481.593V478.328C916.27 469.546 920.471 461.287 927.577 456.111L927.649 456.057L951.778 494.775C954.952 499.879 960.524 502.962 966.529 502.962H1000V500.275C991.29 500.077 987.953 496.074 982.597 487.273L957.999 448.771C971.741 442.856 983.445 430.071 983.445 415.319C983.445 404.21 977.945 395.464 969.649 391.803C962.688 388.611 953.978 387.475 942.689 387.475H869.869V390.162C882.366 390.36 884.639 393.498 884.639 408.845V481.574C884.639 496.921 882.366 500.059 869.869 500.257V502.944H932.59V500.293ZM931.761 453.172C931.761 453.172 932.464 452.576 933.618 451.512H945.376L948.784 456.76H933.997L931.761 453.172ZM936.99 448.122C938.379 446.643 939.93 444.876 941.517 442.874H957.657C953.112 445.615 948.171 447.22 943.861 448.122H936.99ZM936.125 460.133H950.984L954.393 465.38H939.425L936.125 460.133ZM976.159 498.923H967.81C964.077 498.923 960.578 497.354 958.09 494.685H973.4L976.159 498.923ZM971.218 491.295H955.655L952.355 486.047H967.792L971.218 491.295ZM965.61 482.657H950.245L946.945 477.409H962.201L965.61 482.657ZM960.001 474.018H944.835L941.535 468.771H956.593L960.001 474.018ZM962.309 439.484H944.023C945.159 437.843 946.278 436.076 947.287 434.236H966.944C965.592 436.22 964.023 437.969 962.309 439.484ZM968.946 430.846H949.001C949.776 429.151 950.461 427.401 951.02 425.598H970.857C970.37 427.492 969.721 429.241 968.946 430.846ZM971.579 422.208H951.904C952.265 420.495 952.481 418.727 952.553 416.96H972.03C971.994 418.818 971.831 420.549 971.579 422.208ZM971.885 413.57H952.481C952.373 411.748 952.175 409.981 951.85 408.322H970.785C971.308 409.981 971.687 411.748 971.885 413.57ZM969.451 404.95H950.966C950.389 403.092 949.65 401.343 948.748 399.702H965.97C967.341 401.253 968.513 403.002 969.451 404.95ZM950.407 392.326C954.753 392.326 958.865 393.769 962.328 396.294H946.494C945.43 394.887 944.24 393.552 942.905 392.308L950.407 392.326ZM916.252 393.047H924.89C938.199 393.047 946.205 400.441 946.205 416.04C946.205 436.472 922.996 453.55 916.252 458.077V393.047ZM889.977 477.409H903.448V482.657H889.977V477.409ZM889.977 474.018V468.771H903.448V474.018H889.977ZM889.977 465.38V460.133H903.448V465.38H889.977ZM889.977 456.76V451.512H903.448V456.76H889.977ZM889.977 448.122V442.874H903.448V448.122H889.977ZM889.977 439.484V434.236H903.448V439.484H889.977ZM889.977 430.846V425.598H903.448V430.846H889.977ZM889.977 422.208V416.96H903.448V422.208H889.977ZM889.977 413.57V408.322H903.448V413.57H889.977ZM889.959 404.95C889.941 403.976 889.905 403.056 889.832 402.191C889.778 401.325 889.688 400.531 889.58 399.774C889.58 399.738 889.562 399.72 889.562 399.684H903.448V404.932H889.959V404.95ZM889.544 491.168C889.652 490.429 889.742 489.636 889.814 488.788C889.886 487.94 889.923 487.021 889.959 486.047H903.466V486.642C903.466 488.535 903.484 490.05 903.538 491.313H889.526C889.526 491.24 889.526 491.204 889.544 491.168ZM903.448 392.326V396.294H888.841C888.678 395.771 888.498 395.302 888.3 394.833C888.101 394.364 887.885 393.931 887.65 393.516C887.416 393.102 887.163 392.705 886.875 392.326H903.448ZM886.226 498.923C887.29 497.697 888.083 496.362 888.66 494.775C888.678 494.739 888.678 494.703 888.696 494.685H903.881C904.187 496.272 904.71 497.444 905.594 498.923H886.226Z" fill="white"/>
<path d="M318.617 496.669H307.256V408.863C307.256 393.516 309.528 390.379 322.026 390.18V387.493H260.855V390.18C273.353 390.379 275.625 393.516 275.625 408.863V481.593C275.625 496.939 273.353 500.077 260.855 500.275V502.962H369.869V467.797H366.983C358.273 480.835 345.181 496.669 318.617 496.669ZM294.434 498.923H277.501C278.132 498.22 278.673 497.39 279.124 496.434C279.376 495.893 279.592 495.298 279.791 494.667H294.452V498.923H294.434ZM294.434 491.295H280.494C280.711 489.762 280.855 488.049 280.909 486.047H294.416V491.295H294.434ZM294.434 482.657H280.963V477.409H294.434V482.657ZM294.434 474.018H280.963V468.771H294.434V474.018ZM294.434 465.38H280.963V460.133H294.434V465.38ZM294.434 456.76H280.963V451.512H294.434V456.76ZM294.434 448.122H280.963V442.874H294.434V448.122ZM294.434 439.484H280.963V434.236H294.434V439.484ZM294.434 430.846H280.963V425.598H294.434V430.846ZM294.434 422.208H280.963V416.96H294.434V422.208ZM294.434 413.57H280.963V408.322H294.434V413.57ZM294.434 404.95H280.909C280.837 402.93 280.674 401.217 280.476 399.702H294.56C294.47 401.054 294.452 402.75 294.434 404.95ZM295.913 394.184C295.624 394.761 295.372 395.32 295.191 395.915C295.155 396.041 295.119 396.167 295.083 396.294H279.845C279.719 395.807 279.61 395.338 279.466 394.905C279.178 393.931 278.853 393.084 278.51 392.326H296.977C296.562 393.011 296.219 393.607 295.913 394.184ZM357.804 491.295V498.923H336.597C338.652 498.328 340.636 497.642 342.566 496.849C343.341 496.524 344.117 496.182 344.874 495.821C345.631 495.46 346.371 495.082 347.11 494.685H357.822L357.804 491.295H352.34C354.27 489.816 356.109 488.175 357.804 486.245V491.295Z" fill="white"/>
<path d="M500.432 500.041C509.683 502.962 519.313 505.325 534.552 505.325C559.907 505.325 575.037 491.529 575.037 467.599C575.037 455.372 571.034 446.77 563.46 440.674C557.851 436.184 546.742 431.73 535.165 429.331L512.19 424.823C500.865 422.551 496.717 420.801 492.227 418.15C488.133 415.752 485.482 411.117 485.482 406.374C485.482 395.554 495.996 390.252 509.341 390.252C527.807 390.252 550.259 396.492 561.981 419.521H565.245V387.187H564.019C550.8 395.392 529.917 385.491 508.908 385.491C484.851 385.491 467.395 402.118 467.395 425.021C467.395 445.489 479.711 457.68 505.049 462.297L530.837 467.184C536.139 468.158 544.957 470.646 548.311 472.125C555.904 475.209 559.294 478.455 559.294 485.235C559.294 495.46 547.824 500.131 534.426 500.131C504.616 500.131 485.933 487.977 473.346 468.644H470.226V502.944H471.921C477.962 497.065 488.764 496.362 500.432 500.041ZM549.195 394.4C550.187 394.4 551.089 394.382 551.864 394.346C552.639 394.31 553.307 394.274 553.866 394.22C554.948 394.13 555.543 394.039 555.543 394.039V402.605C554.731 401.758 553.649 400.748 552.387 399.702C552.279 399.612 552.189 399.54 552.08 399.449C551.125 398.692 550.079 397.917 548.925 397.159C548.492 396.871 548.041 396.6 547.59 396.33C546.201 395.482 544.705 394.671 543.082 393.967C543.064 393.949 545.156 394.4 549.195 394.4ZM557.941 451.494C557.707 451.242 557.436 451.008 557.184 450.773C557.436 451.008 557.689 451.26 557.941 451.494ZM475.528 408.322H476.465C476.141 409.458 475.888 410.702 475.888 412.199C475.888 412.686 475.942 413.119 475.979 413.588H473.472C474.103 411.424 474.842 409.675 475.528 408.322ZM472.678 416.96H476.465C476.934 418.872 477.638 420.531 478.557 421.955C478.611 422.046 478.684 422.118 478.756 422.208H472.047C472.155 420.296 472.372 418.547 472.678 416.96ZM471.993 425.598H481.677C482.579 426.41 483.499 427.167 484.454 427.816C486.005 428.934 487.773 429.926 489.864 430.846H472.444C472.192 429.187 472.029 427.438 471.993 425.598ZM474.049 436.941C473.706 436.058 473.418 435.156 473.147 434.218H500.631C502.272 434.597 504.021 434.976 505.932 435.336L528.727 439.466H475.185C474.77 438.673 474.392 437.825 474.049 436.941ZM481.605 447.455C480.018 446.139 478.611 444.696 477.403 443.091C477.349 443.019 477.313 442.947 477.259 442.874H543.01C543.01 442.874 542.721 442.712 544.669 443.433C546.923 444.281 548.961 445.201 550.782 446.211C551.9 446.824 552.91 447.473 553.866 448.14H482.453C482.182 447.906 481.894 447.671 481.605 447.455ZM487.376 451.494H557.941C558.428 451.981 558.897 452.468 559.312 452.991C560.322 454.2 561.151 455.462 561.837 456.76H501.334C495.293 455.318 491.073 453.677 487.376 451.494ZM528.474 461.954L518.772 460.151H563.243C563.802 461.864 564.163 463.613 564.307 465.398H543.677C539.295 464.118 534.209 463 528.474 461.954ZM552.964 468.771H564.379C564.343 470.881 564.235 472.648 564.073 474.018H560.574C558.717 471.999 556.156 470.286 552.964 468.771ZM483.408 489.924C482.092 490.267 480.775 490.772 479.567 491.295C476.465 492.665 474.049 494.27 474.049 494.27V491.295V486.047V482.657V479.591C474.842 480.673 475.6 481.683 476.357 482.657C477.277 483.829 478.233 484.929 479.315 486.047C480.541 487.309 481.894 488.554 483.553 489.888L483.408 489.924Z" fill="white"/>
<path d="M723.888 496.236C718.839 491.872 714.637 484.406 707.478 474.109L688.092 446.373C684.395 441.071 678.335 437.915 671.861 437.915H668.345L676.316 429.511L690.057 414.417C702.645 401.036 714.15 390.144 728.09 390.144H728.577V387.475H673.971V390.144C682.177 390.144 684.503 394.562 684.503 402.551C684.503 408.556 682.303 413.371 676.009 420.116L644.414 453.965V408.845C644.414 393.498 646.686 390.36 659.184 390.162V387.475H598.014V390.162C610.511 390.36 612.783 393.498 612.783 408.845V481.574C612.783 496.921 610.511 500.059 598.014 500.257V502.944H659.184V500.257C646.668 500.059 644.414 496.921 644.414 481.556V474.541C644.414 467.454 647.065 460.601 651.844 455.372L653.828 453.19L683.655 495.569C686.901 500.185 692.203 502.944 697.848 502.944H734.24V500.275C729.407 500.293 727.008 498.923 723.888 496.236ZM691.608 404.95H690.328C690.4 404.264 690.436 403.705 690.436 403.11C690.436 401.902 690.4 400.784 690.274 399.702H695.539L691.608 404.95ZM701.094 392.326L698.1 396.294H689.606C689.462 395.825 689.282 395.374 689.065 394.905C688.669 394.057 688.182 393.192 687.551 392.326H701.094ZM633.323 392.326C633.143 392.669 632.981 392.993 632.837 393.318C632.548 393.967 632.314 394.634 632.151 395.356C632.061 395.716 631.989 396.113 631.935 396.546C631.953 396.456 631.953 396.384 631.971 396.294H617.526C617.292 395.266 616.967 394.346 616.534 393.516C616.318 393.102 616.065 392.705 615.795 392.326H633.323ZM618.175 474.018V468.771H631.646V474.018H618.175ZM631.646 477.409V482.657H618.175V477.409H631.646ZM618.175 465.38V460.133H631.646V465.38H618.175ZM618.175 456.76V451.512H631.646V456.76H618.175ZM618.175 448.122V442.874H631.646V448.122H618.175ZM618.175 439.484V434.236H631.646V439.484H618.175ZM618.175 430.846V425.598H631.646V430.846H618.175ZM618.175 422.208V416.96H631.646V422.208H618.175ZM618.175 413.57V408.322H631.646V413.57H618.175ZM618.157 404.95C618.157 403.85 618.139 402.786 618.103 401.83C618.085 401.072 618.031 400.369 617.995 399.684H631.7C631.664 400.838 631.646 402.191 631.646 403.814V404.932H618.157V404.95ZM618.139 486.047H631.646V486.642C631.646 488.535 631.664 490.05 631.718 491.313H617.706C617.941 489.78 618.085 488.049 618.139 486.047ZM614.424 498.923C615.506 497.678 616.3 496.308 616.877 494.685H632.061C632.368 496.272 632.891 497.444 633.774 498.923H614.424ZM663.728 443.794H665.261C666.397 443.794 667.515 443.938 668.597 444.191C671.158 444.822 673.484 446.193 675.324 448.104H659.616L663.728 443.794ZM659.49 451.494H677.903L681.581 456.742H663.133L659.49 451.494ZM665.477 460.133H683.944L687.623 465.38H669.12L665.477 460.133ZM671.465 468.771H689.985L693.664 474.018H675.107L671.465 468.771ZM677.452 477.409H696.026L699.705 482.657H681.094L677.452 477.409ZM683.439 486.047H702.068L705.746 491.295H687.082L683.439 486.047ZM699.309 498.923C695.594 498.923 692.095 497.354 689.606 494.685H708.109L711.084 498.923H699.309Z" fill="white"/>
<path d="M846.967 467.797C838.275 480.835 825.183 496.669 798.619 496.669H787.402V434.759H791.424C801.468 434.759 814.543 438.312 820.386 450.358H822.784V414.489H820.368C813.731 427.492 802.063 429.187 791.424 429.187H787.402V393.047H802.064C819.881 393.047 835.498 399.594 846.516 420.098H848.518V387.475H740.857V390.162C753.355 390.36 755.627 393.498 755.627 408.845V481.574C755.627 496.921 753.355 500.059 740.857 500.257V502.944H849.871V467.779H846.967V467.797ZM807.762 430.846C810.088 429.998 812.595 428.988 814.615 427.221V430.846V434.236V437.176C813.136 435.895 811.387 434.994 809.638 434.236C807.834 433.461 806.031 432.812 804.498 432.072C805.472 431.657 806.59 431.279 807.762 430.846ZM836.76 399.684H839.375V402.605C838.509 401.487 837.644 400.549 836.76 399.684ZM839.357 392.326V396.294H832.396C829.853 394.743 827.148 393.625 824.245 392.308L839.357 392.326ZM774.454 498.923H757.232C758.278 497.715 759.071 496.344 759.648 494.685H774.436V498.923H774.454ZM774.454 491.295H760.496C760.749 489.78 760.875 488.031 760.947 486.047H774.454V491.295ZM774.454 482.657H760.983V477.409H774.454V482.657ZM774.454 474.018H760.983V468.771H774.454V474.018ZM774.454 465.38H760.983V460.133H774.454V465.38ZM774.454 456.76H760.983V451.512H774.454V456.76ZM774.454 448.122H760.983V442.874H774.454V448.122ZM774.454 439.484H760.983V434.236H774.454V439.484ZM774.454 430.846H760.983V425.598H774.454V430.846ZM774.454 422.208H760.983V416.96H774.454V422.208ZM774.454 413.57H760.983V408.322H774.454V413.57ZM774.454 404.95H760.965C760.911 402.966 760.803 401.217 760.586 399.702H774.472V404.95H774.454ZM774.454 396.312H759.847C759.684 395.789 759.504 395.302 759.306 394.851C758.909 393.931 758.44 393.102 757.881 392.344H774.472V396.312H774.454ZM838.924 498.923H817.717C821.432 497.823 824.948 496.452 828.212 494.685H838.924V498.923ZM838.924 491.295H833.46C835.39 489.816 837.229 488.175 838.924 486.245V491.295Z" fill="white"/>
<path d="M595.2 226.886C594.803 225.786 593.83 224.992 593.216 224.109C592.73 223.423 592.423 222.594 591.738 222.125C590.493 221.277 588.456 221.999 587.175 222.323C585.552 222.72 583.983 222.017 582.414 222.413C580.124 223.008 579.727 224.541 576.571 224.397C576.265 224.09 575.904 223.802 575.58 223.513C575.652 221.836 577.221 222.035 578.249 221.331C578.591 221.097 578.753 220.628 579.042 220.34C579.006 219.203 578.339 218.951 577.653 218.464C577.004 218.013 576.445 217.436 575.58 217.184C574.84 216.967 574.245 217.256 573.506 217.274H570.729C569.683 217.526 568.763 217.959 567.861 218.266C567.302 218.446 566.833 218.374 566.274 218.554C565.427 218.825 564.561 219.312 563.695 219.546C562.74 219.798 561.928 219.456 561.026 219.835C560.179 220.195 559.476 220.862 558.754 221.313C558.087 221.728 557.402 221.963 556.771 222.395C555.184 223.513 553.687 224.83 552.01 225.858C551.072 226.435 549.9 226.2 548.637 226.543C547.718 226.796 546.726 227.246 545.968 227.733C543.732 229.158 540.432 233.324 537.24 233.288C536.988 233.035 536.717 232.747 536.447 232.494C536.555 231.268 537.655 230.979 538.43 230.42C539.332 229.753 539.873 228.797 540.612 227.95C540.522 227.228 540.198 227.138 539.819 226.759C538.07 226.886 537.366 228.455 536.248 229.23C535.166 229.987 533.724 230.222 532.587 230.907C531.686 231.448 530.802 232.422 529.81 232.783C527.899 233.504 524.4 231.863 524.058 230.601C523.372 229.609 525.067 226.471 525.536 225.84C525.5 224.271 524.382 223.568 523.462 222.864C522.795 222.359 522.2 221.638 521.479 221.187C520.343 220.484 518.539 220.123 517.115 219.798C515.762 219.492 514.734 220.628 513.346 220.087C511.723 219.456 509.955 218.374 508.386 217.707C507.683 217.418 506.908 217.562 506.114 217.31C505.158 217.003 504.112 216.21 503.337 215.633C502.002 214.641 501.281 212.856 499.965 211.864C498.901 211.07 497.584 210.583 496.502 209.79C495.582 209.123 495.005 208.149 493.725 207.806C492.697 207.518 491.471 207.968 490.858 208.203C488.08 209.213 487.071 211.088 484.816 212.26C483.302 212.747 481.769 213.252 480.254 213.739C478.883 213.775 478.721 213.469 478.072 212.856C478.072 210.998 479.28 210.926 480.344 210.187C481.3 209.519 481.895 208.383 482.815 207.716C483.68 207.085 484.816 206.959 485.195 205.84C485.736 204.975 484.293 203.46 484.113 202.667V200.683C483.951 199.98 483.392 199.078 483.626 198.104C483.861 197.076 484.456 195.94 483.716 194.93C482.905 193.794 482.021 194.209 480.452 193.848C479.442 193.614 478.09 192.928 476.683 193.253C475.096 193.614 471.093 194.804 469.145 193.938C468.694 193.74 468.406 193.181 468.063 192.856C468.081 191.396 469.56 190.8 469.055 189.394C468.442 187.681 466.584 187.861 466.584 185.336C467.107 184.795 467.36 184.002 467.973 183.551C468.911 182.866 472.554 182.505 471.94 180.575C471.598 179.493 470.137 178.646 469.362 177.906C469.055 177.906 468.73 177.888 468.568 177.997C467.703 178.303 467.937 179.187 467.486 179.872C467.216 180.107 466.963 180.341 466.693 180.557H466.098C465.827 180.323 465.575 180.088 465.304 179.872C464.799 177.744 465.178 175.183 464.222 173.632C462.743 171.234 458.596 168.709 458.866 165.301C460.381 163.894 462.238 162.668 463.032 160.54C463.411 159.548 462.96 158.358 463.32 157.474C463.645 156.717 464.456 156.194 464.709 155.292C465.052 154.03 463.663 152.245 463.23 151.631C462.581 150.73 461.842 150.315 460.958 149.648C459.858 148.836 459.389 147.412 457.892 146.979C456.666 146.618 453.222 147.123 452.536 147.664C451.202 147.682 451.13 147.213 450.462 146.672C450.174 144.147 451.22 140.793 452.933 139.639C453.6 139.188 454.43 139.062 455.115 138.647C456.107 138.052 457.081 137.06 457.694 136.068C458.145 135.347 458.758 133.76 458.487 132.498C458.325 131.758 458.361 130.712 458.578 130.027C459.714 126.511 461.463 123.301 462.347 119.622C462.653 118.323 462.274 116.538 462.058 115.564C461.986 115.005 461.932 114.446 461.86 113.887C461.535 112.733 461.03 111.597 460.669 110.515C460.543 109.956 460.399 109.397 460.273 108.838C459.858 107.72 459.281 106.565 458.992 105.375C458.65 104.023 459.137 102.309 459.389 101.408C459.93 99.4782 460.273 97.9273 460.778 95.9617C460.904 95.4387 461.138 94.519 460.976 93.7796C460.651 92.3008 460.922 90.6417 460.579 89.1269C460.417 88.4056 459.984 86.6203 460.182 85.7546C460.561 84.0956 461.986 81.8594 461.463 79.6052C461.174 78.3068 460.669 77.2067 460.381 76.0345C460.417 74.9164 460.453 73.7803 460.471 72.6622C460.291 71.8868 459.858 70.7326 460.074 69.7949C460.219 69.1637 460.507 68.4965 460.669 67.8112C461.066 66.0078 459.551 64.7635 460.273 62.8519C460.651 61.8601 461.517 61.1929 462.058 60.3813C462.31 60.0026 462.383 59.5338 462.653 59.1911C462.617 56.2697 459.768 57.7665 458.686 55.5303C458.271 54.6647 458.289 53.7991 457.802 53.0597C457.225 52.176 456.287 51.4727 455.728 50.5891C455.404 49.8317 455.061 49.0743 454.736 48.3168C454.213 47.4512 453.402 46.6217 452.951 45.7381C452.518 44.8905 452.428 44.0248 451.959 43.2674C451.617 42.7084 451.039 42.2215 450.679 41.6805C449.777 40.4001 449.344 38.5426 448.01 37.7131C447.27 37.2623 446.188 37.3885 445.341 37.0278C444.277 36.577 443.646 35.4589 442.474 35.1523C440.688 34.6654 439.949 36.6671 438.218 35.549C437.731 35.2425 437.388 34.972 437.226 34.3588C436.775 33.6736 437.262 32.7178 437.424 32.0866C437.677 31.0947 437.496 28.8045 437.226 27.8307C436.901 26.6585 436.342 25.5765 435.747 24.6568C435.494 24.278 435.044 23.8813 434.863 23.4665C434.467 22.6009 434.755 21.4648 434.467 20.4008C434.07 18.9401 433.421 17.6056 432.681 16.4334C432.05 15.4416 431.148 14.5399 430.012 14.053C429.453 13.8185 429.074 13.7825 428.624 13.4579C427.199 12.43 426.027 10.2479 424.566 9.20194C423.682 8.57077 421.32 8.55273 420.797 7.72319C420.202 6.76741 421.951 5.25257 422.186 4.45909C422.42 3.61151 421.987 2.81805 421.789 2.38524C420.887 0.329408 419.679 -0.0492978 416.83 0.00480301C416.253 0.43761 415.513 0.58187 414.954 0.996644C413.602 1.98849 413.169 3.23281 410.698 3.17871C410.283 2.78197 409.652 2.56557 409.31 2.0967C408.877 1.48355 408.715 0.87041 407.921 0.617939C407.759 0.509738 407.434 0.509732 407.128 0.527766C406.857 0.79827 406.569 0.906476 406.442 1.32125C406.136 1.84422 406.496 2.6377 406.532 3.10657C406.605 3.95415 406.424 4.53124 406.731 5.28865C407.236 6.51494 408.66 7.65105 408.119 9.85115C407.975 10.4463 407.596 10.9873 407.434 11.5283C407.073 12.6283 407.092 13.9628 406.551 14.9006C406.172 15.5498 405.559 16.1449 405.162 16.7761C404.675 17.5695 404.405 18.4171 403.683 18.9581C402.944 19.4991 400.365 20.491 399.427 20.7435C397.642 21.2304 397.011 19.6795 395.261 20.1483C394.522 20.3467 393.891 20.9418 393.188 21.1402C392.033 21.4648 391.24 20.8517 390.122 20.8517C389.851 21.1402 389.437 21.5189 389.13 21.7353C389.022 22.7632 389.31 23.3583 389.328 24.4043C389.04 24.6748 388.878 25.0896 388.535 25.2879C388.301 25.324 388.066 25.3601 387.85 25.3781C387.146 25.6125 386.335 26.2076 386.064 26.8569C385.668 27.7946 385.848 29.5799 386.064 30.5177C386.281 31.4374 386.227 32.0686 386.551 32.7899C387.561 35.008 389.779 36.5048 391.006 38.5426C391.565 39.4443 391.258 40.7067 391.601 41.9149C391.979 43.2494 393.097 44.0429 393.476 45.2872C393.783 46.3151 393.278 47.5775 393.278 48.8579C393.278 50.7334 393.638 51.9596 393.963 53.3122C394.378 54.9532 393.584 55.8369 394.847 56.6844C396.632 57.8747 400.383 55.7106 401.393 55.0073C402.385 55.0254 402.439 55.4041 402.98 55.8008C403.052 57.2976 402.042 57.8386 401.195 58.6682C399.734 60.1289 398.634 62.1126 397.426 63.8258C397.011 64.4209 396.614 65.3766 396.037 65.8094C394.594 66.8734 392.683 65.5029 391.871 67.685C391.186 69.5424 392.556 72.4098 393.26 73.3295C393.765 73.9967 394.757 74.3394 395.045 75.205C395.532 75.9083 394.739 76.9362 395.135 77.8739C395.442 78.5953 396.199 78.974 396.614 79.5511C397.137 80.2724 397.426 81.4085 397.606 82.4184C397.84 83.7168 396.596 84.3841 397.011 85.8809C397.425 87.3596 398.922 88.3515 399.68 89.5417L401.754 93.7075C402.8 95.2042 404.441 95.7994 405.919 96.8814C406.785 97.5306 407.542 98.7028 408.192 99.5504C409.147 100.47 410.103 101.408 411.059 102.328C411.852 103.373 412.448 104.564 413.241 105.592C414.089 106.71 416.09 107.197 416.505 108.657C416.577 108.766 416.541 108.675 416.595 108.856C415.062 110.443 415.261 108.982 413.133 108.946C412.862 109.234 412.61 109.559 412.339 109.83C412.448 112.48 414.377 113.743 414.323 116.664C414.053 116.935 413.8 117.187 413.53 117.458C412.177 117.35 412.141 116.141 411.654 115.185C410.77 113.49 409.598 112.444 409.075 110.226C408.769 108.946 409.238 107.359 408.588 106.457C408.408 105.952 408.029 105.88 407.705 105.574C407.416 105.61 407.272 105.646 407.11 105.772C406.424 106.024 406.641 106.421 406.316 107.052C406.19 107.305 405.811 107.449 405.631 107.647C403.629 107.287 405.162 104.78 404.747 103.085C404.206 100.849 401.05 98.7389 399.193 97.729C398.183 97.188 396.596 97.2962 395.929 98.1257C392.232 98.1077 392.719 93.0222 391.276 90.6958C390.465 89.3794 388.932 88.64 387.705 87.7203C386.966 87.1613 385.794 85.6104 384.243 86.0432C383.828 86.1514 383.431 86.476 383.161 86.7285C382.638 87.2334 382.169 87.6662 381.971 88.5138C381.844 89.0187 382.079 89.5778 382.169 89.9024C382.476 91.0385 382.746 92.4271 382.259 93.5632C381.592 95.1141 379.969 96.2141 379.085 97.6207C378.256 98.9733 378.238 101.011 377.408 102.382C376.831 103.301 374.956 105.069 375.334 106.746C375.533 107.629 375.929 108.405 376.218 109.126C376.344 109.685 376.488 110.244 376.615 110.803C376.615 111.651 376.362 111.651 376.02 112.084C375.785 112.12 375.767 112.138 375.623 112.174C374.793 111.362 372.485 109.541 372.16 108.513C371.511 106.457 373.892 103.698 374.541 102.67C375.298 101.444 375.226 99.5143 375.821 98.1077C376.326 96.9174 377.102 95.6912 377.805 94.6452C378.526 93.5632 379.41 92.8418 379.392 90.9844C379.049 90.6417 378.725 90.245 378.4 89.9024C376.525 89.9384 376.488 91.4352 375.821 92.6795C375.046 94.1222 373.603 95.0961 372.647 96.3404C372.521 96.5027 372.521 96.7371 372.359 96.8273C372.106 96.9896 371.565 96.9174 371.169 96.9174C370.177 95.8715 368.95 95.0239 368.103 93.8517C367.183 92.5894 366.552 91.1287 365.632 89.8843C364.713 88.9646 363.775 88.0269 362.855 87.1072C361.683 85.4841 361.503 83.4283 359.789 82.3463C357.752 81.0839 354.704 80.9216 352.648 79.6773C351.404 78.9199 350.664 77.387 349.384 76.7018C348.428 76.1968 347.274 76.9001 346.318 76.7018C345.02 76.4132 343.613 75.4574 342.946 74.5197C341.864 73.0229 342.044 70.8408 341.557 68.6768C341.413 68.0456 341.034 66.8193 341.161 66.098C341.341 65.016 341.99 63.6274 341.648 62.2388C341.179 60.2551 339.646 59.4436 339.177 57.6763V56.4861C339.177 55.2598 339.159 54.1778 338.69 53.4204C338.023 52.3383 336.833 51.7974 335.823 51.0399C335.354 50.553 334.903 50.0481 334.434 49.5612C333.875 49.1464 333.352 48.8759 332.757 48.4791C331.837 47.848 331.35 46.7119 330.178 46.2971C329.457 46.225 328.717 46.1709 327.996 46.0987C327.401 45.8823 325.273 44.5478 324.822 44.115C323.668 44.097 323.614 44.4396 323.037 44.9085C322.947 45.702 323.361 46.4774 323.127 47.3791C322.983 47.9382 322.82 48.7497 323.037 49.453C323.434 50.5711 323.83 51.7072 324.227 52.8252C324.443 53.6548 324.353 54.6467 324.516 55.4041C324.984 57.514 323.848 59.1551 323.434 60.5617C322.893 62.365 323.325 64.7094 322.748 66.5128C322.171 68.2981 320.855 69.1457 319.881 70.4802C319.574 70.913 319.412 71.454 319.087 71.8687C319.087 72.6983 319.286 72.7163 319.574 73.1491C320.458 73.3114 321.107 72.9868 322.045 73.059C323.145 74.1951 325.219 75.0066 326.103 76.2329C327.203 77.7477 328.339 79.515 329.872 80.597C330.539 80.9216 331.188 81.2643 331.855 81.5889C332.811 82.2741 333.532 83.3381 334.524 83.9693C335.534 84.6185 336.796 84.907 337.5 85.8448C338.365 87.017 338.456 88.8564 339.285 90.1007C340.097 91.327 342.261 92.4812 342.657 93.8698C343.162 94.5911 342.567 95.4567 342.369 96.0518C342.026 97.0076 342.225 98.306 341.882 99.3159C341.702 99.8389 341.179 100.163 340.89 100.596C336.923 101.498 336.436 95.5469 333.947 93.9599C332.09 92.7697 328.645 95.2043 327.311 95.6371C325.507 96.2322 323.975 94.7715 322.857 96.4305C322.297 97.2601 322.135 99.5323 322.568 100.686C323.163 102.328 324.389 103.464 325.039 104.942C325.309 105.736 325.562 106.529 325.832 107.323C326.048 107.792 326.445 108.297 326.626 108.802C327.004 109.938 326.914 111.092 327.311 112.174C327.762 113.364 328.88 115.167 327.906 116.628C326.95 118.053 325.598 117.133 324.335 117.818C324.281 118.035 324.263 118.089 324.137 118.215C324.245 119.568 326.048 120.578 327.203 120.884C328.573 121.245 329.313 120.235 330.575 120.596C331.603 120.884 332.09 121.912 332.649 122.669C333.045 123.21 333.641 123.715 334.037 124.256C334.614 125.068 334.795 126.096 335.318 126.925C335.678 127.502 336.274 128.043 336.598 128.603C336.905 129.125 337.103 130.748 336.688 131.38C336.706 132.804 336.67 132.895 336.093 133.652C335.408 133.652 335.065 133.363 334.903 132.858C334.632 132.39 334.903 131.326 334.705 130.586C334.308 129.107 332.216 125.843 329.854 126.619C328.699 126.998 327.365 129.522 325.688 128.693C324.101 127.917 320.711 124.96 320.043 123.337C319.556 122.146 319.863 120.938 319.16 119.964C318.258 118.72 315.805 118.991 315.3 117.386C314.561 116.213 316.22 114.681 315.787 113.13C315.463 111.921 314.417 111.164 314.002 110.064C313.695 109.234 313.894 108.225 313.515 107.485C312.992 106.457 311.82 105.898 311.243 104.906C311.153 104.546 311.044 104.185 310.954 103.824C310.684 103.175 310.233 102.418 309.764 101.949C309.367 101.624 308.971 101.282 308.574 100.957C308.087 100.398 307.582 99.8389 307.095 99.2799C306.698 98.9012 306.23 98.6487 306.013 98.0896C305.562 97.0076 306.338 95.8535 306.013 94.4288C305.49 92.1926 305.148 88.8925 303.038 88.2793C302.046 87.9908 301.324 88.6761 300.856 88.9646C299.755 89.686 298.565 90.5155 297.79 91.5434C297.646 91.7238 297.646 91.9762 297.501 92.1385C296.293 93.3468 294.165 93.6173 293.245 95.1141C292.686 96.0158 292.849 98.5765 293.155 99.8749C293.299 100.47 293.155 101.083 293.155 101.75C293.191 102.436 293.227 103.139 293.245 103.824C292.758 105.952 292.271 109.866 293.155 111.957C293.696 113.238 294.724 114.789 295.824 115.528C296.942 116.268 298.331 116.177 298.691 117.71C298.385 118.071 298.349 118.359 297.898 118.594C297.627 118.756 297.195 118.648 296.618 118.792C294.327 119.351 293.66 117.674 292.253 116.809C291.496 116.34 290.486 116.304 289.585 116.015C289.152 115.889 288.34 115.564 287.709 115.727C286.122 116.123 284.806 117.115 284.337 118.594C284.265 119.189 284.21 119.784 284.138 120.379C283.651 121.551 282.353 122.128 281.956 123.445C281.361 125.465 282.209 127.16 282.551 128.693C282.714 129.414 282.299 130.712 282.353 131.56C282.587 131.776 282.858 132.101 283.038 132.354H283.832C284.12 132.083 284.427 131.831 284.715 131.56C285.076 131.055 285.22 130.442 285.707 130.081C286.068 129.811 286.537 129.757 286.897 129.486C288.539 129.612 289.043 131.001 290.071 131.758C291.117 132.516 292.668 132.913 293.444 133.94C294.58 135.455 295.247 138.034 295.716 140.09C295.752 140.974 295.788 141.875 295.806 142.759C296.437 144.959 298.006 146.167 298.475 148.71C298.818 150.549 296.582 151.613 296.203 152.966C295.788 154.463 297.123 155.671 297.591 156.428C297.97 157.042 298.096 157.727 298.475 158.304C299.196 159.386 300.747 160.811 302.136 161.171C303.597 161.568 304.534 160.053 305.797 161.261C305.923 161.388 305.959 161.622 306.085 161.748C307.348 163.011 308.61 164.237 310.053 165.319C310.99 166.022 311.586 167.176 312.631 167.79C313.948 168.565 315.517 167.591 316.887 167.988C318.005 168.313 318.637 169.413 319.556 169.972C320.368 170.477 321.54 170.477 322.334 170.963C324.029 172.009 324.912 173.741 326.391 174.732C327.004 175.129 327.744 175.237 328.375 175.616C329.168 176.103 329.944 176.806 330.755 177.293C331.621 177.834 332.559 178.051 333.424 178.574C334.29 179.115 334.416 180.233 335.011 181.044C335.354 181.531 335.931 181.675 336.4 182.036C338.51 181.982 340.421 179.62 340.854 177.87C341.07 177.041 340.782 175.869 340.656 175.292C340.62 174.264 340.584 173.236 340.566 172.226C340.457 171.613 340.872 170.477 340.656 169.557C340.493 168.817 339.97 167.735 340.259 166.689C340.475 165.896 341.107 164.688 340.854 163.516C340.656 162.578 340.8 161.37 340.566 160.342C340.403 159.674 340.133 158.881 339.97 158.268C340.006 157.276 340.043 156.284 340.061 155.292C339.808 154.21 339.267 153.435 339.267 152.227C339.556 151.938 339.916 151.541 340.151 151.235C341.918 151.253 342.784 152.876 344.208 152.425C345.236 152.1 345.813 151.054 346.877 150.748C348.482 150.261 349.997 151.343 350.646 149.359C351.53 148.115 349.33 145.464 348.771 144.797C348.825 144.075 349.186 143.985 349.564 143.606C352.269 143.805 352.846 147.303 353.73 149.449C354.055 150.261 354.866 151.361 354.524 152.713C354.037 154.697 352.36 155.869 352.053 158.069C351.963 158.701 352.486 161.243 352.738 161.64C352.955 161.947 353.405 162.127 353.622 162.434C356.489 162.434 356.183 160.089 357.391 158.466C358.293 157.24 360.06 156.861 360.565 155.202C360.727 154.697 360.655 153.976 360.565 153.525C360.294 152.227 360.817 151.253 361.25 150.658C361.593 150.189 361.935 149.738 362.53 149.576C364.244 149.089 366.047 151.072 365.704 152.641C365.199 155.04 365.308 158.051 366.191 160.179C366.534 160.973 367.273 161.622 367.58 162.452C368.103 163.858 367.652 165.283 368.464 166.419C368.987 167.122 369.834 167.573 370.537 168.096C371.457 169.016 372.395 169.954 373.315 170.873C373.783 171.523 374.09 172.352 374.306 173.254C374.505 174.047 374.288 174.967 374.703 175.526C374.865 175.995 375.19 176.031 375.497 176.319C375.731 176.301 375.785 176.301 375.893 176.229C377.048 176.067 377.444 174.769 378.472 174.354C378.923 174.173 379.5 174.372 380.059 174.264C380.6 174.137 381.34 173.993 381.844 173.867H384.423C385.127 173.687 385.722 173.254 386.407 173.073C388.463 172.55 391.673 174.57 392.051 175.742C392.286 176.482 391.871 177.131 391.853 177.924C392.16 178.231 392.286 178.754 392.647 179.006C393.17 179.385 393.801 179.529 394.324 179.89C395.947 181.044 397.588 182.667 398.778 184.254C399.139 184.741 399.734 185.102 400.058 185.643C401.122 187.356 400.798 190.259 401.736 192.081C402.277 193.127 403.214 193.884 403.809 194.858C404.423 195.85 405.234 200.034 405.198 201.603C404.927 201.873 404.675 202.126 404.405 202.396H403.918C403.359 201.819 402.763 201.422 402.439 200.611C402.006 199.601 402.078 198.393 401.555 197.545C400.78 196.301 399.175 195.706 398.381 194.479C397.967 193.83 397.894 193.019 397.588 192.297C396.957 190.818 396.217 189.358 395.316 188.131C394.306 186.779 392.412 185.841 390.753 185.156C389.978 184.831 389.202 184.723 388.571 184.272C386.353 182.667 387.273 179.818 382.926 179.818C382.674 180.07 382.241 180.215 382.043 180.503C381.556 181.225 381.971 183.821 382.44 184.471C382.404 185.372 382.007 185.426 381.556 185.859C380.762 185.805 380.221 185.138 379.374 185.264C378.346 185.426 377.733 186.202 376.903 186.545C376.38 186.635 375.839 186.743 375.316 186.833C374.342 187.194 373.711 187.915 372.936 188.42C372.503 188.709 372.178 188.709 371.655 188.907C370.357 189.412 368.77 190.764 368.391 192.171C367.995 193.632 369.185 197.004 369.473 198.014C369.888 199.439 369.131 201.242 369.762 202.468C370.862 204.596 374.631 204.145 375.208 206.129C375.857 207.121 374.505 208.311 374.92 209.79C375.262 211.016 376.254 211.792 376.705 212.856C376.957 213.451 376.831 214.046 376.993 214.731C377.228 215.633 377.625 216.516 377.877 217.31C378.057 217.869 377.967 218.338 378.166 218.897C378.815 220.61 380.618 221.169 381.538 222.558C382.241 223.622 382.259 225.245 382.926 226.327C383.846 227.805 385.415 229.338 386.786 230.384C387.417 230.871 387.796 231.719 388.264 232.368C388.841 233.143 389.581 233.306 390.338 233.847C391.871 233.72 392.394 232.584 393.404 231.971C394.107 231.538 395.316 231.394 396.181 231.178C397.858 230.763 399.499 231.358 400.347 230.186C400.978 229.32 400.581 227.95 400.942 226.723C401.267 225.569 402.024 225.118 402.818 224.451C403.557 224.469 403.936 224.758 404.098 225.335C404.134 225.371 404.188 226.651 404.098 227.012C403.701 228.671 404.35 231.07 403.503 232.368C403.034 233.089 400.816 234.821 399.337 234.442C398.742 234.298 397.642 233.883 396.758 234.153C394.829 234.73 393.404 237.688 392.989 239.798C392.719 241.222 395.171 243.964 395.658 245.154C396.794 247.877 398.76 252.602 401.303 253.684C402.529 254.207 404.134 254.189 405.865 254.171C406.623 254.098 407.38 254.044 408.137 253.972C409.58 253.575 411.041 253.251 412.393 252.692C413.133 252.385 413.944 251.97 414.576 251.502C415.73 250.654 416.162 249.283 418.236 249.32C418.543 249.608 418.976 249.987 419.318 250.203C420.004 253.341 418.886 255.848 417.533 257.831C416.866 258.463 416.217 259.094 415.549 259.707C415.153 260.23 414.792 260.807 414.269 261.186C413.403 261.799 412.213 261.925 411.6 262.773C411.113 263.458 411.167 264.504 410.806 265.351C410.392 266.325 409.724 266.758 409.724 268.219C410.067 268.579 410.518 269.03 410.806 269.409C411.257 269.463 411.636 269.734 412.195 269.607C413.421 269.337 414.287 268.742 415.261 268.327C416.271 267.894 417.208 267.624 418.128 267.137C418.813 266.776 419.499 266.271 420.31 266.055H421.879C422.312 265.965 423.051 265.856 423.466 265.766H425.053C426.388 265.478 427.596 265.099 428.822 264.774C429.814 264.684 430.806 264.576 431.798 264.486C432.844 264.215 433.781 263.602 434.773 263.296C435.512 263.061 436.18 263.169 436.847 262.899C437.965 262.43 438.777 261.42 440.021 261.114C441.409 260.771 442.51 262.033 443.393 262.394C444.169 262.719 444.854 262.574 445.774 262.791C447.811 263.278 450.769 263.981 452.518 262.7C454.863 260.987 452.031 257.831 452.031 255.271C452.428 254.856 452.59 254.243 453.113 253.99C453.997 253.557 455.205 254.243 455.782 254.477C457.748 255.289 458.559 256.785 460.146 257.94C460.579 258.264 461.246 259.022 462.13 258.823C462.851 258.661 464.06 257.777 464.601 257.345C466.043 257.363 467.612 258.607 467.27 260.212C467.107 260.951 466.711 262.214 466.981 263.278C467.36 264.81 468.334 265.748 468.658 267.335C468.965 268.796 467.342 272.024 466.981 273.178C466.458 274.801 467.414 276.316 467.071 277.741C466.801 278.949 466.278 279.652 466.278 281.203C466.639 281.582 466.837 282.105 467.27 282.393C467.937 282.628 468.586 282.862 469.253 283.078C470.119 283.583 470.732 284.485 471.526 285.062C472.283 285.585 473.221 285.802 473.996 286.343C475.673 286.306 477.26 284.034 477.855 282.88C478.27 282.069 478.288 281.059 478.739 280.301C479.388 279.255 480.452 278.498 480.921 277.236C481.318 276.154 480.993 274.585 481.408 273.575C481.895 272.745 482.4 271.916 482.887 271.104C483.5 269.698 483.879 267.912 484.366 266.542C484.726 265.55 484.492 263.909 485.051 263.079C485.862 261.871 487.594 262.087 488.82 261.294C490.407 260.266 491.363 257.453 491.886 255.451C491.922 254.892 491.958 254.333 491.976 253.774C492.156 252.98 492.336 251.7 492.066 250.798C491.399 248.472 489.595 246.813 488.694 244.649C488.153 243.368 488.856 240.555 488.099 239.401C488.117 237.562 489.722 237.994 490.371 238.914C491.236 240.122 490.731 241.042 491.164 242.575C491.561 243.964 492.589 245.605 493.346 246.741C494.302 248.165 495.961 248.995 496.917 250.402C497.909 251.898 498.288 253.828 499.297 255.253C500.127 256.425 501.353 257.254 501.876 258.715C502.616 260.753 500.92 263.278 500.488 264.756C500.091 266.127 500.596 267.407 501.57 267.732C502.58 268.345 503.914 267.227 504.635 267.047C505.916 267.083 507.214 267.119 508.495 267.137C510.803 266.56 512.805 265.514 514.842 264.756C517.349 263.837 518.936 266.037 521.479 265.351C522.344 265.117 523.408 264.828 524.256 264.468C525.374 263.981 526.185 263.205 527.52 262.881C528.458 262.664 529.486 263.205 530.189 263.368C531.361 263.638 534.247 262.394 534.95 261.979C536.248 261.222 536.952 260.086 537.817 258.913C538.34 258.228 539.116 257.867 539.801 257.326C540.36 257.417 540.432 257.669 540.793 257.922C540.865 259.202 539.566 260.536 538.917 261.492C537.817 263.061 536.284 264.504 534.751 265.658C534.283 266.019 534.012 266.686 533.561 267.047C532.515 267.876 531.019 268.706 529.594 269.12C526.961 269.896 523.625 267.606 521.371 269.03C520.108 269.824 519.513 271.411 518.305 272.204C517.836 272.511 517.457 272.403 516.826 272.601C516.105 272.817 515.257 273.449 514.842 273.99C514.211 274.819 513.49 275.793 513.057 276.767C512.714 277.542 512.624 278.318 512.173 278.949C510.659 281.041 507.322 281.203 505.23 282.718C504.635 283.151 503.95 283.98 503.752 284.792C503.499 285.802 504.203 286.343 503.662 287.172C503.03 288.11 501.479 288.669 500.596 289.354C499.694 290.039 498.378 291.59 497.728 292.528C497.476 292.889 497.404 293.376 497.133 293.718C497.115 296.261 499.658 296.495 501.191 297.487C501.786 297.866 501.948 298.443 502.381 298.966C502.075 300.751 499.352 300.409 498.414 301.833C498.125 302.284 498.143 302.807 497.927 303.312C497.151 305.134 496.16 306.702 495.655 308.957C495.42 310.021 495.781 311.301 495.943 312.131C496.033 312.6 495.907 313.321 495.853 313.609C495.709 314.295 495.889 315.214 495.853 315.882C495.564 316.17 495.258 316.477 494.969 316.765C494.176 317.036 493.563 316.405 493.094 316.278C492.571 316.116 492.3 316.26 491.813 316.278C491.471 316.603 490.912 316.783 490.623 317.162C490.064 317.919 489.704 318.803 489.144 319.542C488.153 320.859 486.53 321.544 486.079 323.402C485.844 324.357 487.053 327.243 487.359 327.856C487.936 328.974 488.712 330.11 489.036 331.318C489.253 332.112 488.964 332.851 489.235 333.5C489.812 334.907 491.236 335.61 491.813 336.963C492.192 337.847 491.94 339.091 492.3 340.029C492.571 340.75 493.202 341.021 493.689 341.507C494.753 341.507 495.474 340.93 496.665 341.219C497.999 341.525 499.604 341.507 500.722 340.822C501.822 340.155 502.471 338.748 503.698 338.243C504.87 337.756 506.385 338.55 507.557 337.955C508.368 337.54 508.765 336.692 509.432 336.169C510.118 335.646 510.911 335.304 511.614 334.781C512.624 334.041 513.273 332.761 514.085 331.805C514.5 331.318 515.257 330.904 515.762 330.525C516.033 330.327 516.141 329.984 516.357 329.731C517.313 328.649 518.341 327.748 519.225 326.558C519.838 325.746 520.83 325.512 521.695 324.971C522.435 324.502 522.831 323.708 523.48 323.185C524.112 322.68 525.031 322.175 525.464 321.508C526.131 320.444 525.031 319.362 525.374 318.046C525.626 317.09 526.294 316.314 526.654 315.467C526.997 314.673 527.105 313.88 527.538 313.195C528.223 312.095 529.089 310.49 530.117 309.732C531.037 309.047 532.209 308.362 532.894 307.46C533.85 306.198 534.896 304.917 535.761 303.601C537.114 301.545 536.735 298.912 538.935 297.559C542.47 295.359 542.74 301.274 545.878 300.427C547.411 300.012 549.954 297.415 550.729 296.171C551.036 295.666 551.09 295.053 551.415 294.584C552.172 293.52 553.543 292.979 553.885 291.518C554.228 290.148 552.659 289.516 552.605 288.056C552.965 287.695 553.2 287.082 553.687 286.866C554.3 286.595 555.057 286.775 555.562 286.469C556.175 286.108 556.32 285.513 556.753 284.99C556.59 282.772 554.57 282.88 553.38 281.726C552.911 281.257 552.713 280.662 552.298 280.139C552.316 278.245 553.669 277.236 554.084 275.486C554.498 273.665 553.146 272.403 552.695 271.321C552.623 270.96 552.569 270.599 552.497 270.239C552.19 269.337 551.667 268.129 551.108 267.371C551.108 266.073 551.703 265.947 552.388 265.387C554.444 265.496 556.41 266.596 557.744 267.57C558.664 268.255 559.439 269.211 560.72 269.553C561.622 269.806 562.722 269.427 563.299 269.265C565.03 268.778 566.346 268.435 567.266 267.191C568.186 265.947 568.601 264.648 569.935 263.819C571.45 262.899 574.534 262.791 576.283 262.033C577.816 261.366 578.808 260.086 580.052 259.166C581.657 257.958 583.298 256.803 584.903 255.595C585.462 255.036 586.021 254.477 586.58 253.918C588.005 252.836 589.538 251.736 590.151 249.861C590.421 249.031 590.133 248.075 590.349 247.083C590.62 245.893 591.251 244.468 590.836 243.026C590.439 241.655 589.267 240.068 589.754 237.976C590.295 235.596 591.521 235.307 592.621 233.72C593.271 232.801 593.397 231.538 594.01 230.547C594.731 229.807 595.795 228.509 595.2 226.886ZM500.019 83.2299C500.325 83.9513 500.109 84.8349 500.307 85.7005C500.812 87.9548 500.812 90.5516 503.571 90.5516C503.896 90.2089 504.383 89.9384 504.563 89.4696C504.599 88.8023 504.635 88.1531 504.653 87.4859C505.032 85.8268 504.653 84.0775 505.05 82.3282C505.212 81.643 505.194 80.7774 505.447 80.1462C505.753 79.4248 506.312 78.6855 506.529 77.8739C506.98 76.2148 505.591 75.5115 505.934 74.0147C506.367 72.1212 507.485 69.9933 506.926 67.3784C506.385 64.8176 508.386 62.6175 507.016 60.3453C506.691 59.8043 506.294 59.3354 505.627 59.1551C505.483 59.0469 505.212 59.0469 504.942 59.0649C504.653 59.3715 504.419 59.642 504.148 59.9485C504.293 61.1207 505.212 62.4732 503.662 62.9241C503.175 63.1946 501.966 62.7798 501.389 63.1225C500.47 63.6815 499.694 65.1422 499.406 66.2964C499.442 67.162 499.478 68.0096 499.496 68.8752C499.478 69.8129 499.351 70.6605 499.694 71.454C500.037 72.2655 502.381 74.2852 501.876 75.223C501.786 76.0345 501.263 76.1247 500.884 76.6116C499.658 76.6657 498.378 76.4854 498.017 77.6034C497.656 78.1986 497.909 80.1462 498.107 80.6692C498.558 81.661 499.586 82.2381 500.019 83.2299ZM473.636 151.343C473.906 152.335 474.465 153.2 474.826 154.012C475.313 155.112 475.637 156.627 475.908 157.781C476.286 159.35 474.609 160.811 474.231 161.838C473.491 163.822 474.97 165.77 474.519 167.591C474.213 168.854 473.527 169.611 473.636 171.054C473.978 171.414 474.195 171.865 474.627 172.136C475.655 172.767 476.791 172.677 477.206 173.921C477.242 174.642 477.278 175.382 477.296 176.103C477.873 178.303 478.396 180.629 480.362 181.459C481.624 181.982 485.051 182.216 486.403 181.657C487.233 181.315 487.918 180.611 488.676 180.269C489.938 179.692 491.092 179.62 491.85 178.592C492.95 177.095 493.112 175.274 494.627 174.137C496.61 172.641 497.765 171.09 498.594 168.385C498.792 167.753 499.207 166.617 498.991 165.716C498.522 163.75 497.62 163.209 496.719 161.856C496.033 160.829 495.799 159.494 495.132 158.484C494.735 157.889 494.068 157.366 493.653 156.807C493.058 155.978 492.553 154.679 492.174 153.741C491.705 152.605 492.066 151.469 492.084 150.171C492.102 148.313 492.156 146.041 491.795 144.418V142.344C491.507 141.064 491.218 139.874 490.605 138.882C489.83 137.601 488.82 136.339 488.423 134.716C488.062 133.219 489.163 132.011 489.505 131.055C489.758 130.388 489.74 129.703 489.992 129.071C490.497 127.899 491.218 126.655 491.976 125.699C492.354 125.23 493.076 124.978 493.563 124.617C494.555 123.896 496.52 122.219 497.224 121.245C498.035 120.145 498.233 118.504 498.811 117.187C499.893 114.717 501.281 112.625 501.984 109.649C502.021 109.09 502.057 108.531 502.075 107.972C502.255 107.377 502.598 106.71 502.76 106.097C502.796 105.231 502.832 104.383 502.85 103.518C503.571 100.506 502.147 96.2502 499.279 96.2863C499.045 96.5928 498.612 96.7732 498.486 97.1699C498.179 98.1077 498.901 98.7388 498.684 99.6405C498.486 100.488 498.197 101.318 497.999 102.219C497.801 103.085 498.197 103.446 497.801 104.095C497.097 105.267 495.33 105.556 494.537 106.674C494.104 107.467 493.671 108.261 493.256 109.054C492.823 109.649 492.102 110.118 491.777 110.839C491.453 111.543 491.471 112.408 491.092 113.021C490.569 113.851 489.433 114.302 489.108 115.294C488.982 115.492 489 115.943 489.018 116.286C489.74 116.953 490.677 117.728 490.894 118.864C490.786 118.991 490.804 119.207 490.695 119.351C490.443 119.73 489.956 119.856 489.613 120.145C488.603 120.091 488.171 119.568 487.341 119.351C486.007 119.009 485.123 119.982 484.077 119.838C483.157 119.73 482.147 118.9 481.101 119.351C479.983 119.82 479.695 121.101 479.028 122.02C478.342 122.976 477.242 123.625 476.755 124.797C476.305 125.825 476.413 127.016 476.07 128.17C475.547 129.396 475.006 130.622 474.483 131.831C474.177 132.75 474.537 133.832 474.285 134.896C474.05 135.852 473.726 136.844 473.491 137.872C473.095 139.585 474.177 141.01 473.78 142.723C473.563 143.643 473.293 144.58 473.095 145.5C472.77 146.871 473.347 148.476 473.581 149.558C473.581 150.153 473.618 150.748 473.636 151.343ZM505.176 184.453C504.203 183.821 501.263 183.136 499.622 183.172C499.261 183.461 498.738 183.515 498.342 183.767C497.44 184.326 495.745 185.679 495.168 186.545C494.771 187.14 494.771 187.789 494.482 188.528C493.996 189.754 492.751 192.91 493.4 194.479C493.833 195.507 494.879 196.12 495.474 196.95C496.178 197.906 496.556 199.078 497.26 200.016C498.269 201.368 499.947 202.288 501.119 203.478C502.381 204.74 502.291 207.211 503.391 208.636C503.806 209.159 504.942 209.664 506.06 209.429C506.24 209.393 506.709 209.249 507.052 209.339C508.909 209.754 511.975 211.016 513.796 209.826C514.536 209.357 514.933 208.491 515.582 207.95C516.664 207.031 517.962 206.508 518.557 205.083C519.17 203.604 518.954 201.729 519.549 200.322C519.964 199.33 521.587 197.455 521.334 196.066C521.01 194.299 519.621 193.776 518.756 192.604C517.962 191.504 517.259 190.241 516.177 189.43C515.113 188.636 513.67 188.402 512.516 187.645C512.065 187.356 511.632 186.923 511.037 186.761C509.721 186.4 508.999 187.374 507.863 186.851C506.835 186.382 506.114 185.066 505.176 184.453ZM444.998 266.65C444.529 266.56 444.078 266.451 443.61 266.361C442.744 266.019 442.257 265.388 441.031 265.369C440.76 265.586 440.418 265.658 440.147 265.856C439.642 266.235 439.011 267.353 438.759 267.93C438.398 268.796 438.47 269.806 437.767 270.311C437.099 270.78 436.126 270.311 435.188 270.599C434.16 270.924 433.529 271.699 432.609 272.078C432.05 272.312 431.365 272.168 430.734 272.366C429.724 272.673 428.101 273.845 428.552 275.54C428.732 276.208 429.201 276.839 429.435 277.416C429.904 278.534 429.922 279.76 430.517 280.68C431.13 281.618 432.176 282.213 433.096 282.862C433.835 283.403 434.791 284.539 436.36 284.142C437.388 283.89 438.29 283.295 439.137 282.862C440.201 282.303 441.355 281.708 441.806 280.59C442.582 278.714 440.832 276.767 440.814 275.035C441.013 274.801 441.211 274.567 441.409 274.35C441.95 274.26 442.672 274.458 443.195 274.35C444.728 274.044 445.936 273.07 446.657 271.97C446.874 271.645 447.144 271.086 447.252 270.78C448.028 268.814 446.152 267.137 444.998 266.65Z" fill="white"/>
</g>
<defs>
<clipPath id="clip0_431_4185">
<rect width="1000" height="505.325" fill="white"/>
</clipPath>
</defs>
</svg>
