<svg width="502" height="60" viewBox="0 0 502 60" fill="none" xmlns="http://www.w3.org/2000/svg">
<path d="M43.4815 28.623C47.2235 25.706 49.2315 21.577 49.2315 16.621V16.463C49.2315 12.628 47.8245 9.20002 45.1635 6.54302C41.7155 3.08702 36.2605 1.18302 29.8015 1.18302H1.22852V58.496H30.9175C43.6295 58.496 52.1705 51.78 52.1705 41.783C52.1705 35.922 49.1265 31.396 43.4815 28.623ZM29.3585 25.451H9.85452V9.48403H29.7095C36.4925 9.48403 40.5395 12.229 40.5395 16.831V16.981C40.5395 24.841 31.9805 25.451 29.3585 25.451ZM9.85452 33.769H29.8005C34.9045 33.769 43.4705 34.789 43.4705 41.634C43.4705 47.036 38.8365 50.174 31.0775 50.174H9.85452V33.769ZM90.1265 50.173V33.769H123.663V25.451H90.1265V9.48703H125.927V1.18002H81.5175V58.491H126.314V50.173H90.1265ZM165.396 50.173V1.18002H156.764V58.491H201.913V50.173H165.396ZM271.738 1.18002H270.485L269.785 2.21402L250.597 30.464L231.402 2.21402L230.7 1.18002H223.398V58.491H231.893V17.988L248.653 42.198L250.593 45.003L252.528 42.192L269.165 18.023V58.491H277.772V1.18002H271.738ZM418.243 1.18002H415.888V42.546L383.728 2.07202L383.018 1.18202H375.848V58.491H384.333V16.154L417.216 57.6L417.925 58.49H424.361V1.17902L418.243 1.18002ZM470.421 1.18002H449.41V58.491H470.421C488.008 58.491 500.773 46.44 500.773 29.839V29.695C500.773 13.175 488.008 1.18002 470.421 1.18002ZM492 29.84C492 41.876 483.129 50.173 470.424 50.173H458.042V9.48802H470.424C483.129 9.48802 492 17.859 492 29.84ZM328.496 0.150024C312.011 0.150024 298.593 13.54 298.593 30C298.593 46.46 312.007 59.851 328.496 59.851C344.985 59.851 358.386 46.461 358.386 30.001C358.386 13.541 344.978 0.149024 328.496 0.150024ZM328.496 51.027C316.736 51.027 307.17 41.483 307.17 29.751C307.17 18.019 316.74 8.46702 328.496 8.46702C340.252 8.46702 349.806 18.011 349.806 29.751C349.806 41.491 340.243 51.027 328.496 51.027Z" fill="white"/>
</svg>
