<svg width="195" height="69" viewBox="0 0 195 69" fill="none" xmlns="http://www.w3.org/2000/svg">
<g clip-path="url(#clip0_421_4015)">
<path d="M73.4992 17.5L76.5992 8.50002H77.2992L73.4992 19.4L69.6992 8.40002H70.3992L73.4992 17.5Z" fill="white"/>
<path d="M47.5996 27.8V0H51.0996V27.8H47.5996Z" fill="white"/>
<path d="M95.7988 27.8V0H99.2988V27.8H95.7988Z" fill="white"/>
<path d="M143.9 27.8V0H147.4V27.8H143.9Z" fill="white"/>
<path d="M125.7 13.6H117.4V14.2H125.7V13.6Z" fill="white"/>
<path d="M1.2 68.3H0V48.7H1.2V68.3Z" fill="white"/>
<path d="M16.6004 68.3H15.2004L8.80039 59H8.20039V68.3H6.90039V48.7H9.30039C10.9004 48.7 12.4004 48.7 13.8004 49.7C15.2004 50.7 15.8004 52.2 15.8004 53.9C15.8004 57.3 13.4004 59.1 10.2004 59L16.6004 68.3ZM9.70039 57.7999C10.9004 57.7999 12.1004 57.7 13.1004 56.9C14.0004 56.1 14.5004 54.9999 14.5004 53.7999C14.5004 52.2999 13.8004 50.8999 12.4004 50.2999C11.4004 49.7999 10.0004 49.9 8.90039 49.9H8.20039V57.9H9.70039V57.7999Z" fill="white"/>
<path d="M22.3 68.3H21V48.7H22.2V68.3H22.3Z" fill="white"/>
<path d="M36.3992 51.9001C35.4992 50.5001 34.2992 49.6 32.3992 49.6C30.2992 49.6 28.6992 51.3 28.6992 53.3C28.6992 55.4 30.5992 56.2 32.1992 57L35.8992 58.9001C37.3992 59.8001 38.0992 61 38.0992 62.8C38.0992 66 35.0992 68.5 31.9992 68.5C29.2992 68.5 27.0992 66.8001 26.1992 64.3001L27.2992 63.8C28.0992 65.9 29.6992 67.3001 31.9992 67.3001C34.5992 67.3001 36.7992 65.3001 36.7992 62.7001C36.7992 60.5001 34.4992 59.6001 32.7992 58.7001L29.2992 56.8C27.9992 56 27.2992 54.9 27.2992 53.3C27.2992 50.4 29.3992 48.3 32.2992 48.3C34.2992 48.3 36.0992 49.4 37.0992 51.1L36.3992 51.9001Z" fill="white"/>
<path d="M53.7992 65.4L59.5992 48.7H60.7992L53.6992 68.9L46.6992 48.7H47.9992L53.7992 65.4Z" fill="white"/>
<path d="M65.7004 48L57.4004 68.3H58.7004L65.7004 51.2L72.6004 68.3H73.8004L65.7004 48Z" fill="white"/>
<path d="M93.0004 68.9L76.6004 51.4V68.2H75.4004V48.4L91.9004 65.8V48.7H93.0004V68.9Z" fill="white"/>
<path d="M119.1 57V48.7H120.3V68.3H119.1V58.0999H107.2V68.1999H106V48.7H107.2V57H119.1Z" fill="white"/>
<path d="M125.8 49.7999V56.9H133.7V58.0999H125.8V67.0999H133.9V68.3H124.5V48.7H133.9V49.9H125.8V49.7999Z" fill="white"/>
<path d="M147.799 68.3H146.399L139.999 59H139.399V68.3H138.199V48.7H140.599C142.199 48.7 143.699 48.7 145.099 49.7C146.499 50.7 147.099 52.2 147.099 53.9C147.099 57.3 144.699 59.1 141.499 59L147.799 68.3ZM140.999 57.7999C142.199 57.7999 143.399 57.7 144.399 56.9C145.299 56.1 145.799 54.9999 145.799 53.7999C145.799 52.2999 145.099 50.8999 143.699 50.2999C142.699 49.7999 141.299 49.9 140.199 49.9H139.399V57.9H140.999V57.7999Z" fill="white"/>
<path d="M152.899 68.3H151.699V48.7H155.199C156.699 48.7 158.199 48.7999 159.399 49.7999C160.599 50.7999 161.199 52.2999 161.199 53.7999C161.199 55.1999 160.699 56.8 159.599 57.7C158.399 58.7 156.799 58.9 155.199 58.9H152.999V68.3H152.899ZM155.199 57.7999C156.499 57.7999 157.599 57.6 158.599 56.7C159.499 55.9 159.899 54.8999 159.899 53.7999C159.899 52.5999 159.399 51.3999 158.399 50.5999C157.399 49.7999 156.199 49.7999 154.999 49.7999H152.899V57.7999H155.199Z" fill="white"/>
<path d="M165.601 49.7999V56.9H173.501V58.0999H165.601V67.0999H173.701V68.3H164.301V48.7H173.701V49.9H165.601V49.7999Z" fill="white"/>
<path d="M195.001 68.9L178.501 51.4V68.2H177.301V48.4L193.801 65.8V48.7H195.001V68.9Z" fill="white"/>
</g>
<defs>
<clipPath id="clip0_421_4015">
<rect width="195" height="69" fill="white"/>
</clipPath>
</defs>
</svg>
