<svg width="83" height="30" viewBox="0 0 83 30" fill="none" xmlns="http://www.w3.org/2000/svg">
<g clip-path="url(#clip0_420_4404)">
<path d="M17.0075 0.39502C17.0895 0.40502 17.1725 0.42002 17.2545 0.42202C17.5498 0.429353 17.8455 0.434686 18.1415 0.43802C18.9525 0.45102 19.7615 0.50102 20.5715 0.56502C21.2668 0.619686 21.9588 0.701353 22.6475 0.81002C26.7175 1.46002 29.8755 3.52302 32.1395 6.95202C33.1695 8.51202 33.8395 10.226 34.2145 12.057C34.4625 13.264 34.5735 14.485 34.5225 15.717C34.3845 19.051 33.3455 22.069 31.2965 24.721C30.5444 25.6942 29.6528 26.5511 28.6505 27.264C27.5081 28.0838 26.2086 28.6585 24.8335 28.952C24.0395 29.123 23.2395 29.244 22.4315 29.325C21.0715 29.462 19.7095 29.505 18.3435 29.505H1.21448C1.10915 29.5044 1.00315 29.5027 0.896484 29.5V28.954C0.962484 28.917 0.974484 28.846 1.00348 28.786C1.04048 28.7022 1.09978 28.6302 1.1749 28.5779C1.25002 28.5255 1.33809 28.4948 1.42948 28.489C1.47415 28.485 1.51948 28.482 1.56548 28.48L3.17848 28.413C3.91348 28.383 4.64848 28.358 5.38348 28.324C5.56448 28.316 5.74748 28.295 5.92348 28.257C6.10048 28.22 6.27348 28.162 6.44348 28.097C6.64213 28.0167 6.8056 27.8681 6.90448 27.678C7.05948 27.402 7.14448 27.104 7.17448 26.794C7.21448 26.357 7.25048 25.918 7.26748 25.48C7.31748 24.155 7.31348 22.828 7.31348 21.503C7.31348 16.836 7.31548 12.169 7.30948 7.50202C7.30848 6.44202 7.28648 5.38102 7.26248 4.32002C7.25511 3.85793 7.21366 3.39701 7.13848 2.94102C7.07968 2.59414 6.90679 2.27682 6.64721 2.03934C6.38763 1.80185 6.05621 1.6578 5.70548 1.63002C5.26148 1.58402 4.81448 1.56002 4.36748 1.53402C3.95148 1.50902 3.53448 1.49302 3.11748 1.47302C2.83048 1.45802 2.54248 1.44602 2.25548 1.42802C2.17448 1.42302 2.08748 1.43802 2.00248 1.36802C2.00248 1.21202 1.99148 1.04502 2.00548 0.88102C2.02348 0.658019 2.13748 0.49902 2.36248 0.43302C2.39148 0.42502 2.41748 0.40902 2.44448 0.39602L17.0075 0.39502ZM12.7975 27.975C12.8435 27.981 12.8735 27.989 12.9025 27.99C13.2665 28.0087 13.6302 28.026 13.9935 28.042C14.5235 28.064 15.0542 28.085 15.5855 28.105C16.9955 28.156 18.4055 28.179 19.8155 28.096C20.4511 28.0611 21.0835 27.983 21.7085 27.862C22.7024 27.6715 23.6412 27.2615 24.4565 26.662C25.0913 26.1928 25.6645 25.6455 26.1625 25.033C26.9425 24.073 27.5435 23.006 28.0155 21.866C28.7555 20.079 29.1515 18.211 29.2875 16.286C29.3435 15.506 29.3502 14.726 29.3075 13.946C29.2569 12.8935 29.114 11.8475 28.8805 10.82C28.5946 9.53897 28.1361 8.30268 27.5175 7.14502C26.9007 5.98454 26.0861 4.94056 25.1105 4.06002C24.1976 3.23132 23.1096 2.61914 21.9275 2.26902C20.8985 1.96402 19.8445 1.80202 18.7765 1.71802C18.3758 1.68517 17.9743 1.66383 17.5725 1.65402C16.9352 1.64069 16.2985 1.63635 15.6625 1.64102C15.3435 1.64202 15.0245 1.66302 14.7075 1.68902C14.2922 1.72169 13.8772 1.76269 13.4625 1.81202C13.2385 1.83902 13.0095 1.84202 12.7885 1.91102L12.7255 2.08402C12.5335 2.63302 12.4535 3.20402 12.4185 3.77902C12.3755 4.46708 12.3449 5.15586 12.3265 5.84502C12.2915 7.25502 12.2595 8.66302 12.2435 10.073C12.2265 11.619 12.2235 13.165 12.2255 14.711C12.2255 16.659 12.2105 18.606 12.2575 20.554C12.2995 22.35 12.3035 24.146 12.4075 25.94C12.4315 26.34 12.4715 26.74 12.5505 27.135C12.6065 27.417 12.6805 27.695 12.7965 27.975M55.8275 30C55.7555 29.983 55.6845 29.957 55.6105 29.949C55.1805 29.902 54.7525 29.859 54.3275 29.773C53.4145 29.589 52.5455 29.288 51.7395 28.817C50.0535 27.83 48.9665 26.384 48.4565 24.504C48.2145 23.6094 48.1259 22.6802 48.1945 21.756C48.2792 20.6015 48.6617 19.4887 49.3045 18.526C49.9865 17.488 50.8845 16.674 51.9465 16.039C52.9003 15.4741 53.9431 15.0751 55.0305 14.859C55.9105 14.6777 56.7995 14.6034 57.6975 14.636C58.9885 14.682 60.2405 14.916 61.4275 15.446C62.6495 15.992 63.6735 16.787 64.4495 17.886C65.0297 18.7137 65.4266 19.6557 65.6135 20.649C65.7695 21.436 65.7935 22.229 65.7385 23.025C65.6949 23.737 65.538 24.4375 65.2735 25.1C64.8975 26.032 64.3055 26.809 63.5535 27.468C62.927 28.0084 62.2312 28.4627 61.4845 28.819C60.4558 29.3224 59.3755 29.6577 58.2435 29.825C57.9065 29.875 57.5665 29.906 57.2275 29.948C57.1545 29.958 57.0745 29.946 57.0115 30H55.8275ZM61.9825 22.808C61.9895 22.0831 61.9249 21.3592 61.7895 20.647C61.6388 19.8188 61.363 19.0183 60.9715 18.273C60.6499 17.6608 60.2195 17.1122 59.7015 16.654C59.0382 16.0671 58.2111 15.6972 57.3315 15.594C56.7658 15.5272 56.1928 15.5556 55.6365 15.678C54.5795 15.908 53.7175 16.445 53.0735 17.318C52.7935 17.699 52.5785 18.115 52.4135 18.558C52.1431 19.2989 51.9912 20.0778 51.9635 20.866C51.9335 21.541 51.9565 22.214 52.0435 22.885C52.1505 23.699 52.3385 24.492 52.6425 25.256C52.9645 26.066 53.3965 26.808 53.9975 27.446C54.5635 28.046 55.2275 28.497 56.0215 28.743C56.5299 28.8981 57.0621 28.9597 57.5925 28.925C58.1614 28.8977 58.7199 28.7627 59.2385 28.527C60.0265 28.16 60.6215 27.583 61.0625 26.84C61.3791 26.2958 61.6094 25.7058 61.7455 25.091C61.9169 24.3421 61.9968 23.5752 61.9835 22.807L61.9825 22.808ZM81.9045 17.54C81.8905 17.582 81.8685 17.623 81.8655 17.666C81.8565 17.795 81.8163 17.9199 81.7485 18.03C81.4955 18.477 81.1155 18.736 80.6005 18.78C80.3352 18.8033 80.0678 18.7782 79.8115 18.706C79.5162 18.6295 79.2477 18.4731 79.0355 18.254C78.9005 18.111 78.7795 17.955 78.6555 17.801C78.5575 17.677 78.4715 17.541 78.3675 17.421C78.2844 17.3231 78.1904 17.2348 78.0875 17.158C77.9929 17.0875 77.8837 17.039 77.768 17.0161C77.6522 16.9933 77.5328 16.9967 77.4185 17.026C77.1962 17.0775 76.9899 17.1826 76.8175 17.332C76.7375 17.402 76.6611 17.476 76.5885 17.554C76.2065 17.9654 75.8241 18.3754 75.4415 18.784C75.3013 18.9288 75.1923 19.101 75.1214 19.2897C75.0506 19.4784 75.0193 19.6797 75.0295 19.881C75.0281 20.6384 75.0278 21.396 75.0285 22.154V26.883C75.0285 27.125 75.0255 27.368 75.0755 27.607C75.0925 27.688 75.1105 27.77 75.1385 27.848C75.2151 28.0654 75.3575 28.225 75.5655 28.327C75.7655 28.425 75.9805 28.47 76.1985 28.501C76.6195 28.561 77.0445 28.566 77.4685 28.579C77.7495 28.587 78.0295 28.584 78.3105 28.586H78.5305C78.5815 28.753 78.5855 29.05 78.5435 29.18C78.5154 29.2711 78.4597 29.3512 78.3841 29.4092C78.3085 29.4673 78.2167 29.5004 78.1215 29.504C78.0615 29.508 78.0005 29.506 77.9395 29.506H68.3625C68.2805 29.506 68.1965 29.522 68.1085 29.483C68.0788 29.3049 68.0795 29.123 68.1105 28.945C68.1301 28.8517 68.1788 28.7671 68.2496 28.7033C68.3204 28.6395 68.4097 28.5998 68.5045 28.59C68.5418 28.586 68.5795 28.584 68.6175 28.584C69.0425 28.571 69.4675 28.563 69.8905 28.544C70.2469 28.5351 70.6014 28.4895 70.9485 28.408C71.0591 28.38 71.1658 28.3427 71.2685 28.296C71.3607 28.2587 71.443 28.2006 71.5093 28.1264C71.5755 28.0522 71.6238 27.9638 71.6505 27.868C71.7075 27.665 71.7635 27.458 71.7925 27.25C71.8265 27.002 71.8405 26.752 71.8465 26.502C71.8645 25.706 71.8835 24.912 71.8865 24.116C71.8911 22.328 71.8915 20.5397 71.8875 18.751C71.8875 18.501 71.8655 18.251 71.8455 18.003C71.8363 17.9125 71.8147 17.8237 71.7815 17.739C71.7681 17.6947 71.7417 17.6554 71.7057 17.6263C71.6696 17.5972 71.6256 17.5797 71.5795 17.576C71.4895 17.568 71.3965 17.553 71.3095 17.567C71.0853 17.6039 70.8627 17.6502 70.6425 17.706C70.2025 17.82 69.7665 17.946 69.3285 18.066C69.2705 18.082 69.2105 18.093 69.1415 18.109C69.0552 17.9492 69.0099 17.7706 69.0095 17.589C69.0096 17.5127 69.0305 17.4378 69.0699 17.3724C69.1094 17.307 69.1659 17.2537 69.2335 17.218C69.2925 17.184 69.3555 17.158 69.4185 17.13L74.6635 14.833C74.7115 14.812 74.7595 14.788 74.8095 14.771C75.0145 14.703 75.1865 14.759 75.3055 14.938C75.3675 15.032 75.4205 15.133 75.4815 15.239C75.4665 15.279 75.4535 15.322 75.4345 15.362C75.2745 15.709 75.1845 16.077 75.1295 16.452C75.0495 17.001 75.0255 17.553 75.0295 18.107C75.0301 18.1357 75.0331 18.1647 75.0385 18.194C75.1125 18.21 75.1365 18.152 75.1685 18.117C75.5471 17.7137 75.9251 17.3097 76.3025 16.905C76.5765 16.611 76.8515 16.318 77.1275 16.026C77.3361 15.806 77.5618 15.604 77.8045 15.42C78.2365 15.094 78.7185 14.93 79.2645 14.94C79.7815 14.95 80.2715 15.057 80.7245 15.31C81.2125 15.58 81.5695 15.968 81.7695 16.494C81.8225 16.637 81.8605 16.782 81.8665 16.936C81.8685 16.986 81.8905 17.036 81.9035 17.086L81.9045 17.54ZM37.3165 18.109C37.2414 17.9575 37.1965 17.7927 37.1845 17.624C37.1796 17.5437 37.1974 17.4637 37.2357 17.393C37.2741 17.3223 37.3315 17.2637 37.4015 17.224C37.4595 17.189 37.5215 17.162 37.5845 17.134L42.8315 14.839C42.8805 14.817 42.9275 14.791 42.9775 14.777C43.1965 14.714 43.3995 14.74 43.5715 14.899C43.6715 14.992 43.7635 15.091 43.8665 15.195C43.8412 15.277 43.8155 15.3564 43.7895 15.433C43.6355 15.885 43.4975 16.342 43.4035 16.81C43.2974 17.3607 43.2379 17.9193 43.2255 18.48C43.2133 18.9422 43.2076 19.4046 43.2085 19.867C43.2065 22.1564 43.2065 24.4457 43.2085 26.735C43.2085 26.97 43.2085 27.205 43.2245 27.439C43.2365 27.596 43.2675 27.754 43.3085 27.907C43.3715 28.142 43.5285 28.303 43.7565 28.386C43.8835 28.432 44.0165 28.47 44.1505 28.49C44.3445 28.519 44.5425 28.534 44.7385 28.544C45.0645 28.561 45.3905 28.569 45.7165 28.582C45.7595 28.584 45.8035 28.59 45.8605 28.596C45.8765 28.78 45.8825 28.953 45.8605 29.124C45.8446 29.2222 45.7966 29.3123 45.7241 29.3804C45.6515 29.4484 45.5585 29.4905 45.4595 29.5C45.3995 29.506 45.3385 29.505 45.2775 29.505H37.3365C37.2625 29.505 37.1885 29.498 37.1035 29.495C37.0801 29.3184 37.0805 29.1395 37.1045 28.963C37.1178 28.8601 37.1667 28.7651 37.2427 28.6945C37.3186 28.6238 37.4169 28.5819 37.5205 28.576C37.6935 28.556 37.8695 28.56 38.0425 28.546C38.3595 28.518 38.6765 28.49 38.9925 28.451C39.1195 28.435 39.2445 28.395 39.3645 28.352C39.473 28.3158 39.5713 28.2543 39.6513 28.1726C39.7313 28.0909 39.7906 27.9913 39.8245 27.882C39.9135 27.622 39.9655 27.356 39.9915 27.083C40.0435 26.547 40.0455 26.008 40.0515 25.471C40.0621 24.251 40.0695 23.031 40.0735 21.811C40.0768 20.8477 40.0758 19.8847 40.0705 18.922C40.0695 18.642 40.0525 18.362 40.0345 18.082C40.0263 17.9764 40.0062 17.8721 39.9745 17.771C39.9385 17.6537 39.8562 17.585 39.7275 17.565C39.5614 17.5464 39.3934 17.56 39.2325 17.605C38.8855 17.687 38.5425 17.781 38.1985 17.873C37.9652 17.937 37.7318 18.002 37.4985 18.068C37.4405 18.083 37.3825 18.093 37.3155 18.108L37.3165 18.109ZM39.4005 7.80002C39.3965 6.69802 40.3145 5.73302 41.5025 5.72802C42.6925 5.72302 43.6125 6.63002 43.6145 7.82902C43.6155 9.03702 42.6885 9.93702 41.5085 9.93602C40.2945 9.93602 39.4175 9.00002 39.4005 7.80002Z" fill="white"/>
</g>
<defs>
<clipPath id="clip0_420_4404">
<rect width="83" height="30" fill="white"/>
</clipPath>
</defs>
</svg>
