<svg xmlns="http://www.w3.org/2000/svg" fill="none" viewBox="0 0 282 20" height="20" width="282">
<g clip-path="url(#clip0_1_4733)">
<path fill="white" d="M12.0315 1.33145C11.9017 0.95194 11.9333 0.246068 11.365 0.310352C9.48647 0.343023 7.56223 0.298165 5.52691 0.298165H0.808323C0.571855 0.298165 -0.151855 0.257899 0.0745471 0.681741C0.413443 1.4519 0.684702 2.15335 0.843996 3.03529C0.958433 4.09225 0.898919 5.65428 0.924879 7.10823C0.977506 10.1883 1.0213 13.5918 0.809382 16.6756C0.808676 17.2949 0.809382 17.9536 0.813267 18.4506C0.823863 18.9594 0.722848 19.7187 1.38846 19.7722C1.81106 19.8454 3.53415 19.7565 4.18598 19.7435C5.14069 19.7242 4.83623 19.4049 4.5904 18.7817C4.3972 18.3277 4.15702 17.2008 4.1323 16.479C4.05777 15.1444 4.03887 13.5813 4.10828 12.1747C4.12947 11.7525 4.13194 11.3126 4.15896 10.9062C4.17998 10.7347 4.28788 10.6678 4.453 10.6408C6.25027 10.573 8.38413 10.376 10.1286 11.1508C10.5717 11.3436 10.6776 10.9433 10.7057 10.5602C10.7666 9.76236 11.0183 8.46046 9.81459 8.58655C8.25733 8.59874 6.4417 8.63529 4.88426 8.64059C4.36594 8.65631 4.06289 8.47088 4.10846 7.91618C4.0825 6.8126 4.06325 5.59088 4.0583 4.46046C4.05795 3.91035 4.0523 3.39379 4.05901 2.8481C4.05177 2.57278 4.13653 2.4534 4.41821 2.40836C5.82572 2.22894 7.31252 2.34002 8.71985 2.47547C9.32152 2.52669 9.95252 2.6851 10.5348 2.87847C10.8479 2.97825 11.1465 3.09022 11.4095 3.19724C11.5387 3.25428 11.7491 3.41075 11.9198 3.40368C12.3193 3.36289 12.0832 1.66505 12.0387 1.36077L12.0315 1.33145Z"></path>
<path fill="white" d="M18.8687 2.77071C18.8643 2.69142 18.8587 2.58828 18.8892 2.51146C18.9109 2.45654 18.9662 2.42281 19.025 2.41539C20.7813 2.19517 23.7738 2.32162 24.5309 4.2697C24.9754 5.66449 24.7804 7.40312 23.5993 8.07226C23.0305 8.41539 22.3944 8.45372 21.7279 8.55915C21.09 8.65822 20.3515 8.67623 19.5366 8.63667C18.9975 8.65998 19.0006 8.25469 18.9768 7.86051C18.8652 6.00709 18.9362 3.81177 18.8687 2.77071ZM30.0986 18.7702C28.5464 16.944 27.5631 14.7283 26.1752 12.797C25.9276 12.4013 25.7065 12.0295 25.437 11.7049C25.1084 11.3229 24.7273 10.9731 24.3619 10.5941C24.0749 10.376 24.1062 10.2768 24.4385 10.1401C26.729 9.34043 28.42 7.1806 28.1323 4.72692C27.9866 2.99129 26.873 1.79517 25.3408 1.02714C23.6203 0.164798 19.5592 0.298131 17.7212 0.289125C17.0008 0.285592 15.6255 0.298133 15.1981 0.326564C15.0203 0.338397 14.796 0.429698 14.8899 0.646211C14.9851 0.865548 15.0388 0.958087 15.1227 1.13999C15.1912 1.28851 15.2468 1.39182 15.3021 1.53204C15.5792 2.2229 15.6647 3.89372 15.6746 5.13663C15.5702 7.82979 15.5855 10.429 15.6117 13.2724C15.664 15.0683 15.8104 16.971 15.6797 18.63C15.6641 19.0504 15.6465 19.3697 15.6696 19.5543C15.6979 19.6779 16.0154 19.7579 16.1832 19.7802C16.5604 19.8202 18.4664 19.7537 18.9503 19.7549C19.2306 19.7431 19.6518 19.7906 19.8102 19.5287C19.9578 19.1884 19.5727 18.824 19.4457 18.548C18.8625 17.0047 18.9964 15.2281 19.0169 13.5642C19.0337 13.1087 19.0741 12.7345 19.0773 12.2593C19.0928 11.8506 19.0172 11.4701 19.158 11.0965C19.4854 10.5284 20.6568 10.8431 21.1296 11.1538C21.8527 11.6198 22.2234 12.3488 22.6264 13.0872C23.3927 14.4136 23.6511 15.1633 24.3633 16.3343C25.1172 17.6156 25.283 17.7215 26 18.9286C26.3036 19.4515 26.4352 19.8391 27.1354 19.7727C27.6129 19.7565 30.1088 19.7339 30.3082 19.6419C30.6271 19.4158 30.2421 19.0255 30.115 18.7951L30.0986 18.7702Z"></path>
<path fill="white" d="M44.3642 16.5058C44.1557 16.446 43.8579 16.6715 43.6767 16.7836C43.0701 17.2114 42.1852 17.4176 41.2347 17.5367C40.3821 17.641 39.4441 17.6898 38.5973 17.7403C38.1883 17.7675 37.8183 17.7903 37.4233 17.693C36.2229 17.4708 36.7921 13.4371 36.5696 12.3232C36.6044 11.8452 36.3679 10.7451 37.0014 10.5977C37.2811 10.5179 37.5285 10.4711 37.8046 10.4822C39.0869 10.5007 40.5597 10.5127 41.7175 10.9447C42.7983 11.5232 42.7572 10.9122 42.7054 10.0204C42.6803 9.67141 42.6726 9.28872 42.6531 8.92633C42.6408 8.71847 42.4629 8.56607 42.2637 8.56253C41.5679 8.5334 40.3835 8.49931 39.2409 8.50161C38.5265 8.5039 37.8581 8.49755 37.2947 8.49278C37.0434 8.479 36.5542 8.5832 36.5578 8.21446C36.5934 6.74779 36.5438 4.16024 36.5882 2.86081C36.5963 2.61834 36.7656 2.40978 37.0032 2.35998C37.9305 2.16519 40.1694 2.36827 40.9654 2.48342C41.6686 2.58302 42.2214 2.76404 42.7633 3.06373C42.9396 3.15097 43.198 3.3447 43.3908 3.36465C43.9743 3.37031 43.4726 1.33781 43.1874 0.576133C43.1227 0.40377 42.9597 0.289687 42.7755 0.290746C42.0455 0.294986 40.7425 0.36386 39.2636 0.371101C37.9436 0.383462 36.5219 0.298869 35.2742 0.286685C34.5813 0.278737 33.2463 0.308583 32.7856 0.313882C32.6357 0.320064 32.4857 0.468053 32.5339 0.629996C32.7937 1.19494 32.9029 1.44889 33.0161 2.16201C33.2538 3.69772 33.4145 5.83 33.4222 7.47556C33.3965 9.28995 33.433 15.3493 33.436 16.2952C33.4443 17.4372 33.3369 18.5406 33.2848 19.4551C33.2892 19.6389 33.5342 19.7007 33.6896 19.7041C34.9583 19.7117 36.6636 19.724 38.3731 19.7258C40.2048 19.7304 42.1818 19.8005 43.9499 19.7194C44.3142 19.6133 44.2231 18.8852 44.3218 18.568C44.3319 18.1104 44.6955 16.7571 44.3891 16.5177L44.3642 16.5058Z"></path>
<path fill="white" d="M56.2328 9.90125C55.1047 8.95079 53.6276 8.25145 52.4238 7.38894C51.0819 6.33322 49.7103 3.93675 51.4523 2.64598C52.7167 1.77834 54.4711 2.34381 55.5522 3.03203C56.1105 3.32554 56.5385 3.89719 57.0583 4.20042C57.2656 4.30037 57.4583 4.3258 57.4713 4.16192C57.536 3.35044 57.5891 2.045 57.2042 1.16094C56.7067 0.289067 53.5655 0.116176 52.5566 0.172864C50.3053 0.294189 47.7928 1.74037 47.5374 4.16315C47.3574 5.88183 47.9439 7.50585 49.1627 8.7975C50.1652 9.84562 51.5547 10.4302 52.74 11.2238C53.4555 11.7052 54.1693 12.1995 54.8098 12.7811C55.7278 13.539 56.0843 15.0183 55.6776 16.0528C55.1598 17.6279 53.263 18.019 51.8643 17.796C50.5825 17.6157 49.7398 16.8097 48.7695 15.9399C48.1481 15.3723 47.6517 14.8192 47.4724 14.7171C47.103 14.507 47.1106 15.1807 47.1392 15.4322C47.1692 15.8356 47.2186 16.3473 47.2545 16.822C47.2573 17.3526 47.2688 18.0137 47.6329 18.4399C48.8593 19.6927 50.9078 19.8606 52.5804 19.8824C53.2986 19.8873 53.9708 19.9503 54.6535 19.7941C57.4359 19.0772 59.4857 16.7802 58.9053 13.7787C58.7001 12.1773 57.4645 10.7514 56.2562 9.91891L56.2328 9.90125Z"></path>
<path fill="white" d="M75.9508 16.6885C72.864 17.9691 68.4954 18.0927 66.3866 15.1171C64.8373 12.8937 64.4754 9.85532 65.0074 7.21338C65.5366 4.98026 67.1861 2.94194 69.4402 2.4238C70.9025 2.15254 72.42 2.48631 73.7876 3.02636C74.5629 3.33912 75.3182 3.71739 75.9462 4.24914C76.6852 4.91404 77.2599 5.29797 77.0301 3.88234C76.879 2.95236 77.06 1.64852 76.0543 1.17859C75.1596 0.716954 74.0601 0.469888 72.9946 0.321721C71.9087 0.176555 70.7813 0.0690052 69.7477 0.205871C62.8468 1.03784 60.0315 9.02636 62.3783 14.9593C63.2089 16.8406 64.7617 18.3321 66.6637 19.0928C67.6633 19.5191 68.9101 19.6598 69.9878 19.8126C71.8444 20.0672 75.9015 19.216 76.9051 17.512C77.102 17.118 77.0372 16.7154 76.8248 16.579C76.5641 16.4363 76.2397 16.576 75.9818 16.6756L75.9508 16.6885Z"></path>
<path fill="white" d="M95.0225 11.0112C94.9326 13.6964 93.5987 16.7397 90.8187 17.5101C87.9657 18.2744 85.2014 17.2734 83.9835 14.541C82.7461 12.1825 82.4483 9.37566 83.1567 6.82219C83.7804 4.17795 86.2438 2.08594 89.0158 2.27738C93.446 2.4946 95.0981 7.16921 95.0235 10.982L95.0225 11.0112ZM95.2745 2.60692C92.212 -0.446152 86.6869 -0.791936 83.296 1.90316C81.8862 3.10087 80.6525 4.65425 80.0983 6.41213C79.4359 8.84179 79.3465 11.5954 80.1663 13.9976C80.7028 15.5484 81.6701 16.9898 82.9808 17.9939C85.3829 19.7991 88.7355 20.3853 91.622 19.5387C96.3205 18.1956 98.6159 13.9517 98.1278 9.22378C97.8903 6.59897 97.3693 4.42696 95.2999 2.6304L95.2745 2.60692Z"></path>
<path fill="white" d="M132.901 11.0763C132.811 13.7615 131.477 16.8049 128.697 17.5752C125.844 18.3396 123.08 17.3386 121.862 14.6062C120.624 12.2477 120.327 9.44084 121.035 6.88738C121.659 4.24314 124.122 2.15113 126.894 2.34256C131.324 2.55978 132.976 7.2344 132.902 11.0472L132.901 11.0763ZM133.153 2.6721C130.09 -0.380969 124.565 -0.726752 121.174 1.96835C119.764 3.16605 118.531 4.71943 117.977 6.47731C117.314 8.90698 117.225 11.6605 118.045 14.0628C118.581 15.6136 119.548 17.055 120.859 18.0591C123.261 19.8643 126.614 20.4505 129.5 19.6038C134.199 18.2608 136.494 14.0169 136.006 9.28897C135.769 6.66415 135.248 4.49214 133.178 2.69559L133.153 2.6721Z"></path>
<path fill="white" d="M105.21 12.2128C105.219 11.6106 105.238 10.9638 105.223 10.7028C105.217 10.5771 106.16 10.5578 106.393 10.5578C107.144 10.5578 107.926 10.5824 108.624 10.7632C109.63 10.9955 110.439 11.4594 110.897 12.2C111.343 12.9223 111.502 13.8682 111.312 14.8946C111.182 15.8619 110.709 16.5792 109.966 17.0461C109.344 17.4373 108.51 17.7393 107.466 17.7619C106.982 17.7725 106.189 17.6676 105.786 17.6353C105.708 17.6289 105.644 17.5724 105.628 17.4958C105.549 17.1191 105.325 15.9825 105.287 14.9407C105.253 13.9871 105.198 12.9608 105.21 12.2128ZM110.309 3.97329C110.551 4.48067 110.627 5.26159 110.518 5.98142C110.313 7.34301 109.442 8.06071 108.026 8.30495C107.428 8.4125 106.801 8.49532 106.165 8.49338C106.033 8.49285 105.285 8.42027 105.253 8.21117C105.004 6.60022 105.188 3.38645 105.236 2.63961C105.242 2.54919 105.314 2.47872 105.404 2.47519C105.917 2.45488 107.53 2.40314 108.094 2.53153C109.447 2.83899 110.08 3.49347 110.309 3.97329ZM110.934 9.66671C110.924 9.66354 110.925 9.65188 110.915 9.64852C110.639 9.55969 110.334 9.34901 110.304 9.2812C110.282 9.20084 110.836 9.00287 110.908 8.96614C111.714 8.58592 112.359 8.08349 112.826 7.5249C113.342 6.90627 113.569 6.14407 113.661 5.31581C113.754 4.44358 113.607 3.13585 112.849 2.24049C112.046 1.31387 110.974 0.83051 109.797 0.597575C108.626 0.365699 104.994 0.298413 104.42 0.298061C103.464 0.29753 102.297 0.29347 101.756 0.298061C101.61 0.296119 101.394 0.380887 101.304 0.518634C101.248 0.604816 101.242 0.707421 101.306 0.849408C101.751 1.73965 101.965 2.64349 102.006 3.60544C102.03 4.28128 102.074 5.37444 102.08 6.69912C102.084 7.63722 102.084 8.69135 102.083 9.79457C102.082 10.8026 102.115 14.798 102.114 15.6771C102.113 16.7118 102.053 17.6604 102.057 18.4616C102.058 18.8252 102.045 19.6898 102.313 19.725C102.848 19.7427 108.717 19.7163 109.587 19.548C110.341 19.4022 111.127 19.1517 111.854 18.7876C112.644 18.3915 113.323 17.9117 113.786 17.3059C114.269 16.674 114.51 15.8818 114.63 15.0318C114.87 13.7375 114.62 12.5252 113.933 11.5604C113.291 10.6569 112.236 10.0549 110.934 9.66671Z"></path>
<path fill="white" d="M152.148 16.2435C152.009 16.1158 151.763 16.226 151.459 16.4173C151.345 16.4895 151.24 16.5857 151.115 16.6534C150.285 17.1124 149.347 17.3651 148.403 17.5106C147.411 17.6635 144.285 17.7266 143.976 17.515C143.827 17.3986 143.781 17.1897 143.719 16.9389C143.543 16.2105 143.542 12.7759 143.541 11.6178C143.541 10.6456 143.532 3.83042 143.532 3.11254C143.533 2.04552 143.476 1.2962 143.473 0.821151C143.473 0.807199 143.494 0.402961 143.364 0.338147C143.273 0.293998 142.937 0.301416 142.659 0.298061C142.311 0.296294 140.863 0.297883 140.399 0.298061C139.882 0.298766 139.605 0.328788 139.484 0.541063C139.388 0.759164 139.755 1.29956 139.783 1.38044C140.09 2.04075 140.257 5.85744 140.253 7.17135C140.251 8.04287 140.164 15.4869 140.169 16.4487C140.178 17.9115 140.203 19.0808 140.25 19.6332C140.253 19.6727 140.27 19.696 140.298 19.7232C140.327 19.7502 140.351 19.7877 140.391 19.7886C141.484 19.8145 142.779 19.8098 144.139 19.8098C145.09 19.8098 146.073 19.7547 147.043 19.751C148.618 19.7449 150.107 19.669 151.34 19.6794C151.896 19.7268 152.292 16.4388 152.177 16.2557C152.17 16.2444 152.156 16.2516 152.148 16.2435Z"></path>
<path fill="white" d="M190.069 11.7063C189.914 11.7439 189.73 11.7146 189.491 11.7082C189.39 11.7057 187.443 11.7174 186.01 11.7172C185.852 11.7169 185.107 11.7488 184.995 11.7405C184.948 11.737 184.851 11.6747 184.849 11.677C184.849 11.6674 184.895 11.6093 184.909 11.5673C185.056 11.2114 185.354 10.2732 185.749 9.20402C186.032 8.44022 186.428 7.63227 186.721 6.85717C187.093 5.86909 187.465 4.94512 187.683 4.457C188.043 5.44508 189.356 9.41011 189.596 10.1031C189.69 10.3858 190.068 11.6955 190.069 11.7063ZM195.067 16.2472C194.741 15.4569 194.49 14.6562 194.188 13.7691C194.037 13.3232 193.175 10.917 192.682 9.47722C192.188 8.03739 191.173 5.16728 190.679 3.72711C190.186 2.28693 189.83 0.96384 189.689 0.848342C189.352 0.574788 187.603 0.298057 187.262 0.295585C186.692 0.291345 186.422 0.603751 186.411 1.04366C186.362 1.82795 186.146 2.39077 185.961 2.81744C185.729 3.41806 185.106 5.06662 184.334 7.08287C183.927 8.14636 183.487 9.33735 183.029 10.5331C182.58 11.7068 182.128 12.8913 181.711 13.9788C181.185 15.3494 180.711 16.5653 180.381 17.4193C180.378 17.4274 179.578 19.2734 179.673 19.4952C179.843 19.7568 182.024 19.7656 182.338 19.7651C182.779 19.7796 182.95 19.6439 183.061 19.5019C183.186 19.3405 182.984 18.674 182.956 18.5532C182.81 17.9201 182.842 17.1837 183.065 16.3648C183.285 15.5858 183.713 14.7867 184.079 13.9775C184.259 13.6347 184.345 13.6116 184.72 13.6158C184.815 13.6174 186.334 13.5719 187.626 13.5721C188.918 13.5721 188.918 13.5814 190.21 13.5821C190.654 13.5839 190.746 13.6201 190.863 13.9032C191.121 14.6018 191.355 15.3469 191.596 16.0616C191.723 16.439 191.858 16.8107 191.985 17.1765C192.111 17.5399 193.012 19.6794 193.447 19.6805C193.732 19.6911 195.639 19.7006 195.89 19.7026C196.306 19.7114 196.524 19.6729 196.61 19.5235C196.72 19.3321 195.379 17.005 195.067 16.2472Z"></path>
<path fill="white" d="M221.52 18.8361C221.029 17.8852 221.02 13.4343 221.02 11.5786C221.02 10.46 220.931 9.19641 220.931 7.92153C220.931 6.67155 221.041 5.41045 221.041 4.26378C221.041 2.74855 221.021 1.43305 221.019 0.606738C221.013 0.520381 220.982 0.402059 220.854 0.349431C220.736 0.301221 219.454 0.262897 218.72 0.271375C218.251 0.276319 217.809 0.322414 217.407 0.314288C217.033 0.311994 216.914 0.448329 216.835 0.577069C216.737 0.735833 216.779 0.887181 216.925 1.16851C216.948 1.21407 216.982 1.25681 217.008 1.30767C217.34 1.94325 217.529 2.82308 217.574 3.90122C217.589 4.50661 217.642 5.71314 217.645 7.21318C217.647 8.2161 217.605 9.35058 217.605 10.5246C217.604 11.6188 217.531 12.7475 217.529 13.8368C217.528 14.8206 217.559 15.749 217.559 16.573C217.558 17.7409 217.576 19.3448 217.576 19.3811C217.577 19.6395 217.636 19.6697 218.004 19.6819C218.068 19.6845 221.277 19.7949 221.322 19.7933C221.52 19.7868 221.825 19.7086 221.82 19.3954C221.799 19.2519 221.546 18.896 221.52 18.8361Z"></path>
<path fill="white" d="M240.519 11.0715C240.429 13.7567 239.095 16.8 236.315 17.5704C233.462 18.3347 230.698 17.3337 229.48 14.6014C228.242 12.2429 227.944 9.43597 228.653 6.8825C229.277 4.23826 231.74 2.14625 234.512 2.33769C238.942 2.55491 240.594 7.22952 240.52 11.0423L240.519 11.0715ZM240.771 2.66723C237.708 -0.385842 232.183 -0.731625 228.792 1.96347C227.382 3.16118 226.149 4.71456 225.594 6.47244C224.932 8.90211 224.843 11.6557 225.662 14.058C226.199 15.6087 227.166 17.0501 228.477 18.0542C230.879 19.8595 234.232 20.4456 237.118 19.599C241.817 18.2559 244.112 14.012 243.624 9.28409C243.386 6.65928 242.865 4.48727 240.796 2.69072L240.771 2.66723Z"></path>
<path fill="white" d="M274.484 11.7063C274.329 11.7439 274.145 11.7146 273.906 11.7082C273.805 11.7057 271.858 11.7174 270.425 11.7172C270.267 11.7169 269.522 11.7488 269.41 11.7405C269.363 11.737 269.266 11.6747 269.265 11.677C269.265 11.6674 269.31 11.6093 269.324 11.5673C269.471 11.2114 269.769 10.2732 270.164 9.20402C270.447 8.44022 270.843 7.63227 271.136 6.85717C271.508 5.86909 271.88 4.94512 272.098 4.457C272.458 5.44508 273.771 9.41011 274.011 10.1031C274.105 10.3858 274.483 11.6955 274.484 11.7063ZM279.482 16.2472C279.156 15.4569 278.905 14.6562 278.603 13.7691C278.452 13.3232 277.59 10.917 277.097 9.47722C276.603 8.03739 275.588 5.16728 275.094 3.72711C274.601 2.28693 274.245 0.96384 274.104 0.848342C273.767 0.574788 272.018 0.298057 271.677 0.295585C271.107 0.291345 270.837 0.603751 270.826 1.04366C270.777 1.82795 270.561 2.39077 270.376 2.81744C270.144 3.41806 269.521 5.06662 268.749 7.08287C268.342 8.14636 267.902 9.33735 267.444 10.5331C266.995 11.7068 266.543 12.8913 266.126 13.9788C265.6 15.3494 265.126 16.5653 264.796 17.4193C264.793 17.4274 263.993 19.2734 264.088 19.4952C264.258 19.7568 266.439 19.7656 266.753 19.7651C267.194 19.7796 267.365 19.6439 267.476 19.5019C267.601 19.3405 267.399 18.674 267.371 18.5532C267.225 17.9201 267.257 17.1837 267.48 16.3648C267.7 15.5858 268.128 14.7867 268.494 13.9775C268.674 13.6347 268.761 13.6116 269.135 13.6158C269.23 13.6174 270.749 13.5719 272.041 13.5721C273.333 13.5721 273.333 13.5814 274.625 13.5821C275.069 13.5839 275.161 13.6201 275.278 13.9032C275.536 14.6018 275.77 15.3469 276.011 16.0616C276.139 16.439 276.273 16.8107 276.4 17.1765C276.527 17.5399 277.427 19.6794 277.862 19.6805C278.147 19.6911 280.054 19.7006 280.305 19.7026C280.721 19.7114 280.939 19.6729 281.025 19.5235C281.135 19.3321 279.794 17.005 279.482 16.2472Z"></path>
<path fill="white" d="M202.638 2.88579C202.634 2.80649 202.628 2.70336 202.659 2.62654C202.681 2.57161 202.736 2.53788 202.794 2.53047C204.551 2.31024 207.543 2.43669 208.301 4.38477C208.745 5.77956 208.55 7.51819 207.369 8.18733C206.8 8.53047 206.164 8.56879 205.497 8.67422C204.86 8.77329 204.121 8.7913 203.306 8.75175C202.767 8.77506 202.77 8.36976 202.746 7.97559C202.635 6.12217 202.706 3.92685 202.638 2.88579ZM213.868 18.8853C212.316 17.059 211.333 14.8434 209.945 12.9121C209.697 12.5163 209.476 12.1446 209.207 11.82C208.878 11.438 208.497 11.0882 208.132 10.7092C207.845 10.4911 207.876 10.3918 208.208 10.2551C210.499 9.4555 212.19 7.29568 211.902 4.84199C211.756 3.10636 210.643 1.91025 209.11 1.14221C207.39 0.27987 203.329 0.413203 201.491 0.404197C200.77 0.400665 199.395 0.413205 198.968 0.441636C198.79 0.453469 198.566 0.54477 198.66 0.761283C198.755 0.980621 198.808 1.07316 198.892 1.25506C198.961 1.40358 199.016 1.50689 199.072 1.64711C199.349 2.33797 199.434 4.00879 199.444 5.2517C199.34 7.94486 199.355 10.5441 199.381 13.3875C199.434 15.1834 199.58 17.0861 199.449 18.745C199.434 19.1655 199.416 19.4848 199.439 19.6694C199.467 19.793 199.785 19.873 199.953 19.8952C200.33 19.9353 202.236 19.8687 202.72 19.87C203 19.8581 203.421 19.9057 203.58 19.6438C203.727 19.3034 203.342 18.9391 203.215 18.6631C202.632 17.1198 202.766 15.3432 202.787 13.6793C202.803 13.2238 202.844 12.8496 202.847 12.3744C202.862 11.9657 202.787 11.5851 202.928 11.2116C203.255 10.6435 204.426 10.9582 204.899 11.2688C205.622 11.7349 205.993 12.4639 206.396 13.2023C207.162 14.5287 207.421 15.2784 208.133 16.4494C208.887 17.7306 209.053 17.8366 209.77 19.0437C210.073 19.5666 210.205 19.9542 210.905 19.8878C211.382 19.8716 213.878 19.849 214.078 19.757C214.397 19.5309 214.012 19.1406 213.885 18.9102L213.868 18.8853Z"></path>
<path fill="white" d="M176.465 16.6885C173.378 17.9691 169.01 18.0927 166.901 15.1171C165.352 12.8937 164.99 9.85532 165.522 7.21338C166.051 4.98026 167.7 2.94194 169.954 2.4238C171.417 2.15254 172.934 2.48631 174.302 3.02636C175.077 3.33912 175.832 3.71739 176.46 4.24914C177.2 4.91404 177.774 5.29797 177.544 3.88234C177.393 2.95236 177.574 1.64852 176.569 1.17859C175.674 0.716954 174.574 0.469888 173.509 0.321721C172.423 0.176555 171.296 0.0690052 170.262 0.205871C163.361 1.03784 160.546 9.02636 162.893 14.9593C163.723 16.8406 165.276 18.3321 167.178 19.0928C168.178 19.5191 169.424 19.6598 170.502 19.8126C172.359 20.0672 176.416 19.216 177.419 17.512C177.616 17.118 177.551 16.7154 177.339 16.579C177.078 16.4363 176.754 16.576 176.496 16.6756L176.465 16.6885Z"></path>
<path fill="white" d="M260.88 16.6885C257.793 17.9691 253.425 18.0927 251.316 15.1171C249.767 12.8937 249.405 9.85532 249.937 7.21338C250.466 4.98026 252.115 2.94194 254.369 2.4238C255.832 2.15254 257.349 2.48631 258.717 3.02636C259.492 3.33912 260.247 3.71739 260.875 4.24914C261.615 4.91404 262.189 5.29797 261.959 3.88234C261.808 2.95236 261.989 1.64852 260.984 1.17859C260.089 0.716954 258.989 0.469888 257.924 0.321721C256.838 0.176555 255.711 0.0690052 254.677 0.205871C247.776 1.03784 244.961 9.02636 247.308 14.9593C248.138 16.8406 249.691 18.3321 251.593 19.0928C252.593 19.5191 253.839 19.6598 254.917 19.8126C256.774 20.0672 260.831 19.216 261.834 17.512C262.031 17.118 261.966 16.7154 261.754 16.579C261.493 16.4363 261.169 16.576 260.911 16.6756L260.88 16.6885Z"></path>
</g>
<defs>
<clipPath id="clip0_1_4733">
<rect fill="white" height="20" width="282"></rect>
</clipPath>
</defs>
</svg>
