<svg width="218" height="218" viewBox="0 0 218 218" fill="none" xmlns="http://www.w3.org/2000/svg">
<rect x="4.5" y="4.5" width="209" height="209" rx="104.5" fill="#0C1552"/>
<rect x="4.5" y="4.5" width="209" height="209" rx="104.5" stroke="white" stroke-width="9"/>
<g clip-path="url(#clip0_391_3758)">
<path d="M47.9776 167.616C54.4583 161.156 60.805 154.818 67.2702 148.368C67.1002 148.162 66.8375 147.823 66.5542 147.505C59.0174 139.075 54.278 129.31 52.4904 118.141C52.3616 117.344 52.0731 116.954 51.2282 116.733C47.7612 115.808 45.4173 112.703 45.3863 109.177C45.3554 105.672 47.6839 102.552 51.1407 101.555C51.8876 101.339 52.341 101.098 52.4801 100.224C54.2522 88.9062 59.0844 79.043 66.7448 70.5315C66.9508 70.3054 67.1363 70.0587 67.2548 69.9096C60.8411 63.5106 54.4686 57.1476 47.9827 50.6766C47.9827 52.234 47.9827 53.8016 47.9827 55.3641C47.9827 55.8524 48.0188 56.3458 47.957 56.8289C47.8333 57.7541 47.21 58.4017 46.3445 58.2064C45.7573 58.0727 44.8866 57.3378 44.866 56.8495C44.7372 53.3442 44.763 49.8337 44.8248 46.3284C44.8403 45.4084 45.5718 44.9201 46.4785 44.915C49.8167 44.8893 53.1549 44.8841 56.4931 44.915C57.4462 44.9252 58.1313 45.4238 58.1416 46.462C58.1571 47.5619 57.4822 48.0656 56.4416 48.0759C54.5304 48.0965 52.6192 48.081 50.9913 48.081C57.2762 54.3413 63.659 60.7043 70.1087 67.1341C73.4058 64.0965 77.3725 61.1926 81.7307 58.8283C87.5314 55.6879 93.6824 53.5857 100.194 52.5681C100.972 52.4447 101.286 52.1877 101.502 51.4065C102.497 47.8189 105.536 45.5523 109.173 45.5574C112.8 45.5626 115.772 47.8703 116.87 51.4322C117.004 51.8639 117.498 52.4241 117.9 52.491C129.465 54.367 139.547 59.2652 148.191 67.1393C148.289 67.2267 148.402 67.3038 148.377 67.2832C154.77 60.9048 161.142 54.552 167.618 48.0913C166.397 48.0913 165.109 48.0913 163.816 48.0913C163.146 48.0913 162.482 48.1016 161.812 48.0759C160.833 48.0348 160.179 47.5671 160.158 46.5443C160.138 45.4443 160.838 44.9407 161.863 44.915C163.285 44.8738 164.712 44.8995 166.139 44.8995C167.875 44.8995 169.611 44.8841 171.347 44.8995C173.001 44.915 173.516 45.4238 173.527 47.0377C173.537 50.101 173.537 53.1694 173.527 56.2327C173.527 57.5279 172.929 58.2629 171.935 58.2681C170.946 58.2681 170.338 57.5279 170.327 56.243C170.312 54.3978 170.327 52.5526 170.327 50.7383C163.903 57.1579 157.536 63.5209 151.153 69.9045C152.642 71.7805 154.352 73.7696 155.872 75.8872C161.08 83.1496 164.424 91.1985 165.81 100.034C165.938 100.851 166.206 101.303 167.103 101.555C170.601 102.521 172.914 105.605 172.924 109.121C172.934 112.672 170.554 115.787 167.01 116.759C166.309 116.949 165.969 117.231 165.856 117.956C164.048 129.464 159.112 139.466 151.272 148.07C151.184 148.168 151.117 148.286 151.143 148.25C157.552 154.633 163.934 160.986 170.255 167.282C170.255 167.282 170.317 166.969 170.322 166.655C170.333 165.103 170.312 163.546 170.333 161.994C170.348 160.719 170.987 159.917 171.966 160.005C173.099 160.107 173.537 160.837 173.537 161.932C173.521 165.088 173.547 168.238 173.527 171.394C173.516 172.797 173.001 173.342 171.595 173.352C168.39 173.383 165.186 173.363 161.977 173.352C160.962 173.352 160.205 172.941 160.169 171.831C160.133 170.649 160.905 170.181 161.977 170.171C163.873 170.15 165.763 170.166 167.587 170.166C161.168 163.767 154.801 157.414 148.536 151.164C145.615 153.292 142.638 155.697 139.433 157.748C132.917 161.927 125.751 164.497 118.101 165.715C117.333 165.838 117.019 166.085 116.803 166.876C115.834 170.438 112.738 172.746 109.127 172.736C105.541 172.725 102.492 170.392 101.487 166.82C101.312 166.198 101.152 165.864 100.421 165.746C88.8141 163.895 78.681 158.977 70.0212 151.051C69.9594 150.995 69.8718 150.959 69.9284 150.995C63.5353 157.378 57.168 163.736 50.7337 170.166C52.2482 170.166 53.8607 170.156 55.468 170.171C55.9986 170.171 56.6631 170.058 57.0237 170.325C57.5183 170.69 58.0592 171.363 58.0644 171.908C58.0644 172.371 57.3431 173.224 56.9259 173.239C53.3249 173.347 49.7137 173.363 46.1127 173.239C45.6542 173.224 44.8609 172.258 44.8403 171.713C44.7218 168.341 44.7578 164.964 44.7991 161.588C44.8094 160.601 45.443 159.989 46.4218 160.015C47.4006 160.04 47.957 160.678 47.9724 161.67C47.993 163.618 47.9776 165.561 47.9776 167.627V167.616ZM162.811 101.432C162.734 101.015 162.677 100.712 162.626 100.404C159.051 77.9122 140.742 59.5376 118.188 55.7753C117.199 55.6108 116.756 55.8267 116.298 56.7878C114.907 59.7277 112.486 61.3108 109.194 61.3314C105.902 61.3519 103.439 59.81 102.049 56.8649C101.523 55.7547 100.998 55.5954 99.9415 55.8061C79.737 59.9333 65.869 71.616 58.2241 90.6743C56.8383 94.123 55.9625 97.7414 55.5298 101.457C58.9144 102.712 61.0111 105.014 61.2326 108.55C61.4953 112.703 59.2441 115.371 55.5092 116.851C55.6277 117.612 55.7049 118.275 55.8337 118.922C60.3517 141.532 77.424 158.293 100.142 162.456C101.054 162.626 101.508 162.564 101.951 161.582C103.311 158.56 105.758 156.941 109.106 156.921C112.455 156.9 114.845 158.535 116.349 161.485C116.53 161.834 116.674 162.199 116.823 162.538C140.211 159.804 160.081 139.435 162.683 116.759C159.179 115.443 157.062 112.96 157.042 109.172C157.016 105.323 159.164 102.814 162.806 101.421L162.811 101.432ZM109.286 48.7595C106.628 48.7081 104.48 50.7332 104.408 53.3544C104.336 55.9397 106.474 58.1293 109.091 58.155C111.723 58.1807 113.887 56.0837 113.907 53.4829C113.928 50.9439 111.842 48.8109 109.286 48.7595ZM53.4073 113.839C56.0192 113.819 58.1571 111.629 58.1004 109.044C58.0438 106.489 55.9419 104.444 53.361 104.439C50.7234 104.439 48.5855 106.551 48.6009 109.157C48.6215 111.763 50.7697 113.865 53.4022 113.844L53.4073 113.839ZM109.173 169.534C111.78 169.528 113.938 167.354 113.907 164.769C113.877 162.22 111.775 160.143 109.204 160.118C106.572 160.092 104.413 162.199 104.403 164.8C104.392 167.39 106.556 169.539 109.168 169.528L109.173 169.534ZM164.903 113.839C167.535 113.865 169.694 111.763 169.72 109.162C169.74 106.623 167.654 104.49 165.093 104.439C162.446 104.387 160.282 106.428 160.215 109.039C160.153 111.624 162.291 113.813 164.903 113.839Z" fill="white"/>
<path d="M89.6942 128.657C86.6857 129.849 83.5175 131.104 80.2153 132.414C75.2029 126.2 72.4519 119.025 71.9883 110.827H87.0515C87.9427 116.841 88.8133 122.736 89.6891 128.657H89.6942Z" fill="white"/>
<path d="M128.619 128.652C129.495 122.752 130.366 116.856 131.262 110.822H146.31C145.898 118.979 143.126 126.159 138.108 132.42C134.786 131.099 131.581 129.829 128.624 128.652H128.619Z" fill="white"/>
<path d="M89.6783 89.6458C88.8077 95.5514 87.9422 101.406 87.0561 107.414H71.9414C72.1475 105.749 72.2711 104.047 72.5802 102.377C73.6466 96.5639 76.0111 91.3162 79.5966 86.6133C80.0294 86.048 80.3333 85.6933 81.2039 86.0891C84.0631 87.3792 86.9892 88.5305 89.6783 89.6509V89.6458Z" fill="white"/>
<path d="M128.63 89.6769C131.469 88.4845 134.436 87.2098 137.439 86.0174C137.718 85.9043 138.341 86.1921 138.562 86.48C142.266 91.2085 144.667 96.5333 145.733 102.439C146.022 104.043 146.171 105.672 146.398 107.419H131.247C130.366 101.442 129.496 95.5516 128.625 89.6769H128.63Z" fill="white"/>
<path d="M90.6738 110.802H107.489V125.943C102.744 126.509 98.0457 127.069 93.1723 127.65C91.5599 122.289 90.7769 116.641 90.6738 110.802Z" fill="white"/>
<path d="M110.822 110.781H127.616C127.58 116.62 126.73 122.253 125.148 127.645C120.3 127.069 115.597 126.514 110.816 125.949V110.781H110.822Z" fill="white"/>
<path d="M127.63 107.46H110.836V92.3033C115.534 91.7482 120.232 91.1931 125.137 90.6123C126.744 95.9268 127.542 101.57 127.63 107.46Z" fill="white"/>
<path d="M107.463 107.456H90.7051C90.7154 101.674 91.5911 96.0404 93.1572 90.6025C97.9585 91.1731 102.657 91.7333 107.458 92.3089V107.456H107.463Z" fill="white"/>
<path d="M124.081 130.707C121.294 139.126 115.993 145.171 110.836 146.003V129.196C115.251 129.7 119.614 130.199 124.081 130.707Z" fill="white"/>
<path d="M107.493 129.166V146.225C99.941 143.753 97.0252 137.534 94.1094 130.749C98.6685 130.209 102.996 129.695 107.493 129.166Z" fill="white"/>
<path d="M110.832 72.3096C115.721 72.7362 122.469 80.4818 123.943 87.5695C119.59 88.0681 115.268 88.5666 110.832 89.0755V72.3096Z" fill="white"/>
<path d="M107.499 89.0759C103.053 88.5671 98.7512 88.0737 94.4238 87.5803C95.8096 81.6593 101.755 72.7007 107.499 72.3203V89.0759Z" fill="white"/>
<path d="M119.934 73.7129C124.276 74.4582 131.973 79.0582 135.79 83.3808C132.91 84.491 130.144 85.56 127.419 86.6137C126.229 84.1517 125.276 81.8543 124.039 79.7264C122.803 77.6037 121.273 75.6506 119.934 73.7129Z" fill="white"/>
<path d="M119.764 144.605C123.153 140.879 125.399 136.531 127.254 131.617C130.093 132.691 132.88 133.75 135.893 134.891C131.19 139.671 125.904 142.827 119.769 144.611L119.764 144.605Z" fill="white"/>
<path d="M98.5136 73.6868C95.1136 77.4234 92.9035 81.7973 91.0438 86.6441C88.2053 85.5648 85.4492 84.5163 82.4355 83.365C87.1235 78.6004 92.3884 75.4446 98.5136 73.6816V73.6868Z" fill="white"/>
<path d="M98.8909 144.806C92.436 142.869 87.1762 139.672 82.4316 134.917C85.4299 133.766 88.2014 132.702 91.0554 131.607C92.9151 136.516 95.1663 140.9 98.8961 144.806H98.8909Z" fill="white"/>
</g>
<defs>
<clipPath id="clip0_391_3758">
<rect width="130" height="130" fill="white" transform="translate(44 44)"/>
</clipPath>
</defs>
</svg>
