<svg width="218" height="218" viewBox="0 0 218 218" fill="none" xmlns="http://www.w3.org/2000/svg">
<rect x="4.5" y="4.5" width="209" height="209" rx="104.5" fill="#0C1552"/>
<rect x="4.5" y="4.5" width="209" height="209" rx="104.5" stroke="white" stroke-width="9"/>
<path d="M112.621 38.6426C115.46 39.1908 118.351 39.5544 121.132 40.324C137.917 44.973 150.365 59.526 152.51 76.8884C153.724 86.7133 151.837 95.9111 146.89 104.476C146.727 104.756 146.564 105.035 146.417 105.32C146.38 105.393 146.401 105.499 146.391 105.683C150.16 107.86 153.603 110.896 158.234 111.218C161.541 111.45 164.868 111.334 168.191 111.344C173.085 111.36 173.405 111.676 173.405 116.652C173.405 117.485 173.437 118.318 173.39 119.151C173.284 120.948 172.102 122.139 170.53 122.076C169 122.013 167.949 120.848 167.88 119.103C167.854 118.423 167.88 117.738 167.88 116.905C165.61 116.905 163.502 116.842 161.399 116.916C156.447 117.09 151.8 115.967 147.836 113.015C143.678 109.921 139.231 108.809 134.074 109.099C127.729 109.457 121.353 109.204 114.992 109.173C112.942 109.162 111.128 109.695 109.404 110.833C101.866 115.825 94.2962 120.753 86.7369 125.708C86.3217 125.982 85.9169 126.272 85.3492 126.662C89.3706 129.028 93.4446 129.466 97.671 128.122C99.0062 127.695 100.305 126.999 101.472 126.208C104.91 123.879 108.269 121.438 111.659 119.05C113.61 117.675 114.656 117.759 116.385 119.456C125.285 128.185 134.185 136.908 143.063 145.663C143.773 146.364 144.477 146.665 145.481 146.659C152.399 146.617 159.312 146.638 166.23 146.638H167.891C167.891 145.758 167.859 145.026 167.896 144.303C167.986 142.643 169.053 141.563 170.572 141.541C172.102 141.515 173.274 142.543 173.363 144.193C173.458 145.943 173.463 147.708 173.369 149.458C173.274 151.266 172.175 152.178 170.215 152.178C163.297 152.194 156.384 152.183 149.466 152.183C148.925 152.183 148.378 152.183 147.81 152.183C149.597 162.082 139.525 167.264 132.518 162.889C131.525 165.867 129.743 168.181 126.815 169.419C123.939 170.632 121.074 170.426 118.262 169.198C115.024 177.526 106.497 178.206 101.608 173.994C101.466 174.221 101.309 174.421 101.204 174.648C97.9602 181.379 89.9383 182.771 84.629 177.468C78.1263 170.974 71.6079 164.496 65.2315 157.887C61.4308 153.949 56.9573 152.009 51.5271 152.183C50.3758 152.22 49.2193 152.215 48.0681 152.173C46.4175 152.115 45.4292 151.171 45.2557 149.527C45.2137 149.116 45.2295 148.694 45.2295 148.278C45.2295 137.272 45.2295 126.272 45.2295 115.266C45.2295 112.24 46.0968 111.355 49.0669 111.355C52.3419 111.355 55.6168 111.334 58.8866 111.36C61.7147 111.387 64.3589 110.722 66.8506 109.405C68.8008 108.372 70.7616 107.36 72.5805 106.411C71.1401 103.29 69.5052 100.339 68.3698 97.2025C59.2966 72.2605 74.5202 44.9519 100.41 39.5544C102.25 39.1697 104.121 38.943 105.977 38.6426C108.19 38.6426 110.403 38.6426 112.616 38.6426H112.621ZM50.8174 146.538C51.1801 146.575 51.4062 146.628 51.6322 146.623C58.8024 146.443 64.627 149.2 69.5683 154.376C75.7818 160.891 82.2056 167.2 88.561 173.583C90.5744 175.607 93.3815 175.639 95.2109 173.768C96.6197 172.324 97.1611 169.367 94.8744 167.253C90.5008 163.215 86.3269 158.957 82.1057 154.756C81.5695 154.223 81.0544 153.538 80.8651 152.832C80.5339 151.598 81.0386 150.528 82.1793 149.912C83.4199 149.242 84.5922 149.479 85.5962 150.46C88.7976 153.591 91.9937 156.727 95.1898 159.863C98.4858 163.094 101.75 166.362 105.083 169.556C107.811 172.171 111.996 171.011 112.8 167.448C113.215 165.603 112.506 164.127 111.186 162.846C106.592 158.366 102.013 153.87 97.4397 149.369C96.0046 147.951 95.8627 146.296 97.0244 145.099C98.1862 143.903 99.8736 144.008 101.298 145.394C102.986 147.039 104.647 148.705 106.324 150.354C110.666 154.634 115.008 158.904 119.345 163.189C120.717 164.544 122.352 164.992 124.17 164.475C125.811 164.011 126.82 162.825 127.172 161.16C127.551 159.373 126.914 157.918 125.632 156.664C121.137 152.278 116.664 147.872 112.185 143.471C111.891 143.181 111.575 142.901 111.312 142.58C110.361 141.425 110.424 139.813 111.433 138.806C112.448 137.799 113.909 137.704 115.081 138.606C115.481 138.911 115.838 139.285 116.201 139.639C122.22 145.431 128.239 151.229 134.263 157.022C134.631 157.375 134.984 157.744 135.388 158.05C136.929 159.22 138.995 159.268 140.561 158.192C142.07 157.159 142.806 155.235 142.154 153.417C141.823 152.5 141.197 151.614 140.498 150.924C131.893 142.422 123.25 133.962 114.614 125.491C114.288 125.175 113.951 124.87 113.552 124.495C110.608 126.572 107.706 128.612 104.815 130.662C97.077 136.144 86.6108 135.559 79.5246 129.234C77.0592 127.031 77.1801 125.323 79.9242 123.525C86.7159 119.082 93.5077 114.639 100.294 110.19C100.652 109.958 100.988 109.689 101.335 109.436C101.303 109.352 101.277 109.262 101.246 109.178H99.9209C95.2161 109.178 90.5008 109.389 85.817 109.115C81.333 108.851 77.2485 109.584 73.5267 112.151C72.8853 112.594 72.1284 112.857 71.4555 113.258C66.8926 115.993 61.9775 117.221 56.6577 116.91C54.7442 116.8 52.8202 116.895 50.8279 116.895V146.538H50.8174ZM71.4818 79.4658C74.6516 79.9297 77.7005 80.3619 80.7442 80.831C88.0143 81.9484 93.4446 85.7119 96.9771 92.2109C97.9234 93.9556 98.8748 95.695 99.9157 97.387C101.004 99.1527 102.192 100.85 103.348 102.568C103.911 103.406 104.684 103.659 105.709 103.654C114.051 103.612 122.394 103.633 130.736 103.628C131.172 103.628 131.609 103.586 132.014 103.564C132.045 103.401 132.077 103.343 132.056 103.317C131.845 103.016 131.63 102.716 131.409 102.421C126.636 96.085 123.839 89.0536 123.897 81.0102C123.908 79.4869 123.813 77.9584 123.676 76.4403C123.513 74.6377 122.604 73.8839 120.811 74.0737C119.949 74.1633 119.087 74.3847 118.267 74.6693C116.312 75.3493 114.388 76.1241 112.437 76.8093C109.762 77.7475 107.023 78.4117 104.174 77.9109C97.8655 76.804 92.8085 70.6423 92.6666 63.9641C92.5404 58.1292 95.2003 54.4342 100.751 52.737C101.761 52.426 102.791 52.1625 103.79 51.8093C107.249 50.5812 108.705 47.9616 108.001 44.3194C88.7345 44.4828 72.2545 60.9438 71.4818 79.4711V79.4658ZM113.757 44.3563C113.72 45.0573 113.699 45.5106 113.667 45.9639C113.226 52.2152 110.566 55.557 104.584 57.3754C103.527 57.6969 102.465 58.0079 101.414 58.3453C99.8316 58.846 98.9221 59.9529 98.4543 61.5394C96.9614 66.5679 101.761 74.0631 108.195 72.25C109.346 71.9284 110.487 71.5753 111.623 71.1958C114.02 70.3946 116.364 69.3826 118.814 68.7817C124.512 67.3902 128.833 70.637 129.248 76.4561C129.364 78.069 129.448 79.6872 129.453 81.3054C129.469 89.0115 132.565 95.4473 137.559 101.082C138.448 102.089 139.589 102.869 140.777 103.897C147.984 92.3427 149.55 80.4093 144.493 68.0596C138.91 54.4237 128.371 46.8125 113.762 44.3563H113.757ZM97.0507 103.559C95.5999 100.987 94.1332 98.5993 92.8663 96.1061C90.0329 90.5453 85.7802 87.0085 79.4616 86.2337C78.8676 86.1599 78.2946 85.9649 77.7005 85.8911C75.6241 85.6328 73.5477 85.3956 71.3661 85.1426C71.9181 91.8103 73.8789 97.6927 77.3957 103.032C77.6112 103.359 78.1947 103.601 78.61 103.601C84.2768 103.638 89.9383 103.622 95.6051 103.617C96.0467 103.617 96.483 103.58 97.0507 103.554V103.559Z" fill="white"/>
</svg>
