<svg width="218" height="218" viewBox="0 0 218 218" fill="none" xmlns="http://www.w3.org/2000/svg">
<rect x="4.5" y="4.5" width="209" height="209" rx="104.5" fill="#0C1552"/>
<rect x="4.5" y="4.5" width="209" height="209" rx="104.5" stroke="white" stroke-width="9"/>
<g clip-path="url(#clip0_391_3752)">
<path d="M111.194 148.875C106.673 148.875 102.156 148.875 97.6339 148.875C95.6038 148.875 94.8926 148.164 94.8926 146.129C94.8879 139.46 94.9161 132.792 94.8549 126.128C94.8455 125.369 94.4734 124.517 94.0212 123.881C93.1687 122.68 92.123 121.625 91.1904 120.476C90.2625 119.332 90.2766 118.286 91.3082 117.25C95.9759 112.555 100.663 107.868 105.363 103.206C106.494 102.085 107.577 102.128 108.769 103.286C110.723 105.189 112.678 107.101 114.557 109.079C115.32 109.879 116.093 110.228 117.228 110.214C123.403 110.153 129.578 110.181 135.758 110.186C137.924 110.186 138.64 110.906 138.64 113.101C138.645 120.349 138.683 127.602 138.593 134.85C138.584 135.763 138.099 136.875 137.463 137.544C134.156 141.005 130.709 144.33 127.35 147.744C126.531 148.578 125.65 148.908 124.491 148.898C120.059 148.851 115.631 148.879 111.199 148.879L111.194 148.875Z" fill="white"/>
<path d="M144.581 88.8747C140.342 90.6925 137.478 89.6612 135.406 85.6957C133.461 81.9704 131.544 78.231 129.551 74.5293C129.301 74.0677 128.689 73.5827 128.19 73.512C120.569 72.4477 112.938 71.4492 105.313 70.4367C105.138 70.4131 104.959 70.4367 104.507 70.4367C104.969 70.9312 105.28 71.275 105.6 71.6141C108.728 74.8825 111.883 78.118 114.969 81.4241C116.815 83.4021 117.234 85.771 116.221 88.2765C115.228 90.7396 113.296 92.0583 110.663 92.3032C108.987 92.4633 107.517 91.8699 106.123 90.9704C99.9573 86.9955 93.7022 83.1525 87.6308 79.0363C84.5551 76.95 81.2816 75.7208 77.6877 74.9955C72.7797 74.0018 67.9189 72.8103 63.0345 71.7035C62.8602 71.6659 62.6906 71.6046 62.521 71.5528C61.1739 71.1478 60.5287 70.1776 60.7924 68.9579C61.0468 67.7852 62.1207 67.1164 63.4819 67.4178C68.1073 68.4398 72.7232 69.5089 77.3439 70.5591C77.9562 70.6957 78.5591 70.8747 79.1761 70.9641C83.1044 71.5246 86.5428 73.1258 89.8305 75.3535C95.7935 79.3896 101.926 83.1714 107.993 87.0568C108.257 87.2263 108.516 87.4053 108.784 87.5607C110.004 88.2718 111.167 88.1352 111.921 87.198C112.665 86.275 112.566 85.1117 111.577 84.0615C109.924 82.3001 108.238 80.567 106.566 78.8197C101.917 73.9736 97.2678 69.1274 92.6236 64.2812C92.5011 64.1541 92.3739 64.0269 92.2515 63.8951C91.1917 62.7412 91.1305 61.4743 92.0866 60.5842C93.0334 59.7082 94.2156 59.793 95.2895 60.8762C96.4247 62.0206 97.4656 63.2687 98.6667 64.3331C99.2884 64.8841 100.132 65.388 100.932 65.4963C112.5 67.0882 124.073 68.6188 135.651 70.1305C136.791 70.2812 137.502 70.8464 138.114 71.7506C142.061 77.5575 146.037 83.355 150.003 89.1525C150.229 89.4822 150.412 89.9249 150.733 90.0944C151.114 90.2969 151.722 90.4524 152.051 90.2828C152.376 90.1133 152.579 89.5293 152.645 89.096C152.692 88.7899 152.447 88.4272 152.301 88.1023C149.207 81.4053 146.15 74.6941 142.961 68.0442C142.457 66.9987 141.501 65.9673 140.488 65.3974C132.029 60.6455 123.499 56.0112 115.011 51.3158C113.4 50.4257 111.728 49.9971 109.886 50.0018C94.5736 50.0254 79.2609 50.0159 63.9482 50.0112C63.5008 50.0112 63.0439 50.0583 62.6058 49.9783C61.4566 49.771 60.7595 49.0882 60.75 47.8731C60.7453 46.658 61.4283 45.9704 62.5823 45.7491C63.0156 45.6643 63.4772 45.7114 63.92 45.7114C78.0221 45.7114 92.129 45.7679 106.231 45.6737C110.159 45.6502 113.97 46.1117 117.78 47.0018C123.437 48.3252 129.127 49.5167 134.817 50.7035C137.337 51.231 138.99 52.7004 139.852 55.0411C140.436 56.6282 140.757 58.3142 141.322 59.9108C141.534 60.5136 141.981 61.2153 142.513 61.4979C144.633 62.6188 146.046 64.2671 147.03 66.4382C150.116 73.2341 153.304 79.9877 156.404 86.7742C158.052 90.3864 156.107 94.1211 152.292 94.7192C150.158 95.0536 148.42 94.2389 147.129 92.534C146.244 91.3613 145.443 90.1274 144.572 88.8699L144.581 88.8747ZM141.699 85.6345C141.807 85.4602 141.915 85.2812 142.024 85.107C139.607 81.5748 137.196 78.0426 134.779 74.5104C134.685 74.567 134.591 74.6235 134.492 74.6753C136.263 78.0426 137.992 81.4335 139.862 84.7491C140.135 85.2341 141.067 85.3472 141.699 85.6345ZM129.009 53.859C128.981 53.9249 128.953 53.9955 128.925 54.0615C131.327 55.3801 133.729 56.6988 136.451 58.1965C135.882 56.5999 135.571 55.3048 134.068 54.9469C132.391 54.5466 130.696 54.2169 129.009 53.859Z" fill="white"/>
<path d="M146.29 169.29C138.678 175.135 128.698 175.008 121.387 169.338C113.065 175.126 104.718 175.149 96.4048 169.371C88.0867 175.121 79.7874 175.121 71.4034 169.328C68.6008 171.504 65.4215 172.978 61.8418 173.44C55.5161 174.25 49.9769 172.517 45.3092 168.146C44.207 167.115 44.1081 165.89 44.9512 164.944C45.8367 163.95 47.1084 163.912 48.2577 165.033C54.1218 170.746 63.7965 170.816 69.7595 165.033C70.9606 163.865 71.9686 163.865 73.1697 165.019C79.128 170.736 88.7084 170.831 94.7892 164.958C95.9668 163.823 96.8947 163.94 98.2936 165.188C103.63 169.955 110.964 170.713 116.936 167.072C117.921 166.469 118.802 165.688 119.696 164.953C120.916 163.945 121.816 163.94 123.022 164.995C129.673 170.816 137.882 170.84 144.524 165.052C145.838 163.907 146.733 163.907 148.052 165.066C154.617 170.826 162.775 170.821 169.431 165.057C170.67 163.988 171.847 163.926 172.756 164.887C173.684 165.867 173.515 167.115 172.295 168.283C165.672 174.641 154.952 175.422 147.435 170.096C147.072 169.837 146.709 169.578 146.299 169.286L146.29 169.29Z" fill="white"/>
</g>
<defs>
<clipPath id="clip0_391_3752">
<rect width="130" height="129" fill="white" transform="translate(44 45)"/>
</clipPath>
</defs>
</svg>
