<svg width="218" height="218" viewBox="0 0 218 218" fill="none" xmlns="http://www.w3.org/2000/svg">
<rect x="4.5" y="4.5" width="209" height="209" rx="104.5" fill="#0C1552"/>
<rect x="4.5" y="4.5" width="209" height="209" rx="104.5" stroke="white" stroke-width="9"/>
<g clip-path="url(#clip0_391_3754)">
<path d="M99.4846 94.539C101.375 94.6482 102.914 94.9114 104.432 93.2729C107.346 90.13 112.537 90.1846 115.44 93.3672C116.934 95.0057 118.472 94.534 120.274 94.5936C120.274 93.7694 120.274 93.0842 120.274 92.399C120.274 87.5978 120.269 82.8016 120.274 78.0004C120.274 75.6321 121.142 74.7632 123.499 74.7384C124.72 74.7235 125.941 74.7681 127.162 74.7284C128.571 74.6788 129.514 75.2845 130.289 76.4563C137.217 86.9325 140.626 98.4614 140.686 110.998C140.71 116.842 140.71 122.691 140.686 128.535C140.656 135.744 135.787 140.575 128.576 140.58C116.105 140.585 103.633 140.585 91.162 140.58C83.966 140.58 79.0677 135.724 79.0776 128.52C79.0876 121.147 78.9287 113.764 79.3059 106.41C79.8717 95.3235 83.5541 85.1948 89.827 76.0491C90.2836 75.3838 91.3704 74.927 92.224 74.8029C93.6335 74.5993 95.0925 74.7185 96.5317 74.7483C98.5466 74.793 99.4647 75.7214 99.4746 77.7621C99.4945 82.8661 99.4796 87.9702 99.4846 93.0743C99.4846 93.541 99.4846 94.0077 99.4846 94.544V94.539ZM94.2488 80.0956C94.1198 80.0261 93.9957 79.9517 93.8667 79.8821C93.5441 80.1949 93.1421 80.4531 92.9089 80.8205C88.0354 88.6157 85.033 97.096 84.5565 106.271C84.1645 113.848 84.3084 121.455 84.3233 129.046C84.3332 132.785 87.028 135.337 90.755 135.342C103.494 135.357 116.234 135.357 128.968 135.342C132.666 135.342 135.41 132.869 135.395 129.19C135.365 120.73 135.485 112.244 134.894 103.814C134.308 95.4774 131.217 87.8064 126.77 80.7212C126.561 80.3886 126.16 80.1701 125.847 79.902C125.733 79.9666 125.614 80.0261 125.499 80.0907C125.499 80.5524 125.499 81.0142 125.499 81.4759C125.499 86.4956 125.509 91.5153 125.499 96.5349C125.494 98.9281 124.566 99.8566 122.164 99.8764C119.941 99.8963 117.713 99.8715 115.49 99.8814C114.09 99.8913 113.058 99.3849 112.477 98.0344C111.986 96.8875 111.093 96.2718 109.812 96.2916C108.586 96.3115 107.738 96.9321 107.271 98.0245C106.695 99.37 105.663 99.8913 104.264 99.8814C102.08 99.8665 99.9014 99.8864 97.7178 99.8814C95.1421 99.8665 94.2439 98.9777 94.2439 96.4207C94.2389 91.4458 94.2439 86.4708 94.2439 81.4958C94.2439 81.034 94.2439 80.5673 94.2439 80.1056L94.2488 80.0956Z" fill="white"/>
<path d="M67.9308 159.105C68.0797 161.493 68.2187 163.797 68.3626 166.105C68.3824 166.463 68.4618 166.825 68.4172 167.173C68.303 168.072 67.8216 168.687 66.8589 168.702C65.9159 168.717 65.3402 168.186 65.2559 167.252C65.102 165.519 64.9978 163.782 64.8886 162.044C64.7447 159.859 64.5859 157.68 64.4916 155.495C64.4271 154.075 64.9482 153.529 66.3328 153.439C70.035 153.191 73.7373 152.943 77.4395 152.705C78.8489 152.615 79.6579 153.127 79.7571 154.145C79.8564 155.162 79.1268 155.803 77.7224 155.907C75.2906 156.081 72.8638 156.25 70.4321 156.419L70.2683 156.791C73.0028 158.598 75.6579 160.554 78.4916 162.183C88.8638 168.146 100.085 170.892 112.02 170.236C138.938 168.757 161.172 150.878 168.293 124.92C172.402 109.936 170.755 95.403 163.931 81.4512C163.067 79.6886 163.092 78.8247 164.08 78.2934C165.117 77.7423 165.911 78.2487 166.824 80.051C179.529 105.12 174.219 136.017 153.886 155.43C143.107 165.723 130.303 171.766 115.479 173.186C98.3725 174.824 82.9234 170.326 69.2608 159.859C68.9432 159.616 68.6206 159.383 68.2931 159.144C68.2633 159.124 68.2137 159.134 67.9358 159.105H67.9308Z" fill="white"/>
<path d="M150.109 59.079C149.95 56.4773 149.811 54.1785 149.672 51.8797C149.653 51.5669 149.588 51.2541 149.608 50.9463C149.663 49.9831 150.109 49.2979 151.137 49.2532C152.149 49.2135 152.715 49.7993 152.794 50.7924C152.938 52.5698 153.062 54.3523 153.176 56.1348C153.315 58.2747 153.464 60.4097 153.548 62.5496C153.603 63.8703 153.062 64.4214 151.747 64.5108C148 64.769 144.253 65.0123 140.506 65.2506C139.132 65.335 138.263 64.7491 138.293 63.7065C138.328 62.4602 139.151 62.0978 140.278 62.0332C142.72 61.8992 145.156 61.7055 147.593 61.5367C147.658 61.4076 147.727 61.2785 147.792 61.1495C144.943 59.2876 142.184 57.2618 139.226 55.5886C114.238 41.463 82.8735 46.4926 63.5683 67.7728C54.1737 78.1299 48.8884 90.3291 47.7966 104.306C46.9082 115.656 49.0918 126.4 54.1489 136.584C54.9926 138.277 54.9182 139.225 53.8809 139.702C52.8636 140.168 52.139 139.702 51.3003 138.058C38.4963 112.935 43.7469 82.0374 64.1241 62.5446C74.8933 52.2421 87.6973 46.1947 102.521 44.7648C119.777 43.1015 135.335 47.6743 149.067 58.3094C149.31 58.4981 149.563 58.6769 150.114 59.079H150.109Z" fill="white"/>
</g>
<defs>
<clipPath id="clip0_391_3754">
<rect width="130" height="130" fill="white" transform="translate(44 44)"/>
</clipPath>
</defs>
</svg>
