<?xml version="1.0" encoding="UTF-8"?><svg id="Layer_1" xmlns="http://www.w3.org/2000/svg" viewBox="0 0 524.62 296.03"><path d="M489.76,60.89h-27.87c1.49-1.12,1.92-1.71,2.26-1.66,7.39,1.05,6.74-3.87,6.69-8.67-.12-12.32-.04-24.65-.04-36.97q0-8.28-7.16-10.61c2.92-2.76,21.02-3.05,25.73-.41-.13.27-.22.75-.41.79q-6.94,1.57-6.94,9.11c0,4.33.1,8.66-.03,12.99-.08,2.7.78,3.98,3.69,3.9,4.99-.15,9.99-.12,14.99,0,2.83.07,3.83-1.1,3.75-3.87-.14-5.33-.28-10.67.02-15.98.22-3.94-.73-6.14-5.13-5.67-.67.07-1.39-.45-2.04-1.43,8.75-2.04,17.47-1.69,27.13-.85-1.08,1.31-1.32,1.89-1.66,1.96q-7.07,1.54-7.07,8.92c0,13.32.18,26.65-.1,39.97-.09,4.62.56,7.51,6.04,6.67.71-.11,1.52.41,2.22,1.69h-28.24c1.54-.97,2.21-1.75,2.73-1.66,6.05,1.01,6.31-2.57,6.09-7.09-.26-5.32-.18-10.66.02-15.98.13-3.36-1.26-4.38-4.43-4.25-4.66.19-9.33.19-13.99,0-3.08-.13-4.13,1.07-4.05,4.07.15,5.99.24,12-.03,17.98-.17,3.77.73,5.76,4.91,5.21.99-.13,2.07.44,3.11.68-.07.4-.13.79-.2,1.19Z"/><path d="M265.87,177.11h-28.09c.55-.95.65-1.4.87-1.45,2.41-.67,5.93-.54,6.97-2.09,1.25-1.85.42-5.13.43-7.79.02-13.16-.18-26.33.11-39.49.1-4.64-.97-6.94-5.97-6.17-.65.1-1.41-.42-2.02-1.74h29.01c-1.52,1.02-1.95,1.52-2.44,1.6q-6.94,1.09-6.94,8.36c0,4.33.14,8.67-.05,12.99-.13,2.98.9,4.27,3.97,4.2,5.33-.13,10.67-.15,15.99.01,2.99.09,4.17-.9,4.05-4.02-.21-5.49-.26-11,.01-16.49.18-3.62-.8-5.37-4.68-4.92-1.13.13-2.33-.35-3.5-.55.04-.42.08-.84.11-1.26h27.97c-.83.92-1.09,1.5-1.45,1.57q-7.13,1.38-7.13,8.74c0,13.5.13,26.99-.08,40.49-.07,4.18.5,6.9,5.54,6.2.81-.11,1.72.47,2.47,1.81h-28.47c1.39-1.06,1.83-1.66,2.34-1.73,6.8-.93,6.81-.92,6.81-7.77,0-5.17-.11-10.33.04-15.49.08-3.02-1.07-4.16-4.1-4.07-5.16.16-10.33.18-15.49,0-3.29-.12-4.45,1.24-4.39,4.41.13,6,.24,12-.04,17.99-.17,3.79,1.24,5.18,4.89,4.87,1.07-.09,2.19.31,3.29.49-.01.44-.02.88-.04,1.31Z"/><path d="M143.23,59.8c-6.13,5.56-17.7,2.61-19.91-4.95-1.24-4.24-1.28-8.84-1.81-13.29-.81-6.78-4.08-10.06-10.83-10.92-3.5-.44-5.38.63-5.28,4.54.15,6.32.26,12.66-.03,18.97-.17,3.76,1.09,5.21,4.8,4.85,1.22-.12,2.48.3,3.73.47-.03.41-.05.83-.08,1.24h-28.01c-.06-.35-.12-.71-.18-1.06,2.52-.38,5.03-.76,8.29-1.26,0-1.7,0-3.47,0-5.24,0-14.32-.16-28.64.09-42.95.08-4.47-.67-7.15-5.84-6.39-.57.08-1.21-.32-2.64-.75,1.35-.77,2.05-1.53,2.75-1.53,11.81.05,23.63-.11,35.42.44,7.48.35,11.96,4.57,12.7,10.43.94,7.43-2.23,12.23-9.94,15.16-1.48.56-2.89,1.32-5.75,2.65,12.65,3.64,14.07,12.78,13.86,22.44-.13,6.14,3.89,6.76,8.65,7.13ZM105.46,15.66c0,2.83-.15,5.67.07,8.48.09,1.15.69,2.75,1.58,3.27,6.4,3.77,16.01-1.18,16.69-8.54.2-2.14.17-4.33-.03-6.47-.66-7.1-3.86-8.85-13.93-8.59-6.91.18-3.68,5.21-4.35,8.35-.24,1.11-.04,2.32-.03,3.49Z"/><path d="M0,60.48c1.46-.95,1.82-1.36,2.22-1.42q7.72-1.06,7.72-8.86c0-13.14-.16-26.28.09-39.42.09-4.75-.48-7.94-6.32-6.93-.78.13-1.68-.47-2.53-1.71,1.14-.23,2.27-.65,3.41-.66,9.31-.06,18.64-.25,27.94.06,3.91.13,7.88,1.05,11.67,2.15,5.6,1.62,8.42,5.83,8.68,11.5.26,5.56-2.69,9.42-7.48,11.95-1.87.99-3.8,1.87-6.46,3.17,3.08,1.2,5.36,1.99,7.55,2.97,5.55,2.49,8.55,6.83,8.43,12.93-.13,6.34-3.6,10.69-9.36,12.86-3.36,1.27-7.04,2.24-10.6,2.34-10.47.31-20.95.14-31.43.1-.85,0-1.7-.48-3.52-1.03ZM29.15,58.97c9.67,0,12.43-2.64,12.68-12.3.06-2.15-.1-4.34-.45-6.46-.82-4.97-4.06-7.95-9.1-8.38-2.32-.2-4.66,0-6.99-.12-2.59-.13-3.54.99-3.49,3.56.12,5.49.04,10.99.04,16.48q0,7.22,7.31,7.22ZM21.85,15.9c0,3.33-.28,6.7.15,9.98.16,1.22,1.89,3.06,3.06,3.19,11.75,1.27,17.64-5.34,15.34-16.93-1.43-7.21-4.89-9.2-14.94-8.21-6.69.65-2.48,5.95-3.58,9-.32.88-.05,1.98-.04,2.98Z"/><path d="M256.48,241.29c0,5.61,0,11.23,0,16.84,0,9.17.23,18.34-.1,27.49-.16,4.5,1,6.66,5.78,5.95.64-.1,1.37.43,1.95,1.72h-18.53c-.02-.31-.05-.61-.07-.92,2.39-.7,6.25-.78,6.86-2.23,1.21-2.86.74-6.48.75-9.78.05-12.33-.13-24.67.1-36.99.08-4.63-.32-8.03-6.23-6.97-.45.08-.99-.12-1.43-.31-.27-.11-.44-.45-1.21-1.29,1.48-.37,2.57-.83,3.68-.89q19.19-1.01,29.82,15.14c4.84,7.31,9.85,14.51,14.78,21.76.47-.1.94-.2,1.4-.31,0-3.69,0-7.38,0-11.07,0-5.83-.2-11.67.07-17.49.18-3.87-.62-6.16-5.09-5.52-.86.12-1.81-.35-2.97-.61,2.88-2.41,15.07-2.68,19.56-.51-.88.45-1.62,1.18-2.21,1.08-6.05-1.03-6.57,2.22-6.49,7.18.26,15.83.05,31.66,0,47.49,0,1.44-.15,2.88-1.08,4.75-13.65-17.69-25.33-36.65-37.96-54.92-.46.14-.93.28-1.39.42Z"/><path d="M447.28,147.04c-.83,9.13-3.51,17.19-9.66,23.85-9.91,10.73-25.37,11.42-36.28,1.73-11.62-10.31-14.15-30.71-5.15-43.37,6.14-8.62,14.3-14.47,25.3-12.95,11.05,1.53,18.55,8.62,22.8,18.79,1.57,3.75,2.02,7.96,2.99,11.96ZM404.33,147.68s.04,0,.06,0c0,5.32-.35,10.67.08,15.96.62,7.66,5.66,12.62,12.62,13.17,8.1.65,14.4-2.95,15.12-11.02,1.05-11.83,1.11-23.89.04-35.72-.78-8.61-6.77-12.1-15.21-11.47-7.3.55-12,5.36-12.64,13.61-.39,5.13-.07,10.31-.07,15.46Z"/><path d="M138.72,261.39c-.82,16.36-6.64,27.41-20.44,33.44-6.88,3.01-18.83.2-25.63-6.54-12.1-11.98-16.04-37.04,3.7-51.12,13.81-9.85,33.11-3.12,39.8,14.02,1.48,3.79,2.03,7.95,2.58,10.2ZM96.17,263.79s.05,0,.07,0c0,5.32-.37,10.68.09,15.96.69,7.88,5.58,12.74,12.49,13.24,8.68.62,14.57-2.65,15.4-11.22,1.13-11.65.56-23.5.16-35.25-.15-4.38-2.52-8.19-7.01-10.14-10.56-4.59-20.15.9-21.14,12.45-.42,4.95-.07,9.97-.07,14.96Z"/><path d="M511.62,154.32c.09-1.53.25-3.07.26-4.6.02-7.99-.23-15.99.1-23.97.18-4.27-.84-6.35-5.44-5.64-.78.12-1.67-.47-2.35-1.81h19.59c-.45.83-.55,1.27-.74,1.31q-8.04,1.82-8.04,10.52c-.02,14.65-.03,29.3-.08,43.95,0,1.57-.22,3.14-1.22,5.07-13.94-17.65-25.38-36.85-39.05-56.12-.24,2.64-.45,3.88-.45,5.12-.02,13.65.18,27.31-.09,40.95-.09,4.57.82,7.03,5.92,6.16.63-.11,1.38.46,1.94,1.79h-19.43c1.2-1.03,1.59-1.62,1.89-1.57,7.1.99,6.92-3.45,6.85-8.51-.2-15.29-.07-30.58-.07-46.21-2.77-.4-5.27-.77-7.77-1.13-.04-.33-.09-.66-.13-.99.93-.33,1.84-.9,2.78-.96q18.53-1.23,29.16,14.3c5.13,7.49,10.19,15.03,15.29,22.55.36-.07.72-.14,1.08-.21Z"/><path d="M1.08,118.19c1.17-.18,2.34-.52,3.51-.53,14.81-.04,29.63.06,44.44-.11,3.82-.04,5.52,1.08,5.3,5.09-.24,4.26-.05,8.55-.05,12.82-.53.08-1.05.15-1.58.23-.86-2.19-1.76-4.38-2.58-6.59-2.08-5.56-5.91-8.53-11.99-8.81-15.37-.69-15.36-.76-15.37,14.59,0,1-.23,2.07.04,2.98.77,2.52-2.22,6.39,2.41,7.51,4.5,1.09,9.87-1.93,11.32-6.12.46-1.33.77-2.71,1.2-4.25,3.15,2.57,3.41,20.97.21,25.19-.51-1.8-.6-3.28-1.3-4.38-1.45-2.27-2.77-5.17-4.93-6.34-6.41-3.44-8.95-1.65-8.95,5.54,0,4.83.26,9.67-.08,14.48-.3,4.24.9,6.36,5.46,5.81,1.07-.13,2.2.33,3.29,1.4-10.08,1.19-20.15,1.16-30.23.88-.04-.63-.09-1.26-.13-1.89,1.97-.15,4.1.11,5.84-.59,1.42-.57,3.37-2.27,3.39-3.49.23-15.98.23-31.96,0-47.93-.02-1.19-2.05-2.88-3.48-3.38-1.68-.59-3.73-.14-5.62-.14-.04-.66-.08-1.32-.12-1.97Z"/><path d="M162.08,234.52h28.51c.07.33.15.65.22.98-.91.32-1.88,1.03-2.72.9-5.21-.79-5.9,1.84-5.79,6.31.3,11.49-.04,22.99.16,34.48.22,13.09,9.63,18.97,21.8,13.78,4.41-1.88,7.07-5.77,7.2-10.11.42-14.59.16-29.19.16-44-2.67-.3-5.15-.58-7.62-.85.03-.48.06-.95.1-1.43h19.32c.05.27.1.54.15.82-.67.34-1.39,1.07-1.99.97-6.51-1.07-6.7,2.78-6.58,7.66.25,10.16-.25,20.33.11,30.48.49,13.86-7.18,22.08-21.87,21.12-4.35-.28-8.79-1.19-12.9-2.64-4.8-1.69-8.22-5.31-8.59-10.68-.59-8.62-.87-17.26-1.18-25.9-.13-3.49,0-7-.03-10.49-.02-2.66.82-5.97-.45-7.78-1.07-1.53-4.63-1.3-7.08-1.9-.46-.11-.87-.45-1.3-.69.13-.34.26-.68.38-1.03Z"/><path d="M243.51,20.44c0-3.13-.14-6.26.03-9.38.52-9.65.57-9.68,10.22-9.71,12.16-.03,24.33.13,36.49-.05,4.11-.06,5.71,1.47,5.71,5.5,0,4.51.41,9.02.65,13.54-.71.13-1.43.26-2.14.4-.68-1.8-1.54-3.56-2-5.42-1.85-7.4-6.31-11.25-13.16-11.4-2.38-.05-3.79.46-3.78,3.25.06,16.97.03,33.94.03,51.28,3.15.36,5.96.68,8.76,1-.02.45-.05.9-.07,1.36h-29.24c-.06-.37-.13-.74-.19-1.11,1.09-.25,2.23-.83,3.27-.68,5.11.72,6.02-1.77,5.95-6.33-.25-14.66-.19-29.33-.03-43.99.04-3.76-1.21-5.08-4.97-4.7-5.39.54-9,3.23-10.92,8.17-1.06,2.72-1.83,5.55-2.73,8.33-.62-.02-1.23-.04-1.85-.07Z"/><path d="M471.53,234.49h30.15c.06.43.13.86.19,1.29-1.88.22-3.76.63-5.65.62-2.5,0-3.57.88-3.56,3.51.08,15.99-.04,31.99.19,47.97.02,1.22,2.06,3.25,3.38,3.45,3.26.48,6.64.24,9.97.08,8.72-.43,12.78-4.07,14.71-12.71.38-1.71,1.37-3.28,2.08-4.91.53.19,1.06.37,1.59.56,0,5.59.17,11.19-.16,16.77-.06,1.01-2.2,2.71-3.39,2.72-15.98.08-31.95-.09-47.93-.23-.21,0-.42-.43-.75-.8.24-.34.45-.95.76-1.01q7.09-1.38,7.09-8.75c0-13.49-.18-26.99.1-40.48.1-4.58-.85-6.97-5.92-6.2-.93.14-1.99-.53-2.99-.83.05-.36.09-.71.14-1.07Z"/><path d="M53.59,234.45v15.97c-.38.16-.76.33-1.13.49-.83-1.34-1.87-2.6-2.45-4.04-3.17-7.99-10.64-12.71-19.28-12.04-7.56.58-13.19,5.26-13.99,14.43-.9,10.19-.27,20.57.41,30.82.45,6.81,4.78,11.34,11.59,12.63,7.59,1.43,14.29-.5,18.91-7.1,1.96-2.81,3.33-6.02,4.98-9.08,3.05,2.12,3.57,13.36.78,18.58-2.95-4.49-6.27-3.55-10.47-1.61-17.15,7.89-34.62-4.8-39.75-19.44-4.25-12.14-.91-24.43,9.24-33.53,9.78-8.77,20.62-10.54,32.81-5.24,2.01.88,4.98-.43,8.36-.83Z"/><path d="M89.77,174.71c2.71.4,5.08.74,7.45,1.09-.01.45-.02.9-.04,1.35-5.81,1.2-11.68.48-17.93.55.47-1.35.59-1.91.68-1.9,7.03.46,7.77-5.16,9.47-9.81,5.59-15.27,11.11-30.57,16.79-45.81.55-1.49,1.98-2.66,3-3.97.99,1.41,2.35,2.69,2.91,4.26,5.88,16.59,12.03,33.11,17.19,49.93,1.58,5.15,5.18,4.48,8.48,6.36-9.03,1.18-17.95,1.01-26.88.93-.05-.61-.1-1.22-.15-1.83,2.46-.37,4.93-.75,7.39-1.12-1.8-12.23-3.55-14.75-10.12-14.79-14.98-.08-15.95.68-18.24,14.77ZM103.65,134.6c-1.53,4.34-2.72,7.78-3.96,11.21-4.82,13.26-6.41,11.64,8.77,11.69,2.92,0,3.86-1.25,2.87-4.12-1.84-5.34-3.47-10.75-5.31-16.09-.27-.8-1.19-1.38-2.38-2.68Z"/><path d="M204.8,119.62v14.01l-1.48.35c-.66-1.46-1.43-2.88-1.97-4.39-3.29-9.21-12.69-13.51-20.18-9.2-3.87,2.23-5.6,5.51-5.06,9.97.51,4.21,3.66,5.62,7.1,6.72,4.58,1.47,9.28,2.64,13.74,4.42,9.87,3.92,13.7,15.26,9.24,26.61-3.51,8.92-13.73,13.42-23.09,10.15q-7.46-2.6-12.31-.06v-17.04c.31-.27.61-.54.92-.82.85,1.33,1.95,2.56,2.5,4,2.13,5.54,5.37,9.88,11.26,11.83,5.74,1.9,13.07-.94,15.89-6.27,3.33-6.29.67-12.88-6.47-15.66-4.17-1.62-8.47-2.92-12.69-4.45-9.6-3.47-13.93-13.73-10.07-23.78,3.16-8.24,13.07-12.01,22.17-8.74,3.16,1.14,6.59,1.5,10.51,2.34Z"/><path d="M400.37,62.82v-18.31l1.35-.44c.86,1.75,1.83,3.46,2.56,5.27,3.79,9.38,12.44,13.42,20.78,9.59,4.7-2.16,7.01-5.85,7.1-11.05.09-5.15-2.95-7.96-7.21-9.7-3.99-1.63-8.12-2.97-12.21-4.35-7.83-2.64-12.16-8.25-12.47-16.25-.3-7.67,3.82-15.06,11.14-17.13,3.96-1.12,8.68.18,13.01.73,2.99.38,5.91,1.35,9.82,2.29v13.88c-.48.12-.96.23-1.43.35-1.01-2.28-1.98-4.57-3.05-6.82-3.45-7.25-11.84-10.46-18.35-7.21-4.05,2.02-5.94,5.21-5.77,9.62.19,4.68,3.51,6.43,7.39,7.61,3.97,1.21,7.92,2.48,11.89,3.68,11.75,3.55,15.2,16.09,10.77,27.55-3.59,9.29-14.94,13.54-25.2,8.96-3.57-1.59-6.28-2.34-10.12,1.73Z"/><path d="M373.28,276.8v18.58c-4.91-6.09-8.59-2.22-12.72-.79-5.55,1.92-11.2,1.9-16.79-.84-21.86-10.7-25.42-39.57-6.65-55.23,7.18-5.99,15.25-7.99,24.2-4.63,3.59,1.35,6.99,4.01,11-1.23v17.91c-.44.1-.88.19-1.32.29-.85-2.04-1.62-4.11-2.55-6.11-2.77-5.97-7.7-9.07-14.02-9.86-5.19-.65-9.76,1.21-12.39,5.77-1.69,2.93-3.04,6.46-3.18,9.78-.39,9.13-.35,18.3.05,27.44.36,8.36,4.88,13.78,11.49,14.96,7.61,1.35,14.36-2.16,18.03-9.44,1.14-2.27,2.13-4.62,3.19-6.93.56.11,1.12.22,1.67.33Z"/><path d="M409.26,234.5h29.8c-1.73,1.18-2.29,1.88-2.72,1.8-7.06-1.2-7.03,3.08-6.94,8.22.24,13.46.26,26.94-.02,40.4-.1,4.66.61,7.52,6.08,6.65.56-.09,1.2.33,1.79,1.37-9.15,1.2-18.3,1.17-28.31.83.94-1.29,1.15-1.89,1.46-1.95q7.26-1.39,7.26-8.66c0-13.3-.17-26.61.09-39.9.09-4.77-.57-7.86-6.32-6.88-.68.12-1.46-.36-2.2-.57,0-.44.02-.88.02-1.32Z"/><path d="M207.66,1.66c-.58,1.34-.62,1.58-.71,1.6q-7.69,2.22-7.69,10.81c0,12.98,0,25.96,0,38.94,0,1.79,0,3.57,0,5.46,3.23.39,5.84.71,8.46,1.03-.04.47-.08.95-.12,1.42h-28.49c-.07-.4-.13-.79-.2-1.19,1.08-.26,2.2-.85,3.22-.71,4.71.66,5.45-1.67,5.38-5.79-.22-14.14-.25-28.29,0-42.43.09-4.77-.53-7.92-6.31-6.99-.56.09-1.2-.35-1.79-1.36,9.22-1.21,18.43-1.17,28.25-.79Z"/><path d="M330.9,2.07h26.86c-.62.96-.81,1.45-.95,1.44-7.09-.67-7.22,3.64-7.1,9.01.29,13.49.26,27,0,40.49-.08,4.39.84,6.71,5.69,6,.86-.13,1.81.38,2.66,1.73h-28.89c1.78-.97,2.56-1.79,3.21-1.69,5.34.84,6.32-1.67,6.21-6.52-.32-13.99-.3-28-.01-41.99.1-4.71-.71-7.49-6.13-6.71-.53.08-1.14-.41-1.71-.64.05-.37.1-.74.15-1.11Z"/><path d="M357.83,177.26h-28.3c1.29-1.13,1.78-1.88,2.14-1.83,6.57,1.02,7.03-2.66,6.92-7.92-.31-13.82-.29-27.65,0-41.47.1-4.56-1.11-6.56-5.79-5.91-.71.1-1.49-.37-2.17-1.67h27.63c-.59.83-.73,1.26-.96,1.32q-7.5,1.89-7.51,9.87c0,12.99.18,25.99-.09,38.98-.1,4.61.48,7.58,6.04,6.67.67-.11,1.45.42,2.17.65-.03.44-.06.88-.09,1.32Z"/></svg>