<svg version="1.1" id="Layer_1" xmlns="http://www.w3.org/2000/svg" xmlns:xlink="http://www.w3.org/1999/xlink" x="0px" y="0px" viewBox="0 0 613.7 144" style="enable-background:new 0 0 613.7 144;" xml:space="preserve">
 <style type="text/css">
  .st0{fill:#002A53;}
 </style>
 <g>
  <path class="st0" d="M547.5,42.7l-17.1,46.9h34.7L547.5,42.7z M496.5,140.2c12.1-6.5,15.6-17.3,20.7-30.7l35.1-93.4h9.6l35.8,94.8
		c5.3,14.1,10,22.7,15.9,29.3h-42.1c4.2-6.3,5.5-17.6,0.6-31.2l-5.8-15.6H529l-3.4,9c-7.3,19.5-2.5,31.7,3.6,37.8H496.5z">
  </path>
  <path class="st0" d="M193.6,106.4c0-16.6-7.3-29-25.4-29h-16.4v57.8c4.3,1,8.7,1.5,13.1,1.5c19.5,0,28.7-12.5,28.7-30.4V106.4z
		 M167.1,73.6c17-0.2,22.6-14.6,22.6-27.9c0-15.9-8-26.8-25.4-26.8c-4.2-0.1-8.4,0.4-12.5,1.3v53.3L167.1,73.6z M120.4,140.1
		c6.1-7.2,7-18,7-33v-58c-0.3-17.8-1.2-25.6-7-33h49.5C204.8,16,213,30.2,213,44.5c0,12.9-6.5,24.9-24.4,30.4
		c22.2,3.7,30.5,16.8,30.5,31.5c0,19.5-13.9,33.9-48.3,33.9L120.4,140.1z">
  </path>
  <path class="st0" d="M276,77.6h-11.4V20.3c3.5-0.7,7.1-1.1,10.7-1.2c19.9,0,26.2,11.8,26.2,27.1c0,16.1-5.1,31.5-25.4,31.5
		L276,77.6z M387.1,49.1c0-15.1,1-25.9,7-33h-38.6c6.1,7.2,7,18,7,33v58c0,21.2-4,26.6-8.4,28.3c-7.6,2.9-17.8,0.4-24.5-7.6
		c-7.4-8.8-26.9-50.2-26.9-50.2c16.6-5.9,23.8-17.8,23.8-31.5c0-18-10.7-30.1-45.5-30h-47.8c5.9,7.5,6.8,15.2,7.1,33v58
		c0,15.1-1,25.9-7.1,33h38.5c-6.1-7.2-7.1-18-7.1-33V81.3h12.7l29.4,58.9h87.3c-5.9-7.5-6.8-15.2-7-33L387.1,49.1z">
  </path>
  <path class="st0" d="M513.6,16.1H409.7l-6.4,34.4h0.7l0.9-2.1c7-15.5,23.3-25.1,44.5-27.7V107c0,15.1-0.9,25.9-7,33h38.5
		c-6.1-7.2-7.1-18-7.1-33V20.7c21.2,2.5,37.5,12.2,44.5,27.7c0.3,0.7,0.6,1.3,0.9,2.1h0.7L513.6,16.1z">
  </path>
  <path class="st0" d="M584.4,117.5c0,0.1-0.1,0.3-0.2,0.4c-0.1,0.1-0.3,0.2-0.4,0.2c-0.1,0-0.1,0-0.2,0c-0.1,0-0.1-0.1-0.2-0.1
		c0-0.1-0.1-0.1-0.1-0.2c0-0.1,0-0.1,0-0.2c0-0.1,0-0.1,0-0.2c0-0.1,0.1-0.1,0.1-0.2c0.1-0.1,0.1-0.1,0.2-0.1c0.1,0,0.1,0,0.2,0
		c0.2,0,0.3,0.1,0.4,0.2C584.3,117.2,584.4,117.4,584.4,117.5z">
  </path>
  <path class="st0" d="M54.1,133.5c-22.2,0-47.2-20-45.8-50c0-2.1,0.3-5.1,0.6-7.1c0,28.9,23.9,47.4,45.3,47.4
		c21.4,0,45.2-18.4,45.3-47.4c0.3,2,0.5,5.1,0.6,7.1C101.2,113.5,76.3,133.5,54.1,133.5z M14.7,71.3c0.1-2.1,0.3-4.2,0.7-6.3
		c0.7,24.3,20.6,40.4,38.6,40.4c17.9,0,37.9-16.1,38.6-40.4c0.3,2.1,0.5,4.2,0.6,6.3c0.3,5.4-0.6,10.7-2.4,15.8
		c-1.8,5.1-4.6,9.7-8.3,13.7c-3.6,4-8,7.2-12.9,9.5c-4.9,2.3-10.2,3.6-15.5,3.8c-19,0-40.4-17.3-39.2-42.7H14.7z M21.4,61.3
		c0.6-12.7,5.9-21.7,13.5-31.5c5.7-7.3,12.1-14,19.1-20c7.1,6,13.5,12.7,19.2,20c7.5,9.7,12.9,18.8,13.4,31.4
		c0.4,4.5-0.2,9-1.7,13.3c-1.5,4.3-3.8,8.2-6.9,11.5c-3.1,3.3-6.8,6-10.9,7.8c-4.1,1.8-8.6,2.8-13.2,2.8c-4.5,0-9-0.9-13.2-2.8
		c-4.1-1.8-7.9-4.5-10.9-7.8c-3.1-3.3-5.4-7.3-6.9-11.5C21.6,70.4,21.1,65.8,21.4,61.3z M108,85.2c-0.9-20.9-9.8-36-22.2-52
		C76.4,21.1,65.7,10,54.1,0C42.3,9.8,31.7,20.9,22.4,33C9.8,49.2,1,64.2,0.1,85.1c-1.5,35.2,27.8,58.9,54,58.9
		C80.3,144,109.6,120.3,108,85.2">
  </path>
  <path class="st0" d="M581.7,17.2v9.7h-1.4v-9.7h-3.7V16h8.9v1.2H581.7z">
  </path>
  <path class="st0" d="M596.8,26.9v-5.6c0-1.4,0-2.8,0-4.2c-0.5,1.4-1,2.8-1.5,4.2l-2,5.6h-1.6l-2-5.6c-0.5-1.4-1-2.8-1.5-4.2
		c0,1.4,0,2.8,0,4.2v5.6h-1.4V16h2.3l2,5.4c0.5,1.4,1,2.8,1.4,4.2c0.5-1.4,0.9-2.8,1.4-4.2l2-5.4h2.3v10.9H596.8z">
  </path>
 </g>
</svg>