<svg xmlns="http://www.w3.org/2000/svg" x="0px" y="0px" viewBox="0 0 102.4 66.2" style="enable-background:new 0 0 102.4 66.2;" xml:space="preserve">
  <path d="M26.7,51.1c-0.2-0.2-0.4-0.3-0.6-0.5c0.1-0.1,0.2-0.1,0.3-0.2c2.8-2.2,3.9-5.1,3.2-8.6c-0.9-4.5-5.3-7.4-9.8-6.5
  c-4.8,0.9-7.7,5.3-6.8,10c0.7,3.7,4.1,6.7,8,6.8c0.9,0,1.8,0.2,2.6,0.6c2.4,1.2,3.7,3.5,3.2,6c-0.5,2.4-2.5,4.2-5,4.4
  c-2.3,0.2-4.4-1.1-5.4-3.3c-0.4-0.8-0.5-1.7-0.5-2.7c-1,0-1.9,0-2.8-0.1c-0.3,0-0.3,0.1-0.3,0.3c0,0.6,0,1.1,0.1,1.6
  c0.8,4.8,5.5,8.1,10.2,7c3.4-0.8,5.7-2.9,6.5-6.3C30.4,56.3,29.3,53.4,26.7,51.1z M21.3,49.1c-3,0-5.4-2.5-5.4-5.5s2.5-5.4,5.5-5.4
  s5.4,2.4,5.4,5.4C26.8,46.7,24.3,49.1,21.3,49.1z M86.4,31.3c-0.4-0.6-0.9-1.1-1.3-1.7c-2-2.6-4-5.2-6-7.9c-0.2-0.2-0.3-0.3-0.6-0.1
  c-1.2,0.6-2.4,1.2-3.6,1.8c-0.3,0.1-0.3,0.3-0.3,0.6c0,2.2,0,4.3,0,6.5c0,0.6,0,0.6-0.6,0.6c-0.7,0-1.5,0-2.2,0
  c-0.3,0-0.4-0.1-0.4-0.4s0-0.5,0-0.8V0.7c0-0.1,0-0.3,0-0.4c0-0.1,0.2-0.3,0.3-0.3c0.9,0,1.7,0,2.6,0c0.1,0,0.2,0.1,0.3,0.2
  c0,0.1,0,0.3,0,0.4c0,6.3,0,12.6,0,18.8l0,0.7c4.4-2.1,8.7-4.2,13-6.3c0.5,0.9,0.9,1.8,1.4,2.8c-2.4,1.2-4.8,2.3-7.2,3.5
  c2.4,3.1,4.7,6.2,7.1,9.3C88.1,30,87.3,30.6,86.4,31.3z M38.5,30.8c2.6,0.5,5-0.1,7.2-1.8c0,0.6,0,1.1,0,1.6c-0.1,0.3,0,0.4,0.3,0.4
  c0.8,0,1.6,0,2.4,0c0.2,0,0.3,0,0.3-0.3c0-5.5,0-10.9,0-16.4c0-0.3-0.1-0.4-0.4-0.4c-0.8,0-1.6,0-2.4,0c-0.3,0-0.4,0.1-0.4,0.4
  c0,0.6,0,1.1,0,1.7c-1.9-1.4-3.9-2.1-6-1.9c-2.3,0.2-4.2,1.2-5.7,3c-2.6,3-2.6,7.5-0.2,10.6C34.9,29.3,36.5,30.4,38.5,30.8z
    M40,17.1c3.3,0,5.5,2.6,5.5,5.5c0,3-2.4,5.4-5.4,5.4c-3.1,0-5.5-2.4-5.6-5.4C34.5,19.9,36.6,17.1,40,17.1z M54,35.2
  c-4.6,0.8-7.7,5.3-6.8,9.9c1.2,6.4,8.7,9.1,13.7,5c0.3-0.2,0.6-0.6,0.9-0.8c-0.7-0.8-1.4-1.5-2.1-2.2c-1.8,1.9-3.9,2.5-6.4,1.6
  c-1.5-0.7-2.5-1.8-3.1-3.5h0.5c2.4,0,4.8,0,7.2,0c1.8,0,3.6,0,5.4,0c0.3,0,0.5-0.1,0.5-0.4c0.2-1,0.2-1.9,0-2.8
  C63,37.4,58.6,34.4,54,35.2z M50.4,42c0.1-1.7,2.5-3.7,4.6-3.8c2.7-0.2,5.2,1.5,5.7,3.8H50.4z M73,35.2c-4.6,0.9-7.5,5.4-6.6,10
  c0.9,4.1,4.6,6.9,8.5,6.8c2.4,0,4.3-0.9,6-2.6c0.2-0.2,0.2-0.3,0-0.5c-0.6-0.5-1.2-1.1-1.8-1.7L79,47.1c-2,2.2-4.5,2.2-6.1,1.6
  c-1.6-0.6-2.7-1.7-3.3-3.5V45h0.5c4.2,0,8.3,0,12.5,0c0.3,0,0.5-0.1,0.5-0.4c0.1-1,0.1-1.9-0.1-2.9C82,37.1,77.7,34.3,73,35.2z
    M69.7,42c0-1.5,2.6-3.7,4.7-3.8C77,38,79.8,39.9,80,42H69.7z M12.8,19.3c-0.3-0.3-0.6-0.7-0.9-0.9c-1.6-1.3-3.5-1.6-5.4-0.9
  c-1.9,0.8-3.2,2.3-3.3,4.3c-0.2,2-0.1,4-0.1,6v0.1c0.1,0,0.3,0,0.4,0c1.7,0,3.5,0,5.2,0c0.3,0,0.4,0.1,0.4,0.4c0,0.7,0,1.5,0,2.2
  C9.1,30.9,9,31,8.6,31c-1.7,0-3.4,0-5.1,0C3.1,31,3,31.1,3,31.5c0,4.4,0,8.8,0,13.2c0,0.4-0.1,0.5-0.5,0.5c-0.7,0-1.4,0-2.1,0
  c-0.4,0-0.5-0.1-0.5-0.5C0,39,0,33.2,0,27.4c0-1.7,0-3.3,0-5c0-4,3-7.6,7-8.3c3-0.5,5.5,0.3,7.7,2.4c0.2,0.2,0.2,0.4,0,0.6
  C14.1,17.8,13.5,18.5,12.8,19.3z M102.4,43.6c0,2.7,0,5.5,0,8.2c0,0.4-0.1,0.5-0.5,0.5c-0.7,0-1.5,0-2.2,0c-0.4,0-0.5-0.1-0.5-0.5
  c0-2.6,0-5.3,0-7.9c0.1-2.6-1.7-5.2-4.8-5.6c-3.6-0.5-6.1,2.4-6.1,5.2c0,2.7,0,5.5,0,8.2c0,0.5,0,0.5-0.5,0.5c-0.7,0-1.5,0-2.2,0
  c-0.3,0-0.4-0.1-0.4-0.4c0-0.1,0-0.2,0-0.2c0-5.3,0-10.5,0-15.8c0-0.4,0.2-0.6,0.6-0.6c0.7,0,1.4,0,2.1,0c0.3,0,0.4,0.1,0.4,0.4
  c0.2,0.4,0.2,0.9,0.2,1.5c0.9-0.7,1.8-1.2,2.8-1.5c5-1.6,10.1,1.6,11,6.7C102.4,42.7,102.4,43.2,102.4,43.6z M68.7,31.1
  c-1,0-1.9,0-2.8,0c-0.1,0-0.2-0.1-0.2-0.2c0-0.1,0-0.3,0-0.4c0-2.6,0-5.2,0-7.8c0-2.7-1.8-4.9-4.4-5.4c-3.2-0.7-6.4,1.9-6.4,5.2
  c0,2.7,0,5.5,0,8.2c0,0.4-0.1,0.5-0.5,0.5c-1-0.1-1.8-0.1-2.7-0.1v-17c0.1,0,0.3-0.1,0.4-0.1c0.8,0,1.5,0,2.3,0
  c0.3,0,0.5,0.1,0.4,0.5c0,0.5,0,1,0,1.5c0.2-0.1,0.3-0.2,0.3-0.2c5-3.8,12.4-0.9,13.5,5.3c0.1,0.5,0.1,1.1,0.1,1.7
  c0,2.6,0,5.2,0,7.8C68.7,30.8,68.7,30.9,68.7,31.1z M31.6,17c-0.7,0.7-1.3,1.5-2.1,2.3c-0.2-0.3-0.4-0.5-0.7-0.7
  c-1.6-1.4-3.4-1.8-5.3-1.1c-2,0.7-3.2,2.1-3.7,4.2c-0.1,0.3-0.1,0.5-0.1,0.8c0,2.7,0,5.4,0,8.1c0,0.2,0,0.4,0,0.6c-1,0-1.9,0-2.8,0
  c-0.1,0-0.2-0.2-0.2-0.3c0-0.1,0-0.2,0-0.3c0-5.3,0-10.6,0-15.9c0-0.6,0-0.6,0.6-0.6c0.7,0,1.4,0,2.1,0c0.3,0,0.4,0.1,0.4,0.4
  c0,0.4,0,0.9,0,1.5C24.5,12.4,29.7,14.6,31.6,17z M46.9,38c-0.7,0.7-1.3,1.5-2.1,2.4c-0.1-0.2-0.1-0.3-0.2-0.4
  c-1.6-1.7-3.5-2.2-5.7-1.6c-2.2,0.7-3.4,2.3-3.8,4.5c0,0.1,0,0.3,0,0.4c0,2.8,0,5.6,0,8.4c0,0.4-0.1,0.5-0.5,0.5c-0.7,0-1.4,0-2.1,0
  c-0.4,0-0.5-0.1-0.5-0.5c0-4.4,0-8.7,0-13.1c0-1,0-2.1,0-3.1c0-0.3,0.1-0.4,0.4-0.4c0.8,0,1.6,0,2.3,0c0.3,0,0.4,0.1,0.4,0.4
  c0,0.5,0,1,0,1.6C39.2,33.9,44.3,35,46.9,38z M92.2,31.3c1.4,0,2.5-1,2.4-2.3c0-1.4-1-2.5-2.4-2.5c-1.3,0-2.4,1.1-2.4,2.3
  C89.8,30.3,90.8,31.3,92.2,31.3z M92.3,27.2c0.9,0,1.7,0.8,1.8,1.8c0,1-0.7,1.8-1.7,1.8S90.6,30,90.6,29S91.3,27.2,92.3,27.2z
    M91.6,30.4c0.3,0,0.3-0.1,0.3-0.3c0-0.2,0-0.4,0-0.6c0.5-0.1,0.6,0,0.7,0.4c0.1,0.5,0.2,0.6,0.8,0.4c-0.1-0.5-0.2-0.9-0.4-1.3
  c0.2-0.2,0.4-0.4,0.2-0.8s-0.5-0.4-0.8-0.4c-0.2,0-0.5,0-0.7,0s-0.4,0.1-0.4,0.4c0,0.6,0,1.2,0,1.8C91.3,30.2,91.3,30.4,91.6,30.4z
    M92.1,28.3c0.2,0,0.4,0,0.4,0.1c0.2,0.1,0.2,0.3,0.1,0.4c-0.1,0.1-0.3,0.1-0.5,0.1C92.1,28.7,92.1,28.6,92.1,28.3z"></path>
</svg>