<?xml version="1.0" encoding="UTF-8"?><svg id="Layer_1" xmlns="http://www.w3.org/2000/svg" viewBox="0 0 173.81 57.3"><path d="M69.72,23.32c-.69-.27-1.36-.61-2.07-.79-1.48-.38-2.97-.71-4.47-1-1.34-.26-1.75-1.1-.87-2.14.72-.86,1.58-1.61,2.45-2.33,1.08-.89,2.23-1.68,3.35-2.52.19-.14.34-.34.51-.51-.02-.04-.05-.07-.07-.11-.24.1-.48.18-.71.29-2.44,1.15-4.78,2.48-7.03,3.98-.23.16-.47.32-.73.42-.91.37-1.79-.09-1.79-1.07,0-1.14.07-2.31.35-3.4.44-1.73,1.09-3.41,1.64-5.12.08-.24.09-.49.13-.74-.06-.03-.12-.07-.18-.1-.18.18-.42.34-.53.56-.79,1.55-1.56,3.12-2.33,4.68-.19.39-.34.8-.55,1.17-.34.6-.76.65-1.23.14-.22-.24-.41-.53-.59-.8-1.01-1.52-2.02-3.05-3.03-4.58-.11-.16-.25-.3-.37-.44-.05.01-.1.03-.15.04.02.25,0,.51.07.73.49,1.48,1.02,2.95,1.49,4.44.21.68.38,1.38.45,2.08.08.86-.28,1.24-1.12,1.42-1.02.22-2.03.08-3.02-.16-.71-.17-1.4-.41-2.1-.61-.2-.06-.41-.1-.61-.15-.04.04-.07.08-.11.13.14.17.25.38.42.52,1.5,1.25,3.25,2.06,5.01,2.86.55.25,1.11.45,1.64.72.29.15.51.42.77.64-.23.23-.42.5-.69.67-1.76,1.14-3.57,2.19-5.28,3.41-2.41,1.71-4.62,3.66-6.41,6.04-.27.36-.48.76-.77,1.11-.18.22-.45.36-.67.54l-.19-.14c.06-.26.08-.53.19-.77.93-2,2.26-3.72,3.75-5.32,1.81-1.94,3.8-3.68,6.06-5.1.25-.15.42-.43.62-.66-.24-.19-.45-.44-.72-.56-1.56-.7-3.17-1.3-4.69-2.09-1.15-.6-2.18-1.45-3.27-2.19-.07-.05-.12-.11-.18-.17-.35-.34-.73-.72-.54-1.24.2-.55.76-.54,1.23-.56,1.45-.07,2.83.32,4.23.63,1.01.22,2.02.43,3.03.61.75.14,1.07-.19.86-.92-.22-.76-.51-1.51-.81-2.25-1.02-2.55-2.05-5.09-2.58-7.8-.23-1.16-.47-2.32-.27-3.51.17-.99.72-1.23,1.48-.57.64.55,1.25,1.17,1.73,1.85,1.49,2.12,2.92,4.29,4.37,6.44.31.45.59.93.93,1.36.42.53.71.5.98-.12.47-1.06.86-2.16,1.32-3.23.32-.74.67-1.48,1.07-2.19.28-.49.52-.47.85,0,.3.42.53.45.84.03.5-.66.96-1.36,1.43-2.04.46-.65.89-1.33,1.4-1.94.27-.32.65-.58,1.02-.77.48-.25.8-.04.76.5-.03.39-.11.79-.25,1.16-.98,2.65-2.01,5.28-2.98,7.94-.42,1.15-.74,2.34-1.1,3.52-.04.14-.11.29-.1.44.02.38-.04.88.17,1.1.16.18.72.1,1.05-.01,2.41-.87,4.79-1.8,7.2-2.67.62-.23,1.28-.38,1.93-.48.27-.04.7.06.83.25.13.19.08.63-.06.87-.26.46-.56.93-.96,1.26-1.72,1.47-3.48,2.89-5.23,4.33-.56.46-1.13.93-1.83,1.5.41.09.68.18.96.21,2.08.21,4.18.34,6.25.62,1.75.24,3.46.69,5.03,1.53.49.26.95.63,1.32,1.04.57.64.49,1.35-.26,1.77-.75.41-1.57.72-2.4.93-2.02.5-4.09.43-6.16.35-.68-.03-1.36-.06-2.05-.07-.56,0-.77.24-.57.79.25.72.58,1.41.88,2.11.68,1.55,1.38,3.1,2.03,4.66.21.5.33,1.05.38,1.58.05.53-.33.81-.8.57-.61-.31-1.22-.69-1.71-1.16-2.23-2.14-4.07-4.62-5.85-7.13-.4-.56-.77-1.12-1.18-1.67-.11-.15-.33-.36-.44-.33-.16.05-.35.27-.39.45-.23,1.21-.47,2.42-.6,3.63-.18,1.6-.25,3.22-.42,4.82-.03.28-.31.76-.45.75-.44-.02-.43-.49-.43-.82,0-3.12.15-6.22.99-9.25.1-.36.26-.72.46-1.04.32-.51.79-.55,1.21-.11.35.37.67.79.96,1.21.99,1.4,1.95,2.82,2.95,4.21.28.39.65.7,1,1.04.08.08.23.09.5.18-.14-.41-.2-.69-.32-.94-.6-1.26-1.22-2.51-1.83-3.77-.1-.21-.17-.43-.24-.65-.4-1.18-.02-1.83,1.22-1.9.99-.06,1.99.02,2.99.03.84,0,1.68,0,2.52,0,.02-.05.04-.09.06-.14Z"/><path d="M50.62,40.29c1.29-.4,2.47-.79,3.66-1.14,2.12-.62,4.28-1.02,6.48-1.02.83,0,1.71.1,2.49.38,1.35.48,1.9,1.73,1.4,3.08-.3.82-.8,1.56-1.21,2.33-.11.2-.22.39-.42.73.42-.05.68-.07.94-.13,1.97-.39,3.93-.89,5.92-1.16,3.51-.49,6.58.51,9.1,3.06.2.21.37.47.49.74.06.14-.01.34-.02.51-.17-.02-.34-.02-.51-.06-.07-.02-.14-.09-.2-.14-3.18-2.6-6.74-3.11-10.61-1.9-1.7.53-3.37,1.13-5.07,1.65-.71.22-1.45.42-2.19.45-1.88.09-2.79-1.4-1.87-3.03.48-.85,1.12-1.61,1.68-2.41.21-.3.43-.6.6-.92.3-.58.12-1.03-.52-1.09-.8-.07-1.63-.06-2.43.04-3.06.38-5.86,1.58-8.62,2.87-.89.41-1.77.86-2.67,1.23-.4.17-.86.26-1.3.26-.69,0-1-.42-.84-1.09.12-.48.32-.94.52-1.4.3-.7.67-1.38.95-2.09.1-.27.03-.6.04-.91-.27.05-.56.05-.81.15-1.47.56-2.69,1.51-3.93,2.44-1.44,1.08-2.89,2.13-4.37,3.14-.68.46-1.46.7-2.32.44-1.04-.32-1.61-.93-1.57-2.03.03-.85.25-1.7.41-2.55.09-.49.26-.96.35-1.45.13-.72-.19-1.05-.85-.77-.74.31-1.47.71-2.09,1.22-1.31,1.08-2.5,2.3-3.82,3.36-.67.54-1.46,1.02-2.27,1.29-1.39.47-2.19-.34-1.85-1.77.14-.57.44-1.1.64-1.67.06-.17.06-.43-.04-.56-.68-.97-1.69-1.31-2.81-1.37-1.63-.09-3.16.36-4.66.96-3.27,1.3-6.18,3.2-8.85,5.44-2.23,1.87-4.32,3.9-6.47,5.86-.18.17-.37.34-.58.47-.09.06-.3.07-.37,0-.09-.08-.16-.28-.12-.39.11-.31.25-.62.44-.89,1.89-2.75,4.19-5.13,6.71-7.29,3.35-2.88,7-5.3,11.18-6.83,1.73-.63,3.5-1.07,5.34-1.15,2.5-.12,3.64.64,4.5,2.94.8-.53,1.58-1.09,2.4-1.6,1.35-.84,2.74-1.59,4.32-1.88.63-.11,1.3-.13,1.93-.05,1.26.16,2.07,1.09,2.06,2.36,0,.64-.18,1.28-.29,1.91-.05.29-.14.57-.21.85.04.03.07.06.11.09.21-.11.42-.21.62-.33,2.4-1.52,4.91-2.82,7.71-3.43.77-.17,1.59-.24,2.37-.18,1.12.09,1.73.8,1.75,1.93.01.62-.12,1.25-.2,1.87-.02.18-.07.35-.12.6Z"/><path d="M102.19,20.59c-.19.36-.36.6-.46.87-.68,1.84-1.35,3.68-2.02,5.52-.14.39-.28.79-.49,1.14-.62,1.05-2.07,1.01-2.65-.07-1.05-1.94-1.74-4.02-2.24-6.17-.17-.74-.32-1.49-.61-2.27-.13.32-.28.63-.38.96-.48,1.61-.9,3.24-1.44,4.82-.71,2.08-1.46,4.14-2.7,5.98-.31.46-.7.9-1.13,1.25-.23.19-.71.33-.93.22-.22-.11-.37-.58-.36-.89.01-.44.15-.88.3-1.3,1.48-3.98,2.84-7.99,3.51-12.2.11-.72.27-1.44.45-2.15.09-.38.23-.77.41-1.12.65-1.32,1.99-1.47,2.93-.34.62.75.92,1.65,1.15,2.57.44,1.77.85,3.56,1.32,5.32.15.58.46,1.11.7,1.67.06,0,.12-.01.19-.02.14-.22.31-.42.4-.66.8-1.97,1.58-3.95,2.39-5.91.25-.61.55-1.22.94-1.75.79-1.07,1.79-.95,2.44.2.98,1.77,1.46,3.7,1.93,5.64.79,3.25,1.59,6.49,2.4,9.73.15.61.36,1.21.51,1.82.07.31.09.72-.28.8-.27.06-.67-.06-.89-.25-.87-.76-1.26-1.81-1.63-2.87-1.14-3.3-2.27-6.6-3.41-9.89-.07-.2-.18-.37-.34-.68Z"/><path d="M26.61,10.66c.23-.13.43-.22.61-.33,4.42-2.65,9.2-3.98,14.37-3.7,1.49.08,2.98.27,4.44.59.65.14,1.43.39,1.59,1.35.11.68.44,1.32.68,1.97,0,0-.01.02-.01.02-1.14-.29-2.27-.62-3.42-.85-4.78-.93-9.41-.42-13.83,1.64-6.46,3.03-10.61,8.05-12.49,14.9-.79,2.88-.99,5.83-.52,8.81.02.13-.1.38-.22.43-.79.35-1.59.67-2.49,1.04-.08-.76-.17-1.49-.22-2.22-.39-4.98.79-9.64,2.9-14.09,1.68-3.54,3.76-6.85,6.27-9.87.25-.31.52-.61.8-.89.39-.39.65-.36.98.09.12.16.21.34.3.52.09.18.16.36.27.61Z"/><path d="M46.04,13.68c.74.27,1.48.55,2.22.83,0,.03-.02.05-.03.08-1.12-.24-2.24-.55-3.37-.7-.91-.12-1.87-.19-2.77-.05-1.44.22-1.86,1.47-.98,2.64.21.29.49.53.79.85-4.87-.32-8.99,1.19-12.23,4.77-3.23,3.57-4.29,7.82-3.54,12.42-1.29-.04-2.57-.09-3.94-.14-.04-.51-.12-1.14-.14-1.76-.16-5.98,1.95-11.03,6.35-15.08,1.99-1.83,4.41-2.95,6.93-3.85,2.77-.99,5.62-1.62,8.58-1.64.27,0,.53.02.8.05,1.16.15,1.38.4,1.32,1.59Z"/><path d="M57.82,46.82c.33.83.96,1.36,1.89,1.71-6.72,7.15-14.83,10.15-24.42,8.17-8.96-1.85-14.99-7.4-18.55-15.87.88-.27,1.67-.5,2.42-.73,3.39,7.83,9.08,12.85,17.49,14.29,8.38,1.44,15.42-1.36,21.18-7.57Z"/><path d="M56.09,41.54c-6.47,10.45-21.04,11.59-29.02,2.91.95-.82,1.91-1.65,2.84-2.46.87.68,1.76,1.37,2.65,2.06.07.06.13.16.15.25.33,1.34,2.26,2.26,3.82,1.81.27-.08.59-.09.86-.03,2.62.53,5.19.4,7.73-.45.26-.09.55-.08.82-.15.54-.14,1.11-.24,1.62-.47,2.56-1.14,5.06-2.44,7.76-3.26.22-.07.44-.12.76-.21Z"/><path d="M136.62,28.11c.28-.11.49-.25.71-.25.26,0,.6.02.76.18.12.13.1.51,0,.72-.18.41-.47.76-.68,1.16-.09.18-.15.42-.11.61.12.57.31,1.12.43,1.69.08.35.03.71-.35.9-.39.19-.7,0-.92-.28-.38-.46-.7-.96-1.09-1.49-.37.16-.78.33-1.19.5-1.33.56-2.7.88-4.13.51-2.39-.63-4.44-3.2-3.27-6.23.97-2.52,2.84-3.89,5.42-4.41.32-.06.65-.09,1.01-.14-.11-1.41-.25-2.81-.33-4.22-.06-1.11-.05-2.22-.06-3.33,0-.12.01-.23.04-.35.1-.39.18-.8.68-.87.46-.07,1.07.22,1.25.65.14.35.23.73.3,1.1.22,1.12.48,2.24.61,3.38.17,1.53.2,3.08.33,4.62.14,1.69.32,3.38.49,5.06.02.16.07.32.11.51ZM133.4,23.51c-1.78-.13-3.86,1.39-4.26,3.14-.42,1.84,1.07,3.68,2.91,3.47.79-.09,1.55-.44,2.31-.72.12-.04.25-.34.22-.49-.37-1.79-.77-3.57-1.18-5.4Z"/><path d="M120.08,28.12c.56.18.73.37.48,1.01-.29.74.04,1.27.34,1.85.14.26.31.52.41.79.19.55-.11.94-.64.73-.65-.25-1.27-.63-1.84-1.04-.27-.2-.44-.29-.77-.14-1.77.78-3.6,1.18-5.54.89-2.52-.37-4.18-3.03-3.37-5.43.9-2.66,4.02-5.1,6.85-5.26.8-.05,1.63.01,2.41.18,1.06.23,1.64,1.03,1.68,2.1.05,1.26-.01,2.52-.02,3.79,0,.18,0,.36,0,.54ZM117.49,29.3c-.09-1.51-.19-2.9-.25-4.29-.04-1.02-.26-1.28-1.3-1.22-1.82.11-3.1,1.12-4.01,2.61-.89,1.46,0,3.28,1.72,3.48,1.34.16,2.68-.07,3.83-.59Z"/><path d="M156.45,28.21c.41,1.16,1.27,1.68,2.4,1.78,1.42.12,2.85.19,4.27.31.22.02.54.15.6.31.06.17-.1.45-.22.65-.07.12-.22.2-.35.27-3.21,1.7-7.42.94-8.76-2.79-.02-.04-.05-.08-.08-.12-.27.03-.53.1-.79.09-.38-.01-.53-.28-.34-.62.14-.24.29-.53.51-.66.41-.25.44-.6.48-1.01.05-.61.1-1.23.24-1.83.6-2.66,2.27-4.33,4.87-5.09.6-.18,1.19-.11,1.74.18,1.37.71,2.19,1.82,2.37,3.35.1.9-.34,1.65-.88,2.32-.83,1.03-1.95,1.65-3.19,2.05-.93.3-1.88.54-2.87.81ZM156.18,26.53c1.45-.31,2.76-.77,3.94-1.54.7-.46,1.01-1.13.89-1.97-.1-.74-.68-1.1-1.38-.84-.6.23-1.21.48-1.75.83-1.25.81-1.58,2.08-1.71,3.52Z"/><path d="M169.85,32.54c-2.69-.22-4.25-1.51-5.08-3.81-.07-.18-.13-.4-.09-.58.05-.29.12-.71.31-.81.26-.13.71-.1.96.05.37.22.66.6.95.94.95,1.12,2.18,1.66,3.62,1.66.75,0,1.07-.41,1.06-1.16-.02-1.39-.97-2.09-2.07-2.61-.9-.42-1.76-.88-2.42-1.63-1.56-1.79-1.14-4.16.93-5.32,1.38-.77,2.75-.96,4.12.02.64.45,1.06,1.07,1.27,1.8.07.23-.1.54-.16.81-.25-.06-.54-.05-.75-.19-.38-.24-.7-.56-1.05-.84-.93-.74-2.86-.07-3.13,1.09-.12.49.04.96.42,1.26.52.4,1.08.77,1.67,1.07.94.48,1.87.96,2.54,1.81,1.39,1.75,1.07,4.46-.65,5.76-.73.55-1.56.71-2.45.69Z"/><path d="M148.35,28.91c.32-.69.69-1.35.94-2.06.93-2.61,1.81-5.24,2.73-7.86.08-.23.2-.49.38-.63.18-.15.49-.27.69-.21.15.04.31.39.29.59-.05.61-.15,1.22-.27,1.82-.45,2.21-.89,4.43-1.4,6.63-.18.76-.53,1.5-.86,2.21-.33.7-.77,1.36-1.12,2.05-.58,1.16-1.69,1.45-2.64.56-.56-.53-1.06-1.22-1.35-1.93-.52-1.27-.93-2.6-1.27-3.93-.43-1.65-.75-3.33-1.1-5.01-.06-.28-.04-.6.01-.89.07-.39.39-.53.7-.29.23.18.45.45.55.73.64,1.68,1.19,3.39,1.87,5.04.45,1.09,1.07,2.12,1.61,3.17.08,0,.16,0,.24,0Z"/><path d="M58.46,35.89c-.15.52-.26.97-.4,1.4-.04.11-.19.23-.31.26-1.41.31-2.82.59-4.27.89,2.33-5.01,2.07-9.9-.86-14.7.37-.21.74-.41,1.1-.64.34-.21.7-.4.99-.67.62-.57.58-1.33-.08-1.85-.31-.24-.69-.4-1.05-.57-.86-.39-1.73-.77-2.6-1.15-.19-.08-.37-.19-.61-.32.71-.05,1.35-.08,1.99-.13.18-.01.39-.04.53-.14.49-.35.78-.1,1.11.26,1.49,1.64,2.68,3.47,3.49,5.54.07.17.1.39.05.56-.79,2.67-1.01,5.42-1.09,8.18-.02.57-.07,1.14,0,1.69.06.44.22.92.48,1.27.37.5.92.42,1.51.1Z"/><path d="M121.76,23.71c.29-2.74.56-5.48.87-8.22.06-.52.26-1.03.43-1.53.07-.21.19-.46.36-.59.2-.15.51-.28.74-.23.15.03.34.37.34.57.03,1.06.05,2.13,0,3.19-.15,3.04-.19,6.08.18,9.11.13,1.07.43,2.11.57,3.18.1.78.12,1.58.06,2.37-.03.46-.28.9-.87.94-.6.04-1.25-.4-1.47-.89-1.17-2.52-1.07-5.21-1.06-7.89-.05,0-.1,0-.14-.01Z"/><path d="M141.66,22.09c-.08,1.96.28,3.87.59,5.79.23,1.42.18,2.81-.56,4.1-.38.66-.96.71-1.26.01-.34-.8-.59-1.66-.69-2.52-.39-3.3-.36-6.6.26-9.88.12-.65.37-.97.76-.96.42,0,.68.37.73,1.03.06.81.11,1.62.17,2.43Z"/><path d="M94.28,27.8c-.18.95-.29,1.93-.56,2.86-.28.97-1.08,1.49-2,1.79-.59.2-.93-.07-.83-.7.1-.62.26-1.24.5-1.82.59-1.46,1.24-2.9,1.87-4.34.02-.05.04-.1.07-.13.14-.13.28-.25.43-.37.09.16.24.32.25.49.07.73.11,1.46.15,2.19.04,0,.07.02.11.03Z"/><path d="M96.62,17.11c.06-.91.37-1.38,1.22-1.67.39-.13.8-.21,1.21-.27.51-.07.75.14.77.66.01.33-.02.67-.09.99-.28,1.24-.78,2.4-1.54,3.42-.13.17-.4.41-.53.37-.19-.06-.38-.32-.43-.53-.23-.98-.42-1.97-.62-2.96Z"/><path d="M63.35,32.06c.69.79,1.42,1.6,2.14,2.43.07.08.14.21.13.3-.19,1.21-.4,2.42-.6,3.59-.81-.42-1.55-.81-2.28-1.19.2-1.66.4-3.4.6-5.13Z"/><path d="M140.19,46.91c-.33.02-.69.16-.65-.46-.62.53-1.27.73-2.02.58-.57-.11-1.01-.41-1.36-.86-.7-.92-.62-2.33.17-3.17.82-.88,2-.94,3.21-.11v-2.17h.64v6.18ZM139.62,44.67c0-.99-.73-1.75-1.67-1.73-.92.02-1.56.75-1.56,1.77,0,1.01.68,1.73,1.6,1.72.95-.01,1.64-.75,1.63-1.76Z"/><path d="M149.38,22.13c-.19.54-.47,1.47-.86,2.36-.24.54-.62.52-.9,0-.59-1.12-.86-2.33-1-3.57-.06-.5.23-.77.69-.89,1.32-.33,2.08.29,2.07,2.1Z"/><path d="M99.27,44.84h-3.57c0,.63.2,1.11.71,1.38.88.47,1.7.22,2.46-.33.11.73.08.78-.58,1.03-1,.37-2.15.18-2.73-.51-.72-.85-.75-1.83-.36-2.81.4-1.01,1.51-1.49,2.61-1.21.96.25,1.58,1.24,1.46,2.45ZM98.51,44.21c0-.72-.54-1.23-1.28-1.23-.81,0-1.44.53-1.44,1.23h2.72Z"/><path d="M145.65,44.84h-3.54c-.04.61.18,1.05.64,1.35.64.43,1.39.35,2.52-.26.17.51-.03.79-.52.97-.99.37-2.17.19-2.79-.48-.63-.68-.78-2.01-.34-2.91.47-.96,1.61-1.43,2.67-1.11.94.29,1.51,1.29,1.36,2.43ZM144.97,44.21c-.16-.86-.69-1.28-1.48-1.23-.71.04-1.26.55-1.32,1.23h2.8Z"/><path d="M173.09,45.91c.19.59-.07.84-.55,1.01-1.04.36-2.16.19-2.77-.53-.72-.85-.74-1.83-.34-2.81.39-.98,1.55-1.48,2.62-1.19.97.26,1.56,1.25,1.41,2.43h-3.54c-.02.61.18,1.08.64,1.35.88.53,1.71.27,2.52-.27ZM172.75,44.21c-.03-.79-.62-1.28-1.45-1.23-.73.04-1.31.59-1.27,1.23h2.72Z"/><path d="M90.85,46.91h-.67v-6.17h.66v2.08c.52-.15,1-.39,1.49-.42.8-.05,1.44.51,1.48,1.31.06,1.06.01,2.12.01,3.2h-.67c0-.87,0-1.71,0-2.55,0-.89-.39-1.36-1.1-1.35-.73,0-1.19.54-1.19,1.37,0,.83,0,1.66,0,2.54Z"/><path d="M150.58,44.71c0-1.37,1.02-2.41,2.39-2.41,1.34,0,2.42,1.07,2.41,2.41,0,1.33-1.04,2.37-2.38,2.38-1.37.02-2.41-1.01-2.42-2.38ZM154.68,44.68c0-1-.74-1.75-1.73-1.74-.95,0-1.69.76-1.69,1.73,0,1,.72,1.76,1.71,1.76.98,0,1.71-.75,1.71-1.75Z"/><path d="M112.46,46.9v-4.43h.63c.02.15.05.3.08.51.46-.46.98-.67,1.6-.61.79.07,1.4.6,1.43,1.4.04,1.03.01,2.06.01,3.13h-.68c0-.88,0-1.74,0-2.6,0-.84-.43-1.31-1.16-1.3-.74.01-1.23.53-1.23,1.33,0,.85,0,1.69,0,2.57h-.68Z"/><path d="M121.3,46.91h-.67c0-.93.02-1.84,0-2.74-.03-.97-.93-1.47-1.78-1.01-.44.24-.63.62-.63,1.11,0,.86,0,1.73,0,2.63h-.7v-4.42h.67c.02.15.04.3.06.52.43-.46.93-.67,1.53-.63.83.05,1.46.55,1.51,1.38.06,1.04.01,2.09.01,3.16Z"/><path d="M139.99,15.62c.04-.34.05-.7.13-1.03.2-.76.87-1.14,1.56-.85.21.09.44.33.49.55.27,1.11.01,2.14-.61,3.08-.45.69-.96.65-1.25-.1-.2-.51-.27-1.08-.4-1.62.02,0,.04-.02.07-.03Z"/><path d="M110.5,42.47h.62c0,1.07.07,2.12-.02,3.15-.07.91-.92,1.48-1.92,1.43-1.02-.04-1.7-.6-1.76-1.55-.06-.99-.01-1.99-.01-3.03h.67c0,.9-.01,1.79,0,2.69.01.84.47,1.27,1.29,1.23.6-.03,1.01-.36,1.08-.97.07-.63.05-1.26.06-1.89,0-.35,0-.69,0-1.07Z"/><path d="M123.06,48.61c.16-.4.3-.8.5-1.18.16-.32.16-.61.02-.94-.48-1.16-.94-2.34-1.4-3.52-.06-.15-.11-.3-.17-.47.44-.15.69-.06.85.4.31.89.69,1.76,1.04,2.64.06.15.13.29.24.54.46-1.12.89-2.13,1.31-3.15q.23-.55.89-.42c-.4.94-.79,1.86-1.19,2.79-.41.96-.84,1.92-1.21,2.89-.16.43-.39.58-.87.42Z"/><path d="M105.91,43.14c-.4-.06-.77-.18-1.14-.16-.19,0-.49.22-.53.39-.04.17.13.47.3.59.43.31.93.51,1.36.82.71.51.68,1.48-.03,1.99-.58.42-1.96.36-2.44-.16-.16-.17-.15-.49-.19-.68.59.16,1.12.35,1.67.44.33.06.68-.07.79-.46.1-.39-.14-.63-.44-.81-.35-.2-.71-.37-1.05-.57-.61-.36-.83-.83-.67-1.41.12-.47.61-.8,1.24-.83.18,0,.37,0,.55.04.61.12.65.19.59.8Z"/><path d="M132.33,43.15c-.4-.07-.77-.18-1.13-.17-.2,0-.5.21-.54.38-.04.17.13.47.3.6.33.25.72.4,1.08.62.64.39.9.9.78,1.47-.13.57-.59.95-1.33.99-.37.02-.77-.03-1.12-.14-.67-.21-.71-.32-.63-.94.53.15,1.06.34,1.61.43.33.06.67-.07.79-.46.11-.39-.13-.63-.43-.81-.37-.22-.77-.4-1.13-.63-.54-.33-.74-.78-.61-1.29.12-.49.53-.83,1.14-.89.21-.02.43-.01.64.02.61.11.66.19.61.81Z"/><path d="M157.61,42.41c.23.02.48.04.75.06v.58c-.25.01-.5.03-.8.05v3.8h-.67v-3.78c-.26-.03-.47-.05-.71-.07v-.56c.21-.02.42-.05.63-.07-.04-.02-.08-.05-.12-.07.22-.51.34-1.1.68-1.5.21-.25.74-.22,1.19-.32v.71c-.94,0-1.13.23-.95,1.19Z"/><path d="M166.33,42.47c.2-.02.4-.03.63-.05.09-.57-.04-1.26.56-1.6.32-.18.74-.2,1.18-.3v.68c-.96.06-1.11.26-.96,1.22.24.02.48.03.76.05v.58c-.25.02-.49.03-.78.05v3.8h-.71v-3.8c-.25-.01-.44-.03-.68-.04v-.59Z"/><path d="M87.44,43.11c-.23-.02-.38-.04-.57-.06v-.57c.17-.03.33-.05.54-.08v-1.66h.65v1.67c.35.02.64.04.98.06v.59c-.3.02-.59.03-.95.05v3.81h-.65v-3.8Z"/><path d="M169.53,29.1c-.85-.03-2.13-1.07-2.35-1.92-.1-.38.03-.6.43-.66.95-.14,2.28.64,2.62,1.54.22.57-.11,1.06-.71,1.04Z"/><path d="M163.11,46.91h-.61v-6.17h.61v6.17Z"/><path d="M165.15,46.91h-.62v-4.45h.62v4.45Z"/><path d="M133.9,42.47h.6v4.43h-.6v-4.43Z"/><path d="M164.92,40.72c.12.18.34.36.34.53,0,.15-.25.41-.4.41-.15,0-.42-.23-.44-.37-.02-.18.18-.37.29-.56.07,0,.14,0,.22,0Z"/><path d="M134.18,40.6c.22.3.46.48.44.63-.03.18-.25.41-.42.45-.12.02-.41-.24-.42-.39,0-.18.2-.37.41-.69Z"/><path d="M132.16,28.93c-.42-.08-.86-.12-1.27-.25-.54-.16-.74-.53-.63-1.07.21-.97.62-1.83,1.46-2.41.57-.4.85-.33,1.1.3.25.64.51,1.31.61,1.98.14.94-.37,1.45-1.28,1.45Z"/><path d="M115.22,28.9c-.2,0-.4.02-.6,0-1.13-.13-1.8-.98-1.68-2.1.06-.58,1.23-1.75,1.82-1.75.21,0,.48.15.62.32.17.21.24.5.33.77.21.59.38,1.19.61,1.78.28.7.14.96-.61,1-.17,0-.33,0-.5,0,0,0,0,0,0-.01Z"/><path d="M157.54,25.61c-.11-.27-.24-.44-.21-.53.33-.8.78-1.55,1.56-1.99.2-.11.54-.13.76-.04.27.1.58.32.67.57.06.16-.17.55-.37.68-.74.45-1.52.83-2.42,1.31Z"/></svg>