<svg width="128" height="60" viewBox="0 0 128 60" fill="none" xmlns="http://www.w3.org/2000/svg">
<g clip-path="url(#clip0_432_4216)">
<path d="M35.68 54.08H38.26C38.497 54.0557 38.7365 54.0783 38.9648 54.1466C39.1931 54.2149 39.4057 54.3274 39.5905 54.4778C39.7753 54.6283 39.9287 54.8136 40.0418 55.0233C40.155 55.233 40.2257 55.463 40.25 55.7C40.2743 55.937 40.2517 56.1765 40.1834 56.4048C40.1151 56.6331 40.0026 56.8457 39.8521 57.0305C39.7017 57.2153 39.5164 57.3686 39.3067 57.4818C39.097 57.595 38.867 57.6657 38.63 57.69C38.5069 57.7 38.3831 57.7 38.26 57.69H36.81V59.88H35.68V54.08ZM38.26 56.68C38.4681 56.6995 38.6755 56.6357 38.8367 56.5027C38.9979 56.3696 39.0997 56.178 39.12 55.97V55.87C39.12 55.6631 39.0378 55.4647 38.8915 55.3185C38.7453 55.1722 38.5469 55.09 38.34 55.09H36.81V56.67L38.26 56.68ZM44.26 54.08H47C47.2206 54.0549 47.444 54.0736 47.6575 54.135C47.8709 54.1963 48.0701 54.2991 48.2438 54.4375C48.4174 54.5758 48.5621 54.7471 48.6696 54.9414C48.777 55.1357 48.8451 55.3493 48.87 55.57C48.875 55.6299 48.875 55.6901 48.87 55.75C48.8822 56.1068 48.7731 56.4572 48.5607 56.7441C48.3482 57.0311 48.0448 57.2376 47.7 57.33L49.28 59.88H48L46.47 57.41H45.39V59.88H44.26V54.08ZM47 56.4C47.47 56.4 47.78 56.14 47.78 55.75C47.78 55.36 47.46 55.1 47 55.1H45.39V56.4H47ZM52.46 57C52.46 56.4066 52.6359 55.8266 52.9656 55.3333C53.2952 54.8399 53.7638 54.4554 54.312 54.2284C54.8601 54.0013 55.4633 53.9419 56.0453 54.0576C56.6272 54.1734 57.1618 54.4591 57.5813 54.8787C58.0009 55.2982 58.2866 55.8328 58.4024 56.4147C58.5181 56.9967 58.4587 57.5999 58.2316 58.148C58.0046 58.6962 57.6201 59.1648 57.1267 59.4944C56.6334 59.824 56.0533 60 55.46 60C54.7088 60.041 53.9718 59.7834 53.4098 59.2832C52.8478 58.783 52.5064 58.0809 52.46 57.33C52.45 57.2169 52.45 57.1031 52.46 56.99M57.36 56.99C57.3385 56.6212 57.2094 56.2668 56.9886 55.9706C56.7679 55.6744 56.4652 55.4494 56.1179 55.3234C55.7707 55.1974 55.3941 55.1759 55.0348 55.2616C54.6755 55.3472 54.3491 55.5364 54.0961 55.8055C53.8431 56.0747 53.6745 56.4121 53.6112 56.776C53.5479 57.14 53.5926 57.5145 53.7398 57.8533C53.887 58.1921 54.1303 58.4803 54.4396 58.6823C54.7489 58.8844 55.1106 58.9913 55.48 58.99C55.9664 59.0035 56.4383 58.8238 56.7925 58.4902C57.1467 58.1566 57.3543 57.6963 57.37 57.21C57.375 57.1367 57.375 57.0632 57.37 56.99M61.93 58.16H63C63.0535 58.3988 63.1886 58.6114 63.3822 58.7611C63.5757 58.9108 63.8154 58.9882 64.06 58.98C64.65 58.98 65.06 58.45 65.06 57.66V54.08H66.19V57.66C66.2219 57.9374 66.1984 58.2183 66.121 58.4865C66.0435 58.7548 65.9136 59.005 65.7387 59.2226C65.5638 59.4403 65.3475 59.6211 65.1023 59.7545C64.857 59.8879 64.5877 59.9714 64.31 60H64.07C63.5482 60.0211 63.0378 59.8443 62.6409 59.5049C62.2441 59.1655 61.9901 58.6887 61.93 58.17M70.36 54.08H74.29V55.08H71.49V56.38H74V57.38H71.49V58.83H74.29V59.83H70.36V54.08ZM77.78 57C77.7589 56.2747 78.0077 55.5674 78.4782 55.015C78.9486 54.4625 79.6074 54.1044 80.3268 54.0098C81.0462 53.9152 81.7751 54.0909 82.3724 54.5029C82.9697 54.9149 83.3929 55.5339 83.56 56.24H82.44C82.3253 55.889 82.1055 55.5818 81.8104 55.36C81.5152 55.1382 81.159 55.0125 80.79 55C80.2596 55 79.7509 55.2107 79.3758 55.5858C79.0007 55.9609 78.79 56.4696 78.79 57C78.79 57.5304 79.0007 58.0391 79.3758 58.4142C79.7509 58.7893 80.2596 59 80.79 59C81.1871 58.994 81.5707 58.8547 81.879 58.6044C82.1873 58.3541 82.4025 58.0074 82.49 57.62H83.58C83.464 58.3607 83.0676 59.0285 82.4727 59.4849C81.8779 59.9413 81.1303 60.1515 80.3848 60.0718C79.6393 59.9921 78.953 59.6287 78.468 59.0568C77.9831 58.485 77.7368 57.7485 77.78 57ZM88.75 55.1H87.08V54.1H91.55V55.1H89.88V59.88H88.75V55.1ZM41.92 22.27C39.5837 22.3349 37.2761 21.7424 35.26 20.56H35.2V20.5C34.43 18.58 34.29 16.41 34.88 15.5C34.9571 15.3725 35.0656 15.2669 35.1952 15.1934C35.3247 15.1198 35.471 15.0808 35.62 15.08C36.04 15.08 36.24 15.24 36.39 15.73C36.7939 17.1541 37.6528 18.4069 38.8355 19.2971C40.0182 20.1873 41.4597 20.6659 42.94 20.66H43C45.44 20.66 46.79 19.45 46.79 17.34C46.79 14.68 44.44 13.92 41.72 13.03L41.21 12.87C38.06 11.81 34.45 10.07 34.45 6.01999C34.45 2.41999 37.6 0.0199941 42.29 0.0199941C44.5036 -0.0148174 46.6861 0.54461 48.61 1.63999H48.67V1.70999C49.44 3.62999 49.59 5.80999 49 6.70999C48.9288 6.83532 48.8255 6.93939 48.7007 7.01146C48.5759 7.08353 48.4341 7.121 48.29 7.11999C47.83 7.11999 47.64 6.96999 47.49 6.47999C46.49 3.47999 44.13 1.60999 41.39 1.60999C40.5842 1.53591 39.7811 1.77677 39.149 2.28203C38.517 2.78729 38.1052 3.51769 38 4.31999C37.9848 4.50301 37.9848 4.68697 38 4.86999C38 7.23999 39.76 8.28999 42.8 9.30999L43.23 9.44999C46.33 10.45 50.58 11.91 50.58 16.19C50.58 20.67 46.15 22.27 42 22.27M51.6 21.94V20.76H51.76C53.13 20.53 53.69 20.25 53.69 19.16V3.34999C53.69 2.25999 53.13 1.97999 51.76 1.74999H51.6V0.539994H67.42C67.5812 0.519664 67.7441 0.562415 67.8745 0.659315C68.0049 0.756216 68.0929 0.899772 68.12 1.05999V1.26999C68.2499 2.50124 68.4705 3.72122 68.78 4.91999L68.84 5.16999H67.74L67.69 5.04999C67.439 4.17468 66.8969 3.4112 66.1532 2.88572C65.4096 2.36025 64.5089 2.10424 63.6 2.15999H59.48C58.06 2.15999 57.58 2.48999 57.58 3.47999V8.91999C57.58 9.91999 58.08 10.28 59.48 10.28H62.48C64.48 10.28 64.92 9.62999 65.19 8.07999V7.90999H66.1V14.26H65.2V14.1C64.96 12.75 64.64 11.86 62.49 11.86H59.49C58.09 11.86 57.59 12.22 57.59 13.22V19C57.59 19.91 57.95 20.32 60.09 20.32H64.18C66.62 20.32 67.27 19.55 67.77 18.72L68.64 17.38H69.79L69.64 17.67C69.0743 18.8108 68.7348 20.0502 68.64 21.32C68.6247 21.503 68.539 21.673 68.401 21.7942C68.263 21.9154 68.0835 21.9784 67.9 21.97H51.6V21.94ZM84.29 21.94V20.76H84.46C85.35 20.61 85.85 20.4 86.01 20.1C86.17 19.8 86.01 19.32 85.76 18.67L84.92 16.67C84.7677 16.3361 84.5132 16.0592 84.1932 15.8794C83.8733 15.6997 83.5044 15.6263 83.14 15.67H76.86C76.4602 15.6225 76.0562 15.7152 75.7171 15.9322C75.3779 16.1492 75.1245 16.4771 75 16.86L74.31 18.49C74.1928 18.6918 74.1254 18.9185 74.1132 19.1515C74.101 19.3846 74.1445 19.6171 74.24 19.83C74.5 20.29 75.24 20.59 76.35 20.75H76.52V21.93H69.39V20.77H69.55C70.243 20.6887 70.8967 20.4055 71.4301 19.9557C71.9635 19.5059 72.3529 18.9093 72.55 18.24L78.87 3.43999C79.2911 2.6035 79.5265 1.6859 79.56 0.749994V0.559994L82 0.329994L89.46 17.33C90.46 19.73 90.85 20.44 92.46 20.7H92.63V21.88L84.29 21.94ZM76.36 13.58L76.29 13.74C76.2592 13.8205 76.2592 13.9095 76.29 13.99C76.3362 14.0336 76.3917 14.0662 76.4524 14.0852C76.513 14.1043 76.5771 14.1093 76.64 14.1H83.2C83.2644 14.1068 83.3295 14.0986 83.3902 14.076C83.451 14.0535 83.5056 14.0172 83.55 13.97C83.5745 13.9149 83.5872 13.8553 83.5872 13.795C83.5872 13.7347 83.5745 13.6751 83.55 13.62L80.12 5.55999C80.0754 5.45363 80.0183 5.35293 79.95 5.25999C79.95 5.25999 79.89 5.37999 79.81 5.57999L76.36 13.58ZM84.7 46.59L71.57 29.79V43.79C71.57 44.87 72.06 45.15 73.44 45.39H73.61V46.56H67.61V45.4H67.77C69.13 45.16 69.7 44.89 69.7 43.8V28C69.7 26.91 69.13 26.63 67.77 26.4H67.61V25.19H72.61L84.52 40.4V28C84.52 26.91 83.96 26.64 82.62 26.4H82.46V25.19H88.46V26.37H88.3C86.91 26.6 86.3 26.87 86.3 27.96V46.58L84.7 46.59ZM109.05 46.59V45.41H109.22C110.58 45.17 111.15 44.9 111.15 43.81V28C111.15 26.91 110.58 26.63 109.22 26.4H109.05V25.19H124.87C125.032 25.167 125.196 25.2088 125.327 25.3061C125.458 25.4035 125.545 25.5486 125.57 25.71C125.576 25.733 125.576 25.757 125.57 25.78V25.92C125.701 27.1503 125.919 28.3699 126.22 29.57L126.29 29.82H125.19V29.69C124.936 28.813 124.39 28.0491 123.643 27.5252C122.895 27.0014 121.991 26.749 121.08 26.81H116.95C115.54 26.81 115.06 27.14 115.06 28.13V33.58C115.06 34.58 115.55 34.93 116.95 34.93H119.95C121.95 34.93 122.39 34.29 122.66 32.74V32.57H123.57V38.92H122.67V38.76C122.43 37.41 122.11 36.52 119.96 36.52H116.96C115.56 36.52 115.07 36.87 115.07 37.88V43.66C115.07 44.57 115.43 44.98 117.57 44.98H121.66C124.1 44.98 124.75 44.22 125.24 43.39L126.12 42.04H127.26L127.11 42.34C126.544 43.4806 126.204 44.7201 126.11 45.99C126.095 46.173 126.009 46.343 125.871 46.4642C125.733 46.5854 125.553 46.6484 125.37 46.64L109.05 46.59ZM11.25 46.92C5.8 46.92 0 43.06 0 35.91C0 28.6 6 24.65 11.66 24.65H11.79C14.0068 24.6153 16.1924 25.1747 18.12 26.27H18.17V26.33C18.94 28.26 19.08 30.44 18.5 31.33C18.423 31.4516 18.3168 31.5519 18.191 31.6218C18.0652 31.6917 17.9239 31.7289 17.78 31.73C17.33 31.73 17.13 31.58 16.98 31.09C16.6927 30.0907 16.1839 29.169 15.4914 28.3934C14.7989 27.6178 13.9405 27.0083 12.98 26.61L12.68 26.49C12.0426 26.2438 11.3631 26.1249 10.68 26.14C6.61 26.14 3.98 29.29 3.98 34.14C4 40 7.92 44.3 13.29 44.3C14.4094 44.3119 15.5167 44.0676 16.5272 43.5857C17.5377 43.1039 18.4246 42.3973 19.12 41.52L19.25 41.38L20.07 42.04L19.99 42.19C19.0727 43.6703 17.7847 44.8854 16.2535 45.715C14.7223 46.5446 13.001 46.96 11.26 46.92" fill="black"/>
<path d="M98.9996 46.92C97.1214 46.9407 95.268 46.4892 93.6098 45.6068C91.9516 44.7244 90.5417 43.4394 89.5096 41.87C89.3136 41.5645 89.1366 41.2472 88.9796 40.92L88.8996 40.77C88.7696 40.49 88.6496 40.2 88.5396 39.89L88.4496 39.65C88.3596 39.37 88.2796 39.08 88.2096 38.79V38.67L88.1496 38.46C88.0496 38.1533 87.9996 37.8533 87.9996 37.56V37.21C87.9996 36.77 87.9296 36.34 87.9296 35.9C87.9296 35.46 87.9296 35.14 87.9896 34.7V34.54C88.0248 34.1809 88.0782 33.8237 88.1496 33.47V33.27C88.2296 32.9233 88.3196 32.59 88.4196 32.27V32.15C88.5596 31.74 88.6796 31.43 88.7996 31.15V31.08C88.9319 30.7894 89.0787 30.5057 89.2396 30.23L89.3296 30.06C89.4896 29.8 89.6496 29.55 89.8296 29.31L89.9896 29.09C90.1596 28.87 90.3396 28.66 90.5296 28.45C90.5978 28.3685 90.6712 28.2917 90.7496 28.22C90.9262 28.0267 91.1131 27.8431 91.3096 27.67L91.5796 27.44L92.0396 27.07C94.1816 25.4806 96.7824 24.6312 99.4496 24.65H99.5796C101.828 24.6022 104.047 25.1655 106 26.28V26.35C106.77 28.27 106.91 30.45 106.33 31.35C106.256 31.4754 106.151 31.5793 106.024 31.6513C105.898 31.7232 105.755 31.7607 105.61 31.76C105.16 31.76 104.96 31.61 104.81 31.12C104.522 30.121 104.013 29.1997 103.32 28.4242C102.628 27.6487 101.77 27.0389 100.81 26.64L100.5 26.52C99.8622 26.2738 99.1827 26.1549 98.4996 26.17C97.2391 26.1438 96.0002 26.5006 94.9468 27.1934C93.8934 27.8861 93.0749 28.8822 92.5996 30.05C92.4782 30.3377 92.3714 30.6315 92.2796 30.93L92.0596 30.98H92.2496C92.1665 31.2558 92.0998 31.5363 92.0496 31.82V31.99C92.0029 32.27 91.9629 32.56 91.9296 32.86V34.11C91.9296 34.8715 91.9999 35.6314 92.1396 36.38V36.46C93.0496 41.46 96.8296 45.02 101.33 45.02C103.02 45.02 103.77 44.47 103.77 43.22V39.22C103.77 37.96 103.55 37.7 101.01 37.49H100.83V36.49H109.41V37.49H109.24C107.46 37.72 107.24 37.88 107.24 39.22V46.69L106.92 46.44C106.418 46.0381 105.792 45.8226 105.15 45.83C104.434 45.8721 103.725 45.9997 103.04 46.21C101.74 46.5919 100.394 46.797 99.0396 46.82M41.1096 43.78V39.78C39.8577 39.3187 38.57 38.9608 37.2596 38.71V43.71C37.2596 44.8 36.6796 45.07 35.2596 45.31H35.0896V46.49H43.1696V45.41H42.9996C41.6396 45.17 41.0696 44.9 41.0696 43.81M27.0796 43.78V39.68C25.7074 40.2769 24.4061 41.0248 23.1996 41.91V43.78C23.1996 44.87 22.6296 45.14 21.2696 45.38H21.0996V46.56H29.1696V45.4H29.0096C27.6496 45.16 27.0796 44.89 27.0796 43.8" fill="black"/>
<path d="M63.7596 36.28V33.39L63.4296 33.65C62.6381 34.2788 61.8026 34.8502 60.9296 35.36L56.3796 25L53.9996 25.21V25.39C53.9686 26.3263 53.7331 27.2444 53.3096 28.08L49.1796 37.68C47.4164 37.4428 45.6812 37.0308 43.9996 36.45C43.4496 36.26 42.8296 36 42.4096 35.84C41.9896 35.68 41.6396 35.57 41.1196 35.41V28C41.1196 26.91 41.6796 26.64 43.0496 26.4H43.2096V25.19H35.1296V26.37H35.2896C36.6796 26.61 37.2896 26.88 37.2896 27.96V34.48C36.0046 34.2606 34.7033 34.1502 33.3996 34.15C32.5166 34.1412 31.6342 34.198 30.7596 34.32C29.5169 34.4921 28.2942 34.7869 27.1096 35.2V28C27.1096 26.91 27.6696 26.64 29.0396 26.4H29.1996V25.19H21.0996V26.37H21.2696C22.6296 26.6 23.1996 26.87 23.1996 27.96V36.96C22.6096 37.31 22.0796 37.65 21.6196 37.96L21.5296 38.02V41L21.8596 40.73C24.4989 38.5915 27.6484 37.1752 30.9996 36.62C31.7656 36.5203 32.5372 36.4702 33.3096 36.47C36.1068 36.5161 38.8772 37.0229 41.5096 37.97C41.9296 38.12 42.5096 38.37 43.0196 38.55C45.9008 39.5902 48.9366 40.1378 51.9996 40.17C56.2189 40.1824 60.3306 38.8399 63.7296 36.34L63.7596 36.28ZM54.2796 37.73C53.5136 37.8297 52.742 37.8798 51.9696 37.88H50.9696L54.2396 30.27C54.3196 30.07 54.3696 29.99 54.3796 29.95C54.4494 30.0384 54.5066 30.136 54.5496 30.24L57.4396 37C56.4141 37.3597 55.3557 37.6176 54.2796 37.77M48.5896 44.46C48.4964 44.2461 48.455 44.0133 48.4689 43.7804C48.4828 43.5475 48.5516 43.3212 48.6696 43.12L49.1896 41.9C48.5796 41.83 47.9996 41.74 47.4296 41.65L46.9096 42.85C46.7125 43.5193 46.3231 44.1159 45.7897 44.5657C45.2563 45.0155 44.6026 45.2987 43.9096 45.38H43.7496V46.56H50.8396V45.4H50.6696C49.5096 45.25 48.8196 44.95 48.5496 44.48M66.8696 45.38C65.2296 45.12 64.8696 44.38 63.8696 42.01L62.6496 39.22C61.5185 39.839 60.3418 40.3705 59.1296 40.81L60.1996 43.29C60.4696 43.94 60.6096 44.41 60.4396 44.71C60.2696 45.01 59.7796 45.22 58.8896 45.37H58.7296V46.55H66.9996V45.4L66.8696 45.38Z" fill="black"/>
</g>
<defs>
<clipPath id="clip0_432_4216">
<rect width="127.23" height="60" fill="white"/>
</clipPath>
</defs>
</svg>
