<?xml version="1.0" encoding="UTF-8" standalone="no"?>
<svg
   xmlns:dc="http://purl.org/dc/elements/1.1/"
   xmlns:cc="http://creativecommons.org/ns#"
   xmlns:rdf="http://www.w3.org/1999/02/22-rdf-syntax-ns#"
   xmlns:svg="http://www.w3.org/2000/svg"
   xmlns="http://www.w3.org/2000/svg"
   xmlns:sodipodi="http://sodipodi.sourceforge.net/DTD/sodipodi-0.dtd"
   xmlns:inkscape="http://www.inkscape.org/namespaces/inkscape"
   version="1.1"
   x="0px"
   y="0px"
   viewBox="0 0 999.99998 505.32471"
   xml:space="preserve"
   id="svg67"
   sodipodi:docname="Talisker_Logo_upd3_4ed2fdf48d.svg"
   width="1000"
   height="505.32474"
   inkscape:version="0.92.4 (5da689c313, 2019-01-14)"><metadata
   id="metadata73"><rdf:RDF><cc:Work
       rdf:about=""><dc:format>image/svg+xml</dc:format><dc:type
         rdf:resource="http://purl.org/dc/dcmitype/StillImage" /><dc:title></dc:title></cc:Work></rdf:RDF></metadata><defs
   id="defs71">
	

		
	
			
			
			
			
			
		</defs><sodipodi:namedview
   pagecolor="#ffffff"
   bordercolor="#666666"
   borderopacity="1"
   objecttolerance="10"
   gridtolerance="10"
   guidetolerance="10"
   inkscape:pageopacity="0"
   inkscape:pageshadow="2"
   inkscape:window-width="1920"
   inkscape:window-height="1017"
   id="namedview69"
   showgrid="false"
   fit-margin-top="0"
   fit-margin-left="0"
   fit-margin-right="0"
   fit-margin-bottom="0"
   inkscape:zoom="0.393163"
   inkscape:cx="400.59467"
   inkscape:cy="-82.767889"
   inkscape:window-x="1912"
   inkscape:window-y="-8"
   inkscape:window-maximized="1"
   inkscape:current-layer="svg67" />
<style
   type="text/css"
   id="style2">
	.st2{fill:#fff}
	.st3{fill:transparent}
	.st4{fill:#FFFFFF;}
	.st5{fill:#fff}
</style>
<path
   style="fill:#123d68;fill-opacity:1;stroke-width:1.80336142"
   inkscape:connector-curvature="0"
   id="path4"
   d="m 347.65201,318.6227 h -11.50544 v 7.53805 h 12.67763 l -0.57708,3.64279 h -16.60896 v -24.92246 h 16.50076 v 3.66083 h -11.99235 v 6.41996 h 11.50544 z m 17.99755,3.93133 c 0.41477,2.59684 2.21814,4.09363 5.12155,4.09363 3.02964,0 4.41823,-1.33449 4.41823,-3.44442 0,-2.43454 -1.40662,-3.44442 -5.46418,-4.58054 -5.86093,-1.58696 -7.93479,-3.55262 -7.93479,-7.14131 0,-4.40021 3.62475,-6.94295 8.56596,-6.94295 6.04127,0 8.62007,3.13785 8.90861,6.97901 h -4.54447 c -0.34264,-2.07386 -1.49679,-3.55262 -4.43627,-3.55262 -2.59684,0 -3.85919,1.17219 -3.85919,3.10178 0,2.01977 1.31645,2.68701 5.19368,3.76903 6.6003,1.85746 8.27743,4.3461 8.27743,7.86265 0,4.09363 -2.88538,7.41182 -9.34142,7.41182 -5.60845,0 -9.14304,-2.75914 -9.48568,-7.55608 z m 32.67691,-14.01212 h -7.26755 v -3.67886 h 19.22384 v 3.67886 h -7.28558 v 21.24359 h -4.65268 v -21.24359 z m 24.92246,-3.66083 h 8.89057 c 7.48395,0 12.08252,4.43627 12.08252,11.90219 0,8.11513 -4.52644,13.02027 -12.37106,13.02027 h -8.62007 v -24.92246 z m 4.63463,21.4059 h 3.87723 c 5.08548,0 7.68232,-3.49852 7.68232,-9.43158 0,-5.12154 -2.65094,-8.43973 -7.64625,-8.43973 h -3.9133 z m 149.60687,3.51656 v -19.78288 c -0.84758,0.25247 -2.99358,0.55905 -3.80509,0.59511 v -3.24605 c 1.96566,-0.25247 4.00346,-1.22628 5.22975,-2.45257 h 3.15588 v 24.86835 h -4.58054 z m 19.16973,-7.17738 c 0,-3.48049 2.36241,-5.28385 4.11167,-6.02323 -1.9296,-0.93775 -3.17392,-2.84931 -3.17392,-5.26581 0,-3.98543 2.93948,-6.72654 8.2053,-6.72654 4.74284,0 7.95282,2.56077 7.95282,6.58227 0,2.74111 -1.47876,4.41823 -3.28212,5.21171 1.96567,0.68528 4.1297,2.74111 4.1297,6.09536 0,4.81498 -3.33622,7.68232 -9.19714,7.68232 -5.71666,-0.018 -8.74631,-3.39032 -8.74631,-7.55608 z m 13.32685,-0.14427 c 0,-2.72307 -1.6591,-4.2379 -4.38217,-4.2379 -3.11982,0 -4.3461,1.91156 -4.3461,4.2379 0,2.41651 1.51482,4.31003 4.4543,4.31003 2.81324,0.018 4.27397,-1.74926 4.27397,-4.31003 z m -8.00693,-11.09067 c 0,2.07386 1.20825,3.53459 3.71493,3.53459 2.3624,0 3.67885,-1.24432 3.67885,-3.40836 0,-2.2001 -1.29842,-3.58869 -3.69689,-3.58869 -2.4706,0 -3.69689,1.40663 -3.69689,3.46246 z m 26.11267,0.18033 c 0.39674,-3.44442 2.61488,-6.96097 8.40367,-6.96097 5.75272,0 8.11513,3.10178 8.11513,6.51013 0,2.86735 -1.91157,4.43627 -3.44442,5.03138 v 0.0721 c 2.18206,0.70331 4.5084,2.43453 4.5084,6.18553 0,3.73295 -2.50667,7.73642 -9.25125,7.73642 -5.98716,0 -8.56596,-3.35426 -8.8545,-7.05115 h 4.49037 c 0.41477,1.9837 1.62303,3.60673 4.5625,3.60673 3.11982,0 4.32807,-1.83943 4.32807,-4.21987 0,-3.01161 -1.85746,-4.1838 -4.95924,-4.1838 h -1.91157 v -3.48049 h 1.62303 c 2.86735,0 4.27397,-0.88364 4.27397,-3.40835 0,-2.18207 -1.29842,-3.40835 -3.66083,-3.40835 -2.4165,0 -3.64279,1.28039 -4.00346,3.58869 h -4.21987 z m 48.58256,5.21172 c 0,6.94294 -1.82139,13.39897 -8.9627,13.39897 -7.26755,0 -9.01681,-6.438 -9.01681,-13.2006 0,-6.67244 2.57881,-12.35303 9.08894,-12.35303 6.61834,-0.018 8.89057,5.24778 8.89057,12.15466 z m -13.27274,0.0721 c 0,5.9511 0.95578,9.90046 4.32807,9.90046 3.55262,0 4.27397,-4.05757 4.27397,-9.90046 0,-5.37401 -1.00989,-8.8545 -4.20184,-8.8545 -3.26408,0 -4.4002,3.28212 -4.4002,8.8545 z"
   class="st2" /><g
   id="g30"
   style="fill:#123d68;fill-opacity:1"
   transform="matrix(1.8033615,0,0,1.8033615,-245.36537,-197.55345)">
				<path
   style="fill:#123d68;fill-opacity:1"
   inkscape:connector-curvature="0"
   id="path8"
   d="m 264.83,377.17 -19.1,-52.76 H 221.5 v 1.93 c 0,0 0.26,-0.08 0.69,-0.08 0.61,0 1.56,0.16 2.64,0.92 2.21,1.56 3.02,4.48 2.18,7.06 l -12.07,36.89 c -3.67,10.93 -6.69,15.36 -11.97,15.8 v 1.52 h 24.11 v -1.5 c -3.1,0 -10.87,-5.47 -7.96,-15.4 0.26,-0.88 0.74,-2.44 1.34,-4.4 h 20.67 l 4.41,11.99 c 0.49,1.3 0.87,2.51 0.87,3.39 0,2.65 -2.08,4.43 -5.18,4.43 v 1.5 h 33.86 v -1.54 c -4.65,-0.31 -6.84,-2.51 -10.26,-9.75 z m -50.47,3.03 c 0.17,-0.34 0.33,-0.69 0.49,-1.05 0.22,0.94 0.53,1.86 0.93,2.74 0.01,0.03 0.03,0.06 0.05,0.09 h -2.4 c 0.32,-0.57 0.63,-1.16 0.93,-1.78 z m 4.37,5.84 v 0 h -8.22 c 0.21,-0.21 0.41,-0.43 0.61,-0.66 0.4,-0.47 0.79,-0.98 1.16,-1.52 h 4.64 c 0,0 0,0 0,0 0.12,0.18 0.23,0.36 0.36,0.54 0.44,0.58 0.93,1.13 1.45,1.64 z m 40.62,-4.06 h -10.14 c -0.02,-0.24 -0.05,-0.49 -0.1,-0.76 -0.03,-0.16 -0.07,-0.32 -0.11,-0.49 -0.08,-0.34 -0.19,-0.71 -0.32,-1.11 -0.06,-0.18 -0.12,-0.36 -0.19,-0.56 h 9.34 c 0.46,0.95 0.91,1.83 1.36,2.64 0.1,0.19 0.21,0.37 0.16,0.28 z M 248.38,353.25 H 239 l -1.07,-2.91 h 9.39 z m -1.74,-4.79 h -9.4 l -1.07,-2.91 h 9.42 z m -1.73,-4.79 h -9.43 l -1.07,-2.91 h 9.45 z m -1.73,-4.79 h -9.46 l -0.63,-1.72 -0.44,-1.19 h 9.48 z m -1.73,-4.78 h -9.49 l -0.58,-1.57 c -0.17,-0.45 -0.34,-0.9 -0.53,-1.34 0,0 0,0 0,0 h 9.55 z m -2.63,-7.27 0.9,2.48 h -9.79 c -0.18,-0.33 -0.36,-0.65 -0.55,-0.96 -0.19,-0.32 -0.39,-0.63 -0.61,-0.93 -0.14,-0.2 -0.29,-0.4 -0.43,-0.58 h 10.48 z m -16.81,35.36 c 2.72,-8.71 7.97,-25.38 7.97,-25.38 l 9.33,25.38 z m 18.75,-4.15 -1.07,-2.91 h 9.36 l 1.05,2.91 z m 0.69,1.87 h 9.34 l 1.05,2.91 h -9.32 z m 1.76,4.79 h 9.31 l 1.05,2.91 h -9.29 z m 2.84,7.7 -1.07,-2.91 h 9.28 l 1.05,2.91 z m 0.69,1.88 h 9.25 l 1.05,2.91 h -9.23 z m 15.5,11.76 h -13.98 c 0.31,-0.5 0.56,-1.05 0.72,-1.64 0.05,-0.17 0.08,-0.36 0.11,-0.54 h 11.41 c -0.06,-0.1 1.06,1.47 1.74,2.18 z"
   class="st4" />
				<path
   style="fill:#123d68;fill-opacity:1"
   inkscape:connector-curvature="0"
   id="path10"
   d="m 203.75,314.79 h -67.69 v 25.44 h 1.78 c 1.52,-9.62 10.24,-22.79 22.21,-22.95 v 57.03 c 0,6.31 -0.51,8.65 -2.29,10.46 -1.33,1.26 -2.83,1.79 -5.91,1.94 v 1.74 h 35.62 v -1.74 c -3.08,-0.16 -4.59,-0.69 -5.92,-1.95 -1.76,-1.8 -2.28,-4.14 -2.28,-10.45 v -57.04 h 0.28 c 12.08,0 20.89,13.28 22.42,22.96 h 1.76 v -25.44 z m -64.04,9.73 h -0.76 v -2.91 h 3.12 c -0.83,0.86 -1.63,1.82 -2.36,2.91 z m 4.28,-4.79 h -5.04 v -2.46 h 7.77 c -0.88,0.82 -1.81,1.62 -2.73,2.46 z m 19.28,-2.25 h 8.32 v 2.25 h -8.32 z m 0,4.13 h 8.32 v 2.91 h -8.32 z m 0,4.79 h 8.32 v 2.91 h -8.32 z m 0,4.78 h 8.32 v 2.91 h -8.32 z m 0,4.79 h 8.32 v 2.91 h -8.32 z m 0,4.79 h 8.32 v 2.91 h -8.32 z m 0,4.79 h 8.32 v 2.91 h -8.32 z m 0,4.79 h 8.32 v 2.91 h -8.32 z m 0,4.79 h 8.32 v 2.91 h -8.32 z m 0,4.78 h 8.32 v 2.91 h -8.32 z m 0,4.79 h 8.32 v 2.91 h -8.32 z m 0,4.79 h 8.32 v 2.91 h -8.32 z m 0,6.31 v -1.53 h 8.32 v 2.91 h -8.34 c 0.01,-0.43 0.02,-0.89 0.02,-1.38 z m -0.12,3.27 h 8.45 c 0.01,1.2 0.04,2.14 0.12,2.91 h -9.03 c 0.22,-0.85 0.37,-1.8 0.46,-2.91 z m -2.88,7.14 c 0.72,-0.74 1.28,-1.49 1.71,-2.35 h 10.1 c 0.26,0.78 0.64,1.47 1.22,2.35 z m 28.55,-68.94 h 8.94 v 2.46 h -5.15 c -1.3,-1.01 -2.61,-1.83 -3.79,-2.46 z m 5.94,4.34 h 3 v 2.91 h -0.56 c -0.74,-1.07 -1.56,-2.05 -2.44,-2.91 z"
   class="st4" />
				<path
   style="fill:#123d68;fill-opacity:1"
   inkscape:connector-curvature="0"
   id="path12"
   d="m 347.24,325.9 c 6.93,0.11 8.19,1.85 8.19,10.36 v 40.33 c 0,8.51 -1.26,10.25 -8.19,10.36 v 1.49 h 33.92 v -1.49 c -6.93,-0.11 -8.19,-1.85 -8.19,-10.36 v -40.33 c 0,-8.51 1.26,-10.25 8.19,-10.36 v -1.49 h -33.92 z m 11.16,43.59 h 7.47 v 2.91 h -7.47 z m 0,-1.88 v -2.91 h 7.47 v 2.91 z m 0,-4.78 v -2.91 h 7.47 v 2.91 z m 0,-4.79 v -2.91 h 7.47 v 2.91 z m 0,-4.79 v -2.91 h 7.47 v 2.91 z m 0,-4.79 v -2.91 h 7.47 v 2.91 z m 0,-4.79 v -2.91 h 7.47 v 2.91 z m 0,-4.79 v -2.91 h 7.47 v 2.91 z m 0,35.4 h 7.47 v 2.91 h -7.47 z m 7.47,-40.18 h -7.48 c -0.03,-1.1 -0.09,-2.07 -0.21,-2.91 h 7.73 c -0.01,0.31 -0.02,0.64 -0.02,1 0,0.39 -0.01,0.82 -0.01,1.29 v 0.62 z m -7.5,44.97 h 7.5 c 0,1.22 0.01,2.15 0.06,2.91 h -7.85 c 0.15,-0.84 0.25,-1.79 0.29,-2.91 z m -0.61,-49.76 c -0.27,-0.86 -0.63,-1.57 -1.09,-2.2 h 10.13 c -0.15,0.28 -0.28,0.55 -0.39,0.82 -0.07,0.18 -0.13,0.37 -0.19,0.56 -0.11,0.39 -0.19,0.81 -0.24,1.32 0.02,-0.18 0.04,-0.34 0.07,-0.5 z m -1.14,56.17 c 0.38,-0.49 0.68,-1.03 0.93,-1.62 h 8.64 c 0,0.01 0,0.02 0.01,0.02 0.06,0.23 0.13,0.45 0.21,0.67 0.17,0.43 0.38,0.84 0.66,1.3 0.07,0.12 0.14,0.24 0.22,0.36 v 0 H 356 c 0.22,-0.24 0.43,-0.48 0.62,-0.73 z"
   class="st4" />
				<path
   style="fill:#123d68;fill-opacity:1"
   inkscape:connector-curvature="0"
   id="path14"
   d="m 653.2,386.97 h -0.09 c -7.62,0 -8.96,-1.55 -8.96,-10.37 v -1.81 c 0,-4.87 2.33,-9.45 6.27,-12.32 l 0.04,-0.03 13.38,21.47 c 1.76,2.83 4.85,4.54 8.18,4.54 h 18.56 v -1.49 c -4.83,-0.11 -6.68,-2.33 -9.65,-7.21 L 667.29,358.4 c 7.62,-3.28 14.11,-10.37 14.11,-18.55 0,-6.16 -3.05,-11.01 -7.65,-13.04 -3.86,-1.77 -8.69,-2.4 -14.95,-2.4 h -40.38 v 1.49 c 6.93,0.11 8.19,1.85 8.19,10.36 v 40.33 c 0,8.51 -1.26,10.25 -8.19,10.36 v 1.49 h 34.78 z m -0.46,-26.13 c 0,0 0.39,-0.33 1.03,-0.92 h 6.52 l 1.89,2.91 h -8.2 z m 2.9,-2.8 c 0.77,-0.82 1.63,-1.8 2.51,-2.91 h 8.95 c -2.52,1.52 -5.26,2.41 -7.65,2.91 z m -0.48,6.66 h 8.24 l 1.89,2.91 h -8.3 z m 22.2,21.51 h -4.63 c -2.07,0 -4.01,-0.87 -5.39,-2.35 h 8.49 z m -2.74,-4.23 h -8.63 l -1.83,-2.91 h 8.56 z m -3.11,-4.79 h -8.52 l -1.83,-2.91 h 8.46 z m -3.11,-4.79 h -8.41 l -1.83,-2.91 h 8.35 z m 1.28,-19.15 h -10.14 c 0.63,-0.91 1.25,-1.89 1.81,-2.91 h 10.9 c -0.75,1.1 -1.62,2.07 -2.57,2.91 z m 3.68,-4.79 H 662.3 c 0.43,-0.94 0.81,-1.91 1.12,-2.91 h 11 c -0.27,1.05 -0.63,2.02 -1.06,2.91 z m 1.46,-4.79 h -10.91 c 0.2,-0.95 0.32,-1.93 0.36,-2.91 h 10.8 c -0.02,1.03 -0.11,1.99 -0.25,2.91 z m 0.17,-4.79 h -10.76 c -0.06,-1.01 -0.17,-1.99 -0.35,-2.91 h 10.5 c 0.29,0.92 0.5,1.9 0.61,2.91 z m -1.35,-4.78 h -10.25 c -0.32,-1.03 -0.73,-2 -1.23,-2.91 h 9.55 c 0.76,0.86 1.41,1.83 1.93,2.91 z m -10.56,-7 c 2.41,0 4.69,0.8 6.61,2.2 h -8.78 c -0.59,-0.78 -1.25,-1.52 -1.99,-2.21 z m -18.94,0.4 h 4.79 c 7.38,0 11.82,4.1 11.82,12.75 0,11.33 -12.87,20.8 -16.61,23.31 z m -14.57,46.78 h 7.47 v 2.91 h -7.47 z m 0,-1.88 v -2.91 h 7.47 v 2.91 z m 0,-4.79 v -2.91 h 7.47 v 2.91 z m 0,-4.78 v -2.91 h 7.47 v 2.91 z m 0,-4.79 v -2.91 h 7.47 v 2.91 z m 0,-4.79 v -2.91 h 7.47 v 2.91 z m 0,-4.79 v -2.91 h 7.47 v 2.91 z m 0,-4.79 v -2.91 h 7.47 v 2.91 z m 0,-4.79 v -2.91 h 7.47 v 2.91 z m -0.01,-4.78 c -0.01,-0.54 -0.03,-1.05 -0.07,-1.53 -0.03,-0.48 -0.08,-0.92 -0.14,-1.34 0,-0.02 -0.01,-0.03 -0.01,-0.05 h 7.7 v 2.91 h -7.48 z m -0.23,47.81 c 0.06,-0.41 0.11,-0.85 0.15,-1.32 0.04,-0.47 0.06,-0.98 0.08,-1.52 h 7.49 v 0.33 c 0,1.05 0.01,1.89 0.04,2.59 h -7.77 c 0,-0.04 0,-0.06 0.01,-0.08 z m 7.71,-54.81 v 2.2 h -8.1 c -0.09,-0.29 -0.19,-0.55 -0.3,-0.81 -0.11,-0.26 -0.23,-0.5 -0.36,-0.73 -0.13,-0.23 -0.27,-0.45 -0.43,-0.66 z m -9.55,59.11 c 0.59,-0.68 1.03,-1.42 1.35,-2.3 0.01,-0.02 0.01,-0.04 0.02,-0.05 h 8.42 c 0.17,0.88 0.46,1.53 0.95,2.35 z"
   class="st4" />
				<path
   style="fill:#123d68;fill-opacity:1"
   inkscape:connector-curvature="0"
   id="path16"
   d="m 312.74,384.96 h -6.3 v -48.69 c 0,-8.51 1.26,-10.25 8.19,-10.36 v -1.49 h -33.92 v 1.49 c 6.93,0.11 8.19,1.85 8.19,10.36 v 40.33 c 0,8.51 -1.26,10.25 -8.19,10.36 v 1.49 h 60.45 v -19.5 h -1.6 c -4.83,7.23 -12.09,16.01 -26.82,16.01 z m -13.41,1.25 h -9.39 c 0.35,-0.39 0.65,-0.85 0.9,-1.38 0.14,-0.3 0.26,-0.63 0.37,-0.98 h 8.13 v 2.36 z m 0,-4.23 h -7.73 c 0.12,-0.85 0.2,-1.8 0.23,-2.91 h 7.49 v 2.91 z m 0,-4.79 h -7.47 v -2.91 h 7.47 z m 0,-4.79 h -7.47 v -2.91 h 7.47 z m 0,-4.79 h -7.47 v -2.91 h 7.47 z m 0,-4.78 h -7.47 v -2.91 h 7.47 z m 0,-4.79 h -7.47 v -2.91 h 7.47 z m 0,-4.79 h -7.47 v -2.91 h 7.47 z m 0,-4.79 h -7.47 v -2.91 h 7.47 z m 0,-4.79 h -7.47 v -2.91 h 7.47 z m 0,-4.79 h -7.47 v -2.91 h 7.47 z m 0,-4.78 h -7.5 c -0.04,-1.12 -0.13,-2.07 -0.24,-2.91 h 7.81 c -0.05,0.75 -0.06,1.69 -0.07,2.91 z m 0.82,-5.97 c -0.16,0.32 -0.3,0.63 -0.4,0.96 -0.02,0.07 -0.04,0.14 -0.06,0.21 h -8.45 c -0.07,-0.27 -0.13,-0.53 -0.21,-0.77 -0.16,-0.54 -0.34,-1.01 -0.53,-1.43 h 10.24 c -0.23,0.38 -0.42,0.71 -0.59,1.03 z m 34.32,53.85 v 4.23 0 h -11.76 c 1.14,-0.33 2.24,-0.71 3.31,-1.15 0.43,-0.18 0.86,-0.37 1.28,-0.57 0.42,-0.2 0.83,-0.41 1.24,-0.63 h 5.94 l -0.01,-1.88 h -3.03 c 1.07,-0.82 2.09,-1.73 3.03,-2.8 z"
   class="st4" />
				<path
   style="fill:#123d68;fill-opacity:1"
   inkscape:connector-curvature="0"
   id="path18"
   d="m 413.56,386.83 c 5.13,1.62 10.47,2.93 18.92,2.93 14.06,0 22.45,-7.65 22.45,-20.92 0,-6.78 -2.22,-11.55 -6.42,-14.93 -3.11,-2.49 -9.27,-4.96 -15.69,-6.29 l -12.74,-2.5 c -6.28,-1.26 -8.58,-2.23 -11.07,-3.7 -2.27,-1.33 -3.74,-3.9 -3.74,-6.53 0,-6 5.83,-8.94 13.23,-8.94 10.24,0 22.69,3.46 29.19,16.23 h 1.81 v -17.93 h -0.68 c -7.33,4.55 -18.91,-0.94 -30.56,-0.94 -13.34,0 -23.02,9.22 -23.02,21.92 0,11.35 6.83,18.11 20.88,20.67 l 14.3,2.71 c 2.94,0.54 7.83,1.92 9.69,2.74 4.21,1.71 6.09,3.51 6.09,7.27 0,5.67 -6.36,8.26 -13.79,8.26 -16.53,0 -26.89,-6.74 -33.87,-17.46 h -1.73 v 19.02 h 0.94 c 3.35,-3.26 9.34,-3.65 15.81,-1.61 z m 27.04,-58.58 c 0.55,0 1.05,-0.01 1.48,-0.03 0.43,-0.02 0.8,-0.04 1.11,-0.07 0.6,-0.05 0.93,-0.1 0.93,-0.1 v 4.75 0 0 c -0.45,-0.47 -1.05,-1.03 -1.75,-1.61 -0.06,-0.05 -0.11,-0.09 -0.17,-0.14 -0.53,-0.42 -1.11,-0.85 -1.75,-1.27 -0.24,-0.16 -0.49,-0.31 -0.74,-0.46 -0.77,-0.47 -1.6,-0.92 -2.5,-1.31 -0.01,-0.01 1.15,0.24 3.39,0.24 z m 4.85,31.66 c -0.13,-0.14 -0.28,-0.27 -0.42,-0.4 0.14,0.13 0.28,0.27 0.42,0.4 z m -45.7,-23.94 h 0.52 c -0.18,0.63 -0.32,1.32 -0.32,2.15 0,0.27 0.03,0.51 0.05,0.77 h -1.39 c 0.35,-1.2 0.76,-2.17 1.14,-2.92 z m -1.58,4.79 h 2.1 c 0.26,1.06 0.65,1.98 1.16,2.77 0.03,0.05 0.07,0.09 0.11,0.14 0,0 0,0 0,0 h -3.72 c 0.06,-1.06 0.18,-2.03 0.35,-2.91 z m -0.38,4.79 h 5.37 c 0.5,0.45 1.01,0.87 1.54,1.23 0.86,0.62 1.84,1.17 3,1.68 h -9.66 c -0.14,-0.92 -0.23,-1.89 -0.25,-2.91 z m 1.14,6.29 c -0.19,-0.49 -0.35,-0.99 -0.5,-1.51 h 15.24 c 0.91,0.21 1.88,0.42 2.94,0.62 l 12.64,2.29 h -29.69 c -0.23,-0.44 -0.44,-0.91 -0.63,-1.4 z m 4.19,5.83 c -0.88,-0.73 -1.66,-1.53 -2.33,-2.42 -0.03,-0.04 -0.05,-0.08 -0.08,-0.12 h 36.46 c 0,0 -0.16,-0.09 0.92,0.31 1.25,0.47 2.38,0.98 3.39,1.54 0.62,0.34 1.18,0.7 1.71,1.07 h -39.6 c -0.15,-0.13 -0.31,-0.26 -0.47,-0.38 z m 3.2,2.24 h 39.13 c 0.27,0.27 0.53,0.54 0.76,0.83 0.56,0.67 1.02,1.37 1.4,2.09 h -33.55 c -3.35,-0.8 -5.69,-1.71 -7.74,-2.92 z m 22.79,5.8 -5.38,-1 h 24.66 c 0.31,0.95 0.51,1.92 0.59,2.91 h -11.44 c -2.43,-0.71 -5.25,-1.33 -8.43,-1.91 z m 13.58,3.78 h 6.33 c -0.02,1.17 -0.08,2.15 -0.17,2.91 h -1.94 c -1.03,-1.12 -2.45,-2.07 -4.22,-2.91 z m -38.57,11.73 c -0.73,0.19 -1.46,0.47 -2.13,0.76 -1.72,0.76 -3.06,1.65 -3.06,1.65 v -1.65 -2.91 -1.88 -1.7 c 0.44,0.6 0.86,1.16 1.28,1.7 0.51,0.65 1.04,1.26 1.64,1.88 0.68,0.7 1.43,1.39 2.35,2.13 z"
   class="st4" />
				<path
   style="fill:#123d68;fill-opacity:1"
   inkscape:connector-curvature="0"
   id="path20"
   d="m 537.47,384.72 c -2.8,-2.42 -5.13,-6.56 -9.1,-12.27 l -10.75,-15.38 c -2.05,-2.94 -5.41,-4.69 -9,-4.69 h -1.95 l 4.42,-4.66 7.62,-8.37 c 6.98,-7.42 13.36,-13.46 21.09,-13.46 h 0.27 v -1.48 h -30.28 v 1.48 c 4.55,0 5.84,2.45 5.84,6.88 0,3.33 -1.22,6 -4.71,9.74 l -17.52,18.77 v -25.02 c 0,-8.51 1.26,-10.25 8.19,-10.36 v -1.49 h -33.92 v 1.49 c 6.93,0.11 8.19,1.85 8.19,10.36 v 40.33 c 0,8.51 -1.26,10.25 -8.19,10.36 v 1.49 h 33.92 v -1.49 c -6.94,-0.11 -8.19,-1.85 -8.19,-10.37 v -3.89 c 0,-3.93 1.47,-7.73 4.12,-10.63 l 1.1,-1.21 16.54,23.5 c 1.8,2.56 4.74,4.09 7.87,4.09 h 20.18 v -1.48 c -2.68,0.01 -4.01,-0.75 -5.74,-2.24 z m -17.9,-50.62 h -0.71 c 0.04,-0.38 0.06,-0.69 0.06,-1.02 0,-0.67 -0.02,-1.29 -0.09,-1.89 h 2.92 z m 5.26,-7 -1.66,2.2 h -4.71 c -0.08,-0.26 -0.18,-0.51 -0.3,-0.77 -0.22,-0.47 -0.49,-0.95 -0.84,-1.43 z m -37.58,0 c -0.1,0.19 -0.19,0.37 -0.27,0.55 -0.16,0.36 -0.29,0.73 -0.38,1.13 -0.05,0.2 -0.09,0.42 -0.12,0.66 0.01,-0.05 0.01,-0.09 0.02,-0.14 h -8.01 c -0.13,-0.57 -0.31,-1.08 -0.55,-1.54 -0.12,-0.23 -0.26,-0.45 -0.41,-0.66 z m -8.4,45.3 v -2.91 h 7.47 v 2.91 z m 7.47,1.88 v 2.91 h -7.47 v -2.91 z m -7.47,-6.67 v -2.91 h 7.47 v 2.91 z m 0,-4.78 v -2.91 h 7.47 v 2.91 z m 0,-4.79 v -2.91 h 7.47 v 2.91 z m 0,-4.79 v -2.91 h 7.47 v 2.91 z m 0,-4.79 v -2.91 h 7.47 v 2.91 z m 0,-4.79 v -2.91 h 7.47 v 2.91 z m 0,-4.79 v -2.91 h 7.47 v 2.91 z m -0.01,-4.78 c 0,-0.61 -0.01,-1.2 -0.03,-1.73 -0.01,-0.42 -0.04,-0.81 -0.06,-1.19 h 7.6 c -0.02,0.64 -0.03,1.39 -0.03,2.29 v 0.62 h -7.48 z m -0.01,44.97 h 7.49 v 0.33 c 0,1.05 0.01,1.89 0.04,2.59 h -7.77 c 0.13,-0.85 0.21,-1.81 0.24,-2.92 z m -2.06,7.14 c 0.6,-0.69 1.04,-1.45 1.36,-2.35 h 8.42 c 0.17,0.88 0.46,1.53 0.95,2.35 z m 27.34,-30.57 h 0.85 v 0 c 0.63,0 1.25,0.08 1.85,0.22 1.42,0.35 2.71,1.11 3.73,2.17 h -8.71 z m -2.35,4.27 h 10.21 l 2.04,2.91 h -10.23 z m 3.32,4.79 h 10.24 l 2.04,2.91 H 507.1 Z m 3.32,4.79 h 10.27 l 2.04,2.91 h -10.29 z m 3.32,4.79 h 10.3 l 2.04,2.91 h -10.32 z m 3.32,4.79 h 10.33 l 2.04,2.91 h -10.35 z m 8.8,7.14 c -2.06,0 -4,-0.87 -5.38,-2.35 h 10.26 l 1.65,2.35 z"
   class="st4" />
				<path
   style="fill:#123d68;fill-opacity:1"
   inkscape:connector-curvature="0"
   id="path22"
   d="m 605.72,368.95 c -4.82,7.23 -12.08,16.01 -26.81,16.01 v 0 h -6.22 v -34.33 h 2.23 c 5.57,0 12.82,1.97 16.06,8.65 h 1.33 v -19.89 h -1.34 c -3.68,7.21 -10.15,8.15 -16.05,8.15 h -2.23 V 327.5 h 8.13 c 9.88,0 18.54,3.63 24.65,15 h 1.11 v -18.09 h -59.7 v 1.49 c 6.93,0.11 8.19,1.85 8.19,10.36 v 40.33 c 0,8.51 -1.26,10.25 -8.19,10.36 v 1.49 h 60.45 v -19.5 h -1.61 z m -21.74,-20.49 c 1.29,-0.47 2.68,-1.03 3.8,-2.01 v 2.01 1.88 1.63 c -0.82,-0.71 -1.79,-1.21 -2.76,-1.63 -1,-0.43 -2,-0.79 -2.85,-1.2 0.54,-0.23 1.16,-0.44 1.81,-0.68 z m 16.08,-17.28 h 1.45 v 1.62 c -0.48,-0.62 -0.96,-1.14 -1.45,-1.62 z m 1.44,-4.08 v 2.2 h -3.86 c -1.41,-0.86 -2.91,-1.48 -4.52,-2.21 z m -35.99,59.11 h -9.55 c 0.58,-0.67 1.02,-1.43 1.34,-2.35 h 8.2 v 2.35 z m 0,-4.23 h -7.74 c 0.14,-0.84 0.21,-1.81 0.25,-2.91 h 7.49 z m 0,-4.79 h -7.47 v -2.91 h 7.47 z m 0,-4.79 h -7.47 v -2.91 h 7.47 z m 0,-4.79 h -7.47 v -2.91 h 7.47 z m 0,-4.78 h -7.47 v -2.91 h 7.47 z m 0,-4.79 h -7.47 v -2.91 h 7.47 z m 0,-4.79 h -7.47 v -2.91 h 7.47 z m 0,-4.79 h -7.47 v -2.91 h 7.47 z m 0,-4.79 h -7.47 v -2.91 h 7.47 z m 0,-4.79 h -7.47 v -2.91 h 7.47 z m 0,-4.78 h -7.48 c -0.03,-1.1 -0.09,-2.07 -0.21,-2.91 h 7.7 v 2.91 z m 0,-4.79 h -8.1 c -0.09,-0.29 -0.19,-0.56 -0.3,-0.81 -0.22,-0.51 -0.48,-0.97 -0.79,-1.39 h 9.2 v 2.2 z m 35.75,56.9 H 589.5 c 2.06,-0.61 4.01,-1.37 5.82,-2.35 h 5.94 z m 0,-4.23 h -3.03 c 1.07,-0.82 2.09,-1.73 3.03,-2.8 z"
   class="st4" />
				
			</g><g
   id="g60"
   style="fill:#123d68;fill-opacity:1"
   transform="matrix(1.8033615,0,0,1.8033615,-245.36537,-197.55345)">
				<path
   style="fill:#123d68;fill-opacity:1"
   inkscape:connector-curvature="0"
   id="path58"
   d="m 466.11,235.36 c -0.22,-0.61 -0.76,-1.05 -1.1,-1.54 -0.27,-0.38 -0.44,-0.84 -0.82,-1.1 -0.69,-0.47 -1.82,-0.07 -2.53,0.11 -0.9,0.22 -1.77,-0.17 -2.64,0.05 -1.27,0.33 -1.49,1.18 -3.24,1.1 -0.17,-0.17 -0.37,-0.33 -0.55,-0.49 0.04,-0.93 0.91,-0.82 1.48,-1.21 0.19,-0.13 0.28,-0.39 0.44,-0.55 -0.02,-0.63 -0.39,-0.77 -0.77,-1.04 -0.36,-0.25 -0.67,-0.57 -1.15,-0.71 -0.41,-0.12 -0.74,0.04 -1.15,0.05 h -1.54 c -0.58,0.14 -1.09,0.38 -1.59,0.55 -0.31,0.1 -0.57,0.06 -0.88,0.16 -0.47,0.15 -0.95,0.42 -1.43,0.55 -0.53,0.14 -0.98,-0.05 -1.48,0.16 -0.47,0.2 -0.86,0.57 -1.26,0.82 -0.37,0.23 -0.75,0.36 -1.1,0.6 -0.88,0.62 -1.71,1.35 -2.64,1.92 -0.52,0.32 -1.17,0.19 -1.87,0.38 -0.51,0.14 -1.06,0.39 -1.48,0.66 -1.24,0.79 -3.07,3.1 -4.84,3.08 -0.14,-0.14 -0.29,-0.3 -0.44,-0.44 0.06,-0.68 0.67,-0.84 1.1,-1.15 0.5,-0.37 0.8,-0.9 1.21,-1.37 -0.05,-0.4 -0.23,-0.45 -0.44,-0.66 -0.97,0.07 -1.36,0.94 -1.98,1.37 -0.6,0.42 -1.4,0.55 -2.03,0.93 -0.5,0.3 -0.99,0.84 -1.54,1.04 -1.06,0.4 -3,-0.51 -3.19,-1.21 -0.38,-0.55 0.56,-2.29 0.82,-2.64 -0.02,-0.87 -0.64,-1.26 -1.15,-1.65 -0.37,-0.28 -0.7,-0.68 -1.1,-0.93 -0.63,-0.39 -1.63,-0.59 -2.42,-0.77 -0.75,-0.17 -1.32,0.46 -2.09,0.16 -0.9,-0.35 -1.88,-0.95 -2.75,-1.32 -0.39,-0.16 -0.82,-0.08 -1.26,-0.22 -0.53,-0.17 -1.11,-0.61 -1.54,-0.93 -0.74,-0.55 -1.14,-1.54 -1.87,-2.09 -0.59,-0.44 -1.32,-0.71 -1.92,-1.15 -0.51,-0.37 -0.83,-0.91 -1.54,-1.1 -0.57,-0.16 -1.25,0.09 -1.59,0.22 -1.54,0.56 -2.1,1.6 -3.35,2.25 -0.84,0.27 -1.69,0.55 -2.53,0.82 -0.76,0.02 -0.85,-0.15 -1.21,-0.49 0,-1.03 0.67,-1.07 1.26,-1.48 0.53,-0.37 0.86,-1 1.37,-1.37 0.48,-0.35 1.11,-0.42 1.32,-1.04 0.3,-0.48 -0.5,-1.32 -0.6,-1.76 v -1.1 c -0.09,-0.39 -0.4,-0.89 -0.27,-1.43 0.13,-0.57 0.46,-1.2 0.05,-1.76 -0.45,-0.63 -0.94,-0.4 -1.81,-0.6 -0.56,-0.13 -1.31,-0.51 -2.09,-0.33 -0.88,0.2 -3.1,0.86 -4.18,0.38 -0.25,-0.11 -0.41,-0.42 -0.6,-0.6 0.01,-0.81 0.83,-1.14 0.55,-1.92 -0.34,-0.95 -1.37,-0.85 -1.37,-2.25 0.29,-0.3 0.43,-0.74 0.77,-0.99 0.52,-0.38 2.54,-0.58 2.2,-1.65 -0.19,-0.6 -1,-1.07 -1.43,-1.48 -0.17,0 -0.35,-0.01 -0.44,0.05 -0.48,0.17 -0.35,0.66 -0.6,1.04 -0.15,0.13 -0.29,0.26 -0.44,0.38 h -0.33 c -0.15,-0.13 -0.29,-0.26 -0.44,-0.38 -0.28,-1.18 -0.07,-2.6 -0.6,-3.46 -0.82,-1.33 -3.12,-2.73 -2.97,-4.62 0.84,-0.78 1.87,-1.46 2.31,-2.64 0.21,-0.55 -0.04,-1.21 0.16,-1.7 0.18,-0.42 0.63,-0.71 0.77,-1.21 0.19,-0.7 -0.58,-1.69 -0.82,-2.03 -0.36,-0.5 -0.77,-0.73 -1.26,-1.1 -0.61,-0.45 -0.87,-1.24 -1.7,-1.48 -0.68,-0.2 -2.59,0.08 -2.97,0.38 -0.74,0.01 -0.78,-0.25 -1.15,-0.55 -0.16,-1.4 0.42,-3.26 1.37,-3.9 0.37,-0.25 0.83,-0.32 1.21,-0.55 0.55,-0.33 1.09,-0.88 1.43,-1.43 0.25,-0.4 0.59,-1.28 0.44,-1.98 -0.09,-0.41 -0.07,-0.99 0.05,-1.37 0.63,-1.95 1.6,-3.73 2.09,-5.77 0.17,-0.72 -0.04,-1.71 -0.16,-2.25 -0.04,-0.31 -0.07,-0.62 -0.11,-0.93 -0.18,-0.64 -0.46,-1.27 -0.66,-1.87 -0.07,-0.31 -0.15,-0.62 -0.22,-0.93 -0.23,-0.62 -0.55,-1.26 -0.71,-1.92 -0.19,-0.75 0.08,-1.7 0.22,-2.2 0.3,-1.07 0.49,-1.93 0.77,-3.02 0.07,-0.29 0.2,-0.8 0.11,-1.21 -0.18,-0.82 -0.03,-1.74 -0.22,-2.58 -0.09,-0.4 -0.33,-1.39 -0.22,-1.87 0.21,-0.92 1,-2.16 0.71,-3.41 -0.16,-0.72 -0.44,-1.33 -0.6,-1.98 0.02,-0.62 0.04,-1.25 0.05,-1.87 -0.1,-0.43 -0.34,-1.07 -0.22,-1.59 0.08,-0.35 0.24,-0.72 0.33,-1.1 0.22,-1 -0.62,-1.69 -0.22,-2.75 0.21,-0.55 0.69,-0.92 0.99,-1.37 0.14,-0.21 0.18,-0.47 0.33,-0.66 -0.02,-1.62 -1.6,-0.79 -2.2,-2.03 -0.23,-0.48 -0.22,-0.96 -0.49,-1.37 -0.32,-0.49 -0.84,-0.88 -1.15,-1.37 -0.18,-0.42 -0.37,-0.84 -0.55,-1.26 -0.29,-0.48 -0.74,-0.94 -0.99,-1.43 -0.24,-0.47 -0.29,-0.95 -0.55,-1.37 -0.19,-0.31 -0.51,-0.58 -0.71,-0.88 -0.5,-0.71 -0.74,-1.74 -1.48,-2.2 -0.41,-0.25 -1.01,-0.18 -1.48,-0.38 -0.59,-0.25 -0.94,-0.87 -1.59,-1.04 -0.99,-0.27 -1.4,0.84 -2.36,0.22 -0.27,-0.17 -0.46,-0.32 -0.55,-0.66 -0.25,-0.38 0.02,-0.91 0.11,-1.26 0.14,-0.55 0.04,-1.82 -0.11,-2.36 -0.18,-0.65 -0.49,-1.25 -0.82,-1.76 -0.14,-0.21 -0.39,-0.43 -0.49,-0.66 -0.22,-0.48 -0.06,-1.11 -0.22,-1.7 -0.22,-0.81 -0.58,-1.55 -0.99,-2.2 -0.35,-0.55 -0.85,-1.05 -1.48,-1.32 -0.31,-0.13 -0.52,-0.15 -0.77,-0.33 -0.79,-0.57 -1.44,-1.78 -2.25,-2.36 -0.49,-0.35 -1.8,-0.36 -2.09,-0.82 -0.33,-0.53 0.64,-1.37 0.77,-1.81 0.13,-0.47 -0.11,-0.91 -0.22,-1.15 -0.5,-1.14 -1.17,-1.35 -2.75,-1.32 -0.32,0.24 -0.73,0.32 -1.04,0.55 -0.75,0.55 -0.99,1.24 -2.36,1.21 -0.23,-0.22 -0.58,-0.34 -0.77,-0.6 -0.24,-0.34 -0.33,-0.68 -0.77,-0.82 -0.09,-0.06 -0.27,-0.06 -0.44,-0.05 -0.15,0.15 -0.31,0.21 -0.38,0.44 -0.17,0.29 0.03,0.73 0.05,0.99 0.04,0.47 -0.06,0.79 0.11,1.21 0.28,0.68 1.07,1.31 0.77,2.53 -0.08,0.33 -0.29,0.63 -0.38,0.93 -0.2,0.61 -0.19,1.35 -0.49,1.87 -0.21,0.36 -0.55,0.69 -0.77,1.04 -0.27,0.44 -0.42,0.91 -0.82,1.21 -0.41,0.3 -1.84,0.85 -2.36,0.99 -0.99,0.27 -1.34,-0.59 -2.31,-0.33 -0.41,0.11 -0.76,0.44 -1.15,0.55 -0.64,0.18 -1.08,-0.16 -1.7,-0.16 -0.15,0.16 -0.38,0.37 -0.55,0.49 -0.06,0.57 0.1,0.9 0.11,1.48 -0.16,0.15 -0.25,0.38 -0.44,0.49 -0.13,0.02 -0.26,0.04 -0.38,0.05 -0.39,0.13 -0.84,0.46 -0.99,0.82 -0.22,0.52 -0.12,1.51 0,2.03 0.12,0.51 0.09,0.86 0.27,1.26 0.56,1.23 1.79,2.06 2.47,3.19 0.31,0.5 0.14,1.2 0.33,1.87 0.21,0.74 0.83,1.18 1.04,1.87 0.17,0.57 -0.11,1.27 -0.11,1.98 0,1.04 0.2,1.72 0.38,2.47 0.23,0.91 -0.21,1.4 0.49,1.87 0.99,0.66 3.07,-0.54 3.63,-0.93 0.55,0.01 0.58,0.22 0.88,0.44 0.04,0.83 -0.52,1.13 -0.99,1.59 -0.81,0.81 -1.42,1.91 -2.09,2.86 -0.23,0.33 -0.45,0.86 -0.77,1.1 -0.8,0.59 -1.86,-0.17 -2.31,1.04 -0.38,1.03 0.38,2.62 0.77,3.13 0.28,0.37 0.83,0.56 0.99,1.04 0.27,0.39 -0.17,0.96 0.05,1.48 0.17,0.4 0.59,0.61 0.82,0.93 0.29,0.4 0.45,1.03 0.55,1.59 0.13,0.72 -0.56,1.09 -0.33,1.92 0.23,0.82 1.06,1.37 1.48,2.03 l 1.15,2.31 c 0.58,0.83 1.49,1.16 2.31,1.76 0.48,0.36 0.9,1.01 1.26,1.48 0.53,0.51 1.06,1.03 1.59,1.54 0.44,0.58 0.77,1.24 1.21,1.81 0.47,0.62 1.58,0.89 1.81,1.7 0.04,0.06 0.02,0.01 0.05,0.11 -0.85,0.88 -0.74,0.07 -1.92,0.05 -0.15,0.16 -0.29,0.34 -0.44,0.49 0.06,1.47 1.13,2.17 1.1,3.79 -0.15,0.15 -0.29,0.29 -0.44,0.44 -0.75,-0.06 -0.77,-0.73 -1.04,-1.26 -0.49,-0.94 -1.14,-1.52 -1.43,-2.75 -0.17,-0.71 0.09,-1.59 -0.27,-2.09 -0.1,-0.28 -0.31,-0.32 -0.49,-0.49 -0.16,0.02 -0.24,0.04 -0.33,0.11 -0.38,0.14 -0.26,0.36 -0.44,0.71 -0.07,0.14 -0.28,0.22 -0.38,0.33 -1.11,-0.2 -0.26,-1.59 -0.49,-2.53 -0.3,-1.24 -2.05,-2.41 -3.08,-2.97 -0.56,-0.3 -1.44,-0.24 -1.81,0.22 -2.05,-0.01 -1.78,-2.83 -2.58,-4.12 -0.45,-0.73 -1.3,-1.14 -1.98,-1.65 -0.41,-0.31 -1.06,-1.17 -1.92,-0.93 -0.23,0.06 -0.45,0.24 -0.6,0.38 -0.29,0.28 -0.55,0.52 -0.66,0.99 -0.07,0.28 0.06,0.59 0.11,0.77 0.17,0.63 0.32,1.4 0.05,2.03 -0.37,0.86 -1.27,1.47 -1.76,2.25 -0.46,0.75 -0.47,1.88 -0.93,2.64 -0.32,0.51 -1.36,1.49 -1.15,2.42 0.11,0.49 0.33,0.92 0.49,1.32 0.07,0.31 0.15,0.62 0.22,0.93 0,0.47 -0.14,0.47 -0.33,0.71 -0.13,0.02 -0.14,0.03 -0.22,0.05 -0.46,-0.45 -1.74,-1.46 -1.92,-2.03 -0.36,-1.14 0.96,-2.67 1.32,-3.24 0.42,-0.68 0.38,-1.75 0.71,-2.53 0.28,-0.66 0.71,-1.34 1.1,-1.92 0.4,-0.6 0.89,-1 0.88,-2.03 -0.19,-0.19 -0.37,-0.41 -0.55,-0.6 -1.04,0.02 -1.06,0.85 -1.43,1.54 -0.43,0.8 -1.23,1.34 -1.76,2.03 -0.07,0.09 -0.07,0.22 -0.16,0.27 -0.14,0.09 -0.44,0.05 -0.66,0.05 -0.55,-0.58 -1.23,-1.05 -1.7,-1.7 -0.51,-0.7 -0.86,-1.51 -1.37,-2.2 -0.51,-0.51 -1.03,-1.03 -1.54,-1.54 -0.65,-0.9 -0.75,-2.04 -1.7,-2.64 -1.13,-0.7 -2.82,-0.79 -3.96,-1.48 -0.69,-0.42 -1.1,-1.27 -1.81,-1.65 -0.53,-0.28 -1.17,0.11 -1.7,0 -0.72,-0.16 -1.5,-0.69 -1.87,-1.21 -0.6,-0.83 -0.5,-2.04 -0.77,-3.24 -0.08,-0.35 -0.29,-1.03 -0.22,-1.43 0.1,-0.6 0.46,-1.37 0.27,-2.14 -0.26,-1.1 -1.11,-1.55 -1.37,-2.53 v -0.66 c 0,-0.68 -0.01,-1.28 -0.27,-1.7 -0.37,-0.6 -1.03,-0.9 -1.59,-1.32 -0.26,-0.27 -0.51,-0.55 -0.77,-0.82 -0.31,-0.23 -0.6,-0.38 -0.93,-0.6 -0.51,-0.35 -0.78,-0.98 -1.43,-1.21 -0.4,-0.04 -0.81,-0.07 -1.21,-0.11 -0.33,-0.12 -1.51,-0.86 -1.76,-1.1 -0.64,-0.01 -0.67,0.18 -0.99,0.44 -0.05,0.44 0.18,0.87 0.05,1.37 -0.08,0.31 -0.17,0.76 -0.05,1.15 0.22,0.62 0.44,1.25 0.66,1.87 0.12,0.46 0.07,1.01 0.16,1.43 0.26,1.17 -0.37,2.08 -0.6,2.86 -0.3,1 -0.06,2.3 -0.38,3.3 -0.32,0.99 -1.05,1.46 -1.59,2.2 -0.17,0.24 -0.26,0.54 -0.44,0.77 0,0.46 0.11,0.47 0.27,0.71 0.49,0.09 0.85,-0.09 1.37,-0.05 0.61,0.63 1.76,1.08 2.25,1.76 0.61,0.84 1.24,1.82 2.09,2.42 0.37,0.18 0.73,0.37 1.1,0.55 0.53,0.38 0.93,0.97 1.48,1.32 0.56,0.36 1.26,0.52 1.65,1.04 0.48,0.65 0.53,1.67 0.99,2.36 0.45,0.68 1.65,1.32 1.87,2.09 0.28,0.4 -0.05,0.88 -0.16,1.21 -0.19,0.53 -0.08,1.25 -0.27,1.81 -0.1,0.29 -0.39,0.47 -0.55,0.71 -2.2,0.5 -2.47,-2.8 -3.85,-3.68 -1.03,-0.66 -2.94,0.69 -3.68,0.93 -1,0.33 -1.85,-0.48 -2.47,0.44 -0.31,0.46 -0.4,1.72 -0.16,2.36 0.33,0.91 1.01,1.54 1.37,2.36 0.15,0.44 0.29,0.88 0.44,1.32 0.12,0.26 0.34,0.54 0.44,0.82 0.21,0.63 0.16,1.27 0.38,1.87 0.25,0.66 0.87,1.66 0.33,2.47 -0.53,0.79 -1.28,0.28 -1.98,0.66 -0.03,0.12 -0.04,0.15 -0.11,0.22 0.06,0.75 1.06,1.31 1.7,1.48 0.76,0.2 1.17,-0.36 1.87,-0.16 0.57,0.16 0.84,0.73 1.15,1.15 0.22,0.3 0.55,0.58 0.77,0.88 0.32,0.45 0.42,1.02 0.71,1.48 0.2,0.32 0.53,0.62 0.71,0.93 0.17,0.29 0.28,1.19 0.05,1.54 0.01,0.79 -0.01,0.84 -0.33,1.26 -0.38,0 -0.57,-0.16 -0.66,-0.44 -0.15,-0.26 0,-0.85 -0.11,-1.26 -0.22,-0.82 -1.38,-2.63 -2.69,-2.2 -0.64,0.21 -1.38,1.61 -2.31,1.15 -0.88,-0.43 -2.76,-2.07 -3.13,-2.97 -0.27,-0.66 -0.1,-1.33 -0.49,-1.87 -0.5,-0.69 -1.86,-0.54 -2.14,-1.43 -0.41,-0.65 0.51,-1.5 0.27,-2.36 -0.18,-0.67 -0.76,-1.09 -0.99,-1.7 -0.17,-0.46 -0.06,-1.02 -0.27,-1.43 -0.29,-0.57 -0.94,-0.88 -1.26,-1.43 -0.05,-0.2 -0.11,-0.4 -0.16,-0.6 -0.15,-0.36 -0.4,-0.78 -0.66,-1.04 -0.22,-0.18 -0.44,-0.37 -0.66,-0.55 -0.27,-0.31 -0.55,-0.62 -0.82,-0.93 -0.22,-0.21 -0.48,-0.35 -0.6,-0.66 -0.25,-0.6 0.18,-1.24 0,-2.03 -0.29,-1.24 -0.48,-3.07 -1.65,-3.41 -0.55,-0.16 -0.95,0.22 -1.21,0.38 -0.61,0.4 -1.27,0.86 -1.7,1.43 -0.08,0.1 -0.08,0.24 -0.16,0.33 -0.67,0.67 -1.85,0.82 -2.36,1.65 -0.31,0.5 -0.22,1.92 -0.05,2.64 0.08,0.33 0,0.67 0,1.04 0.02,0.38 0.04,0.77 0.05,1.15 -0.27,1.18 -0.54,3.35 -0.05,4.51 0.3,0.71 0.87,1.57 1.48,1.98 0.62,0.41 1.39,0.36 1.59,1.21 -0.17,0.2 -0.19,0.36 -0.44,0.49 -0.15,0.09 -0.39,0.03 -0.71,0.11 -1.27,0.31 -1.64,-0.62 -2.42,-1.1 -0.42,-0.26 -0.98,-0.28 -1.48,-0.44 -0.24,-0.07 -0.69,-0.25 -1.04,-0.16 -0.88,0.22 -1.61,0.77 -1.87,1.59 -0.04,0.33 -0.07,0.66 -0.11,0.99 -0.27,0.65 -0.99,0.97 -1.21,1.7 -0.33,1.12 0.14,2.06 0.33,2.91 0.09,0.4 -0.14,1.12 -0.11,1.59 0.13,0.12 0.28,0.3 0.38,0.44 h 0.44 c 0.16,-0.15 0.33,-0.29 0.49,-0.44 0.2,-0.28 0.28,-0.62 0.55,-0.82 0.2,-0.15 0.46,-0.18 0.66,-0.33 0.91,0.07 1.19,0.84 1.76,1.26 0.58,0.42 1.44,0.64 1.87,1.21 0.63,0.84 1,2.27 1.26,3.41 0.02,0.49 0.04,0.99 0.05,1.48 0.35,1.22 1.22,1.89 1.48,3.3 0.19,1.02 -1.05,1.61 -1.26,2.36 -0.23,0.83 0.51,1.5 0.77,1.92 0.21,0.34 0.28,0.72 0.49,1.04 0.4,0.6 1.26,1.39 2.03,1.59 0.81,0.22 1.33,-0.62 2.03,0.05 0.07,0.07 0.09,0.2 0.16,0.27 0.7,0.7 1.4,1.38 2.2,1.98 0.52,0.39 0.85,1.03 1.43,1.37 0.73,0.43 1.6,-0.11 2.36,0.11 0.62,0.18 0.97,0.79 1.48,1.1 0.45,0.28 1.1,0.28 1.54,0.55 0.94,0.58 1.43,1.54 2.25,2.09 0.34,0.22 0.75,0.28 1.1,0.49 0.44,0.27 0.87,0.66 1.32,0.93 0.48,0.3 1,0.42 1.48,0.71 0.48,0.3 0.55,0.92 0.88,1.37 0.19,0.27 0.51,0.35 0.77,0.55 1.17,-0.03 2.23,-1.34 2.47,-2.31 0.12,-0.46 -0.04,-1.11 -0.11,-1.43 -0.02,-0.57 -0.04,-1.14 -0.05,-1.7 -0.06,-0.34 0.17,-0.97 0.05,-1.48 -0.09,-0.41 -0.38,-1.01 -0.22,-1.59 0.12,-0.44 0.47,-1.11 0.33,-1.76 -0.11,-0.52 -0.03,-1.19 -0.16,-1.76 -0.09,-0.37 -0.24,-0.81 -0.33,-1.15 0.02,-0.55 0.04,-1.1 0.05,-1.65 -0.14,-0.6 -0.44,-1.03 -0.44,-1.7 0.16,-0.16 0.36,-0.38 0.49,-0.55 0.98,0.01 1.46,0.91 2.25,0.66 0.57,-0.18 0.89,-0.76 1.48,-0.93 0.89,-0.27 1.73,0.33 2.09,-0.77 0.49,-0.69 -0.73,-2.16 -1.04,-2.53 0.03,-0.4 0.23,-0.45 0.44,-0.66 1.5,0.11 1.82,2.05 2.31,3.24 0.18,0.45 0.63,1.06 0.44,1.81 -0.27,1.1 -1.2,1.75 -1.37,2.97 -0.05,0.35 0.24,1.76 0.38,1.98 0.12,0.17 0.37,0.27 0.49,0.44 1.59,0 1.42,-1.3 2.09,-2.2 0.5,-0.68 1.48,-0.89 1.76,-1.81 0.09,-0.28 0.05,-0.68 0,-0.93 -0.15,-0.72 0.14,-1.26 0.38,-1.59 0.19,-0.26 0.38,-0.51 0.71,-0.6 0.95,-0.27 1.95,0.83 1.76,1.7 -0.28,1.33 -0.22,3 0.27,4.18 0.19,0.44 0.6,0.8 0.77,1.26 0.29,0.78 0.04,1.57 0.49,2.2 0.29,0.39 0.76,0.64 1.15,0.93 0.51,0.51 1.03,1.03 1.54,1.54 0.26,0.36 0.43,0.82 0.55,1.32 0.11,0.44 -0.01,0.95 0.22,1.26 0.09,0.26 0.27,0.28 0.44,0.44 0.13,-0.01 0.16,-0.01 0.22,-0.05 0.64,-0.09 0.86,-0.81 1.43,-1.04 0.25,-0.1 0.57,0.01 0.88,-0.05 0.3,-0.07 0.71,-0.15 0.99,-0.22 h 1.43 c 0.39,-0.1 0.72,-0.34 1.1,-0.44 1.14,-0.29 2.92,0.83 3.13,1.48 0.13,0.41 -0.1,0.77 -0.11,1.21 0.17,0.17 0.24,0.46 0.44,0.6 0.29,0.21 0.64,0.29 0.93,0.49 0.9,0.64 1.81,1.54 2.47,2.42 0.2,0.27 0.53,0.47 0.71,0.77 0.59,0.95 0.41,2.56 0.93,3.57 0.3,0.58 0.82,1 1.15,1.54 0.34,0.55 0.79,2.87 0.77,3.74 -0.15,0.15 -0.29,0.29 -0.44,0.44 h -0.27 c -0.31,-0.32 -0.64,-0.54 -0.82,-0.99 -0.24,-0.56 -0.2,-1.23 -0.49,-1.7 -0.43,-0.69 -1.32,-1.02 -1.76,-1.7 -0.23,-0.36 -0.27,-0.81 -0.44,-1.21 -0.35,-0.82 -0.76,-1.63 -1.26,-2.31 -0.56,-0.75 -1.61,-1.27 -2.53,-1.65 -0.43,-0.18 -0.86,-0.24 -1.21,-0.49 -1.23,-0.89 -0.72,-2.47 -3.13,-2.47 -0.14,0.14 -0.38,0.22 -0.49,0.38 -0.27,0.4 -0.04,1.84 0.22,2.2 -0.02,0.5 -0.24,0.53 -0.49,0.77 -0.44,-0.03 -0.74,-0.4 -1.21,-0.33 -0.57,0.09 -0.91,0.52 -1.37,0.71 -0.29,0.05 -0.59,0.11 -0.88,0.16 -0.54,0.2 -0.89,0.6 -1.32,0.88 -0.24,0.16 -0.42,0.16 -0.71,0.27 -0.72,0.28 -1.6,1.03 -1.81,1.81 -0.22,0.81 0.44,2.68 0.6,3.24 0.23,0.79 -0.19,1.79 0.16,2.47 0.61,1.18 2.7,0.93 3.02,2.03 0.36,0.55 -0.39,1.21 -0.16,2.03 0.19,0.68 0.74,1.11 0.99,1.7 0.14,0.33 0.07,0.66 0.16,1.04 0.13,0.5 0.35,0.99 0.49,1.43 0.1,0.31 0.05,0.57 0.16,0.88 0.36,0.95 1.36,1.26 1.87,2.03 0.39,0.59 0.4,1.49 0.77,2.09 0.51,0.82 1.38,1.67 2.14,2.25 0.35,0.27 0.56,0.74 0.82,1.1 0.32,0.43 0.73,0.52 1.15,0.82 0.85,-0.07 1.14,-0.7 1.7,-1.04 0.39,-0.24 1.06,-0.32 1.54,-0.44 0.93,-0.23 1.84,0.1 2.31,-0.55 0.35,-0.48 0.13,-1.24 0.33,-1.92 0.18,-0.64 0.6,-0.89 1.04,-1.26 0.41,0.01 0.62,0.17 0.71,0.49 0.02,0.02 0.05,0.73 0,0.93 -0.22,0.92 0.14,2.25 -0.33,2.97 -0.26,0.4 -1.49,1.36 -2.31,1.15 -0.33,-0.08 -0.94,-0.31 -1.43,-0.16 -1.07,0.32 -1.86,1.96 -2.09,3.13 -0.15,0.79 1.21,2.31 1.48,2.97 0.63,1.51 1.72,4.13 3.13,4.73 0.68,0.29 1.57,0.28 2.53,0.27 0.42,-0.04 0.84,-0.07 1.26,-0.11 0.8,-0.22 1.61,-0.4 2.36,-0.71 0.41,-0.17 0.86,-0.4 1.21,-0.66 0.64,-0.47 0.88,-1.23 2.03,-1.21 0.17,0.16 0.41,0.37 0.6,0.49 0.38,1.74 -0.24,3.13 -0.99,4.23 -0.37,0.35 -0.73,0.7 -1.1,1.04 -0.22,0.29 -0.42,0.61 -0.71,0.82 -0.48,0.34 -1.14,0.41 -1.48,0.88 -0.27,0.38 -0.24,0.96 -0.44,1.43 -0.23,0.54 -0.6,0.78 -0.6,1.59 0.19,0.2 0.44,0.45 0.6,0.66 0.25,0.03 0.46,0.18 0.77,0.11 0.68,-0.15 1.16,-0.48 1.7,-0.71 0.56,-0.24 1.08,-0.39 1.59,-0.66 0.38,-0.2 0.76,-0.48 1.21,-0.6 H 370 c 0.24,-0.05 0.65,-0.11 0.88,-0.16 h 0.88 c 0.74,-0.16 1.41,-0.37 2.09,-0.55 0.55,-0.05 1.1,-0.11 1.65,-0.16 0.58,-0.15 1.1,-0.49 1.65,-0.66 0.41,-0.13 0.78,-0.07 1.15,-0.22 0.62,-0.26 1.07,-0.82 1.76,-0.99 0.77,-0.19 1.38,0.51 1.87,0.71 0.43,0.18 0.81,0.1 1.32,0.22 1.13,0.27 2.77,0.66 3.74,-0.05 1.3,-0.95 -0.27,-2.7 -0.27,-4.12 0.22,-0.23 0.31,-0.57 0.6,-0.71 0.49,-0.24 1.16,0.14 1.48,0.27 1.09,0.45 1.54,1.28 2.42,1.92 0.24,0.18 0.61,0.6 1.1,0.49 0.4,-0.09 1.07,-0.58 1.37,-0.82 0.8,0.01 1.67,0.7 1.48,1.59 -0.09,0.41 -0.31,1.11 -0.16,1.7 0.21,0.85 0.75,1.37 0.93,2.25 0.17,0.81 -0.73,2.6 -0.93,3.24 -0.29,0.9 0.24,1.74 0.05,2.53 -0.15,0.67 -0.44,1.06 -0.44,1.92 0.2,0.21 0.31,0.5 0.55,0.66 0.37,0.13 0.73,0.26 1.1,0.38 0.48,0.28 0.82,0.78 1.26,1.1 0.42,0.29 0.94,0.41 1.37,0.71 0.93,-0.02 1.81,-1.28 2.14,-1.92 0.23,-0.45 0.24,-1.01 0.49,-1.43 0.36,-0.58 0.95,-1 1.21,-1.7 0.22,-0.6 0.04,-1.47 0.27,-2.03 0.27,-0.46 0.55,-0.92 0.82,-1.37 0.34,-0.78 0.55,-1.77 0.82,-2.53 0.2,-0.55 0.07,-1.46 0.38,-1.92 0.45,-0.67 1.41,-0.55 2.09,-0.99 0.88,-0.57 1.41,-2.13 1.7,-3.24 0.02,-0.31 0.04,-0.62 0.05,-0.93 0.1,-0.44 0.2,-1.15 0.05,-1.65 -0.37,-1.29 -1.37,-2.21 -1.87,-3.41 -0.3,-0.71 0.09,-2.27 -0.33,-2.91 0.01,-1.02 0.9,-0.78 1.26,-0.27 0.48,0.67 0.2,1.18 0.44,2.03 0.22,0.77 0.79,1.68 1.21,2.31 0.53,0.79 1.45,1.25 1.98,2.03 0.55,0.83 0.76,1.9 1.32,2.69 0.46,0.65 1.14,1.11 1.43,1.92 0.41,1.13 -0.53,2.53 -0.77,3.35 -0.22,0.76 0.06,1.47 0.6,1.65 0.56,0.34 1.3,-0.28 1.7,-0.38 0.71,0.02 1.43,0.04 2.14,0.05 1.28,-0.32 2.39,-0.9 3.52,-1.32 1.39,-0.51 2.27,0.71 3.68,0.33 0.48,-0.13 1.07,-0.29 1.54,-0.49 0.62,-0.27 1.07,-0.7 1.81,-0.88 0.52,-0.12 1.09,0.18 1.48,0.27 0.65,0.15 2.25,-0.54 2.64,-0.77 0.72,-0.42 1.11,-1.05 1.59,-1.7 0.29,-0.38 0.72,-0.58 1.1,-0.88 0.31,0.05 0.35,0.19 0.55,0.33 0.04,0.71 -0.68,1.45 -1.04,1.98 -0.61,0.87 -1.46,1.67 -2.31,2.31 -0.26,0.2 -0.41,0.57 -0.66,0.77 -0.58,0.46 -1.41,0.92 -2.2,1.15 -1.46,0.43 -3.31,-0.84 -4.56,-0.05 -0.7,0.44 -1.03,1.32 -1.7,1.76 -0.26,0.17 -0.47,0.11 -0.82,0.22 -0.4,0.12 -0.87,0.47 -1.1,0.77 -0.35,0.46 -0.75,1 -0.99,1.54 -0.19,0.43 -0.24,0.86 -0.49,1.21 -0.84,1.16 -2.69,1.25 -3.85,2.09 -0.33,0.24 -0.71,0.7 -0.82,1.15 -0.14,0.56 0.25,0.86 -0.05,1.32 -0.35,0.52 -1.21,0.83 -1.7,1.21 -0.5,0.38 -1.23,1.24 -1.59,1.76 -0.14,0.2 -0.18,0.47 -0.33,0.66 -0.01,1.41 1.4,1.54 2.25,2.09 0.33,0.21 0.42,0.53 0.66,0.82 -0.17,0.99 -1.68,0.8 -2.2,1.59 -0.16,0.25 -0.15,0.54 -0.27,0.82 -0.43,1.01 -0.98,1.88 -1.26,3.13 -0.13,0.59 0.07,1.3 0.16,1.76 0.05,0.26 -0.02,0.66 -0.05,0.82 -0.08,0.38 0.02,0.89 0,1.26 -0.16,0.16 -0.33,0.33 -0.49,0.49 -0.44,0.15 -0.78,-0.2 -1.04,-0.27 -0.29,-0.09 -0.44,-0.01 -0.71,0 -0.19,0.18 -0.5,0.28 -0.66,0.49 -0.31,0.42 -0.51,0.91 -0.82,1.32 -0.55,0.73 -1.45,1.11 -1.7,2.14 -0.13,0.53 0.54,2.13 0.71,2.47 0.32,0.62 0.75,1.25 0.93,1.92 0.12,0.44 -0.04,0.85 0.11,1.21 0.32,0.78 1.11,1.17 1.43,1.92 0.21,0.49 0.07,1.18 0.27,1.7 0.15,0.4 0.5,0.55 0.77,0.82 0.59,0 0.99,-0.32 1.65,-0.16 0.74,0.17 1.63,0.16 2.25,-0.22 0.61,-0.37 0.97,-1.15 1.65,-1.43 0.65,-0.27 1.49,0.17 2.14,-0.16 0.45,-0.23 0.67,-0.7 1.04,-0.99 0.38,-0.29 0.82,-0.48 1.21,-0.77 0.56,-0.41 0.92,-1.12 1.37,-1.65 0.23,-0.27 0.65,-0.5 0.93,-0.71 0.15,-0.11 0.21,-0.3 0.33,-0.44 0.53,-0.6 1.1,-1.1 1.59,-1.76 0.34,-0.45 0.89,-0.58 1.37,-0.88 0.41,-0.26 0.63,-0.7 0.99,-0.99 0.35,-0.28 0.86,-0.56 1.1,-0.93 0.37,-0.59 -0.24,-1.19 -0.05,-1.92 0.14,-0.53 0.51,-0.96 0.71,-1.43 0.19,-0.44 0.25,-0.88 0.49,-1.26 0.38,-0.61 0.86,-1.5 1.43,-1.92 0.51,-0.38 1.16,-0.76 1.54,-1.26 0.53,-0.7 1.11,-1.41 1.59,-2.14 0.75,-1.14 0.54,-2.6 1.76,-3.35 1.96,-1.22 2.11,2.06 3.85,1.59 0.85,-0.23 2.26,-1.67 2.69,-2.36 0.17,-0.28 0.2,-0.62 0.38,-0.88 0.42,-0.59 1.18,-0.89 1.37,-1.7 0.19,-0.76 -0.68,-1.11 -0.71,-1.92 0.2,-0.2 0.33,-0.54 0.6,-0.66 0.34,-0.15 0.76,-0.05 1.04,-0.22 0.34,-0.2 0.42,-0.53 0.66,-0.82 -0.09,-1.23 -1.21,-1.17 -1.87,-1.81 -0.26,-0.26 -0.37,-0.59 -0.6,-0.88 0.01,-1.05 0.76,-1.61 0.99,-2.58 0.23,-1.01 -0.52,-1.71 -0.77,-2.31 -0.04,-0.2 -0.07,-0.4 -0.11,-0.6 -0.17,-0.5 -0.46,-1.17 -0.77,-1.59 0,-0.72 0.33,-0.79 0.71,-1.1 1.14,0.06 2.23,0.67 2.97,1.21 0.51,0.38 0.94,0.91 1.65,1.1 0.5,0.14 1.11,-0.07 1.43,-0.16 0.96,-0.27 1.69,-0.46 2.2,-1.15 0.51,-0.69 0.74,-1.41 1.48,-1.87 0.84,-0.51 2.55,-0.57 3.52,-0.99 0.85,-0.37 1.4,-1.08 2.09,-1.59 0.89,-0.67 1.8,-1.31 2.69,-1.98 0.31,-0.31 0.62,-0.62 0.93,-0.93 0.79,-0.6 1.64,-1.21 1.98,-2.25 0.15,-0.46 -0.01,-0.99 0.11,-1.54 0.15,-0.66 0.5,-1.45 0.27,-2.25 -0.22,-0.76 -0.87,-1.64 -0.6,-2.8 0.3,-1.32 0.98,-1.48 1.59,-2.36 0.36,-0.51 0.43,-1.21 0.77,-1.76 0.4,-0.41 0.99,-1.13 0.66,-2.03 z M 413.33,155.7 c 0.17,0.4 0.05,0.89 0.16,1.37 0.28,1.25 0.28,2.69 1.81,2.69 0.18,-0.19 0.45,-0.34 0.55,-0.6 0.02,-0.37 0.04,-0.73 0.05,-1.1 0.21,-0.92 0,-1.89 0.22,-2.86 0.09,-0.38 0.08,-0.86 0.22,-1.21 0.17,-0.4 0.48,-0.81 0.6,-1.26 0.25,-0.92 -0.52,-1.31 -0.33,-2.14 0.24,-1.05 0.86,-2.23 0.55,-3.68 -0.3,-1.42 0.81,-2.64 0.05,-3.9 -0.18,-0.3 -0.4,-0.56 -0.77,-0.66 -0.08,-0.06 -0.23,-0.06 -0.38,-0.05 -0.16,0.17 -0.29,0.32 -0.44,0.49 0.08,0.65 0.59,1.4 -0.27,1.65 -0.27,0.15 -0.94,-0.08 -1.26,0.11 -0.51,0.31 -0.94,1.12 -1.1,1.76 0.02,0.48 0.04,0.95 0.05,1.43 -0.01,0.52 -0.08,0.99 0.11,1.43 0.19,0.45 1.49,1.57 1.21,2.09 -0.05,0.45 -0.34,0.5 -0.55,0.77 -0.68,0.03 -1.39,-0.07 -1.59,0.55 -0.2,0.33 -0.06,1.41 0.05,1.7 0.25,0.55 0.82,0.87 1.06,1.42 z m -14.63,37.77 c 0.15,0.55 0.46,1.03 0.66,1.48 0.27,0.61 0.45,1.45 0.6,2.09 0.21,0.87 -0.72,1.68 -0.93,2.25 -0.41,1.1 0.41,2.18 0.16,3.19 -0.17,0.7 -0.55,1.12 -0.49,1.92 0.19,0.2 0.31,0.45 0.55,0.6 0.57,0.35 1.2,0.3 1.43,0.99 0.02,0.4 0.04,0.81 0.05,1.21 0.32,1.22 0.61,2.51 1.7,2.97 0.7,0.29 2.6,0.42 3.35,0.11 0.46,-0.19 0.84,-0.58 1.26,-0.77 0.7,-0.32 1.34,-0.36 1.76,-0.93 0.61,-0.83 0.7,-1.84 1.54,-2.47 1.1,-0.83 1.74,-1.69 2.2,-3.19 0.11,-0.35 0.34,-0.98 0.22,-1.48 -0.26,-1.09 -0.76,-1.39 -1.26,-2.14 -0.38,-0.57 -0.51,-1.31 -0.88,-1.87 -0.22,-0.33 -0.59,-0.62 -0.82,-0.93 -0.33,-0.46 -0.61,-1.18 -0.82,-1.7 -0.26,-0.63 -0.06,-1.26 -0.05,-1.98 0.01,-1.03 0.04,-2.29 -0.16,-3.19 v -1.15 c -0.16,-0.71 -0.32,-1.37 -0.66,-1.92 -0.43,-0.71 -0.99,-1.41 -1.21,-2.31 -0.2,-0.83 0.41,-1.5 0.6,-2.03 0.14,-0.37 0.13,-0.75 0.27,-1.1 0.28,-0.65 0.68,-1.34 1.1,-1.87 0.21,-0.26 0.61,-0.4 0.88,-0.6 0.55,-0.4 1.64,-1.33 2.03,-1.87 0.45,-0.61 0.56,-1.52 0.88,-2.25 0.6,-1.37 1.37,-2.53 1.76,-4.18 0.02,-0.31 0.04,-0.62 0.05,-0.93 0.1,-0.33 0.29,-0.7 0.38,-1.04 0.02,-0.48 0.04,-0.95 0.05,-1.43 0.4,-1.67 -0.39,-4.03 -1.98,-4.01 -0.13,0.17 -0.37,0.27 -0.44,0.49 -0.17,0.52 0.23,0.87 0.11,1.37 -0.11,0.47 -0.27,0.93 -0.38,1.43 -0.11,0.48 0.11,0.68 -0.11,1.04 -0.39,0.65 -1.37,0.81 -1.81,1.43 -0.24,0.44 -0.48,0.88 -0.71,1.32 -0.24,0.33 -0.64,0.59 -0.82,0.99 -0.18,0.39 -0.17,0.87 -0.38,1.21 -0.29,0.46 -0.92,0.71 -1.1,1.26 -0.07,0.11 -0.06,0.36 -0.05,0.55 0.4,0.37 0.92,0.8 1.04,1.43 -0.06,0.07 -0.05,0.19 -0.11,0.27 -0.14,0.21 -0.41,0.28 -0.6,0.44 -0.56,-0.03 -0.8,-0.32 -1.26,-0.44 -0.74,-0.19 -1.23,0.35 -1.81,0.27 -0.51,-0.06 -1.07,-0.52 -1.65,-0.27 -0.62,0.26 -0.78,0.97 -1.15,1.48 -0.38,0.53 -0.99,0.89 -1.26,1.54 -0.25,0.57 -0.19,1.23 -0.38,1.87 -0.29,0.68 -0.59,1.36 -0.88,2.03 -0.17,0.51 0.03,1.11 -0.11,1.7 -0.13,0.53 -0.31,1.08 -0.44,1.65 -0.22,0.95 0.38,1.74 0.16,2.69 -0.12,0.51 -0.27,1.03 -0.38,1.54 -0.18,0.76 0.14,1.65 0.27,2.25 0,0.33 0.02,0.66 0.03,0.99 z m 17.49,18.36 c -0.54,-0.35 -2.17,-0.73 -3.08,-0.71 -0.2,0.16 -0.49,0.19 -0.71,0.33 -0.5,0.31 -1.44,1.06 -1.76,1.54 -0.22,0.33 -0.22,0.69 -0.38,1.1 -0.27,0.68 -0.96,2.43 -0.6,3.3 0.24,0.57 0.82,0.91 1.15,1.37 0.39,0.53 0.6,1.18 0.99,1.7 0.56,0.75 1.49,1.26 2.14,1.92 0.7,0.7 0.65,2.07 1.26,2.86 0.23,0.29 0.86,0.57 1.48,0.44 0.1,-0.02 0.36,-0.1 0.55,-0.05 1.03,0.23 2.73,0.93 3.74,0.27 0.41,-0.26 0.63,-0.74 0.99,-1.04 0.6,-0.51 1.32,-0.8 1.65,-1.59 0.34,-0.82 0.22,-1.86 0.55,-2.64 0.23,-0.55 1.13,-1.59 0.99,-2.36 -0.18,-0.98 -0.95,-1.27 -1.43,-1.92 -0.44,-0.61 -0.83,-1.31 -1.43,-1.76 -0.59,-0.44 -1.39,-0.57 -2.03,-0.99 -0.25,-0.16 -0.49,-0.4 -0.82,-0.49 -0.73,-0.2 -1.13,0.34 -1.76,0.05 -0.57,-0.26 -0.97,-0.99 -1.49,-1.33 z m -33.37,45.58 c -0.26,-0.05 -0.51,-0.11 -0.77,-0.16 -0.48,-0.19 -0.75,-0.54 -1.43,-0.55 -0.15,0.12 -0.34,0.16 -0.49,0.27 -0.28,0.21 -0.63,0.83 -0.77,1.15 -0.2,0.48 -0.16,1.04 -0.55,1.32 -0.37,0.26 -0.91,0 -1.43,0.16 -0.57,0.18 -0.92,0.61 -1.43,0.82 -0.31,0.13 -0.69,0.05 -1.04,0.16 -0.56,0.17 -1.46,0.82 -1.21,1.76 0.1,0.37 0.36,0.72 0.49,1.04 0.26,0.62 0.27,1.3 0.6,1.81 0.34,0.52 0.92,0.85 1.43,1.21 0.41,0.3 0.94,0.93 1.81,0.71 0.57,-0.14 1.07,-0.47 1.54,-0.71 0.59,-0.31 1.23,-0.64 1.48,-1.26 0.43,-1.04 -0.54,-2.12 -0.55,-3.08 0.11,-0.13 0.22,-0.26 0.33,-0.38 0.3,-0.05 0.7,0.06 0.99,0 0.85,-0.17 1.52,-0.71 1.92,-1.32 0.12,-0.18 0.27,-0.49 0.33,-0.66 0.43,-1.09 -0.61,-2.02 -1.25,-2.29 z"
   class="st5" />
			</g>

</svg>